<svg width="285" height="227" viewBox="0 0 285 227" fill="none" xmlns="http://www.w3.org/2000/svg">
<path d="M69.6422 19.5795L59.2527 23.3657C48.6021 27.2466 40.5275 38.1859 37.579 55.2309L47.969 51.4453C50.9181 34.3998 58.9922 23.4599 69.6422 19.5795Z" fill="#FE8E8E"/>
<path d="M111.277 166.143L121.666 162.357C111.152 166.189 98.1272 163.141 85.0443 152.297C58.7065 130.467 42.1086 85.3149 47.9685 51.4449L37.5785 55.2305C31.7186 89.1005 48.3159 134.253 74.6542 156.083C87.7372 166.927 100.762 169.976 111.277 166.143Z" fill="#FF5F5F"/>
<path d="M47.9685 51.4449L37.5785 55.2305C31.7176 89.1004 48.317 134.253 74.6537 156.083C87.7372 166.927 100.761 169.975 111.277 166.143L121.666 162.357C111.152 166.189 98.1272 163.141 85.0437 152.297C58.7065 130.467 42.1081 85.3154 47.9685 51.4449Z" fill="#FE8E8E"/>
<path d="M47.9686 51.4444C42.1086 85.3144 58.7065 130.467 85.0442 152.297C111.38 174.125 137.48 164.364 143.34 130.493C149.201 96.6213 132.602 51.469 106.266 29.6402C79.9288 7.81015 53.8297 17.5724 47.9686 51.4444Z" fill="#FF5F5F"/>
<path d="M57.2008 59.0966C52.4751 86.4093 65.86 122.821 87.0987 140.424C108.336 158.026 129.383 150.155 134.109 122.842C138.835 95.5271 125.449 59.1163 104.213 41.5139C82.9737 23.9096 61.9271 31.7822 57.2008 59.0966Z" fill="#E9ECF5"/>
<path d="M67.3401 67.5012C63.8611 87.6125 73.7168 114.422 89.3551 127.384C104.992 140.345 120.489 134.549 123.969 114.438C127.449 94.3258 117.592 67.5159 101.956 54.5552C86.3171 41.5921 70.8203 47.389 67.3401 67.5012Z" fill="#FF5F5F"/>
<path d="M76.7701 75.3161C74.45 88.729 81.0233 106.611 91.4532 115.255C101.882 123.9 112.219 120.034 114.539 106.621C116.86 93.2072 110.287 75.3258 99.8571 66.6815C89.4273 58.036 79.0913 61.9021 76.7701 75.3161Z" fill="#E9ECF5"/>
<path d="M85.1865 82.2916C83.8996 89.7271 87.5439 99.6393 93.3259 104.432C99.1074 109.224 104.837 107.081 106.123 99.6457C107.41 92.2096 103.765 82.2974 97.9837 77.5052C92.2028 72.7126 86.4729 74.8554 85.1865 82.2916Z" fill="#FF5F5F"/>
<path d="M160.306 111.306C160.306 111.306 156.984 120.23 160.382 124.448C162.395 126.949 165.985 122.741 165.985 122.741C165.985 122.741 165.74 117.432 164.061 115.583C161.003 112.21 160.306 111.306 160.306 111.306Z" fill="#FFD7CB"/>
<path d="M175.989 119.363C175.989 119.363 170.868 127.169 172.764 132.242C173.889 135.251 179.415 131.297 179.415 131.297C179.415 131.297 180.059 127.27 179.048 124.986C177.207 120.823 175.989 119.363 175.989 119.363Z" fill="#FFD7CB"/>
<path d="M202.158 84.8284C202.158 84.8284 196.629 90.6701 196.561 97.6037C196.448 109.086 197.396 109.252 200.359 115.639C203.323 122.027 210.788 119.8 210.788 119.8L202.158 84.8284Z" fill="#FFA192"/>
<path d="M222.724 103.205C216.897 101.49 211.07 99.7721 205.243 98.0569C202.04 97.1146 198.566 95.7375 195.195 96.5845C191.362 97.549 188.326 101.061 185.596 103.689C181.634 107.499 177.825 111.628 175.532 116.688C173.285 121.652 170.185 132.832 177.344 131.773C183.108 130.92 189.477 125.938 189.602 120.128C192.971 119.547 195.79 117.644 197.541 114.787C200.575 117.466 211.647 118.302 216.013 116.132C223.334 112.492 223.703 103.494 222.724 103.205Z" fill="#FF9085"/>
<path d="M210.621 83.9388C203.82 83.1908 197.02 82.4424 190.22 81.6954C186.484 81.2855 182.357 80.4479 178.789 82.0555C174.731 83.8837 172.064 88.3784 169.558 91.8324C165.921 96.8425 162.516 102.174 160.979 108.237C159.47 114.186 157.996 124.333 165.986 122.741C173.156 121.314 178.552 113.569 177.543 107.104C181.158 105.792 184.924 102.208 186.301 98.6951C191.399 100.555 201.334 102.868 205.742 99.5998C213.139 94.113 211.765 84.0639 210.621 83.9388Z" fill="#FFA192"/>
<path d="M201.143 65.1641C201.143 65.1641 215.641 74.2694 223.314 78.6495C233.657 84.5514 236.104 86.1068 240.285 94.0252C244.467 101.944 251.164 116.64 251.164 116.64L221.999 129.361L205.247 115.075C205.247 115.075 199.273 110.373 197.961 100.933C197.021 94.1695 199.719 89.0341 199.719 89.0341L201.143 65.1641Z" fill="#FFC8B5"/>
<path d="M151.545 68.5546C151.545 68.5546 142.241 69.3465 139.422 73.9699C137.751 76.7114 142.925 78.6652 142.925 78.6652C142.925 78.6652 147.838 76.6377 149.01 74.4328C151.149 70.4139 151.545 68.5546 151.545 68.5546Z" fill="#FFD7CB"/>
<path d="M224.181 79.1209C212.049 71.2814 193.484 59.9765 188.496 59.6489C172.999 58.6307 158.526 64.9221 144.587 71.9461C140.916 73.7958 140.947 76.28 141.345 76.8157C147.753 85.4707 157.546 82.5683 162.382 78.3419C168.053 80.3392 179.194 79.3897 183.457 75.213C189.052 81.726 197.213 87.5265 205.812 85.8474C206.536 85.7056 225.534 79.9944 224.181 79.1209Z" fill="#FFC8B5"/>
<path d="M251.164 116.64C260.361 138.088 260.055 139.337 267.849 147.334L267.849 226.174L237.525 176.855C235.4 174.352 230.141 167.942 226.873 167.636C221.985 167.177 210.862 162.223 202.835 152.26C190.08 136.43 212.639 113.993 212.639 113.993C212.639 113.993 216.094 111.779 221.001 109.736C230.599 111.603 248.221 115.187 251.164 116.64Z" fill="#FFC8B5"/>
<path d="M176.793 84.4329C190.663 78.8275 204.41 71.45 216.084 71.1775C227.759 70.905 226.319 77.6241 220.81 83.406L176.793 84.4329Z" fill="#FE4848"/>
<path d="M122.794 84.7806L152.738 82.5083C152.499 82.512 152.262 82.6226 152.054 82.8338L122.794 84.8748V84.7806Z" fill="#BFBEED"/>
<path d="M122.794 84.8745L152.053 82.8335C151.944 82.9432 151.843 83.0813 151.753 83.2468L122.794 85.0098V84.8745Z" fill="#EDECF8"/>
<path d="M122.794 85.8577V85.0101L151.753 83.2471C151.385 83.9192 151.291 84.8711 151.461 85.7023L122.794 85.8577Z" fill="#EDECF8"/>
<path d="M122.794 85.8581L151.461 85.7026C151.535 86.0629 151.659 86.4003 151.831 86.682C152.115 87.1447 152.478 87.3705 152.834 87.3641L122.794 86.4205V85.8581Z" fill="#BFBEED"/>
<path d="M151.752 83.2472C151.224 84.2128 151.259 85.7491 151.831 86.6818C152.403 87.6154 153.293 87.587 153.82 86.6223C154.346 85.6604 154.312 84.1232 153.74 83.1905C153.169 82.2569 152.278 82.2843 151.752 83.2472Z" fill="#23232A"/>
<path d="M162.385 81.2007L142.813 81.603C142.288 81.6131 141.769 81.9716 141.383 82.6766L160.956 82.2751C161.34 81.571 161.859 81.2117 162.385 81.2007Z" fill="#FFC400"/>
<path d="M162.385 81.2007L142.813 81.603C142.467 81.6094 142.124 81.7676 141.82 82.0758L161.392 81.6744C161.695 81.3662 162.038 81.208 162.385 81.2007Z" fill="#FFC400"/>
<path d="M161.392 81.6738L141.82 82.0753C141.663 82.2353 141.516 82.4355 141.383 82.676L160.955 82.2746C161.087 82.0341 161.233 81.8339 161.392 81.6738Z" fill="#FFC400"/>
<path d="M142.96 88.6566L162.533 88.2551C162.012 88.2652 161.485 87.9351 161.071 87.2621C160.243 85.9097 160.189 83.6757 160.955 82.2739L141.383 82.6754C140.618 84.0772 140.672 86.3102 141.499 87.6626C141.913 88.3374 142.44 88.6675 142.96 88.6566Z" fill="#FFC400"/>
<path d="M160.955 82.2744L141.383 82.6749C140.85 83.6515 140.715 85.0332 140.962 86.2375L160.533 85.8361C160.286 84.6318 160.421 83.251 160.955 82.2744Z" fill="#FFC400"/>
<path d="M160.533 85.8369L140.962 86.2384C141.069 86.7623 141.25 87.2534 141.5 87.663C141.913 88.3369 142.44 88.667 142.961 88.6561L162.533 88.2546C162.012 88.2656 161.485 87.9346 161.072 87.2616C160.821 86.8519 160.64 86.3609 160.533 85.8369Z" fill="#FFA200"/>
<path d="M160.955 82.2746C160.189 83.6755 160.243 85.9094 161.071 87.2619C161.902 88.6161 163.196 88.5823 163.961 87.1814C164.727 85.7805 164.673 83.5466 163.843 82.1914C163.015 80.839 161.721 80.8728 160.955 82.2746Z" fill="#FF9900"/>
<path d="M176.561 84.3358C190.678 89.2874 204.752 96.0157 216.428 95.7423C228.102 95.4698 226.35 88.8256 220.577 83.3071L176.561 84.3358Z" fill="#FE4848"/>
<path d="M220.725 83.0852L162.752 81.9468C162.35 81.955 161.952 82.2312 161.659 82.7688L220.725 83.0852Z" fill="#FE8E8E"/>
<path d="M220.725 83.0857L162.752 81.9473C162.486 81.9528 162.224 82.0744 161.992 82.3103L220.725 83.0857Z" fill="#FE8E8E"/>
<path d="M220.725 83.086L161.992 82.3115C161.871 82.4331 161.758 82.5858 161.659 82.7696L220.725 83.086Z" fill="#FF5F5F"/>
<path d="M162.859 87.3435L220.725 83.0859L161.658 82.7695C161.072 83.8412 161.11 85.5503 161.746 86.5863C162.061 87.1002 162.462 87.3517 162.859 87.3435Z" fill="#FF5F5F"/>
<path d="M220.725 83.0859L161.659 82.7695C161.25 83.5166 161.145 84.5746 161.334 85.4982L220.725 83.0859Z" fill="#FF5F5F"/>
<path d="M220.725 83.0859L161.334 85.4982C161.416 85.8978 161.553 86.2736 161.746 86.5863C162.061 87.1002 162.463 87.3517 162.86 87.3435L220.725 83.0859Z" fill="#FE8E8E"/>
<path d="M176.824 82.9305C184.6 77.4669 190.2 70.2796 201.876 70.0071C213.55 69.7337 219.711 77.4559 220.725 83.086L176.824 82.9305Z" fill="#FF5F5F"/>
<path d="M176.881 85.3194C184.903 90.4136 190.588 96.3043 202.263 96.0318C213.938 95.7593 219.901 88.935 220.651 83.2646L176.881 85.3194Z" fill="#FE8E8E"/>
<path d="M213.176 103.424C208.581 101.339 203.33 100.852 197.957 100.112C185.182 98.3554 179.034 92.2745 168.575 85.8125C163.138 82.4511 157.307 78.8083 149.873 81.7053C145.097 83.5657 144.485 88.5224 147.586 92.5702C152.194 98.5851 159.349 102.022 165.558 106.131C174.401 111.985 182.848 118.915 187.845 128.463C191.516 135.477 195.973 147.856 205.653 153.52C210.766 156.512 210.661 150.229 214.488 146.19C224.614 135.508 224.347 108.114 213.176 103.424Z" fill="#FFC8B5"/>
<path d="M160.404 86.6168C160.404 86.6168 154.077 81.3847 148.295 84.2532C142.514 87.121 148.168 93.7637 152.805 96.2727C159.854 94.4007 160.404 86.6168 160.404 86.6168Z" fill="#FFD7CB"/>
</svg>
