<svg width="305" height="252" viewBox="0 0 305 252" fill="none" xmlns="http://www.w3.org/2000/svg">
<path d="M144.912 51.374L148.175 56.7694L147.78 56.8534L144.517 51.458L144.912 51.374Z" fill="#474EBB"/>
<path d="M144.517 51.4579L147.78 56.8532L147.642 57.1066L144.38 51.7111L144.517 51.4579Z" fill="#474EBB"/>
<path d="M144.38 51.711L147.642 57.1065L143.878 63.743L140.615 58.3475L144.38 51.711Z" fill="#474EBB"/>
<path d="M113.619 88.5906L110.356 83.195C109.445 81.6884 109.648 79.558 110.828 77.3959C111.57 76.0344 112.7 74.6602 114.264 73.3531C114.336 73.2935 114.408 73.2348 114.48 73.1768C117.408 70.819 120.255 69.8226 122.877 69.7467C124.981 69.7087 126.842 70.3204 128.309 71.3197C128.404 71.3844 128.497 71.4509 128.589 71.519L131.852 76.9145C131.76 76.8464 131.666 76.78 131.571 76.7152C130.104 75.716 128.243 75.1042 126.14 75.1422C123.518 75.2179 120.67 76.2145 117.743 78.5723C117.671 78.6303 117.599 78.6891 117.527 78.7487C115.963 80.0557 114.833 81.43 114.09 82.7915C112.911 84.9534 112.708 87.0838 113.619 88.5906Z" fill="#474EBB"/>
<path d="M130.174 71.9235L133.436 77.3189C132.769 77.3319 132.245 77.2058 131.852 76.9141L128.589 71.5186C128.983 71.8103 129.506 71.9365 130.174 71.9235Z" fill="#474EBB"/>
<path d="M78.4057 103.37L81.6683 108.765L61.9875 109.22L58.725 103.824L78.4057 103.37Z" fill="#474EBB"/>
<path d="M140.615 58.3477L143.878 63.7433L137.606 75.2866L134.344 69.891L140.615 58.3477Z" fill="#474EBB"/>
<path d="M134.344 69.8911L137.606 75.2866C137.504 75.3943 137.442 75.4568 137.378 75.5182C136.282 76.568 134.724 77.2678 133.436 77.3193L130.174 71.9239C131.461 71.8722 133.019 71.1726 134.115 70.1228C134.179 70.0614 134.242 69.9989 134.344 69.8911Z" fill="#474EBB"/>
<path d="M114.997 89.919C114.407 89.5504 113.958 89.0936 113.641 88.5703L110.379 83.1747C110.695 83.6982 111.145 84.1549 111.734 84.5235C111.787 84.6105 111.857 84.7265 111.909 84.8135C112.875 86.4098 113.84 88.0057 114.805 89.602C114.869 89.7078 114.933 89.8134 114.997 89.919Z" fill="#F0B324"/>
<path d="M114.997 89.9191C114.992 89.9142 114.988 89.9053 114.985 89.8995C114.972 89.8787 114.96 89.858 114.947 89.8373C114.896 89.7524 114.845 89.6677 114.793 89.5829C113.774 87.8963 112.754 86.21 111.734 84.5235C111.752 84.5348 111.77 84.5461 111.789 84.5572L115.051 89.9527C115.033 89.9415 115.015 89.9304 114.997 89.9191Z" fill="#F0B324"/>
<path d="M80.3121 104.174L83.5747 109.57C83.358 109.211 82.9761 108.948 82.4356 108.831C82.2079 108.782 81.952 108.759 81.6684 108.765L78.4058 103.37C78.6894 103.363 78.9452 103.386 79.173 103.436C79.7135 103.552 80.0954 103.816 80.3121 104.174Z" fill="#474EBB"/>
<path d="M116.868 90.5361C116.207 90.4512 115.604 90.2647 115.051 89.9531L111.789 84.5576C112.341 84.8694 112.945 85.0557 113.605 85.1406C114.693 86.9391 115.78 88.7375 116.868 90.5361Z" fill="#F0B324"/>
<path d="M117.908 90.5888C117.547 90.5948 117.2 90.5778 116.868 90.5352C115.78 88.7366 114.693 86.9381 113.606 85.1397C113.938 85.1822 114.284 85.1991 114.646 85.1933C115.733 86.9918 116.821 88.79 117.908 90.5888Z" fill="#F0B324"/>
<path d="M80.312 104.174L83.5746 109.569C83.9398 110.173 83.8365 111.048 83.2344 111.946L79.9718 106.55C80.5738 105.652 80.6773 104.778 80.312 104.174Z" fill="#93D1FF"/>
<path d="M117.908 90.5894C116.821 88.7906 115.733 86.9925 114.646 85.1939C114.657 85.1937 114.669 85.1934 114.68 85.1933C115.51 85.1714 116.394 85.0209 117.331 84.7773C117.939 85.7832 118.547 86.789 119.156 87.795C119.635 88.5877 120.112 89.3816 120.593 90.1728C119.656 90.4162 118.773 90.5668 117.943 90.5888C117.931 90.5889 117.92 90.5892 117.908 90.5894Z" fill="#F0B324"/>
<path d="M82.1687 113.071C80.757 114.301 79.4113 115.473 78.3431 116.651C77.9421 115.987 77.5409 115.322 77.1395 114.658C76.4539 113.523 75.7681 112.389 75.082 111.254C76.15 110.076 77.495 108.905 78.9061 107.675C79.3408 107.296 79.6966 106.918 79.972 106.551L83.2346 111.946C82.9591 112.313 82.6033 112.692 82.1687 113.071Z" fill="#93D1FF"/>
<path d="M120.593 90.1728C119.506 88.3743 118.418 86.576 117.331 84.7773C118.835 84.3862 120.477 83.7553 122.253 83.0317C123.337 84.8229 124.42 86.6138 125.503 88.4051C124.42 86.6138 123.336 84.8228 122.253 83.0317C122.256 83.0304 122.259 83.0295 122.261 83.0283C122.308 83.0091 122.356 82.9898 122.446 82.9534C123.534 84.752 124.621 86.5502 125.709 88.349L125.709 88.3489C125.618 88.3854 125.571 88.4046 125.524 88.4239C123.745 89.1489 122.1 89.7811 120.593 90.1728Z" fill="#F0B324"/>
<path d="M125.709 88.3486C125.62 88.2014 125.531 88.0542 125.442 87.9071C124.903 87.0164 124.365 86.1259 123.826 85.2354C123.366 84.4746 122.909 83.7125 122.446 82.953C122.514 82.9259 122.606 82.8893 122.741 82.8361L126.003 88.2317C125.869 88.2849 125.777 88.3215 125.709 88.3486Z" fill="#F0B324"/>
<path d="M126.197 88.1639C126.132 88.1851 126.068 88.2078 126.003 88.2319L122.74 82.8364C122.805 82.8124 122.87 82.7896 122.934 82.7683C124.022 84.5669 125.109 86.3653 126.197 88.1639Z" fill="#F0B324"/>
<path d="M126.197 88.1636C125.109 86.3649 124.022 84.5665 122.934 82.768C123.127 82.7038 123.316 82.6516 123.502 82.6105C124.589 84.409 125.677 86.2073 126.763 88.0061C126.578 88.0472 126.389 88.0994 126.197 88.1636Z" fill="#F0B324"/>
<path d="M126.935 87.972C126.878 87.9826 126.821 87.9941 126.764 88.0067C126.152 86.9945 125.54 85.9826 124.928 84.9705C124.453 84.184 123.98 83.3962 123.502 82.611C123.559 82.5985 123.616 82.5869 123.672 82.5764C124.76 84.3748 125.847 86.1734 126.935 87.972Z" fill="#F0B324"/>
<path d="M126.935 87.9722C125.847 86.1737 124.76 84.3751 123.672 82.5766C123.909 82.533 124.142 82.5075 124.374 82.499C125.462 84.2975 126.55 86.0957 127.637 87.8945C127.405 87.903 127.172 87.9284 126.935 87.9722Z" fill="#F0B324"/>
<path d="M127.637 87.894C126.55 86.0953 125.462 84.297 124.375 82.4986C124.386 82.4982 124.398 82.4977 124.409 82.4973C124.429 82.497 124.448 82.4969 124.468 82.4971C125.555 84.2955 126.643 86.0939 127.73 87.8925C127.711 87.8925 127.691 87.8927 127.672 87.8929C127.66 87.8932 127.649 87.8935 127.637 87.894Z" fill="#F0B324"/>
<path d="M129.522 88.712C129.202 88.1809 128.564 87.8936 127.73 87.8926C126.643 86.094 125.555 84.2956 124.468 82.4971C125.301 82.4981 125.939 82.7856 126.26 83.3165C127.238 84.9351 128.543 87.0933 129.522 88.712Z" fill="#F0B324"/>
<path d="M78.3431 116.652C76.7664 118.373 75.729 120.126 75.877 121.983C74.7894 120.184 73.702 118.386 72.6145 116.587C72.4665 114.731 73.5039 112.977 75.0806 111.256C75.0812 111.256 75.0815 111.255 75.0821 111.254C75.6971 112.271 76.3118 113.288 76.9265 114.306C77.3989 115.087 77.8711 115.869 78.3431 116.652Z" fill="#93D1FF"/>
<path d="M126.295 83.329C127.383 85.1275 128.47 86.9259 129.558 88.7245C129.709 88.9743 129.78 89.2732 129.76 89.6119L126.497 84.2164C126.518 83.8779 126.446 83.5787 126.295 83.329Z" fill="#474EBB"/>
<path d="M75.877 121.983C75.9269 122.613 76.1096 123.175 76.4046 123.663L73.1421 118.268C72.8471 117.78 72.6646 117.217 72.6146 116.587C73.1581 117.486 73.7016 118.385 74.2452 119.284C74.5274 119.751 74.8096 120.217 75.0917 120.684C75.2911 121.014 75.4904 121.343 75.6898 121.673C75.7459 121.766 75.8437 121.879 75.877 121.983Z" fill="#93D1FF"/>
<path d="M76.4051 123.664C75.3177 121.866 74.2302 120.067 73.1426 118.269C74.0628 119.791 76.0753 120.598 78.5693 120.54C80.1334 120.504 81.8861 120.128 83.6787 119.375C90.5479 116.488 92.6153 111.481 91.9248 107.486C91.6294 105.769 93.9762 103.537 96.3561 103.037C96.6404 102.977 96.9253 102.942 97.206 102.935L100.469 108.331C100.188 108.337 99.9029 108.372 99.6187 108.432C97.2386 108.932 94.8918 111.165 95.1874 112.881C95.8779 116.876 93.8106 121.883 86.9414 124.77C85.1486 125.524 83.3959 125.9 81.8319 125.936C79.3378 125.994 77.3253 125.186 76.4051 123.664Z" fill="#474EBB"/>
<path d="M116.635 102.487L119.898 107.883L100.469 108.331L97.2064 102.936L116.635 102.487Z" fill="#474EBB"/>
<path d="M117.151 102.556L120.413 107.951L119.853 107.964L116.591 102.569L117.151 102.556Z" fill="#F0B324"/>
<path d="M117.15 102.556L120.413 107.952L110.414 126.361L107.151 120.965L117.15 102.556Z" fill="#93D1FF"/>
<path d="M110.62 127.204C109.532 125.406 108.445 123.607 107.358 121.809C107.213 121.57 107.14 121.286 107.151 120.965L110.414 126.361C110.403 126.682 110.476 126.966 110.62 127.204Z" fill="#93D1FF"/>
<path d="M116.591 102.568L117.151 102.556L107.151 120.965C107.115 122.009 107.97 122.664 109.277 122.633C109.83 122.621 110.464 122.485 111.146 122.205C113.954 121.051 116.686 119.994 118.999 119.94C120.106 119.915 121.118 120.12 121.995 120.655C125.288 122.662 124.095 127.849 119.465 131.716C116.409 134.269 113.434 135.327 110.826 135.387C108.564 135.439 106.578 134.739 105.059 133.612C104.662 133.317 104.13 133.191 103.538 133.204C102.234 133.234 100.636 133.942 99.5208 135.013L89.3951 153.655L89.1067 153.662L81.5273 153.838L68.3291 154.144C68.2425 154.168 68.1561 154.199 68.0685 154.227L51.953 154.599C51.8987 154.575 51.8459 154.548 51.786 154.527L30.9669 155.009L36.6228 144.599L51.6581 116.831L58.7238 103.908L79.1728 103.435C80.6244 103.749 80.9311 105.119 79.9717 106.55C79.6963 106.917 79.3405 107.296 78.9058 107.675C77.494 108.905 76.1485 110.077 75.0803 111.255C73.5037 112.976 72.4663 114.73 72.6142 116.586C72.8201 119.183 75.2746 120.616 78.5695 120.541C80.1336 120.504 81.8864 120.128 83.6789 119.375C90.5481 116.488 92.6155 111.481 91.9251 107.486C91.6296 105.769 93.9764 103.537 96.3564 103.037L108.655 102.752L116.591 102.568Z" fill="#DAF4FF"/>
<path d="M116.635 102.487L116.683 102.567L117.15 102.556L120.121 107.468L129.76 89.6123L126.497 84.2168L116.635 102.487Z" fill="#474EBB"/>
<path d="M160.516 86.775L163.779 92.1707C163.506 91.7203 163.109 91.3074 162.571 90.941C161.606 90.2835 160.297 89.9977 158.815 90.0319C155.48 90.109 151.27 91.8069 148.14 94.5356C144.422 97.7747 144.628 100.3 144.851 103.149C144.998 105.031 143.029 107.011 140.485 107.484L137.222 102.088C139.767 101.616 141.736 99.6354 141.588 97.7538C141.365 94.9041 141.16 92.3791 144.877 89.1401C148.008 86.4115 152.217 84.7135 155.553 84.6364C157.034 84.6021 158.343 84.8879 159.308 85.5453C159.846 85.9118 160.244 86.3246 160.516 86.775Z" fill="#F0B324"/>
<path d="M181.701 50.5241C181.758 50.5494 181.813 50.5776 181.876 50.5978L195.072 50.2951L202.65 50.12L202.939 50.1135L201.743 52.3155L178.329 95.4015L175.17 101.215L174.882 101.221L166.675 101.411L154.328 101.695C152.455 101.284 152.504 99.1185 154.689 97.3496C159.79 93.2199 163.178 88.1813 159.308 85.5449C158.343 84.8874 157.034 84.6017 155.552 84.636C152.217 84.7131 148.008 86.4111 144.877 89.1397C141.16 92.3789 141.365 94.9038 141.588 97.7534C141.735 99.635 139.767 101.615 137.222 102.088L125.15 102.366L117.151 102.555L116.591 102.568L126.484 84.3591C126.561 83.1519 125.717 82.4782 124.409 82.4972C123.868 82.5131 123.324 82.6206 122.74 82.836C122.426 82.9603 122.344 82.9943 122.261 83.0278C119.376 84.2033 116.846 85.1353 114.68 85.1926C113.585 85.2145 112.628 85.03 111.789 84.5565C109.419 83.1175 109.252 80.2847 110.828 77.3953C111.57 76.0338 112.7 74.6596 114.182 73.4207C114.336 73.2929 114.408 73.2341 114.481 73.1761C117.408 70.8182 120.255 69.8219 122.763 69.7488C124.981 69.7083 126.842 70.3199 128.309 71.3191C128.404 71.3838 128.498 71.4503 128.589 71.5184C128.983 71.8102 129.506 71.9363 130.09 71.9257C131.462 71.8716 133.02 71.172 134.115 70.1222C134.18 70.0608 134.242 69.9983 134.303 69.9347L140.616 58.3473L144.217 51.7185L144.518 51.4576L165.334 50.9789C165.418 50.9553 165.502 50.9249 165.585 50.8963L181.701 50.5241Z" fill="#FFDA3E"/>
<path d="M144.912 51.3738L144.517 51.4579L144.38 51.7111L140.616 58.3477L134.344 69.891C134.242 69.9988 134.18 70.0613 134.115 70.1227C133.019 71.1724 131.462 71.8722 130.174 71.9238C129.507 71.9369 128.983 71.8106 128.589 71.5189C128.497 71.4509 128.404 71.3844 128.309 71.3196C126.842 70.3203 124.981 69.7086 122.878 69.7466C120.255 69.8223 117.408 70.8189 114.481 73.1767C114.408 73.2347 114.337 73.2935 114.265 73.3531C112.7 74.66 111.57 76.0343 110.828 77.3959C109.252 80.2852 109.42 83.118 111.66 84.4812C112.628 85.0306 113.585 85.2151 114.627 85.1944C116.845 85.1358 119.376 84.2039 121.99 83.1393C122.344 82.9947 122.426 82.9608 122.508 82.927C123.324 82.6211 123.868 82.5135 124.351 82.4992C125.717 82.4788 126.561 83.1524 126.497 84.2169L116.635 102.487L97.2064 102.935C96.9256 102.941 96.6407 102.977 96.3565 103.036C93.9765 103.537 91.6297 105.769 91.9252 107.486C92.6157 111.481 90.5483 116.488 83.679 119.375C81.8863 120.128 80.1336 120.504 78.5695 120.54C75.2746 120.616 72.8201 119.183 72.6144 116.586C72.4665 114.73 73.5038 112.977 75.0805 111.256C76.1763 110.059 77.5326 108.879 78.9328 107.69C79.3707 107.318 79.7163 106.932 79.9719 106.551C80.9313 105.119 80.6246 103.749 79.1731 103.435C78.9452 103.386 78.6895 103.363 78.4059 103.369L58.7251 103.824L62.9934 95.9675L68.4543 85.9161L76.5836 70.953L82.4508 60.1537L84.4977 56.3861L86.3508 52.9754L86.4877 52.7232L87.3542 52.7032L107.536 52.2372L123.597 51.8663L142.957 51.4194L144.912 51.3738Z" fill="#FF698D"/>
<path d="M202.939 50.1139L206.202 55.5094L205.005 57.7113L201.743 52.3158L202.939 50.1139Z" fill="#F0B324"/>
<path d="M125.15 102.366L128.413 107.762L120.413 107.951L117.15 102.556L125.15 102.366Z" fill="#F0B324"/>
<path d="M137.222 102.088L140.485 107.484L128.413 107.762L125.151 102.366L137.222 102.088Z" fill="#F0B324"/>
<path d="M51.7862 154.528L55.0488 159.923L34.2295 160.405L30.967 155.009L51.7862 154.528Z" fill="#93D1FF"/>
<path d="M51.9532 154.6L55.2158 159.995C55.1615 159.971 55.1088 159.944 55.0489 159.923L51.7862 154.528C51.8461 154.548 51.8988 154.575 51.9532 154.6Z" fill="#93D1FF"/>
<path d="M156.457 106.353C155.37 104.554 154.282 102.756 153.195 100.958C153.41 101.314 153.79 101.577 154.328 101.695L157.591 107.091C157.053 106.973 156.673 106.71 156.457 106.353Z" fill="#F0B324"/>
<path d="M68.0686 154.227L71.3311 159.623L55.2157 159.995L51.9532 154.6L68.0686 154.227Z" fill="#93D1FF"/>
<path d="M68.3291 154.144L71.5917 159.539C71.5051 159.564 71.4187 159.595 71.331 159.623L68.0684 154.228C68.1561 154.199 68.2426 154.168 68.3291 154.144Z" fill="#93D1FF"/>
<path d="M166.675 101.411L169.937 106.806L157.591 107.09L154.328 101.695L166.675 101.411Z" fill="#F0B324"/>
<path d="M81.5273 153.838L84.7899 159.233L71.5918 159.539L68.3292 154.144L81.5273 153.838Z" fill="#93D1FF"/>
<path d="M201.743 52.3165L205.005 57.712L181.592 100.798L178.329 95.4025L201.743 52.3165Z" fill="#F0B324"/>
<path d="M123.294 121.94C124.382 123.738 125.469 125.537 126.557 127.335C128.042 129.792 126.566 133.905 122.728 137.112C119.671 139.664 116.696 140.722 114.089 140.783C111.826 140.835 109.84 140.135 108.322 139.008C107.924 138.713 107.393 138.586 106.8 138.6C105.496 138.63 103.898 139.338 102.783 140.409L99.5208 135.013C100.635 133.942 102.234 133.235 103.538 133.205C104.13 133.191 104.662 133.317 105.059 133.612C106.578 134.739 108.563 135.439 110.826 135.387C113.433 135.327 116.408 134.269 119.465 131.716C123.304 128.51 124.78 124.396 123.294 121.94Z" fill="#93D1FF"/>
<path d="M174.882 101.222L178.145 106.617L169.938 106.807L166.675 101.411L174.882 101.222Z" fill="#F0B324"/>
<path d="M175.17 101.216L178.433 106.612L178.145 106.617L174.882 101.222L175.17 101.216Z" fill="#F0B324"/>
<path d="M178.329 95.402L181.591 100.797L178.433 106.612L175.17 101.216L178.329 95.402Z" fill="#F0B324"/>
<path d="M89.1067 153.662L92.3692 159.058L84.7898 159.233L81.5272 153.838L89.1067 153.662Z" fill="#93D1FF"/>
<path d="M99.5208 135.014L102.783 140.409L92.6577 159.051L89.395 153.655L99.5208 135.014Z" fill="#93D1FF"/>
<path d="M89.3949 153.655L92.6576 159.051L92.3691 159.058L89.1066 153.662L89.3949 153.655Z" fill="#93D1FF"/>
<path d="M178.074 171.89C178.074 171.89 176.185 179.283 179.251 182.355C181.067 184.177 183.571 180.519 183.571 180.519C183.571 180.519 182.924 176.31 181.43 174.979C178.706 172.551 178.074 171.89 178.074 171.89Z" fill="#FFD7CB"/>
<path d="M191.255 176.978C191.255 176.978 187.838 183.633 189.779 187.514C190.931 189.816 194.998 186.196 194.998 186.196C194.998 186.196 195.169 182.933 194.169 181.199C192.349 178.038 191.255 176.978 191.255 176.978Z" fill="#FFD7CB"/>
<path d="M209.173 147.239C209.173 147.239 205.264 152.363 205.799 157.893C206.684 167.052 207.453 167.104 210.357 171.941C213.26 176.779 219.02 174.371 219.02 174.371L209.173 147.239Z" fill="#FFA192"/>
<path d="M227.121 160.134C222.332 159.262 217.544 158.389 212.755 157.517C210.123 157.038 207.238 156.236 204.624 157.197C201.651 158.291 199.53 161.347 197.579 163.673C194.745 167.046 192.061 170.659 190.663 174.885C189.295 179.031 187.774 188.203 193.388 186.751C197.909 185.582 202.561 181.071 202.167 176.431C204.802 175.682 206.886 173.926 208.039 171.502C210.684 173.378 219.577 173.104 222.871 171.004C228.396 167.483 227.926 160.281 227.121 160.134Z" fill="#FF9085"/>
<path d="M215.841 145.811C210.359 145.792 204.877 145.774 199.395 145.756C196.383 145.747 193.024 145.43 190.318 147.014C187.239 148.815 185.495 152.623 183.793 155.588C181.32 159.889 179.06 164.426 178.35 169.388C177.653 174.256 177.34 182.467 183.571 180.519C189.163 178.773 192.805 172.144 191.451 167.078C194.221 165.726 196.917 162.55 197.716 159.634C201.936 160.684 210.048 161.683 213.283 158.704C218.711 153.704 216.763 145.813 215.841 145.811Z" fill="#FFA192"/>
<path d="M206.695 131.656C206.695 131.656 219.02 137.68 225.506 140.518C234.248 144.343 236.33 145.374 240.334 151.328C244.339 157.283 250.923 168.424 250.923 168.424L228.764 181.037L214.203 171.077C214.203 171.077 209.044 167.838 207.197 160.427C205.873 155.118 207.587 150.797 207.587 150.797L206.695 131.656Z" fill="#FFC8B5"/>
<path d="M167.464 138.57C167.464 138.57 160.117 139.991 158.264 143.915C157.165 146.241 161.453 147.359 161.453 147.359C161.453 147.359 165.196 145.326 165.943 143.469C167.306 140.085 167.464 138.57 167.464 138.57Z" fill="#FFD7CB"/>
<path d="M226.236 140.821C215.904 135.605 200.151 128.173 196.149 128.336C183.714 128.841 172.717 135.083 162.207 141.864C159.438 143.649 159.675 145.626 160.037 146.019C165.878 152.371 173.435 149.227 176.929 145.448C181.617 146.558 190.414 144.856 193.456 141.166C198.467 145.88 205.462 149.809 212.171 147.74C212.737 147.566 227.389 141.402 226.236 140.821Z" fill="#FFC8B5"/>
<path d="M250.923 168.424C260.073 184.733 259.935 185.754 266.824 191.464C273.71 197.175 303.075 225.062 304.756 227.488C302.466 239.795 279.606 251.61 279.606 251.61L245.169 217.561C243.264 215.748 238.529 211.087 235.899 211.12C231.965 211.17 222.682 208.167 215.439 200.911C203.932 189.381 220.001 169.587 220.001 169.587C220.001 169.587 222.566 167.529 226.303 165.485C234.109 166.157 248.454 167.516 250.923 168.424Z" fill="#FFC8B5"/>
<path d="M170.582 105.031C171.998 106.584 173.415 108.136 174.832 109.689C177.03 112.098 174.788 116.855 171.17 121.198C169.885 122.739 169.705 124.271 170.403 125.036C168.986 123.483 167.57 121.931 166.153 120.378C165.454 119.613 165.635 118.081 166.92 116.54C170.538 112.197 172.78 107.44 170.582 105.031Z" fill="#E92626"/>
<path d="M140.599 146.855C142.016 148.407 143.433 149.96 144.849 151.513C144.45 151.075 143.941 150.731 143.321 150.504C142.357 150.151 141.326 150.147 140.246 150.388C137.987 150.89 135.511 152.461 132.981 154.141C132.366 154.549 131.77 154.805 131.229 154.926C130.345 155.122 129.611 154.955 129.187 154.49C127.77 152.938 126.354 151.385 124.937 149.832C125.361 150.297 126.095 150.465 126.979 150.268C127.52 150.148 128.116 149.891 128.731 149.483C131.261 147.804 133.737 146.233 135.996 145.73C137.076 145.49 138.107 145.493 139.071 145.847C139.691 146.074 140.2 146.417 140.599 146.855Z" fill="#E92626"/>
<path d="M114.483 184.42L118.734 189.078L117.566 189.338L113.316 184.68L114.483 184.42Z" fill="#E92626"/>
<path d="M187.651 116.463L191.901 121.121L174.697 176.373L170.447 171.715L187.651 116.463Z" fill="#E92626"/>
<path d="M165.092 103.893C166.619 103.553 168.036 103.582 169.16 104.061C173.467 105.897 171.121 111.498 166.92 116.541C164.898 118.966 165.611 121.367 168.179 120.796L187.651 116.464L170.447 171.716L170.361 171.99L114.483 184.421L113.316 184.68L113.401 184.407L115.83 176.606L119.484 164.872C120.3 163.345 121.961 162.076 123.417 161.752C123.994 161.624 124.539 161.644 124.986 161.856C126.695 162.664 128.777 162.963 130.985 162.472C133.532 161.905 136.247 160.287 138.748 157.187C142.535 152.492 142.695 147.174 139.071 145.847C138.107 145.494 137.076 145.49 135.996 145.73C133.737 146.233 131.261 147.804 128.731 149.484C128.116 149.892 127.52 150.148 126.979 150.269C125.537 150.589 124.491 149.94 124.546 148.614L130.606 129.155L149.822 124.88C152.336 124.321 154.733 121.327 154.149 119.48C153.296 116.781 152.66 114.077 155.679 110.176C158.167 106.959 161.874 104.608 165.092 103.893Z" fill="#FF5F5F"/>
<path d="M170.447 171.715L174.697 176.373L174.611 176.647L170.361 171.99L170.447 171.715Z" fill="#E92626"/>
<path d="M170.361 171.99L174.611 176.647L118.733 189.078L114.483 184.42L170.361 171.99Z" fill="#E92626"/>
<path d="M219.532 161.12C215.694 159.849 211.468 159.907 207.124 159.774C196.796 159.459 191.381 155.136 182.499 150.875C177.881 148.659 172.925 146.251 167.248 149.191C163.601 151.079 163.534 155.081 166.348 158.042C170.531 162.444 176.524 164.575 181.82 167.322C189.364 171.234 196.682 176.039 201.475 183.223C204.996 188.499 209.598 197.985 217.792 201.675C222.12 203.626 221.503 198.628 224.21 195.085C231.37 185.714 228.831 163.908 219.532 161.12Z" fill="#FFC8B5"/>
<path d="M176.056 152.21C176.056 152.21 170.57 148.579 166.207 151.355C161.844 154.131 166.913 158.944 170.821 160.549C176.279 158.459 176.056 152.21 176.056 152.21Z" fill="#FFD7CB"/>
</svg>
