<svg width="196" height="223" viewBox="0 0 196 223" fill="none" xmlns="http://www.w3.org/2000/svg">
<g clip-path="url(#clip0_1_11100)">
<path d="M59.0393 61.9541C59.0393 61.9541 66.3855 64.4933 71.6166 57.305C74.1068 59.4964 79.0296 60.2036 81.1653 57.5019C87.7219 62.3708 95.4611 59.8573 95.4611 59.8573C95.4611 59.8573 92.6576 46.1069 91.1948 44.3779C89.7329 42.6492 77.2773 31.985 77.2773 31.985L59.0393 61.9541Z" fill="#F4A490"/>
<path d="M57.7566 48.3313L53.212 55.9082C53.212 55.9082 51.8286 62.7868 51.1638 64.6191C50.4994 66.45 59.0717 67.2707 61.9143 62.023C64.7587 56.776 64.9229 53.3187 64.9229 53.3187C64.9229 53.3187 71.2979 52.7607 77.457 47.6101C78.7518 50.568 94.9358 55.9108 94.419 49.2065C93.9035 42.5014 65.2173 33.841 65.2173 33.841L57.7566 48.3313Z" fill="#FFB9A4"/>
<path d="M84.3574 112.296C90.6801 117.565 117.48 120.715 125.394 120.186C132.318 119.723 210.613 206.646 218.243 215.194C224.679 212.45 245.072 190.855 254.601 177.364C247.737 169.999 178.342 89.6855 173.123 81.5098C162.913 65.5159 155.916 50.2769 152.391 44.8126C143.445 30.9449 122.819 19.2174 112.617 21.7761C109.355 18.7983 99.2081 20.4487 89.7173 20.8331C85.6243 20.0436 77.9143 21.2879 73.9697 22.3075C67.1062 24.079 66.5226 25.5881 62.5892 26.9085C58.0396 28.4396 55.4176 28.2844 52.1266 34.0856C48.4686 40.5245 45.5234 43.4006 44.2234 52.473C43.7799 55.5702 41.5897 70.1518 47.7855 67.7937C54.7876 65.1283 55.2855 60.2815 55.3074 55.1656C57.9455 53.9699 60.1335 50.408 62.6114 43.9851C64.6779 46.2059 76.8648 47.4598 80.2131 42.2415C79.0215 50.9123 89.4308 58.4512 89.7876 58.6323C88.499 65.4618 91.481 73.7175 96.3772 81.9065C97.828 84.3338 96.3726 88.0973 89.289 86.7828" fill="#FFC9B6"/>
<path d="M43.606 57.8827L46.1909 56.8036C46.1909 56.8036 47.2068 66.2707 44.581 66.8726C42.9091 64.0796 43.606 57.8827 43.606 57.8827Z" fill="#FFD8CC"/>
<path d="M72.613 68.5879L75.0729 66.0018L68.6664 58.4342L68.6467 58.4546C67.3036 56.964 65.6489 55.7835 63.7145 54.9544L73.5258 66.0179L71.4807 66.3889L60.4871 53.9902C59.3326 53.7547 58.1303 53.5936 56.8361 53.5699L68.1673 66.3486L66.1252 66.7207L54.5297 53.6448C53.5537 53.7191 52.5534 53.8366 51.5116 54.0276C51.3665 54.0531 51.2158 54.101 51.0698 54.1291L63.279 67.8987L61.2342 68.2699L49.0998 54.5868C45.55 55.5004 41.9538 56.9883 38.4236 58.9685L50.2 72.2494L48.1552 72.6205L36.8732 59.8946C36.1665 60.3226 35.4657 60.7585 34.7687 61.22L44.8424 72.577L42.7996 72.9488L33.2945 62.2302C32.5021 62.7889 31.7249 63.3742 30.9483 63.9747L39.9532 74.1297L37.9104 74.5015L29.5435 65.0664C25.4667 68.4109 21.6782 72.3151 18.4158 76.5587L31.0377 90.7889L28.9927 91.1599L17.3464 78.0267C16.8723 78.6772 16.402 79.3293 15.9549 79.9922L28.7104 94.3775L26.6655 94.7486L14.9585 81.5463C14.4055 82.4178 13.8836 83.3002 13.3795 84.1918L25.5319 97.8935L23.4871 98.2646L12.4635 85.8344C11.2569 88.1484 10.2183 90.5051 9.39747 92.8798C8.95627 94.1562 8.59903 95.3982 8.30084 96.6123L22.1937 112.278L20.1489 112.649L7.86101 98.7918C7.64932 99.9511 7.50092 101.075 7.42182 102.164L20.566 116.987L18.5212 117.358L7.36117 104.774C7.4047 106.527 7.62416 108.166 8.02049 109.68L20.1506 123.356L18.1057 123.727L10.8454 115.54C10.867 115.566 10.8792 115.594 10.9015 115.62L10.8688 115.651L18.9665 125.011L22.7295 121.056C24.5212 121.121 26.444 120.987 28.4958 120.615C45.3986 117.544 64.2522 100.148 70.6082 81.759C72.2924 76.8851 72.9038 72.4457 72.613 68.5879Z" fill="#FAB234"/>
<path d="M73.526 66.0178L63.7147 54.9543C62.7183 54.5282 61.6273 54.2237 60.4873 53.9901L71.4809 66.3888L73.526 66.0178Z" fill="#F79826"/>
<path d="M68.1674 66.3486L56.8362 53.5698C56.0928 53.5551 55.3172 53.5869 54.5298 53.6448L66.1253 66.7207L68.1674 66.3486Z" fill="#F79826"/>
<path d="M63.2788 67.8984L51.0695 54.1287C50.4133 54.2563 49.7581 54.4174 49.0996 54.5864L61.2339 68.2695L63.2788 67.8984Z" fill="#F79826"/>
<path d="M22.1932 112.278L8.30029 96.6123C8.11706 97.3575 7.99072 98.0737 7.86053 98.7916L20.1484 112.649L22.1932 112.278Z" fill="#F79826"/>
<path d="M20.5656 116.987L7.42139 102.164C7.35373 103.061 7.3398 103.928 7.36118 104.774L18.5208 117.358L20.5656 116.987Z" fill="#F79826"/>
<path d="M20.1503 123.356L8.02026 109.68C8.61062 111.919 9.54301 113.904 10.8449 115.54L18.1053 123.727L20.1503 123.356Z" fill="#F79826"/>
<path d="M50.1999 72.2491L38.4233 58.9682C37.9033 59.2607 37.3877 59.5821 36.873 59.8946L48.1548 72.6202L50.1999 72.2491Z" fill="#F79826"/>
<path d="M44.8421 72.5769L34.7683 61.2199C34.2755 61.5491 33.7833 61.8847 33.2942 62.2301L42.7993 72.9488L44.8421 72.5769Z" fill="#F79826"/>
<path d="M39.9532 74.1298L30.9483 63.9749C30.4806 64.34 30.0068 64.6881 29.5438 65.0666L37.9106 74.5018L39.9532 74.1298Z" fill="#F79826"/>
<path d="M31.0377 90.7889L18.4158 76.5588C18.0476 77.0401 17.7009 77.5379 17.3464 78.027L28.9926 91.1602L31.0377 90.7889Z" fill="#F79826"/>
<path d="M28.7103 94.3778L15.9548 79.9924C15.6104 80.5063 15.2872 81.0273 14.9583 81.5463L26.6653 94.7486L28.7103 94.3778Z" fill="#F79826"/>
<path d="M25.5316 97.8932L13.3792 84.1916C13.0719 84.7394 12.7536 85.2834 12.463 85.8338L23.4866 98.2641L25.5316 97.8932Z" fill="#F79826"/>
<path d="M16.0363 100.701C9.68114 119.087 18.2297 131.503 35.1327 128.432C52.0357 125.361 70.8905 107.968 77.2464 89.5794C83.6025 71.1907 75.0517 58.7736 58.1487 61.8447C41.2457 64.9157 22.3924 82.3119 16.0363 100.701Z" fill="#FFC943"/>
<path d="M21.4523 100.329C16.162 115.634 23.2768 125.969 37.3454 123.414C51.4149 120.856 67.1061 106.378 72.3956 91.0755C77.6859 75.7701 70.5712 65.4356 56.5015 67.9936C42.4328 70.5486 26.7417 85.0262 21.4523 100.329Z" fill="#FDDB6F"/>
<path d="M24.3231 100.24C19.3737 113.892 25.5611 122.956 38.1376 120.484C50.7171 118.011 64.9251 104.94 69.8739 91.2877C74.8236 77.6327 68.6367 68.5699 56.0562 71.0431C43.4803 73.5146 29.2716 86.5881 24.3231 100.24Z" fill="#FFE499"/>
<path d="M26.6872 100.194C22.0413 112.431 27.4372 120.415 38.7365 118.023C50.0387 115.632 62.9645 103.772 67.6113 91.5319C72.2553 79.2944 66.8614 71.3138 55.5591 73.7048C44.2567 76.0959 31.3301 87.9564 26.6872 100.194Z" fill="#FDDB6F"/>
<path d="M29.9528 100.006C25.9859 110.349 30.5197 117.069 40.0775 115.017C49.6322 112.963 60.592 102.915 64.5558 92.5708C68.5203 82.2269 63.9874 75.5039 54.4318 77.5601C44.8742 79.6126 33.9137 89.6608 29.9528 100.006Z" fill="#FFE499"/>
<path d="M27.4958 123.254C25.495 122.563 23.7843 121.444 22.4346 119.922C18.5931 115.593 18.0615 108.421 20.9712 100.247C26.4177 84.9381 42.3353 70.2935 56.4508 67.6001C62.7465 66.4004 67.9752 67.7232 71.1788 71.3344C75.0162 75.6643 75.5486 82.8332 72.6413 91.0117C67.1957 106.318 51.2781 120.962 37.1623 123.656C33.5205 124.35 30.2382 124.202 27.4958 123.254ZM65.7291 69.1147C63.19 68.2371 60.1199 68.1023 56.6978 68.7544C42.9483 71.3775 27.4296 85.6874 22.1054 100.651C19.3403 108.415 19.7891 115.162 23.3351 119.158C26.2373 122.429 31.0574 123.62 36.9122 122.501C50.6619 119.878 66.1828 105.571 71.5065 90.6076C74.2689 82.8426 73.8198 76.0961 70.275 72.0972C69.0699 70.7388 67.5332 69.7383 65.7291 69.1147Z" fill="#F79826"/>
<path d="M47.5869 94.4517L50.2542 86.6621L56.202 85.5814C59.3247 85.0142 60.7818 86.0297 59.9161 88.5591C59.077 91.0095 56.6575 92.8036 53.5347 93.371L47.5869 94.4517ZM58.7457 80.3751L45.868 82.7145L41.4688 95.5629L36.761 96.418L35.3451 100.554L40.0527 99.6991L39.1453 102.349L34.4377 103.204L33.0214 107.34L37.729 106.485L36.2445 110.821L42.3625 109.71L43.8472 105.374L54.7153 103.399L56.1316 99.2631L45.2632 101.238L46.1707 98.5876L52.9304 97.3597C56.1403 96.7765 58.9391 95.5146 61.3585 93.607C63.777 91.6985 65.4199 89.4796 66.2862 86.9501C67.1522 84.4206 66.8977 82.584 65.5521 81.3595C64.204 80.1368 61.9556 79.7919 58.7457 80.3751Z" fill="#F79826"/>
<path d="M89.2897 86.783C83.2634 85.663 76.1722 82.2489 71.6984 83.2732C65.7813 71.3309 56.3213 66.6619 50.9311 71.0746C46.0254 75.0914 48.7256 79.5116 53.4331 83.9804C57.4918 87.8343 59.7155 93.436 61.8308 95.4253C63.794 97.2698 74.7045 104.251 84.3577 112.296" fill="#FFC9B6"/>
<path d="M60.2822 75.6878C55.0567 71.4335 52.9355 69.7405 49.8891 72.5967C46.841 75.4539 49.5979 80.4764 52.349 82.9899C56.5252 82.459 60.2822 75.6878 60.2822 75.6878Z" fill="#FFD8CC"/>
</g>
<defs>
<clipPath id="clip0_1_11100">
<rect width="196" height="222" fill="white" transform="translate(0 0.382812)"/>
</clipPath>
</defs>
</svg>
