<svg width="284" height="282" viewBox="0 0 284 282" fill="none" xmlns="http://www.w3.org/2000/svg">
<mask id="mask0_1_10524" style="mask-type:alpha" maskUnits="userSpaceOnUse" x="0" y="0" width="255" height="282">
<rect x="0.100098" y="0.0131836" width="254.379" height="281.087" rx="30" fill="#1FA1FF"/>
</mask>
<g mask="url(#mask0_1_10524)">
<path d="M131.695 140.806C131.695 140.806 134.697 146.417 140.399 142.869C142.291 141.69 145.494 135.773 145.494 135.773C145.494 135.773 152.715 136.145 158.266 134.365C160.347 137.721 159.967 143.594 169.1 147.697C179.971 152.581 175.744 120.911 175.744 120.911L149.975 114.073L129.747 128.753L131.695 140.806Z" fill="#FF9085"/>
<path d="M116.277 144.738C116.277 144.738 123.154 149.423 128.693 147.302C134.225 145.182 137.446 133.177 137.446 133.177C137.446 133.177 142.857 133.302 146.076 130.709C149.296 128.115 151.403 126.845 151.403 126.845C151.403 126.845 156.475 130.946 162.671 131.392C163.293 133.74 166.136 145.049 170.37 149.622C174.604 154.195 189.529 125.751 189.529 125.751L159.051 105.936C159.051 105.936 137.931 106.137 136.629 107.067C135.327 107.995 122.242 124.083 122.242 124.083L116.277 144.738Z" fill="#FFA192"/>
<path d="M283.849 196.25C273.567 189.97 236.723 161.65 232.516 156.122C224.898 146.106 216.155 129.907 207.106 118.563C201.671 111.755 197.669 106.532 194.161 103.318C186.858 96.6344 181.508 99.4369 178.064 97.7739C168.695 93.2531 164.507 97.4059 160.171 100.031C155.106 99.0528 143.849 97.836 139.968 101.403C134.094 106.803 117.468 113.146 114.598 121.082C111.769 128.901 109.248 137.459 105.551 145.192C104.35 147.709 103.08 148.655 105.078 149.716C105.416 149.896 107.732 150.256 108.108 150.291C106.011 152.751 104.654 155.488 104.895 158.07C105.264 161.931 112.393 161.443 115.413 162.527C120.694 164.421 127.247 163.843 133.371 167.61C135.606 168.985 142.946 172.944 153.653 179.532C164.976 186.494 181.183 187.526 193.044 186.663C197.989 192.104 251.103 231.748 256.594 236.298C264.206 228.996 283.002 201.756 283.849 196.25ZM148.373 120.475C156.173 125.69 164.351 125.977 164.464 125.935C165.556 130.044 168.912 136.819 168.894 140.66C168.851 147.321 165.449 149.445 159.585 150.802C152.447 152.459 140.631 150.376 136.639 149.114C131.37 147.45 127.562 146.264 124.288 146.454C123.442 146.503 122.291 146.226 122.555 145.84C124.608 142.815 128.033 137.645 128.709 130.652C140.39 129.737 144.006 125.544 148.373 120.475Z" fill="#FFC8B5"/>
<path d="M117.214 153.808C111.692 153.224 107.783 154.747 106.402 158.324C105.021 161.896 111.428 161.71 114.97 162.224C116.612 158.796 117.214 153.808 117.214 153.808Z" fill="#FFD8CC"/>
<path d="M73.7606 170.907L73.9344 184.843L61.6086 192.167L58.8609 190.614L58.9659 190.551L58.7755 190.435L56.0857 195.232L53.3796 193.703L50.7423 198.406L48.037 196.878L45.3986 201.581L42.6928 200.052L40.0555 204.756L37.3506 203.227L34.5304 208.256L32.7443 209.316L24.6474 207.108L21.8993 205.555L25.0085 206.18L28.2027 197.974L73.7606 170.907Z" fill="#BB7400"/>
<path d="M71.1862 183.29L58.8607 190.614L56.0279 188.882L53.3375 193.678L50.6844 192.056L47.9941 196.853L45.3413 195.231L42.6507 200.028L39.9979 198.406L37.3075 203.203L34.6541 201.581L31.7825 206.702L29.9972 207.763L21.8991 205.554L25.4555 196.422L71.0124 169.353L71.1862 183.29Z" fill="#F9B233"/>
<path d="M62.9788 188.167C62.0319 186.223 61.4874 183.788 61.451 180.91C61.4263 178.883 61.6633 176.772 62.1096 174.643L71.0125 169.354L71.1862 183.29L62.9788 188.167Z" fill="#BB7400"/>
<path d="M23.2578 205.925L21.8992 205.554L22.4961 204.022L60.9877 181.151L61.0167 183.49L23.2578 205.925Z" fill="#FCD691"/>
<path d="M96.6257 150.068L92.762 147.783L94.7216 150.504L96.6257 150.068Z" fill="#D3D0CF"/>
<path d="M83.8742 151.395C74.084 157.211 66.2639 171.157 66.4064 182.544C66.4525 186.239 67.336 189.205 68.8379 191.335L67.66 191.608L71.7558 194.024L71.7542 194.022C75.0107 195.864 79.4821 195.546 84.3895 192.63C94.1801 186.813 102 172.867 101.858 161.48C101.715 150.093 93.664 145.577 83.8742 151.395ZM92.1486 161.841C94.6978 160.327 96.7935 161.503 96.8306 164.467C96.8679 167.431 94.8318 171.062 92.2833 172.576C89.7349 174.09 87.6388 172.914 87.6008 169.95C87.5647 166.986 89.6 163.356 92.1486 161.841Z" fill="#BB7400"/>
<path d="M80.012 149.111C70.2225 154.928 62.4022 168.874 62.5445 180.261C62.6873 191.648 70.7386 196.163 80.5282 190.347C90.3181 184.53 98.1384 170.584 97.996 159.197C97.8539 147.81 89.8022 143.295 80.012 149.111ZM88.2873 159.558C90.836 158.044 92.9322 159.22 92.9689 162.184C93.0058 165.148 90.9706 168.779 88.4211 170.294C85.8726 171.808 83.7765 170.632 83.7395 167.667C83.7023 164.704 85.7383 161.073 88.2873 159.558Z" fill="#F2F2F2"/>
<path d="M94.6016 170.435C95.9521 168.693 96.8556 166.438 96.8312 164.467C96.804 162.341 95.7154 161.142 94.1639 161.188L93.2168 155.543C93.2168 155.543 92.0319 152.212 90.857 148.912C97.2238 148.3 101.75 152.968 101.858 161.479C101.904 165.234 101.06 168.946 99.5899 172.875L94.6016 170.435Z" fill="#FCD691"/>
<path d="M80.012 149.111C70.2225 154.928 62.4022 168.874 62.5445 180.261C62.6873 191.648 70.7386 196.163 80.5282 190.347C86.5676 186.758 91.8577 180.076 94.9909 172.809C95.796 170.941 96.4591 169.034 96.9564 167.132C97.6589 164.439 98.028 161.753 97.996 159.197C97.8539 147.81 89.8022 143.295 80.012 149.111ZM88.2873 159.558C90.836 158.044 92.9322 159.22 92.9689 162.184C93.0058 165.148 90.9706 168.779 88.4211 170.294C85.8726 171.808 83.7765 170.632 83.7395 167.667C83.7023 164.704 85.7383 161.073 88.2873 159.558Z" fill="#F9B233"/>
<path d="M91.3104 150.166C88.5612 149.2 85.0733 149.709 81.2924 151.956C72.5827 157.131 65.6242 169.539 65.7506 179.669C65.8143 184.704 67.6174 188.225 70.4823 189.862C66.8984 188.602 64.5709 184.832 64.4994 179.099C64.3725 168.968 71.3305 156.56 80.0409 151.385C84.4218 148.782 88.4101 148.509 91.3104 150.166Z" fill="#BB7400"/>
<path d="M124.167 170.254C115.802 175.225 102.09 175.396 93.6042 170.637C90.9643 169.157 88.9959 167.347 87.7538 165.256C86.8187 163.683 86.3333 162.004 86.3112 160.265C86.2599 156.185 88.7572 152.439 93.3412 149.716C101.707 144.745 115.417 144.574 123.903 149.334C128.557 151.943 131.146 155.626 131.196 159.705C131.217 161.435 130.781 163.104 129.922 164.662C128.755 166.777 126.807 168.686 124.167 170.254ZM89.881 160.22C89.8959 161.324 90.2118 162.405 90.8232 163.433C91.7273 164.956 93.2929 166.37 95.3503 167.523C102.846 171.727 114.955 171.576 122.344 167.185C125.786 165.14 127.66 162.499 127.627 159.749C127.593 156.999 125.651 154.406 122.158 152.449C114.663 148.243 102.553 148.395 95.1652 152.785C93.0879 154.019 91.5817 155.469 90.7208 157.03C90.1543 158.057 89.8667 159.13 89.881 160.22Z" fill="#BB7400"/>
<path d="M95.3826 164.926L93.4905 171.933L88.4212 170.293C90.9707 168.779 93.0059 165.147 92.969 162.184L95.3826 164.926Z" fill="#F9B233"/>
<path d="M97.9961 159.196C98.0283 161.752 97.659 164.438 96.9565 167.131C96.4592 169.033 95.7961 170.94 94.991 172.808C91.8578 180.075 86.5677 186.757 80.5282 190.346L93.8304 164.897L97.9961 159.196Z" fill="#F9B233"/>
<path d="M96.0466 170.235C96.0466 170.235 97.086 167.324 97.6503 164.001L101.508 166.128C101.239 167.711 100.702 170.272 99.9155 172.283C97.5009 178.458 96.0466 170.235 96.0466 170.235Z" fill="#BB7400"/>
<path d="M126.953 242.615L121.018 241.505C120.004 241.315 119.113 240.466 118.587 238.999L124.521 240.109C125.047 241.576 125.939 242.426 126.953 242.615Z" fill="#BE1622"/>
<path d="M124.521 240.11L118.587 239L105.89 203.604L111.824 204.713L124.521 240.11Z" fill="#BE1622"/>
<path d="M113.546 163.328L119.48 164.438C118.44 164.244 117.383 164.776 116.505 165.807L110.571 164.697C111.449 163.666 112.505 163.134 113.546 163.328Z" fill="#BE1622"/>
<path d="M111.824 204.713L105.89 203.603C104.831 200.65 104.465 195.126 105.077 191.329L111.011 192.438C110.399 196.236 110.765 201.76 111.824 204.713Z" fill="#BE1622"/>
<path d="M111.011 192.439L105.077 191.329L108.628 169.288L114.562 170.397L111.011 192.439Z" fill="#BE1622"/>
<path d="M116.505 165.807C117.42 164.732 118.531 164.199 119.614 164.468L132.189 167.581C134.355 168.116 136.994 170.974 138.053 173.927L150.75 209.323C151.809 212.276 151.003 216.654 148.958 219.054L130.165 241.114C128.12 243.513 125.58 243.062 124.521 240.109L111.824 204.713C110.765 201.76 110.399 196.236 111.011 192.438L114.562 170.397C114.868 168.498 115.59 166.881 116.505 165.807Z" fill="#FF3D34"/>
<path d="M114.562 170.397L108.628 169.287C108.934 167.388 109.655 165.772 110.571 164.697L116.505 165.807C115.59 166.882 114.868 168.498 114.562 170.397Z" fill="#BE1622"/>
<path d="M141.42 207.309L139.075 206.87C139.288 206.91 139.513 206.762 139.739 206.498C140.184 205.975 140.4 205.262 140.067 204.331L142.413 204.769C142.747 205.701 142.53 206.414 142.085 206.936C141.859 207.201 141.633 207.348 141.42 207.309Z" fill="#C6C6C6"/>
<path d="M142.413 204.77L140.067 204.332L139.065 201.538L141.411 201.976L142.413 204.77Z" fill="#C6C6C6"/>
<path d="M138.503 200.825C139.285 200.971 140.067 201.117 140.849 201.263C141.054 201.302 141.246 201.518 141.411 201.976L139.065 201.538C138.901 201.079 138.709 200.863 138.503 200.825Z" fill="#C6C6C6"/>
<path d="M140.247 211.901C139.465 211.755 138.683 211.608 137.901 211.462C137.141 211.32 136.461 210.659 135.978 209.312L138.325 209.751C138.807 211.097 139.487 211.759 140.247 211.901Z" fill="#C6C6C6"/>
<path d="M139.677 196.232C140.459 196.379 141.24 196.525 142.023 196.671C141.06 196.491 139.968 197.145 138.986 198.298L136.64 197.859C137.622 196.706 138.714 196.052 139.677 196.232Z" fill="#C6C6C6"/>
<path d="M138.325 209.75L135.979 209.312L134.884 206.262L137.23 206.701L138.325 209.75Z" fill="#C6C6C6"/>
<path d="M138.986 198.298C140.743 196.236 142.851 195.77 143.945 198.82L145.039 201.87C146.134 204.922 145.039 208.213 143.282 210.275C141.525 212.337 139.419 212.803 138.325 209.751L137.23 206.701C136.136 203.652 137.229 200.36 138.986 198.298ZM142.413 204.77L141.411 201.976C141.077 201.045 140.629 201.116 140.185 201.638C139.74 202.158 139.521 202.871 139.855 203.802L140.857 206.596C141.192 207.527 141.641 207.457 142.085 206.936C142.53 206.414 142.747 205.701 142.413 204.77Z" fill="white"/>
<path d="M137.23 206.701L134.884 206.263C133.79 203.212 134.884 199.921 136.64 197.859L138.986 198.298C137.229 200.36 136.136 203.652 137.23 206.701Z" fill="#C6C6C6"/>
<path d="M133.553 220.738C132.771 220.593 131.989 220.446 131.207 220.3C130.876 220.238 130.623 219.965 130.465 219.525C130.316 219.109 130.278 218.74 130.269 217.612L132.615 218.051C132.624 219.178 132.662 219.547 132.811 219.964C132.969 220.404 133.221 220.677 133.553 220.738Z" fill="#C6C6C6"/>
<path d="M131.978 188.27C132.76 188.417 133.542 188.563 134.324 188.709C134.171 188.681 133.999 188.697 133.813 188.763L131.467 188.325C131.653 188.258 131.824 188.242 131.978 188.27Z" fill="#C6C6C6"/>
<path d="M132.615 218.052L130.269 217.613L130.062 191.984L132.408 192.423L132.615 218.052Z" fill="#C6C6C6"/>
<path d="M132.408 192.422L130.062 191.983C130.053 190.853 130.089 190.469 130.229 189.94C130.36 189.465 130.52 189.118 130.775 188.818C130.998 188.557 131.204 188.429 131.467 188.325L133.813 188.763C133.551 188.867 133.344 188.995 133.121 189.257C132.866 189.556 132.707 189.903 132.576 190.378C132.435 190.908 132.399 191.292 132.408 192.422Z" fill="#C6C6C6"/>
<path d="M135.066 189.484C135.216 189.902 135.253 190.269 135.264 191.397L135.469 217.026C135.48 218.155 135.442 218.54 135.302 219.072C135.172 219.543 135.011 219.891 134.756 220.191C134.534 220.452 134.327 220.581 134.064 220.684C133.475 220.894 133.041 220.607 132.811 219.964C132.662 219.547 132.624 219.179 132.615 218.051L132.408 192.422C132.399 191.291 132.435 190.908 132.576 190.378C132.706 189.903 132.865 189.556 133.121 189.256C133.344 188.995 133.551 188.867 133.813 188.763C134.401 188.554 134.836 188.841 135.066 189.484Z" fill="white"/>
<path d="M127.041 208.173L124.695 207.734C124.907 207.774 125.133 207.626 125.359 207.361C125.804 206.838 126.021 206.126 125.687 205.194L128.033 205.633C128.367 206.564 128.15 207.277 127.705 207.799C127.479 208.065 127.253 208.212 127.041 208.173Z" fill="#C6C6C6"/>
<path d="M128.033 205.633L125.687 205.195L124.685 202.401L127.031 202.839L128.033 205.633Z" fill="#C6C6C6"/>
<path d="M124.123 201.688L126.469 202.127C126.675 202.165 126.867 202.381 127.031 202.839L124.685 202.401C124.521 201.942 124.328 201.726 124.123 201.688Z" fill="#C6C6C6"/>
<path d="M125.867 212.764L123.521 212.325C122.761 212.183 122.081 211.521 121.599 210.175L123.945 210.614C124.428 211.96 125.107 212.622 125.867 212.764Z" fill="#C6C6C6"/>
<path d="M123.945 210.614L121.599 210.175L120.505 207.126L122.851 207.565L123.945 210.614Z" fill="#C6C6C6"/>
<path d="M125.295 197.097C125.765 197.184 126.234 197.273 126.703 197.36C127.016 197.418 127.328 197.477 127.641 197.536C126.678 197.355 125.588 198.009 124.606 199.16C122.849 201.223 121.757 204.514 122.851 207.564L120.505 207.126C119.411 204.076 120.504 200.784 122.26 198.722C123.242 197.57 124.333 196.917 125.295 197.097Z" fill="#C6C6C6"/>
<path d="M130.658 202.735C131.752 205.787 130.659 209.076 128.902 211.138C127.145 213.2 125.039 213.666 123.945 210.614L122.851 207.565C121.757 204.515 122.85 201.223 124.606 199.161C126.363 197.099 128.47 196.635 129.564 199.685L130.658 202.735ZM128.033 205.633L127.031 202.84C126.697 201.909 126.249 201.979 125.804 202.501C125.359 203.024 125.142 203.734 125.475 204.666L126.477 207.459C126.811 208.39 127.26 208.322 127.705 207.8C128.15 207.277 128.367 206.565 128.033 205.633Z" fill="white"/>
<path d="M121.417 171.863C121.017 172.937 120.101 173.091 119.372 172.208C118.642 171.324 118.376 169.738 118.776 168.664C119.176 167.591 120.092 167.437 120.821 168.32C121.551 169.204 121.818 170.79 121.417 171.863Z" fill="#BE1622"/>
<path d="M128.793 166.343C127.305 166.053 125.754 165.806 124.531 165.625C123.894 166.175 123.165 166.697 122.344 167.185C121.373 167.762 120.321 168.266 119.208 168.696C119.117 168.731 119.024 168.763 118.932 168.798L118.931 168.798C118.931 168.798 118.929 168.799 118.929 168.799C118.91 168.806 118.892 168.812 118.874 168.819C118.728 168.893 118.385 169.224 118.802 170.659C119.06 171.548 120.229 172.064 120.282 172.087C121.665 171.573 122.972 170.964 124.167 170.254C126.087 169.113 127.639 167.792 128.793 166.343Z" fill="#BB7400"/>
<path d="M108.874 149.446C113.067 146.829 119.922 146.17 122.825 146.167C123.428 146.504 126.253 147.873 132.73 150.655C140.827 154.132 136.39 168.933 131.855 166.722C128.228 164.954 126.178 164.559 125.607 164.582L124.573 160.333C123.779 159.037 121.513 155.709 118.807 152.771C115.423 149.099 103.632 152.717 108.874 149.446Z" fill="#FFC8B5"/>
</g>
</svg>
