<svg width="29" height="38" viewBox="0 0 29 38" fill="none" xmlns="http://www.w3.org/2000/svg">
<path d="M14.9182 3.6747V10.3497C14.9182 13.1111 17.1567 15.3497 19.9182 15.3497H26.7196V11.3497H19.9182C19.3659 11.3497 18.9182 10.902 18.9182 10.3497V3.6747H14.9182ZM26.8166 11.5666L26.8166 34.9539C26.8166 35.5061 26.3689 35.9539 25.8166 35.9539H3.37402C2.82174 35.9539 2.37402 35.5061 2.37402 34.9539L2.37402 3.45515C2.37402 2.90286 2.82175 2.45514 3.37405 2.45515L19.458 2.45556C19.7653 2.45557 20.0554 2.59681 20.245 2.8386L26.6036 10.9496C26.7416 11.1257 26.8166 11.3429 26.8166 11.5666Z" stroke="white" stroke-width="4"/>
</svg>
