<svg width="98" height="157" viewBox="0 0 98 157" fill="none" xmlns="http://www.w3.org/2000/svg">
<path d="M48.4451 136.271C48.8843 136.832 49.5998 139.657 48.7143 140.509C46.5996 142.748 45.4696 143.484 43.107 146.058C41.4971 147.815 39.2655 151.245 37.2234 152.581C35.1583 153.928 31.7331 156.142 29.2695 156.566C26.0319 157.122 23.2885 156.364 22.1922 153.034C21.5386 151.047 22.867 149.113 23.0246 148.932C24.3795 147.368 30.7855 145.402 33.7663 142.948C36.9241 140.346 40.1546 137.856 43.146 135.153C44.4831 133.942 48.2485 135.863 48.4451 136.271Z" fill="#EEE8DE"/>
<path d="M47.6533 138.073C49.1039 136.001 47.3841 134.451 46.6013 132.599C46.1426 131.51 45.8043 129.659 44.6655 129.044C43.0928 128.201 40.5565 129.808 39.0617 130.286C37.9371 130.649 35.8879 131.058 35.0378 131.899C34.1239 132.81 34.464 134.524 33.9326 135.64C32.491 138.654 29.6271 140.526 27.2769 142.834C25.3039 144.773 22.8668 147.232 22.1832 150.064C21.6164 152.419 23.8002 154.594 26.216 154.397C30.077 154.088 34.0832 151.589 36.8461 148.983C38.7005 147.233 40.3458 145.29 42.0336 143.388C43.7481 141.46 46.1426 140.227 47.6533 138.073Z" fill="#44448B"/>
<path d="M28.5012 137.943C27.6458 139.455 25.8853 140.713 24.6827 140.897C17.6975 141.963 8.65784 142.687 4.6835 139.384C1.14839 136.446 -0.656347 132.148 0.654264 129.737C1.03505 129.039 1.80012 128.443 2.5794 127.975C4.18756 127.017 6.16941 126.937 7.90685 127.637C9.91705 128.444 12.3931 129.624 14.6849 129.799C18.5512 130.095 22.1182 132.32 25.7542 133.494C27.3801 134.022 28.7438 137.59 28.5012 137.943Z" fill="#EEE8DE"/>
<path d="M25.5096 139.652C29.066 138.621 28.4496 137.458 29.7903 136.424C31.5791 135.046 33.3856 133.506 33.5592 132.407C33.6318 131.955 33.5627 131.472 33.483 131.041C33.2333 129.667 32.323 128.645 31.4002 127.619C30.0135 126.082 28.6143 125.135 26.6165 124.495C25.2563 124.061 24.8454 125.216 22.504 125.813C19.7535 126.514 8.20238 125.655 3.42395 127.538C1.90081 128.14 1.37122 130.081 1.85473 131.643C2.43742 133.519 3.66833 135.736 5.04447 137.155C9.40846 141.662 24.1883 140.035 25.5096 139.652Z" fill="#44448B"/>
<path d="M21.6361 83.8372C24.801 81.0637 61.4928 82.8578 64.2788 85.5092C65.6213 87.0128 66.9 99.9684 68.1929 101.513C63.9635 105.278 66.2376 101.013 62.033 104.777L38.4154 103.369C39.1912 104.713 43.1814 116.114 45.9709 130.159C47.0832 133.667 35.169 138.314 33.3873 135.137C28.9578 126.685 14.5517 90.0449 21.6361 83.8372Z" fill="#333372"/>
<path d="M23.7827 124.97C26.7475 122.58 50.9602 102.795 53.2272 101.694C55.7457 100.47 66.9248 92.6595 69.9269 92.6082C69.0165 87.7323 67.4668 78.9849 68.6003 73.5688C78.708 73.8079 92.5668 84.8188 92.5668 84.8188C93.695 91.5774 93.378 96.2035 92.1081 101.637C90.3299 109.264 83.876 114.922 76.0832 115.687C68.9174 116.39 61.1971 117.981 61.1971 117.981C60.432 117.931 45.576 129.142 31.053 135.593C28.2476 137.249 21.4041 126.957 23.7827 124.97Z" fill="#333372"/>
<path d="M65.7454 29.9011C65.8074 31.1922 65.7419 32.4957 65.6002 33.7851C64.8014 41.1086 62.4671 53.6143 59.8069 60.4844C55.1312 61.1592 51.3694 59.9442 49.7312 54.3458C51.2224 46.3404 52.2071 34.5803 55.1542 27.2993C58.6451 28.3071 62.1855 29.1395 65.7454 29.9011Z" fill="#FCBE9F"/>
<path d="M66.2753 48.9334C66.2753 48.9334 58.5374 53.1769 49.2692 46.3812C49.5473 39.4881 54.0122 19.9086 61.7006 21.5593C71.5018 23.6687 69.2012 35.914 66.2753 48.9334Z" fill="#FF5F5F"/>
<path d="M54.8229 44.4965C54.8672 42.1781 53.8966 33.4449 56.0273 27.3735C57.2883 23.7764 61.1475 21.7769 64.904 22.4021C70.2492 23.2965 73.9933 24.2989 79.9884 27.8871C83.2597 30.016 95.2199 38.1577 95.6556 40.9844C95.9602 42.9503 97.0034 44.7267 96.8829 46.7121C96.4455 54.0232 93.7623 69.7647 93.3478 91.7865C89.9243 97.2787 76.533 97.7286 70.042 96.1541C60.3718 93.8091 57.1112 89.8047 56.4116 83.5368C56.3939 83.3969 54.6635 52.9588 54.8229 44.4965Z" fill="#FF5F5F"/>
<path d="M22.5585 72.7075L23.2386 73.5311L45.1541 88.2772L48.2483 89.4479C48.2483 89.4479 61.914 90.2466 61.9636 90.1279L61.7015 90.7549C61.6537 90.8736 61.4606 90.9356 61.1259 90.9126L47.9861 90.0766C47.1537 90.0217 45.767 89.4939 44.8903 88.9059L22.9747 74.158C22.4523 73.8091 22.2238 73.5081 22.2946 73.3363L22.5585 72.7075Z" fill="#FFF8EF"/>
<path d="M23.1392 72.5507L36.2807 73.3884C37.1043 73.4398 38.4981 73.9694 39.3748 74.5592L61.2904 89.3053C62.1671 89.8969 62.2131 90.3379 61.3913 90.2866L48.2498 89.4488C47.4192 89.3975 46.0324 88.8679 45.1557 88.2781L23.2401 73.5319C22.3617 72.9386 22.3068 72.4976 23.1392 72.5507Z" fill="#44448B"/>
<path d="M54.5853 90.4906C55.7259 90.5685 56.8452 90.1576 57.6723 89.3677C58.239 88.8258 58.758 88.3015 58.6925 88.2573C58.0832 87.8517 57.2437 87.6958 56.5618 87.462C56.1031 87.3062 53.1011 86.4295 53.8414 85.5032C54.0557 85.2375 54.6685 85.3668 54.9501 85.3952C55.6656 85.4731 56.3741 85.5953 57.0931 85.6467C57.8795 85.7033 58.6517 85.8362 59.4239 85.9956C61.1189 86.3462 63.6267 86.8758 63.9101 87.0015L79.8837 76.885C81.0119 76.1695 81.7398 74.9828 81.8461 73.6545C82.5014 65.4472 82.3756 45.007 84.3911 41.4772C86.8299 37.2018 98.629 37.1451 96.8526 48.5581C95.6323 56.4076 92.8127 71.508 90.5917 80.7761C90.3048 81.977 89.522 82.9847 88.431 83.5532C83.6791 86.0363 71.0459 91.7428 65.4882 93.59C64.2714 94.2152 62.6349 94.8918 61.5493 95.3222C60.7965 95.6197 59.9606 95.5807 59.2344 95.2141C58.8271 95.0069 58.4144 94.8121 57.9681 94.7093C57.5005 94.5978 57.0099 94.5889 56.5494 94.4455C55.5027 94.116 55.0582 93.6573 54.3409 92.8851C53.9618 92.476 53.3012 92.1997 52.8106 91.9199C52.3023 91.6294 51.2432 90.6306 50.7916 90.2356L54.5853 90.4906Z" fill="#FCBE9F"/>
<path d="M28.7774 71.5329C28.1664 71.0175 28.1664 70.5429 28.3258 70.0771C28.402 69.8557 29.036 66.7191 30.5113 66.0195C31.0214 65.7786 38.584 66.441 38.584 66.441C38.584 66.441 49.455 55.1025 49.7313 54.3462L55.1951 59.245L55.3262 62.2364C54.7098 62.5658 41.756 72.2856 41.6196 72.3582C40.9254 72.7231 40.5836 73.9115 40.4472 74.6855C40.2878 75.6153 40.5464 76.7842 39.4855 76.7098C38.8089 76.6656 38.3608 76.0209 38.1695 75.4311C37.8507 74.4588 38.2315 73.4758 38.0048 72.5C37.9677 72.353 37.9234 72.2042 37.8472 72.0749C37.4381 71.3629 36.6659 71.586 36.023 71.7472C35.6864 71.8322 34.9515 71.8978 34.684 72.1528C34.0305 72.7869 33.7684 75.1194 33.0582 75.6171C32.7146 75.8579 31.8945 75.8314 31.8857 75.1371C31.6395 75.8208 31.4057 76.5133 31.3845 76.5452C30.8957 77.2678 29.8365 76.763 29.6984 76.0156C29.1529 76.2281 28.5206 75.8615 28.2567 75.3425C27.8653 74.5827 28.1327 73.8956 28.2833 73.1358C28.3754 72.6646 28.7774 71.5329 28.7774 71.5329Z" fill="#FCBE9F"/>
<path d="M97.4708 62.7847C97.4708 62.7847 90.4856 68.1724 80.2789 62.8927C79.4872 56.0368 80.8686 36.0022 88.7216 36.4467C98.7301 37.0135 98.351 49.4661 97.4708 62.7847Z" fill="#FF5F5F"/>
<path d="M66.201 23.5327C68.7177 23.6673 73.5864 24.413 77.1818 26.5949C81.4979 29.2144 84.0164 30.881 83.1131 32.2288C79.64 37.4022 73.482 42.6162 67.6179 39.9295L67.4744 39.8622C63.2911 37.9264 61.2171 33.0683 62.8837 28.7698C63.7746 26.4674 64.9718 25.3959 66.201 23.5327Z" fill="#FCBE9F"/>
<path d="M74.2183 18.8672L80.0735 30.5387C80.0735 30.5387 80.0186 32.1699 77.7905 34.7522C74.3564 38.7389 71.0551 38.9585 69.0166 38.5494C67.6812 38.2819 66.6344 37.2529 66.3015 35.9299L65.972 34.6353L74.2183 18.8672Z" fill="#FFAA80"/>
<path d="M71.679 4.42079C76.4538 6.65237 79.8402 10.3752 78.0673 19.6912C76.7053 26.8571 70.1434 33.759 64.4706 37.326C63.0679 38.208 58.8845 38.9802 57.7687 35.7727C56.8212 33.0559 54.6835 25.1462 55.0678 18.4125C55.3778 12.9965 55.8825 8.37211 60.2359 5.3152C63.2184 3.22176 66.6809 2.08471 71.679 4.42079Z" fill="#FCBE9F"/>
<path d="M69.61 22.56C68.9795 21.1537 69.0184 20.0326 67.5537 19.1666C65.1309 17.7355 57.7348 14.8876 55.4394 15.4933C55.2747 15.4862 55.2463 15.4437 55.2162 15.4047C54.8354 14.8433 54.2669 14.0145 54.4334 13.2901C54.5769 12.672 55.1189 12.2044 55.1436 11.5172C55.1631 11.0248 54.8496 10.5714 54.8425 10.0791C54.8248 9.24666 55.6431 8.65512 55.9566 7.88115C56.3551 6.88934 55.9034 5.63185 56.5322 4.76579C57.0759 4.0113 58.1882 3.9192 58.8559 3.27629C59.9593 2.21717 59.3659 2.16757 61.369 2.21008C62.2794 2.22956 62.5557 1.5902 63.2854 1.25192C63.9867 0.926036 64.8014 1.13503 65.5382 0.970319C66.298 0.802065 66.9569 0.245942 67.7309 0.230002C68.5969 0.208749 69.3213 0.856971 70.1413 1.13858C71.2128 1.50342 72.4739 1.2413 73.4462 1.82576C74.2644 2.31636 74.7108 3.32056 75.5928 3.68717C75.9558 3.83949 76.3703 3.86783 76.7227 4.05379C77.6455 4.54616 77.7092 5.82311 78.2406 6.72106C78.7418 7.56764 79.7088 8.11493 80.0312 9.04476C80.4403 10.2208 79.6663 11.5561 80.0329 12.7481C80.164 13.1767 80.4385 13.5593 80.5182 14.0003C80.69 14.9141 80.0134 15.7519 79.8292 16.6622C79.4378 18.5839 80.4916 19.1134 78.3167 22.6237C78.0085 23.1214 76.28 26.1535 75.5326 25.9321C74.7108 25.686 75.5325 22.7194 75.4546 21.8657C75.3236 20.4595 73.8483 19.6111 72.7573 20.6401C71.9266 21.4194 71.9957 22.9408 70.74 23.2295C70.1644 23.3588 69.8332 23.0559 69.61 22.56Z" fill="#30307A"/>
</svg>
