<svg width="652" height="386" viewBox="0 0 652 386" fill="none" xmlns="http://www.w3.org/2000/svg">
<g clip-path="url(#clip0_1_8205)">
<path d="M240.496 373.739C330.169 425.414 475.556 425.414 565.226 373.739C654.895 322.065 654.895 238.282 565.226 186.607C475.558 134.932 330.17 134.932 240.496 186.607C150.831 238.282 150.831 322.063 240.496 373.739Z" fill="#FFDA40"/>
<path d="M240.496 373.74C330.169 425.414 475.556 425.414 565.226 373.74V392.149C475.558 443.822 330.171 443.822 240.496 392.149C195.13 366 172.714 331.627 173.257 297.365V278.954C172.714 313.227 195.13 347.589 240.496 373.74Z" fill="url(#paint0_linear_1_8205)"/>
<path d="M399.354 218.965L400.735 277.796L404.688 279.044L565.25 186.545L565.135 124.328L399.354 218.965Z" fill="#D6850F"/>
<path d="M400.695 219.097L400.684 280.675L238.347 187.075L238.227 124.862L400.695 219.097Z" fill="#FFBD29"/>
<path opacity="0.7" d="M238.227 124.861L400.695 219.096L565.135 124.327C474.629 72.7926 328.918 72.9688 238.227 124.861Z" fill="#FFDA40"/>
<path d="M633.123 241.598L633.199 273.666L400.674 278.321L400.684 241.598H633.123Z" fill="#D6850F"/>
<path opacity="0.7" d="M565.266 146.521C610.39 172.877 633.139 207.184 633.164 241.592L400.684 241.597L565.266 146.521Z" fill="#FFDA40"/>
<path d="M565.482 354.654C598.007 335.912 621.291 311.454 630.104 283.433C632.187 276.03 633.21 268.848 633.19 261.441L633.27 267.011C633.38 278.522 633.275 306.059 630.113 317.414C630.113 317.414 629.816 318.661 629.811 318.621C622.722 346.221 600.79 371.675 563.938 392.913C562.466 393.758 560.949 394.563 559.441 395.378L559.411 358.027C561.469 356.918 563.491 355.802 565.482 354.654Z" fill="#D6850F"/>
<path d="M400.654 261.703L400.695 280.695L559.453 377.02L559.413 358.027L400.654 261.703Z" fill="#FFBD29"/>
<path opacity="0.7" d="M400.654 261.703L559.413 358.027C561.469 356.92 563.492 355.802 565.482 354.655C598.007 335.912 621.291 311.454 630.104 283.433C632.091 276.85 633.094 269.487 633.2 261.416L400.654 261.703Z" fill="#FFDA40"/>
<path d="M242.545 266.571L266.678 280.675L314.588 253.3L314.945 253.093L339.311 183.747L339.392 183.514L387.659 155.932L387.809 155.507L412.244 85.8707L424.329 92.9351L423.076 35.8926L376.062 64.7276L387.421 71.3659L363.525 140.575L362.748 141.02L314.632 168.783L314.569 168.958L290.812 238.989L290.323 239.272L242.545 266.571Z" fill="#BA353B"/>
<path d="M314.569 168.959L339.311 183.747L339.392 183.514L387.659 155.933L387.809 155.507L362.748 141.021L314.632 168.784L314.569 168.959Z" fill="#E7424A"/>
<path d="M242.545 266.571L266.678 280.675L314.588 253.301L290.323 239.272L242.545 266.571Z" fill="#E7424A"/>
<g style="mix-blend-mode:multiply" opacity="0.3">
<path d="M376.359 357.446C386.564 358.412 425.084 358.327 439.937 355.851C472.563 350.41 485.107 319.425 450.571 312.631C427.487 308.086 404.62 309.75 404.62 309.75L405.055 314.093C405.441 314.849 414.613 319.824 417.727 326.262C419.551 330.032 406.277 338.28 398.614 338.28C396.654 338.28 377.829 338.68 377.829 338.68C377.829 338.68 375.333 357.349 376.359 357.446Z" fill="#0E0C0C"/>
</g>
<path d="M454.802 195.549C440.353 188.812 428.939 184.997 428.939 184.997C428.939 184.997 423.733 169.405 419.974 161.096C418.28 162.709 409.676 171.984 409.558 172.043C412.761 180.952 417.584 189.123 419.96 192.877C420.878 194.334 422.251 195.431 423.888 195.961C431.667 198.471 450.417 202.843 453.893 203.736C458.557 204.936 459.027 197.516 454.802 195.549Z" fill="#FCBE9F"/>
<path d="M430.344 177.897C430.825 180.128 412.488 188.247 410.908 183.4C408.351 175.569 401.383 152.845 414.296 152.327C421.7 152.032 428.798 170.696 430.344 177.897Z" fill="#FFF8EF"/>
<path d="M427.491 319.856C425.892 318.258 422.852 316.123 419.702 314.167C417.708 314.252 415.205 313.919 413.106 313.672C408.812 313.165 403.811 312.278 400.266 309.553C400.132 310.368 400.071 311.236 400.071 312.093C400.071 313.807 399.953 314.723 401.848 316.067C411.39 322.828 412.743 323.714 414.487 324.73C416.462 325.879 419.076 327.536 424.543 326.371C427.788 325.348 428.005 324.065 427.945 323.069C427.916 322.535 428.135 320.502 427.491 319.856Z" fill="#E4DED2"/>
<path d="M427.019 318.679C425.362 317.142 420.403 313.274 417.731 310.972C416.298 309.743 415.115 308.659 414.357 306.93C414.302 306.8 414.254 306.682 414.215 306.574C413.242 303.835 405.724 302.765 402.2 304.306C400.543 305.03 400.069 307.753 400.069 310.309C400.069 312.023 400.159 312.73 402.054 314.074C411.596 320.834 414.171 322.313 415.964 323.237C417.693 324.128 419.509 324.98 423.46 324.397C424.8 324.201 426.109 323.65 427.089 322.714C427.956 321.888 428.432 319.991 427.019 318.679Z" fill="#FFFBF3"/>
<path d="M371.298 360.875C375.057 363.832 383.927 364.717 386.05 359.653C387.039 357.297 383.141 341.904 382.749 337.443C382.64 336.169 382.449 333.926 382.449 333.926C382.089 333.504 380.757 333.244 380.245 333.032C378.06 332.127 374.236 333.244 371.877 333.244C370.672 333.244 370.087 341.324 370.03 342.127C369.694 347.033 368.372 358.572 371.298 360.875Z" fill="#E4DED2"/>
<path d="M371.094 358.227C374.852 361.184 383.724 362.072 385.846 357.005C386.835 354.65 383.278 339.273 382.888 334.812C382.775 333.538 382.585 331.295 382.585 331.295C382.227 330.872 380.55 330.597 380.039 330.389C377.855 329.483 374.032 330.599 371.672 330.599C370.466 330.599 369.882 338.68 369.825 339.482C369.491 344.386 368.167 355.927 371.094 358.227Z" fill="#FFFBF3"/>
<path d="M384.385 219.662C374.954 223.76 378.005 256.095 378.021 270.167C378.026 272.835 378.019 275.507 377.736 278.157C377.238 282.808 375.884 287.315 374.212 291.667C371.026 299.953 369.196 324.231 369.441 333.079C369.811 338.481 384.26 337.304 384.183 334.207C387.511 312.301 390.356 308.45 393.164 295.86C393.642 293.714 394.001 291.536 394.644 289.433C395.242 287.483 396.088 285.618 396.703 283.674C397.944 279.759 398.463 276.131 399.066 272.066C400.348 263.38 400.807 257.445 401.262 250.116L402.455 272.848C401.793 275.573 401.19 279.46 400.756 282.229C399.968 287.252 400.9 293.205 400.638 298.281C400.427 302.397 399.903 305.778 399.947 306.397C400.189 309.756 413.233 312.021 415.359 307.428C416.213 295.877 417.063 293.886 419.169 280.846C419.528 278.627 420 274.98 420.073 272.736C420.196 268.938 422.112 265.508 422.804 261.808C424.77 251.305 425.654 217.91 420.268 216.564C411.299 214.323 392.577 216.105 384.385 219.662Z" fill="#333372"/>
<path d="M423.268 221.791C422.434 211.696 419.636 202.516 420.698 187.33C421.326 178.328 425.82 160.715 418.153 154.735C412.946 150.673 409.195 153.028 404.031 153.99C390.936 156.425 380.403 161.429 378.476 164.832C374.082 172.597 379.178 188.656 381.424 206.973C381.637 208.725 381.667 210.489 381.542 212.251C381.304 215.62 380.773 221.425 379.668 226.386C378.003 233.895 424.406 235.536 423.268 221.791Z" fill="#FFF8EF"/>
<path d="M409.399 152.254C403.825 151.561 397.964 149.049 393.078 146.874C394.862 150.681 394.317 155.624 394.247 157.85C394.149 160.776 397.617 164.534 402.723 164.534C408.819 164.534 410.82 162.076 410.148 159.13C409.63 156.88 409.499 154.568 409.399 152.254Z" fill="#F1A782"/>
<path d="M437.212 209.234C436.574 209.074 435.66 209.117 435.286 209.088C433.942 208.98 424.33 208.42 425.011 207.737C426.391 207.397 429.034 206.448 429.426 204.938C429.515 204.594 429.532 204.171 429.262 203.942C428.925 203.66 428.424 203.863 428.024 204.039C424.975 205.376 421.298 204.489 418.255 205.844C417.377 206.238 416.644 206.584 415.857 206.743C408.052 204.954 389.915 201.345 389.915 201.345C389.915 201.345 390.118 176.784 389.201 170.125C387.963 161.151 380.543 162.082 379.348 163.723C370.788 175.47 376.235 200.277 377.894 206.503C379.554 212.727 411.476 214.068 415.504 214.724C416.103 214.819 416.872 215.46 417.442 215.723C418.029 215.998 418.626 216.251 419.245 216.457C420.244 216.79 424.635 217.442 425.467 217.017C427.431 216.015 429.67 211.549 429.67 211.549C430.18 211.335 435.597 211.235 436.501 210.994C436.967 210.871 437.468 210.695 437.729 210.28C438.113 209.661 437.768 209.372 437.212 209.234Z" fill="#FCBE9F"/>
<path d="M439.357 216.805L453.895 193.442C454.121 193.075 454.593 192.594 455.101 192.186C455.368 191.973 455.643 191.78 455.898 191.634L476.239 179.889C476.716 179.622 476.997 179.563 477.083 179.67L477.634 180.328C477.546 180.221 477.267 180.279 476.847 180.513C476.792 180.544 456.45 192.287 456.45 192.287C456.193 192.437 455.919 192.63 455.653 192.843C455.143 193.25 454.671 193.731 454.444 194.099L439.906 217.463C439.766 217.685 439.737 217.834 439.799 217.906L439.25 217.253C439.19 217.176 439.216 217.027 439.357 216.805Z" fill="#FFF8EF"/>
<path d="M476.79 180.544L456.449 192.287C455.699 192.722 454.792 193.541 454.442 194.098L439.904 217.462C439.557 218.019 439.89 218.123 440.643 217.688L460.984 205.944C461.734 205.509 462.64 204.692 462.988 204.133L477.525 180.773C477.871 180.213 477.54 180.109 476.79 180.544Z" fill="#EEE8DE"/>
<path d="M468.921 199.844C468.24 202.119 466.766 204.152 464.816 205.51C462.866 206.863 460.445 207.535 458.074 207.375C457.973 207.368 457.864 207.356 457.783 207.297C457.678 207.217 457.64 207.08 457.622 206.952C457.499 206.134 457.771 205.314 458.084 204.547C459.025 202.24 460.384 200.085 462.198 198.377C463.694 196.972 465.503 195.878 467.48 195.306C467.825 195.208 468.493 194.91 468.811 195.123C469.096 195.316 469.18 196.243 469.226 196.554C469.38 197.651 469.233 198.784 468.921 199.844Z" fill="#FCBE9F"/>
<path d="M392.138 191.933C391.767 194.187 371.731 195.017 372.038 189.925C372.532 181.704 374.383 158.007 386.583 162.262C393.58 164.699 393.339 184.666 392.138 191.933Z" fill="#FFF8EF"/>
<path d="M416.22 140.257C416.269 138.379 416.023 136.345 414.44 135.294C411.993 133.669 406.345 130.79 396.55 136.122C395.141 136.892 394.235 138.344 393.272 139.633C392.168 141.111 392.152 141.992 392.327 143.681C392.662 146.862 392.171 148.211 396.696 153.399C400.502 157.76 405.926 161.233 407.142 161.867C408.705 162.684 410.259 162.878 411.798 162.452C413.231 162.052 414.694 160.632 415.085 157.216C415.385 154.611 416.038 147.187 416.22 140.257Z" fill="#FCBE9F"/>
<path d="M398.72 146.023C399.21 146.961 401.171 147.303 401.708 145.1C402.357 142.421 404.897 141.822 406.83 141.749C409.968 141.631 412.749 141.032 415.018 139.758C415.483 139.497 415.851 139.187 416.18 138.768C416.18 138.768 417.281 137.548 416.308 134.594C415.794 133.033 413.419 126.92 406.889 125.318C403.804 124.562 400.484 124.767 397.469 125.764C385.937 129.575 389.566 144.046 391.113 146.709C392.214 148.605 394.355 151.232 395.659 152.207C394.98 150.056 392.378 145.689 394.663 144.209C395.53 143.65 396.588 143.638 397.423 144.246C398.075 144.724 398.351 145.32 398.72 146.023Z" fill="#333372"/>
</g>
<defs>
<linearGradient id="paint0_linear_1_8205" x1="518.099" y1="354.929" x2="242.088" y2="354.929" gradientUnits="userSpaceOnUse">
<stop stop-color="#D6850F"/>
<stop offset="1" stop-color="#FFBD29"/>
</linearGradient>
<clipPath id="clip0_1_8205">
<rect width="651" height="386" fill="white" transform="matrix(-1 0 0 1 651.228 0)"/>
</clipPath>
</defs>
</svg>
