<svg width="125" height="32" viewBox="0 0 125 32" fill="none" xmlns="http://www.w3.org/2000/svg">
<path d="M33.5329 23.3609H17.9605V19.9889L25.1337 12.4479C26.9014 10.435 27.7853 8.83584 27.7853 7.65054C27.7853 6.69003 27.5758 5.95944 27.1568 5.45875C26.7379 4.95806 26.1299 4.70772 25.3329 4.70772C24.5461 4.70772 23.9075 5.04492 23.417 5.71931C22.9265 6.38349 22.6813 7.21627 22.6813 8.21764H17.5007C17.5007 6.84841 17.843 5.58648 18.5277 4.43183C19.2123 3.26697 20.1625 2.35755 21.3785 1.70359C22.5945 1.04964 23.9535 0.722656 25.4555 0.722656C27.867 0.722656 29.7216 1.27954 31.0193 2.39332C32.3272 3.50709 32.9812 5.10623 32.9812 7.19072C32.9812 8.06948 32.8177 8.9278 32.4907 9.76568C32.1637 10.5934 31.6528 11.467 30.958 12.3866C30.2734 13.296 29.1647 14.5171 27.632 16.0498L24.7505 19.3758H33.5329V23.3609Z" fill="#0094FF"/>
<path d="M28.521 28.7977C28.521 28.0926 28.756 27.5204 29.226 27.0811C29.7063 26.6417 30.304 26.422 31.0193 26.422C31.7448 26.422 32.3425 26.6417 32.8126 27.0811C33.2928 27.5204 33.5329 28.0926 33.5329 28.7977C33.5329 29.4925 33.2979 30.0596 32.8279 30.499C32.3579 30.9282 31.755 31.1428 31.0193 31.1428C30.2938 31.1428 29.696 30.9282 29.226 30.499C28.756 30.0596 28.521 29.4925 28.521 28.7977Z" fill="#0094FF"/>
<path d="M4.9 14.6969L5.03794 16.5515C6.21303 15.1107 7.80194 14.3904 9.80469 14.3904C11.9403 14.3904 13.4066 15.2333 14.2036 16.9193C15.3685 15.2333 17.0289 14.3904 19.1849 14.3904C20.9833 14.3904 22.3219 14.9166 23.2006 15.9691C24.0794 17.0113 24.5188 18.5849 24.5188 20.6898V31.2809H20.0739V20.7051C20.0739 19.7651 19.89 19.0805 19.5221 18.6513C19.1543 18.2119 18.5054 17.9922 17.5756 17.9922C16.2472 17.9922 15.3276 18.6258 14.8167 19.8928L14.832 31.2809H10.4025V20.7205C10.4025 19.76 10.2134 19.0651 9.83535 18.636C9.45728 18.2068 8.81353 17.9922 7.90412 17.9922C6.6473 17.9922 5.73788 18.5134 5.17589 19.5556V31.2809H0.746338V14.6969H4.9Z" fill="white"/>
<path d="M43.9689 28.0162C44.7864 28.0162 45.4506 27.7914 45.9615 27.3418C46.4724 26.8922 46.738 26.2945 46.7585 25.5485H50.9121C50.9019 26.6725 50.5954 27.7046 49.9925 28.6446C49.3896 29.5745 48.562 30.2999 47.5095 30.8211C46.4673 31.332 45.3126 31.5874 44.0456 31.5874C41.675 31.5874 39.8051 30.8364 38.4358 29.3343C37.0666 27.8221 36.382 25.7376 36.382 23.0809V22.7896C36.382 20.2351 37.0615 18.1966 38.4205 16.6741C39.7795 15.1516 41.6443 14.3904 44.0149 14.3904C46.0892 14.3904 47.7496 14.983 48.9962 16.1683C50.2531 17.3434 50.8917 18.9119 50.9121 20.8737H46.7585C46.738 20.0154 46.4724 19.3206 45.9615 18.7893C45.4506 18.2477 44.7762 17.9769 43.9383 17.9769C42.9063 17.9769 42.1246 18.355 41.5932 19.1111C41.0721 19.857 40.8115 21.073 40.8115 22.759V23.2188C40.8115 24.9252 41.0721 26.1514 41.5932 26.8973C42.1144 27.6432 42.9063 28.0162 43.9689 28.0162Z" fill="white"/>
<path d="M61.0741 31.5874C58.6421 31.5874 56.6598 30.8415 55.1271 29.3497C53.6046 27.8578 52.8434 25.8704 52.8434 23.3874V22.9582C52.8434 21.2927 53.1652 19.806 53.809 18.498C54.4527 17.1799 55.3621 16.1683 56.5372 15.4633C57.7225 14.748 59.0713 14.3904 60.5836 14.3904C62.852 14.3904 64.6351 15.1056 65.9328 16.5362C67.2407 17.9667 67.8946 19.995 67.8946 22.621V24.4296H57.3342C57.4773 25.5128 57.9064 26.3813 58.6217 27.0353C59.3472 27.6892 60.2617 28.0162 61.3653 28.0162C63.0717 28.0162 64.4052 27.398 65.3657 26.1616L67.5421 28.5986C66.8779 29.5387 65.9787 30.2744 64.8445 30.8057C63.7103 31.3269 62.4535 31.5874 61.0741 31.5874ZM60.5683 17.9769C59.6895 17.9769 58.9742 18.2732 58.4225 18.8659C57.8809 19.4585 57.5335 20.3066 57.3802 21.4102H63.5417V21.0577C63.5213 20.0767 63.2556 19.3206 62.7447 18.7893C62.2338 18.2477 61.5083 17.9769 60.5683 17.9769Z" fill="white"/>
<path d="M74.5006 14.6969L74.6386 16.6128C75.8239 15.1312 77.4128 14.3904 79.4053 14.3904C81.1629 14.3904 82.4708 14.9064 83.3291 15.9384C84.1874 16.9704 84.6268 18.5134 84.6472 20.5672V31.2809H80.2177V20.6745C80.2177 19.7344 80.0133 19.0549 79.6046 18.636C79.1959 18.2068 78.5164 17.9922 77.5661 17.9922C76.3195 17.9922 75.3845 18.5236 74.7612 19.5863V31.2809H70.3317V14.6969H74.5006Z" fill="white"/>
<path d="M93.3224 10.6199V14.6969H96.1579V17.9463H93.3224V26.2229C93.3224 26.836 93.4399 27.2754 93.6749 27.5411C93.91 27.8067 94.3595 27.9396 95.0237 27.9396C95.5142 27.9396 95.9485 27.9038 96.3265 27.8323V31.1889C95.458 31.4546 94.5639 31.5874 93.6443 31.5874C90.538 31.5874 88.9542 30.019 88.8929 26.882V17.9463H86.4712V14.6969H88.8929V10.6199H93.3224Z" fill="white"/>
<path d="M106.259 31.5874C103.827 31.5874 101.844 30.8415 100.312 29.3497C98.7891 27.8578 98.0278 25.8704 98.0278 23.3874V22.9582C98.0278 21.2927 98.3497 19.806 98.9935 18.498C99.6372 17.1799 100.547 16.1683 101.722 15.4633C102.907 14.748 104.256 14.3904 105.768 14.3904C108.036 14.3904 109.82 15.1056 111.117 16.5362C112.425 17.9667 113.079 19.995 113.079 22.621V24.4296H102.519C102.662 25.5128 103.091 26.3813 103.806 27.0353C104.532 27.6892 105.446 28.0162 106.55 28.0162C108.256 28.0162 109.59 27.398 110.55 26.1616L112.727 28.5986C112.062 29.5387 111.163 30.2744 110.029 30.8057C108.895 31.3269 107.638 31.5874 106.259 31.5874ZM105.753 17.9769C104.874 17.9769 104.159 18.2732 103.607 18.8659C103.065 19.4585 102.718 20.3066 102.565 21.4102H108.726V21.0577C108.706 20.0767 108.44 19.3206 107.929 18.7893C107.418 18.2477 106.693 17.9769 105.753 17.9769Z" fill="white"/>
<path d="M124.927 18.8506C124.324 18.7688 123.793 18.7279 123.333 18.7279C121.657 18.7279 120.559 19.295 120.038 20.4293V31.2809H115.608V14.6969H119.792L119.915 16.6741C120.804 15.1516 122.035 14.3904 123.609 14.3904C124.099 14.3904 124.559 14.4568 124.988 14.5896L124.927 18.8506Z" fill="white"/>
</svg>
