<svg width="64" height="130" viewBox="0 0 64 130" fill="none" xmlns="http://www.w3.org/2000/svg">
<path d="M27.4029 39.9908C28.7911 37.6875 32.9163 30.7379 34.8221 26.8971C35.335 25.8621 34.7277 25.1359 34.8641 23.9668C35.0005 22.786 34.7068 21.7183 34.2254 20.5503C34.0074 20.0211 33.6914 19.4406 33.1238 19.2319C32.6074 19.0419 32.0736 19.2355 31.6283 19.4604C28.9485 20.8242 27.2723 23.5565 26.4121 26.2736C25.6125 28.7983 23.6728 32.7674 22.8953 35.3119C22.7472 35.7957 22.555 36.3027 22.5154 36.8191C22.33 39.2727 23.8757 41.0515 25.6964 40.6028C26.5904 40.3825 26.6499 41.2427 27.4029 39.9908Z" fill="#8A99E4"/>
<path d="M16.588 47.4393C18.1907 47.3729 19.9567 46.1327 21.1888 45.4741C23.224 44.3854 25.2697 43.2897 27.2152 42.0448C27.9985 41.5424 27.8061 40.6367 28.3517 39.8161C28.9007 38.9861 29.0766 37.9977 29.1489 36.8262C29.1804 36.2947 29.1571 35.6664 28.8004 35.1815C28.4764 34.7397 27.9938 34.5823 27.5684 34.503C25.0028 34.017 22.6878 35.1582 21.0058 36.7528C19.6583 38.0338 18.0929 39.0782 16.6335 40.224C15.9528 40.759 15.2709 41.3116 14.6484 41.9131C13.9724 42.5693 13.8383 43.6731 13.8616 44.6115C13.8826 45.5043 14.2195 46.4345 14.9399 46.9637C15.4457 47.3332 16.0063 47.4638 16.588 47.4393Z" fill="#8A99E4"/>
<path d="M12.6783 45.2752C11.9672 45.8837 11.2178 46.421 10.8797 47.3558C10.5627 48.2382 10.6489 49.3107 11.2865 49.9972C11.9265 50.6838 13.1597 50.7933 13.7821 50.0916C14.1621 49.6603 14.2485 49.0542 14.4536 48.5168C14.7264 47.7976 15.2369 47.1705 15.8862 46.7544C16.2394 46.5282 16.631 46.3639 16.969 46.1133C17.307 45.8638 17.5938 45.4978 17.6066 45.0782C17.6346 44.127 16.1764 43.233 15.3476 43.1223C15.0119 43.0792 14.6518 43.1235 14.3744 43.3193C14.1063 43.5081 13.9453 43.8088 13.7705 44.0862C13.4709 44.5641 13.0804 44.9325 12.6783 45.2752Z" fill="#FFC7AD"/>
<path d="M46.4727 21.0123C44.5553 20.1404 43.8582 19.6625 41.8428 19.2079C41.5176 19.1344 40.4184 19.547 40.0909 19.4771C37.6431 18.9596 35.0366 19.075 32.7671 20.0739C32.7415 20.0856 32.7159 20.0984 32.6914 20.1112V35.1374H47.0928L46.4727 21.0123Z" fill="#F9F7FC"/>
<path d="M45.7116 21.6605C45.7116 21.6605 36.6032 27.0597 36.7361 22.0673C36.9214 15.1073 37.3154 14.3099 40.3647 13.2294C41.2005 12.9345 42.0747 12.7072 42.9582 12.6897C46.1777 12.6256 44.9305 14.3822 44.8104 15.6096C44.4502 19.2452 45.6556 19.7488 45.7116 21.6605Z" fill="#F3A984"/>
<path d="M46.4727 21.0123C44.5553 20.1404 43.8582 19.6625 41.8428 19.2079C41.5176 19.1344 40.4184 19.547 40.0909 19.4771C37.6431 18.9596 35.0366 19.075 32.7671 20.0739C32.7415 20.0856 32.7159 20.0984 32.6914 20.1112V35.1374H47.0928L46.4727 21.0123Z" fill="#F3A984"/>
<path d="M44.4072 23.289C45.0086 22.8111 46.4715 21.0125 46.4715 21.0125C45.905 20.7537 45.4492 20.5346 45.0296 20.3353C43.9455 22.1071 40.5221 24.6225 37.1895 24.1994C35.6334 24.0024 35.1228 22.3262 33.7602 19.7419C33.428 19.8492 33.0876 19.9331 32.7659 20.0742C32.7402 20.0858 32.7147 20.0986 32.6902 20.1115C32.6902 20.1115 34.4094 23.493 35.3758 24.4605C37.8469 26.9328 42.6238 24.7041 44.4072 23.289Z" fill="#DCD9F6"/>
<path d="M35.7592 18.9507C35.7184 18.9518 35.6787 18.9541 35.6379 18.9553C35.9946 18.8469 36.1998 18.939 35.7592 18.9507Z" fill="#DCD9F6"/>
<path d="M54.3688 27.9532C54.4259 28.5721 53.5772 29.4079 53.3721 30.1283C53.1448 30.9769 52.8581 31.8021 52.5364 32.6146C50.7961 37.0452 48.0708 41.1447 47.2805 45.8411C46.9704 47.6839 46.9704 49.5513 47.0742 51.4047C47.1313 52.287 47.2805 53.1916 47.2338 54.0611C47.2222 54.3013 47.2805 54.7372 47.2338 54.9436C47.1651 55.2641 47.0055 55.3783 46.7082 55.608C45.1043 56.8552 43.2031 57.5767 41.2355 57.9206C39.1163 58.275 36.8259 58.1269 34.7872 57.783C34.1811 57.6793 33.6075 57.565 33.0585 57.4403C30.6316 56.8668 28.8099 56.1337 28.501 55.9052C28.0545 55.5614 28.2492 55.6639 28.628 52.4246C30.1853 39.1188 24.3105 38.8776 26.601 31.9152C26.9891 30.7251 27.7911 29.6026 28.2841 28.4113C30.1048 24.0483 28.959 19.1934 35.6358 18.9521C35.2232 19.078 34.6054 19.4791 34.5471 20.5899C34.4108 23.3956 36.1277 23.9317 36.5053 24.0588C39.5756 25.102 45.0821 25.0904 46.468 21.0141C49.353 22.7544 54.0599 24.4842 54.3688 27.9532Z" fill="#B0BFFF"/>
<path d="M34.1775 19.05C34.1356 20.2402 34.5762 21.8814 35.2278 22.8816C35.6952 23.5973 36.602 23.9784 36.602 23.9784L32.985 26.9542C32.985 26.9542 31.7204 24.0681 32.1925 22.1588C32.4023 21.316 32.8359 19.0582 34.1775 19.05Z" fill="#DCDCE4"/>
<path d="M45.4724 20.0631C45.5598 20.0526 45.6275 20.0806 45.6753 20.1436C45.6904 20.5446 45.0679 19.7263 44.7811 19.9139C43.8334 20.5364 43.2449 22.3863 41.6095 23.3631C39.2491 24.7735 36.8082 24.0648 36.6007 23.9785C36.5133 25.0859 37.3351 28.6655 37.4855 29.1842C39.3074 28.9558 42.6818 26.7434 44.2508 25.875C45.1728 25.3645 46.0132 24.5741 46.497 23.6416C46.7826 23.0926 47.1602 22.4783 47.0565 21.8349C47.018 21.589 46.5541 19.9629 46.1508 20.2881L45.4724 20.0631Z" fill="#DCDCE4"/>
<path d="M44.3547 118.038L45.1217 123.143C45.4655 123.323 45.6847 123.238 45.8991 123.049L45.8888 116.906L44.3547 118.038Z" fill="#161620"/>
<path d="M38.5441 128.355C38.6222 128.59 38.7388 128.811 38.9078 128.998C39.3123 129.446 39.7879 129.761 40.3952 129.851C40.7752 129.907 41.1447 129.808 41.506 129.699C42.1856 129.492 42.6169 129.008 42.9748 128.419C43.4049 127.706 43.7556 127.042 43.9258 126.227C44.0039 125.857 44.5821 122.82 44.7872 122.3C44.9784 121.815 46.0462 117.977 45.8702 116.526C45.8247 116.156 45.6953 115.846 45.4004 115.605C45.1428 115.394 44.7092 115.219 44.384 115.167C44.0308 115.108 43.6554 115.179 43.3057 115.221C43.0796 115.249 42.9152 115.246 42.7043 115.355C42.1774 115.628 41.7181 114.923 41.3498 115.384C40.9395 115.896 40.5501 117.166 40.2167 118.117C40.0431 118.612 39.2704 121.857 39.0093 123C38.8193 123.833 38.6025 124.662 38.4929 125.509C38.3705 126.451 38.2411 127.436 38.5441 128.355Z" fill="#161620"/>
<path d="M37.6115 120.324L37.7585 114.394L36.0857 114.197L36.369 120.348C36.7537 120.637 37.2326 120.733 37.6115 120.324Z" fill="#161620"/>
<path d="M26.3689 122.25C26.1264 122.795 25.7872 123.339 25.7989 123.951C25.8047 124.225 25.8734 124.368 26.0995 124.538C26.5378 124.865 27.264 125.095 27.7885 125.131C28.3748 125.173 29.0218 125.163 29.5942 125.024C30.5465 124.79 31.4708 124.424 32.3112 123.923C32.8217 123.618 33.2577 123.216 33.5199 122.681C33.781 122.149 33.879 121.517 33.9629 120.936C34.1261 119.815 34.4456 118.6 35.3792 117.959C35.6357 117.784 35.927 117.661 36.1893 117.497C38.1278 116.281 38.1942 113.49 36.813 111.839C36.0634 110.941 35.2475 111.116 34.3232 111.654C33.2146 112.301 32.7076 113.373 31.936 114.344C31.8252 114.48 31.7133 114.614 31.5909 114.743C30.7598 115.617 31.564 111.253 31.1584 112.456C30.0195 115.837 26.6708 121.572 26.3689 122.25Z" fill="#161620"/>
<path d="M29.3191 92.1189C30.5349 97.2861 30.4207 97.1439 31.0455 101.913C31.3299 104.081 31.8625 112.087 29.7679 116.777C29.2888 117.848 32.8546 114.554 33.8255 113.894C34.497 113.437 35.7966 112.365 35.7779 111.551C35.6695 106.959 37.5194 101.867 38.0696 97.3048C38.4706 93.9722 38.0207 87.553 36.9693 83.8486L29.3191 92.1189Z" fill="#F3A984"/>
<path d="M30.5302 114.819C30.4381 115.199 30.2574 115.576 30.107 115.936C29.9601 116.287 27.5065 120.079 28.5381 120.598C29.1337 120.899 30.3588 120.27 30.7003 119.924C31.5221 119.087 31.8019 118.267 32.5444 117.359C33.2042 116.55 34.1855 116.028 35.1099 115.574C35.5085 115.379 35.8793 115.148 36.1556 114.791C36.602 114.215 36.813 113.326 36.6475 112.628C36.5484 112.213 36.4329 111.85 36.2324 111.47C36.0482 111.123 35.8431 110.78 35.7708 110.387C35.6449 109.704 35.5844 108.956 35.1357 108.392C35.1357 108.391 30.6164 114.466 30.5302 114.819Z" fill="#F3A984"/>
<path d="M37.0928 79.3215C37.6814 87.3038 39.8343 99.3996 40.4988 107.371C40.6794 109.551 40.9662 116.15 40.12 120.914C39.9137 122.069 42.9733 122.054 43.9746 121.441C44.6682 121.016 45.392 117.81 45.3582 116.997C45.1554 112.07 47.5218 108.089 48.2864 103.559C49.0709 98.9019 48.2864 91.6342 46.3584 87.3225C45.9644 86.4448 45.3932 85.4924 44.4467 85.3199L37.0928 79.3215Z" fill="#FFC7AD"/>
<path d="M41.2017 117.069C41.0816 117.616 40.6083 116.434 40.5675 116.989C40.522 117.613 40.0733 120.481 39.9451 121.091C39.7866 121.839 39.6653 122.829 39.7702 123.601C39.8623 124.271 40.092 124.885 40.7156 125.153C41.4418 125.466 42.323 124.907 42.8406 124.328C43.3942 123.71 43.611 123.202 43.9526 122.448C44.2603 121.769 44.5936 121.071 44.7545 120.347C45.0681 118.93 45.4492 117.338 45.3279 115.875C45.3151 115.722 44.9294 113.814 44.8268 113.88C44.5727 114.046 44.3466 114.257 44.1158 114.457C43.2089 115.241 42.302 116.023 41.3963 116.805C41.0536 117.102 41.3066 116.593 41.2017 117.069Z" fill="#FFC7AD"/>
<path d="M50.5675 81.0194C49.9812 84.753 49.4555 89.6907 49.0184 93.4452C48.6768 96.4036 40.2692 96.8138 38.319 96.85C36.7478 96.8814 29.7108 96.0632 29.205 94.4045C28.5499 92.2446 28.0486 80.369 27.8761 77.1694C27.5427 71.0463 26.9215 65.0013 27.5346 58.8898C27.5428 58.7651 27.559 58.645 27.5706 58.5203C27.5834 58.3839 27.5987 58.244 27.615 58.1077C27.6313 57.9585 27.6511 57.8104 27.6709 57.6612C27.6919 57.4969 27.7106 57.329 27.7362 57.1635C27.8318 56.4851 28.4542 53.7797 28.4542 53.7797C28.4542 53.7797 29.1198 56.2403 32.4489 56.8989C42.7869 58.9598 47.5171 53.6223 47.2198 53.0698C48.0696 54.3462 48.8215 55.471 49.4521 56.6099C49.4602 56.6227 49.4637 56.6308 49.4719 56.6413C49.5325 56.7462 49.5896 56.8546 49.6409 56.963C49.7621 57.1868 49.874 57.413 49.9871 57.6415C50.7821 59.2873 51.3275 61.0661 51.5676 63.4627C51.9896 67.6473 51.2109 76.9001 50.5675 81.0194Z" fill="#475274"/>
<path d="M41.8265 18.6294C42.1353 18.2214 43.0258 16.3995 43.182 15.9123C43.3208 15.4763 43.5935 15.1441 43.7368 14.707C44.0947 13.6276 44.3768 12.5156 44.4036 11.3744C44.4456 9.63415 44.0435 7.86704 43.132 6.37502C42.5398 5.40638 41.7389 4.57416 40.7866 3.95404C38.3784 2.38276 35.0995 2.25917 32.5806 3.64278C31.8975 4.01811 31.2751 4.49252 30.6795 4.99375C30.1666 5.4262 29.6629 5.89363 29.3307 6.47762C29.1116 6.86111 28.9729 7.28422 28.854 7.71084C28.7212 8.18875 28.6115 8.67834 28.6022 9.17607C28.5707 10.949 29.741 12.4235 30.0837 14.1125C30.2574 14.9623 29.9427 15.7724 30.0464 16.6431C30.1385 17.4078 30.4288 18.1328 30.8625 18.7681C31.3287 19.4512 31.6644 20.224 32.0595 20.9513C32.3917 21.5621 32.7286 22.1811 33.196 22.6974C34.8046 24.4739 36.7443 22.856 38.2864 21.8489C38.755 21.5447 41.2238 19.4267 41.8265 18.6294Z" fill="#FFC7AD"/>
<path d="M45.9538 7.0843C44.8628 3.0034 43.2517 2.52311 41.3879 1.57078C39.58 0.647598 37.426 0.618509 35.4537 1.05562C30.3261 2.19328 28.6417 5.95594 28.3934 7.02133C28.1615 8.01679 27.6532 9.6988 28.5659 10.5276C29.0426 10.9612 29.8015 10.7886 30.4356 10.7898C31.3354 10.7933 32.2343 10.7968 33.1318 10.8003C33.9699 10.8027 34.865 10.8015 35.6448 11.15C36.4176 11.4974 36.9842 12.2038 37.6615 12.712C38.6814 13.4755 40.4252 14.7915 41.6316 13.8671C42.1457 13.4731 42.6329 12.8926 43.3556 13.1386C44.0235 13.3659 43.978 14.1807 43.9663 14.7623C43.9628 14.8719 43.9174 15.7042 44.238 15.6331C44.5643 15.5608 47.264 11.9905 45.9538 7.0843Z" fill="#2F262C"/>
<path d="M42.7263 15.9233C42.7752 16.4502 42.7309 16.9701 42.6178 17.4877C42.3824 18.581 41.8928 19.6347 41.381 20.622C40.4066 22.508 39.2935 24.5689 39.0697 26.7137C38.9368 27.9854 39.1931 29.0007 39.6512 30.1815C40.3017 31.8565 41.6049 34.4663 43.8616 33.8952C44.9969 33.6073 44.8046 32.0138 44.9177 31.135C45.124 29.5439 45.6438 28.0506 46.5122 26.7055C47.1311 25.7473 47.883 25.0072 48.0695 23.8275C48.2875 22.4544 47.6906 21.0417 47.5671 19.6849C47.4599 18.5053 47.4995 17.3093 47.6697 16.1378C47.7466 15.6075 47.9588 10.4274 47.6382 9.24546C47.2408 7.78142 45.68 4.30896 43.6681 5.47343C42.0618 6.40128 41.4288 8.26863 41.2167 9.98444C41.1759 10.3108 40.6024 12.9253 41.0908 13.2599C41.3414 13.4301 41.6911 13.4592 41.9032 13.6515C42.0629 13.7914 42.675 15.3836 42.7263 15.9233Z" fill="#2F262C"/>
<path d="M42.6574 11.676C44.0399 11.2599 44.7963 12.9198 44.1412 14.4864C43.9501 14.9445 43.5328 15.406 43.2367 15.8047C41.2143 18.5241 40.051 16.3514 40.6827 15.4399C42.1491 13.3184 40.9183 12.2006 42.6574 11.676Z" fill="#FFC7AD"/>
<path d="M16.2418 64.0172L0.494141 54.9229L21.0163 43.0742L36.7641 52.1674L16.2418 64.0172Z" fill="#EDECF8"/>
<path d="M25.5914 51.8118L26.9692 52.6067L10.8263 54.8984L9.39844 54.0743L25.5914 51.8118ZM15.2488 47.9116C16.418 47.2367 17.5031 47.1423 18.8879 47.9419L20.2762 48.7438C21.6213 49.5202 21.4709 50.1543 20.303 50.8292L18.6268 51.7955C17.46 52.4692 16.3736 52.5648 14.9853 51.7628L13.5994 50.962C12.2543 50.1857 12.4058 49.5516 13.5726 48.8767L15.2488 47.9116ZM15.1357 50.2953L16.1464 50.8793C16.7607 51.2348 17.0637 51.1462 17.5078 50.8898L18.7305 50.1845C19.283 49.8651 19.2201 49.6892 18.7422 49.4141L17.7316 48.8301C17.2059 48.527 16.9028 48.5119 16.3678 48.8208L15.1462 49.5248C14.6753 49.7952 14.5972 49.9829 15.1357 50.2953ZM17.777 54.8658C18.945 54.192 20.021 54.0929 21.4093 54.8925L22.8057 55.6968C24.1508 56.4743 23.9993 57.1073 22.8313 57.7822L21.1563 58.7497C19.9883 59.4234 18.9019 59.519 17.5159 58.7193L16.1184 57.9139C14.7732 57.1364 14.9317 56.507 16.1009 55.8321L17.777 54.8658ZM17.664 57.2506L18.6641 57.8288C19.2807 58.1832 19.5907 58.098 20.036 57.8428L21.2577 57.1376C21.8114 56.8205 21.7391 56.6387 21.26 56.3625L20.261 55.7843C19.7341 55.4812 19.4299 55.4661 18.8949 55.7738L17.6744 56.479C17.2024 56.7494 17.1255 56.9371 17.664 57.2506Z" fill="#FF2722"/>
<path d="M13.2296 45.7162C13.232 46.6336 13.3183 47.5521 13.4862 48.4532C13.5235 48.6513 13.5654 48.853 13.6715 49.0243C13.7764 49.1945 13.9594 49.3332 14.1611 49.3309C14.3767 49.3274 14.5643 49.1653 14.6622 48.9741C14.8371 48.6268 14.7718 48.2142 14.7345 47.8272C14.6972 47.4402 14.7147 46.9996 15.0003 46.735C15.1367 46.6103 15.3162 46.5415 15.4677 46.4354C16.0307 46.0473 16.0878 45.1416 15.639 44.6217C15.2404 44.1578 14.4466 43.9876 13.8661 44.1799C13.2157 44.3944 13.2273 45.1182 13.2296 45.7162Z" fill="#FFC7AD"/>
<path d="M50.9873 52.0777C50.908 52.256 50.8123 52.4285 50.6643 52.5789C50.4451 52.8004 50.1538 52.9496 49.8484 52.9484C49.4556 52.9473 49.0965 52.7083 48.7573 52.4868C48.2083 52.1302 47.6429 51.8003 47.0648 51.5007C46.9144 51.4226 46.7408 51.3445 46.5892 51.4156C46.4529 51.4786 46.3842 51.6499 46.3923 51.8107C46.3981 51.9168 46.6313 52.3667 46.58 52.4005C46.4728 52.4728 46.1416 52.3901 46.0145 52.3901C45.7942 52.3901 45.5728 52.3971 45.3525 52.4134C44.8967 52.4437 44.4468 52.509 44.0016 52.6057C43.1238 52.7946 42.274 53.1093 41.4791 53.5406C41.4079 53.5779 41.3369 53.6186 41.2868 53.6839C41.2367 53.7504 41.2145 53.8459 41.2518 53.9217C41.2938 54.0044 41.3894 54.036 41.4756 54.0534C42.1447 54.1898 42.8127 54.0126 43.4771 53.9578C43.7627 53.9334 44.0353 53.994 44.3244 53.9835C44.6951 53.9695 45.0705 53.9881 45.44 54.0394C44.3268 54.1502 43.2276 54.3868 42.1633 54.7423C41.9453 54.8146 41.4419 55.0104 41.3836 55.2808C41.3043 55.6457 41.8347 55.6783 42.0445 55.6853C42.6914 55.7051 43.3372 55.7238 43.9829 55.7436C43.2742 55.7227 42.5479 55.9068 41.9103 56.2157C41.5979 56.3684 41.3661 56.4582 41.5899 56.8452C41.7379 57.1004 42.0199 57.2612 42.2985 57.2181C42.7216 57.1505 43.1378 57.0724 43.5656 57.0258C44.1612 56.9582 44.7638 56.9314 45.3641 56.9955C44.9293 57.1855 44.4889 57.379 44.1147 57.6786C43.8058 57.9245 43.4723 58.2999 43.3907 58.7183C43.3359 58.9958 43.4607 59.4655 43.8011 59.3769C44.1636 59.2837 44.519 59.1648 44.8664 59.0249C45.5973 58.7277 46.306 58.3477 47.0858 58.2031C48.2177 57.9956 49.4043 58.3092 50.5327 58.0807C51.5503 57.8756 52.4291 57.2438 53.146 56.4791C53.8127 55.7669 54.1578 54.8006 54.7511 54.0243C55.1113 53.5522 56.313 51.4098 56.5391 50.7733C56.6487 50.4679 56.7536 50.1346 56.6685 49.8152C56.5508 49.3734 56.1125 49.1158 55.6999 48.9806C55.1497 48.8011 54.568 48.7475 54.0027 48.8163C53.4723 48.8815 52.886 48.9654 52.492 49.371C51.9733 49.9049 51.647 50.7652 51.281 51.4238C51.1586 51.6359 51.084 51.862 50.9873 52.0777Z" fill="#FFC7AD"/>
<path d="M51.641 23.9079C51.2774 23.5104 50.7879 23.184 50.3333 23.3787C49.9789 23.5302 49.7446 23.9568 49.5803 24.3823C49.149 25.4955 49.0138 26.752 48.9182 27.9876C48.8214 29.243 48.7596 30.5135 48.9007 31.7608C49.0277 32.8798 49.3389 34.3823 50.0628 35.1178C50.7621 35.8254 51.4289 36.5982 52.1062 37.3512C53.4711 38.8689 54.8582 40.355 56.2721 41.7992C56.9272 42.4672 57.65 43.423 58.4321 43.8566C60.6445 45.0829 62.8626 43.6573 63.2974 41.5533C63.4618 40.756 63.231 39.8678 62.9734 39.1474C62.5969 38.0983 61.9278 37.2894 61.3532 36.4257C60.6853 35.4162 60.0068 34.4172 59.3214 33.4288C57.5042 30.8038 55.6602 28.1392 53.5877 25.8347C53.069 25.26 51.7529 24.0303 51.641 23.9079Z" fill="#D1DAFF"/>
<path d="M53.731 56.0835C53.731 56.0835 62.2716 46.0102 63.3265 41.3861C63.5794 40.2741 61.4148 39.619 60.3471 38.7156C59.6186 38.099 58.5288 38.6701 57.8305 39.0897C56.9633 39.6108 50.8681 51.9164 50.3785 52.5959C49.685 53.5611 53.731 56.0835 53.731 56.0835Z" fill="#D1DAFF"/>
</svg>
