<svg width="496" height="548" viewBox="0 0 496 548" fill="none" xmlns="http://www.w3.org/2000/svg">
<g clip-path="url(#clip0_1_7084)">
<path opacity="0.2" d="M291.101 517.466L9.57471 354.605C-2.71636 347.519 -2.89942 343.848 11.2925 335.666L207.11 223.213C221.303 215.031 224.616 215.761 236.904 222.846L517.206 384.726C529.497 391.812 527.964 398.586 513.773 406.767L323.062 516.728C308.872 524.912 303.392 524.551 291.101 517.466Z" fill="black"/>
<path d="M291.359 514.974L171.66 438.39L165.223 438.803C162.211 438.996 159.209 438.294 156.597 436.777L148.353 432C146.439 430.892 144.79 429.382 143.52 427.568L137.005 418.279L12.3092 353.546C6.50196 350.198 3.42265 347.619 3.31151 344.96C3.3017 344.709 3.31641 341.336 3.35891 341.085C3.81165 338.392 7.27996 338.655 14.0106 334.773L208.107 223.31C222.174 215.201 225.459 215.924 237.639 222.946L515.476 383.403C520.886 386.522 523.593 385.841 523.699 388.987C523.707 389.143 523.706 393.035 523.699 393.19C523.521 396.983 519.587 400.919 512.075 405.252L323.043 514.246C308.975 522.356 303.542 521.997 291.359 514.974Z" fill="#E30613"/>
<path d="M291.359 511.415L171.66 434.828L165.224 435.241C162.211 435.434 159.209 434.732 156.597 433.216L148.353 428.44C146.439 427.33 144.79 425.82 143.52 424.01L137.005 414.719L12.3092 349.986C0.127653 342.962 -0.0554049 339.325 14.0107 331.215L208.107 219.752C222.174 211.641 225.46 212.364 237.639 219.388L515.477 379.844C527.658 386.87 526.14 393.583 512.075 401.694L323.043 510.687C308.975 518.795 303.542 518.439 291.359 511.415Z" fill="#BE1622"/>
<path d="M171.959 431.596L164.243 432.093C164.001 432.111 163.757 432.119 163.51 432.119C161.516 432.119 159.549 431.588 157.823 430.588L149.578 425.81C148.142 424.976 146.931 423.866 145.978 422.51L138.915 412.44L352.615 291.161L385.675 310.097L171.959 431.596Z" fill="url(#paint0_radial_1_7084)"/>
<path opacity="0.2" d="M156.95 421.227L8.0791 341.971V340.031L221.272 219.224L370.144 298.478L156.95 421.227Z" fill="black"/>
<path d="M156.95 421.227L8.0791 340.031V338.088L221.272 217.284L370.144 298.479L156.95 421.227Z" fill="#F1F2F2"/>
<path d="M156.95 421.227L131.295 405.861L8.0791 338.088V335.175L221.272 215.34L370.144 298.478L156.95 421.227Z" fill="#D1D3D4"/>
<path d="M156.95 421.227L152.784 418.219C136.772 406.672 120.047 396.147 102.706 386.705L8.0791 335.175L221.274 212.426L370.144 298.477L156.95 421.227Z" fill="#F1F2F2"/>
<path d="M156.95 421.227C145.819 410.147 123.099 391.636 109.296 384.133L11.5786 332.346L224.771 209.598L370.143 298.479L156.95 421.227Z" fill="#D1D3D4"/>
<path opacity="0.2" d="M306.187 513.95L157.164 421.271L370.359 298.521L519.262 388.409L519.381 391.2L306.187 513.95Z" fill="black"/>
<path d="M306.187 512.143L157.164 421.271L370.359 298.521L519.262 386.602L519.381 389.393L306.187 512.143Z" fill="#F1F2F2"/>
<path d="M306.187 509.23L157.164 421.271L370.359 298.521L519.242 384.699L519.262 386.602L306.187 509.23Z" fill="#D1D3D4"/>
<path d="M306.187 507.289L157.164 421.271L370.359 298.521L519.195 382.758L519.203 384.619L306.187 507.289Z" fill="#F1F2F2"/>
<path d="M306.187 505.425L157.164 421.271L370.359 298.521L519.133 379.436L519.195 382.758L306.187 505.425Z" fill="#D1D3D4"/>
<path d="M306.187 502.19L157.164 421.271L370.359 298.521L519.19 376.688V379.335L519.133 379.436L306.187 502.19Z" fill="#F1F2F2"/>
<path d="M305.997 499.436L157.164 421.271L370.359 298.521L519.19 376.688L305.997 499.436Z" fill="#D1D3D4"/>
<path d="M306.187 495.636L157.164 421.271L370.359 298.521L519.381 372.886L306.187 495.636Z" fill="#F1F2F2"/>
<path d="M303.272 491.428L277.728 477.339C240.142 453.51 199.616 434.662 157.166 421.271H157.164L370.358 298.521C411.349 311.198 450.494 329.204 486.784 352.073L516.462 368.681L303.272 491.428Z" fill="#D1D3D4"/>
<path d="M302.298 487.222L247.141 445.527C225.211 428.359 197.867 419.569 170.024 420.733L157.164 421.273L370.359 298.523C400.913 294.506 431.822 302.682 456.376 321.281L515.493 364.472L302.298 487.222Z" fill="#F1F2F2"/>
<path d="M228.403 206.279L248.089 211.804C297.758 225.745 341.097 256.357 370.811 298.48L157.617 421.036L155.68 418.37C125.702 377.081 82.5219 347.239 33.2645 333.774L15.2087 328.838L228.403 206.279Z" fill="#FAFAFA"/>
<path d="M350.081 293.749L321.212 310.396L359.149 332.27H368.593V330.39H382.242L350.081 293.749Z" fill="#D1D3D4"/>
<path d="M285.07 285.349L283.731 228.612L190.203 228.684L114.515 270.117L144.167 289.142H191.759L203.988 296.194H223.161L218.049 289.142H252.703L230.436 301.98L242.345 308.847H250.586L257.248 289.142H274.436L256.431 299.523L290.352 319.081H309.526L285.07 285.349Z" fill="#D1D3D4"/>
<path d="M280.519 407.841L252.565 423.958L287.796 444.271H302.663L280.519 407.841Z" fill="#D1D3D4"/>
<path d="M324.538 400.297L315.103 376.272H278.167L245.465 395.127L265.912 406.917H325.955C325.955 406.916 329.11 399.894 324.538 400.297Z" fill="#D1D3D4"/>
<path d="M347.01 391.014L375.088 407.203H402.091V406.534H410.43L426.767 345.029L347.01 391.014Z" fill="#D1D3D4"/>
<path d="M405.424 296.959L366.898 274.747L343.719 288.112L382.243 310.327L405.424 296.959Z" fill="#FFF9ED"/>
<path d="M366.898 276.136L346.128 288.112L382.242 308.936L403.013 296.959L366.898 276.136Z" fill="#E6332A"/>
<path d="M382.242 330.389L343.719 308.176V288.113L382.242 310.327V330.389Z" fill="#C3BEB1"/>
<path d="M405.424 317.021L382.242 330.389V310.327L405.424 296.959V317.021Z" fill="#ECE5D9"/>
<path d="M377.057 315.185L359.967 305.331L351.505 310.211L368.593 320.064L377.057 315.185Z" fill="#FFF9ED"/>
<path d="M368.593 332.27L351.505 322.416V310.212L368.593 320.064V332.27Z" fill="#C3BEB1"/>
<path d="M377.056 327.391L368.593 332.27V320.064L377.056 315.185V327.391Z" fill="#ECE5D9"/>
<path opacity="0.6" d="M363.705 301.678L365.025 302.44V304.802L363.705 304.04V301.678ZM361.096 302.536L362.417 303.297V300.935L361.096 300.174V302.536ZM358.491 301.033L359.811 301.795V299.433L358.491 298.671V301.033ZM355.882 299.53L357.203 300.29V297.928L355.882 297.168V299.53ZM353.275 298.028L354.596 298.79V296.428L353.275 295.666V298.028ZM350.668 296.523L351.989 297.285V294.923L350.668 294.161V296.523ZM348.06 295.021L349.382 295.782V293.42L348.06 292.659V295.021ZM345.453 293.516L346.773 294.279V291.917L345.453 291.155V293.516ZM348.06 299.59L349.382 300.351V297.989L348.06 297.228V299.59ZM345.453 298.085L346.773 298.847V296.485L345.453 295.723V298.085ZM348.06 304.157L349.382 304.919V302.556L348.06 301.795V304.157ZM345.453 302.652L346.773 303.414V301.052L345.453 300.29V302.652ZM348.06 308.726L349.382 309.488V307.126L348.06 306.364V308.726ZM345.453 307.221L346.773 307.983V305.621L345.453 304.859V307.221ZM379.341 313.056L380.662 313.818V311.456L379.341 310.694V313.056ZM376.734 311.553L378.055 312.315V309.952L376.734 309.191V311.553ZM374.126 310.049L375.446 310.812V308.45L374.126 307.688V310.049ZM371.519 308.546L372.84 309.307V306.945L371.519 306.184V308.546ZM368.912 307.043L370.233 307.805V305.443L368.912 304.681V307.043ZM366.303 305.538L367.626 306.3V303.938L366.303 303.176V305.538ZM379.341 317.623L380.662 318.385V316.024L379.341 315.261V317.623ZM379.341 322.192L380.662 322.954V320.592L379.341 319.83V322.192ZM379.341 326.76L380.662 327.523V325.161L379.341 324.399V326.76Z" fill="#C3BEB1"/>
<path opacity="0.6" d="M394.579 318.67L395.838 317.943V320.197L394.579 320.92V318.67ZM394.579 312.211L395.838 311.486V309.234L394.579 309.96V312.211ZM394.579 307.856L395.838 307.131V304.879L394.579 305.605V307.856ZM392.092 309.291L393.352 308.564V306.312L392.092 307.037V309.291ZM392.092 318L393.352 317.274V315.023L392.092 315.746V318ZM392.092 313.646L393.352 312.919V310.668L392.092 311.391V313.646ZM392.092 322.355L393.352 321.629V319.378L392.092 320.103V322.355ZM399.55 318.054L400.81 317.329V315.077L399.55 315.803V318.054ZM397.064 306.424L398.322 305.698V303.446L397.064 304.17V306.424ZM397.064 310.779L398.322 310.053V307.8L397.064 308.525V310.779ZM397.064 319.489L398.322 318.763V316.512L397.064 317.236V319.489ZM397.064 315.134L398.322 314.408V312.157L397.064 312.88V315.134ZM384.644 313.585L385.904 312.859V310.608L384.644 311.333V313.585ZM399.55 313.699L400.81 312.975V310.722L399.55 311.448V313.699ZM387.121 320.867L388.382 320.14V317.889L387.121 318.614V320.867ZM387.121 325.221L388.382 324.495V322.244L387.121 322.969V325.221ZM384.644 317.94L385.904 317.214V314.963L384.644 315.687V317.94ZM384.644 326.65L385.904 325.925V323.672L384.644 324.399V326.65ZM384.644 322.295L385.904 321.57V319.318L384.644 320.042V322.295ZM389.607 315.077L390.868 314.352V312.1L389.607 312.826V315.077ZM389.607 310.722L390.868 309.997V307.745L389.607 308.471V310.722ZM389.607 319.432L390.868 318.709V316.455L389.607 317.181V319.432ZM389.607 323.787L390.868 323.064V320.809L389.607 321.536V323.787ZM387.121 312.157L388.382 311.431V309.18L387.121 309.903V312.157ZM387.121 316.512L388.382 315.785V313.535L387.121 314.258V316.512ZM394.579 316.566L395.838 315.841V313.588L394.579 314.315V316.566ZM399.55 309.345L400.81 308.62V306.367L399.55 307.094V309.345ZM399.55 304.99L400.81 304.265V302.012L399.55 302.739V304.99ZM402.034 303.557L403.294 302.832V300.579L402.034 301.304V303.557ZM402.034 316.623L403.294 315.896V313.646L402.034 314.369V316.623ZM402.034 307.913L403.294 307.187V304.934L402.034 305.659V307.913ZM402.034 312.268L403.294 311.542V309.291L402.034 310.014V312.268Z" fill="#C3BEB1"/>
<path opacity="0.6" d="M361.918 322.487L360.66 321.763V324.015L361.918 324.74V322.487ZM361.918 318.132L360.66 317.408V319.659L361.918 320.385V318.132ZM364.404 319.566L363.146 318.841V321.093L364.404 321.818V319.566ZM364.404 323.92L363.146 323.196V325.448L364.404 326.173V323.92ZM359.434 316.699L358.175 315.975V318.227L359.434 318.952V316.699ZM359.434 321.054L358.175 320.329V322.582L359.434 323.307V321.054ZM366.889 325.354L365.63 324.629V326.881L366.889 327.606V325.354ZM366.889 320.999L365.63 320.274V322.525L366.889 323.251V320.999ZM356.948 319.621L355.688 318.896V321.147L356.948 321.874V319.621ZM356.948 315.266L355.688 314.542V316.792L356.948 317.519V315.266ZM354.464 313.833L353.203 313.108V315.361L354.464 316.086V313.833ZM354.464 318.188L353.203 317.463V319.716L354.464 320.44V318.188Z" fill="#C3BEB1"/>
<path d="M325.844 409.606L291.822 389.988L268.64 403.356L302.663 422.971L325.844 409.606Z" fill="#FFF9ED"/>
<path d="M291.822 391.378L271.051 403.356L302.665 421.583L323.435 409.605L291.822 391.378Z" fill="#E6332A"/>
<path d="M302.663 444.272L268.64 424.655V403.356L302.663 422.971V444.272Z" fill="#C3BEB1"/>
<path d="M325.844 430.905L302.663 444.271V422.97L325.844 409.605V430.905Z" fill="#ECE5D9"/>
<path opacity="0.6" d="M289.071 417.612L290.391 418.374V420.736L289.071 419.974V417.612ZM286.462 418.472L287.785 419.234V416.872L286.462 416.11V418.472ZM283.857 416.969L285.178 417.729V415.367L283.857 414.607V416.969ZM281.25 415.465L282.571 416.226V413.864L281.25 413.103V415.465ZM278.641 413.962L279.964 414.723V412.361L278.641 411.6V413.962ZM276.034 412.459L277.357 413.219V410.857L276.034 410.095V412.459ZM273.428 410.954L274.748 411.716V409.354L273.428 408.592V410.954ZM270.821 409.45L272.14 410.213V407.851L270.821 407.089V409.45ZM289.071 422.18L290.391 422.943V425.305L289.071 424.542V422.18ZM286.462 423.039L287.785 423.801V421.439L286.462 420.677V423.039ZM283.857 421.536L285.178 422.298V419.936L283.857 419.174V421.536ZM281.25 420.034L282.571 420.795V418.433L281.25 417.672V420.034ZM278.641 418.531L279.964 419.291V416.929L278.641 416.169V418.531ZM276.034 417.027L277.357 417.788V415.426L276.034 414.666V417.027ZM273.428 415.522L274.748 416.285V413.923L273.428 413.161V415.522ZM270.821 414.019L272.14 414.781V412.42L270.821 411.657V414.019ZM289.071 426.749L290.391 427.511V429.873L289.071 429.111V426.749ZM286.462 427.608L287.785 428.37V426.008L286.462 425.246V427.608ZM283.857 426.104L285.178 426.867V424.505L283.857 423.742V426.104ZM281.25 424.601L282.571 425.363V423.001L281.25 422.239V424.601ZM278.641 423.099L279.964 423.86V421.498L278.641 420.737V423.099ZM276.034 421.596L277.357 422.357V419.995L276.034 419.234V421.596ZM273.428 420.091L274.748 420.853V418.492L273.428 417.729V420.091ZM270.821 418.588L272.14 419.35V416.988L270.821 416.226V418.588ZM289.071 431.318L290.391 432.08V434.442L289.071 433.68V431.318ZM286.462 432.176L287.785 432.939V430.577L286.462 429.814V432.176ZM283.857 430.673L285.178 431.435V429.073L283.857 428.311V430.673ZM281.25 429.17L282.571 429.932V427.57L281.25 426.808V429.17ZM278.641 427.666L279.964 428.427V426.065L278.641 425.305V427.666ZM276.034 426.163L277.357 426.924V424.562L276.034 423.801V426.163ZM273.428 424.661L274.748 425.422V423.06L273.428 422.3V424.661ZM270.821 423.156L272.14 423.919V421.555L270.821 420.793V423.156ZM299.494 425.984L300.814 426.746V424.382L299.494 423.622V425.984ZM296.885 424.48L298.206 425.241V422.879L296.885 422.118V424.48ZM294.28 422.977L295.6 423.738V421.376L294.28 420.615V422.977ZM291.671 421.474L292.992 422.234V419.872L291.671 419.112V421.474ZM299.494 430.552L300.814 431.314V428.951L299.494 428.19V430.552ZM296.885 429.049L298.206 429.81V427.448L296.885 426.687V429.049ZM294.28 427.546L295.6 428.306V425.944L294.28 425.184V427.546ZM291.671 426.042L292.992 426.803V424.441L291.671 423.68V426.042ZM299.494 435.121L300.814 435.883V433.521L299.494 432.759V435.121ZM296.885 433.618L298.206 434.378V432.016L296.885 431.256V433.618ZM294.28 432.114L295.6 432.875V430.513L294.28 429.752V432.114ZM291.671 430.611L292.992 431.372V429.01L291.671 428.249V430.611ZM299.494 439.69L300.814 440.452V438.09L299.494 437.328V439.69ZM296.885 438.186L298.206 438.948V436.587L296.885 435.824V438.186ZM294.28 436.683L295.6 437.444V435.082L294.28 434.321V436.683ZM291.671 435.18L292.992 435.94V433.578L291.671 432.818V435.18Z" fill="#C3BEB1"/>
<path opacity="0.6" d="M307.342 424.871L306.022 425.632V423.27L307.342 422.509V424.871ZM309.949 421.004L308.629 421.766V424.128L309.949 423.366V421.004ZM312.556 419.501L311.236 420.263V422.625L312.556 421.863V419.501ZM315.165 417.999L313.843 418.761V421.123L315.165 420.361V417.999ZM317.772 416.496L316.451 417.258V419.62L317.772 418.858V416.496ZM320.379 414.993L319.056 415.755V418.117L320.379 417.354V414.993ZM322.986 413.489L321.665 414.25V416.612L322.986 415.851V413.489ZM307.342 429.44L306.022 430.2V427.838L307.342 427.078V429.44ZM309.949 425.574L308.629 426.335V428.697L309.949 427.936V425.574ZM312.556 424.07L311.236 424.832V427.194L312.556 426.431V424.07ZM315.165 422.566L313.843 423.328V425.69L315.165 424.928V422.566ZM317.772 421.063L316.451 421.825V424.187L317.772 423.425V421.063ZM320.379 419.561L319.056 420.324V422.685L320.379 421.923V419.561ZM322.986 418.058L321.665 418.82V421.182L322.986 420.42V418.058ZM307.342 434.008L306.022 434.769V432.407L307.342 431.646V434.008ZM309.949 430.143L308.629 430.904V433.266L309.949 432.505V430.143ZM312.556 428.638L311.236 429.4V431.762L312.556 431.002V428.638ZM315.165 427.135L313.843 427.897V430.259L315.165 429.497V427.135ZM317.772 425.632L316.451 426.394V428.756L317.772 427.993V425.632ZM320.379 424.128L319.056 424.891V427.252L320.379 426.49V424.128ZM322.986 422.625L321.665 423.387V425.749L322.986 424.987V422.625ZM307.342 438.577L306.022 439.338V436.976L307.342 436.215V438.577ZM309.949 434.712L308.629 435.472V437.834L309.949 437.074V434.712ZM312.556 433.208L311.236 433.969V436.331L312.556 435.57V433.208ZM315.165 431.704L313.843 432.466V434.828L315.165 434.067V431.704ZM317.772 430.2L316.451 430.963V433.324L317.772 432.562V430.2ZM320.379 428.697L319.056 429.459V431.821L320.379 431.059V428.697ZM322.986 427.194L321.665 427.956V430.318L322.986 429.556V427.194Z" fill="#C3BEB1"/>
<path d="M285.124 228.02L258.878 212.887L232.633 228.02L258.878 243.152L285.124 228.02Z" fill="#FFF9ED"/>
<path d="M258.878 277.105L232.633 261.974V228.02L258.878 243.153V277.105Z" fill="#C3BEB1"/>
<path d="M285.124 261.974L258.878 277.105V243.153L285.124 228.02V261.974Z" fill="#ECE5D9"/>
<path opacity="0.9" d="M253.16 239.857H258.878L247.961 220.27L245.591 220.551L232.633 228.02L253.16 239.857Z" fill="#C3BEB1"/>
<path d="M279.604 177.968L258.878 166.02L238.153 177.968L258.878 189.92L279.604 177.968Z" fill="#FFF9ED"/>
<path d="M258.878 168.012L276.147 177.969L258.878 187.929L241.608 177.969L258.878 168.012ZM258.878 167.348L240.456 177.969L258.878 188.591L277.3 177.969L258.878 167.348Z" fill="#ECE5D9"/>
<path d="M258.878 239.857L238.153 227.906V177.969L258.878 189.92V239.857Z" fill="#C3BEB1"/>
<path d="M279.604 227.906L258.878 239.857V189.92L279.604 177.969V227.906Z" fill="#ECE5D9"/>
<path opacity="0.6" d="M260.814 193.898L262.537 192.905V235.448L260.814 236.442V193.898ZM264.582 234.27L266.305 233.277V190.733L264.582 191.725V234.27ZM268.346 232.099L270.069 231.107V188.562L268.346 189.553V232.099ZM272.113 229.926L273.836 228.936V186.391L272.113 187.382V229.926ZM275.879 227.756L277.602 226.765V184.219L275.879 185.211V227.756Z" fill="#C3BEB1"/>
<path opacity="0.6" d="M256.614 236.442L254.891 235.448V192.904L256.614 193.896V236.442ZM252.848 191.727L251.125 190.734V233.277L252.848 234.27V191.727ZM249.081 189.553L247.358 188.562V231.105L249.081 232.097V189.553ZM245.317 187.382L243.594 186.391V228.934L245.317 229.925V187.382ZM241.549 185.211L239.828 184.219V226.763L241.549 227.754V185.211Z" fill="#C3BEB1"/>
<path opacity="0.6" d="M262.017 245.766L260.715 246.516V244.187L262.017 243.436V245.766ZM264.587 241.956L263.286 242.707V245.034L264.587 244.285V241.956ZM267.156 240.476L265.855 241.225V243.554L267.156 242.803V240.476ZM269.726 238.993L268.425 239.744V242.073L269.726 241.321V238.993ZM272.293 237.511L270.992 238.262V240.59L272.293 239.841V237.511ZM274.864 236.031L273.563 236.78V239.108L274.864 238.358V236.031ZM277.434 234.549L276.133 235.3V237.627L277.434 236.876V234.549ZM280.003 233.068L278.7 233.819V236.147L280.003 235.398V233.068ZM262.017 250.267L260.715 251.018V248.691L262.017 247.938V250.267ZM264.587 246.459L263.286 247.209V249.536L264.587 248.787V246.459ZM267.156 244.977L265.855 245.726V248.056L267.156 247.305V244.977ZM269.726 243.494L268.425 244.244V246.574L269.726 245.823V243.494ZM272.293 242.013L270.992 242.764V245.092L272.293 244.342V242.013ZM274.864 240.533L273.563 241.282V243.611L274.864 242.86V240.533ZM277.434 239.051L276.133 239.801V242.131L277.434 241.38V239.051ZM280.003 237.568L278.7 238.319V240.647L280.003 239.898V237.568ZM262.017 254.771L260.715 255.52V253.192L262.017 252.442V254.771ZM264.587 250.961L263.286 251.71V254.038L264.587 253.289V250.961ZM267.156 249.477L265.855 250.228V252.556L267.156 251.805V249.477ZM269.726 247.997L268.425 248.748V251.075L269.726 250.325V247.997ZM272.293 246.516L270.992 247.266V249.593L272.293 248.844V246.516ZM274.864 245.034L273.563 245.785V248.113L274.864 247.362V245.034ZM277.434 243.552L276.133 244.303V246.631L277.434 245.88V243.552ZM280.003 242.072L278.7 242.821V245.149L280.003 244.399V242.072ZM262.017 259.271L260.715 260.02V257.692L262.017 256.942V259.271ZM264.587 255.461L263.286 256.21V258.54L264.587 257.789V255.461ZM267.156 253.979L265.855 254.73V257.059L267.156 256.308V253.979ZM269.726 252.499L268.425 253.25V255.577L269.726 254.828V252.499ZM272.293 251.018L270.992 251.767V254.097L272.293 253.346V251.018ZM274.864 249.536L273.563 250.287V252.616L274.864 251.865V249.536ZM277.434 248.054L276.133 248.805V251.132L277.434 250.383V248.054ZM280.003 246.574L278.7 247.323V249.65L280.003 248.901V246.574ZM262.017 263.773L260.715 264.522V262.194L262.017 261.445V263.773ZM264.587 259.963L263.286 260.712V263.041L264.587 262.291V259.963ZM267.156 258.483L265.855 259.233V261.561L267.156 260.81V258.483ZM269.726 257.002L268.425 257.751V260.079L269.726 259.33V257.002ZM272.293 255.52L270.992 256.269V258.598L272.293 257.848V255.52ZM274.864 254.036L273.563 254.787V257.116L274.864 256.365V254.036ZM277.434 252.556L276.133 253.307V255.634L277.434 254.885V252.556ZM280.003 251.075L278.7 251.825V254.154L280.003 253.403V251.075ZM262.017 268.274L260.715 269.025V266.696L262.017 265.947V268.274ZM264.587 264.465L263.286 265.216V267.545L264.587 266.794V264.465ZM267.156 262.984L265.855 263.735V266.063L267.156 265.313V262.984ZM269.726 261.504L268.425 262.253V264.581L269.726 263.831V261.504ZM272.293 260.02L270.992 260.771V263.1L272.293 262.348V260.02ZM274.864 258.54L273.563 259.29V261.618L274.864 260.869V258.54ZM277.434 257.059L276.133 257.808V260.136L277.434 259.387V257.059ZM280.003 255.577L278.7 256.328V258.656L280.003 257.905V255.577Z" fill="#C3BEB1"/>
<path opacity="0.6" d="M255.588 243.437L256.889 244.188V246.517L255.588 245.766V243.437ZM253.017 244.286L254.318 245.035V242.707L253.017 241.956V244.286ZM250.447 242.804L251.748 243.554V241.225L250.447 240.476V242.804ZM247.88 241.32L249.181 242.072V239.743L247.88 238.992V241.32ZM245.31 239.841L246.611 240.59V238.263L245.31 237.512V239.841ZM242.739 238.359L244.04 239.108V236.781L242.739 236.031V238.359ZM240.17 236.877L241.472 237.628V235.3L240.17 234.549V236.877ZM237.6 235.396L238.903 236.146V233.818L237.6 233.067V235.396ZM255.588 247.939L256.889 248.691V251.019L255.588 250.268V247.939ZM253.017 248.787L254.318 249.537V247.209L253.017 246.46V248.787ZM250.447 247.304L251.748 248.055V245.725L250.447 244.976V247.304ZM247.88 245.823L249.181 246.574V244.245L247.88 243.494V245.823ZM245.31 244.343L246.611 245.092V242.764L245.31 242.014V244.343ZM242.739 242.861L244.04 243.612V241.282L242.739 240.533V242.861ZM240.17 241.379L241.472 242.129V239.8L240.17 239.049V241.379ZM237.6 239.898L238.903 240.647V238.32L237.6 237.569V239.898ZM255.588 252.442L256.889 253.193V255.52L255.588 254.771V252.442ZM253.017 253.288L254.318 254.037V251.709L253.017 250.96V253.288ZM250.447 251.805L251.748 252.556V250.229L250.447 249.478V251.805ZM247.88 250.325L249.181 251.076V248.748L247.88 247.997V250.325ZM245.31 248.845L246.611 249.594V247.266L245.31 246.517V248.845ZM242.739 247.361L244.04 248.112V245.784L242.739 245.033V247.361ZM240.17 245.88L241.472 246.631V244.304L240.17 243.553V245.88ZM237.6 244.4L238.903 245.149V242.822L237.6 242.072V244.4ZM255.588 256.944L256.889 257.695V260.022L255.588 259.273V256.944ZM253.017 257.789L254.318 258.54V256.211L253.017 255.462V257.789ZM250.447 256.309L251.748 257.06V254.73L250.447 253.98V256.309ZM247.88 254.828L249.181 255.578V253.25L247.88 252.499V254.828ZM245.31 253.346L246.611 254.097V251.768L245.31 251.019V253.346ZM242.739 251.864L244.04 252.615V250.286L242.739 249.535V251.864ZM240.17 250.384L241.472 251.133V248.805L240.17 248.055V250.384ZM237.6 248.902L238.903 249.651V247.323L237.6 246.574V248.902ZM255.588 261.446L256.889 262.195V264.522L255.588 263.773V261.446ZM253.017 262.291L254.318 263.042V260.713L253.017 259.963V262.291ZM250.447 260.811L251.748 261.561V259.234L250.447 258.483V260.811ZM247.88 259.33L249.181 260.079V257.752L247.88 257.003V259.33ZM245.31 257.846L246.611 258.597V256.268L245.31 255.519V257.846ZM242.739 256.366L244.04 257.117V254.788L242.739 254.037V256.366ZM240.17 254.885L241.472 255.635V253.307L240.17 252.556V254.885ZM237.6 253.403L238.903 254.154V251.825L237.6 251.076V253.403ZM255.588 265.947L256.889 266.696V269.026L255.588 268.275V265.947ZM253.017 266.794L254.318 267.545V265.216L253.017 264.465V266.794ZM250.447 265.314L251.748 266.063V263.736L250.447 262.985V265.314ZM247.88 263.83L249.181 264.579V262.252L247.88 261.503V263.83ZM245.31 262.348L246.611 263.101V260.771L245.31 260.021V262.348ZM242.739 260.869L244.04 261.619V259.291L242.739 258.54V260.869ZM240.17 259.387L241.472 260.136V257.809L240.17 257.06V259.387ZM237.6 257.904L238.903 258.654V256.327L237.6 255.576V257.904ZM235.044 233.921L236.345 234.672V232.342L235.044 231.593V233.921ZM235.044 238.423L236.345 239.175V236.846L235.044 236.095V238.423ZM235.044 242.926L236.345 243.677V241.348L235.044 240.597V242.926ZM235.044 247.428L236.345 248.179V245.851L235.044 245.1V247.428ZM235.044 251.929L236.345 252.679V250.351L235.044 249.6V251.929ZM235.044 256.431L236.345 257.18V254.853L235.044 254.104V256.431Z" fill="#C3BEB1"/>
<path d="M307.318 83.0705L285.16 70.2949L263.001 83.0705L285.16 95.8462L307.318 83.0705Z" fill="#FFF9ED"/>
<path d="M285.16 71.6223L265.306 83.0709L285.16 94.5195L305.015 83.0709L285.16 71.6223Z" fill="#E6332A"/>
<path d="M285.16 292.271L263.001 279.496V83.0706L285.16 95.8462V292.271Z" fill="#C3BEB1"/>
<path d="M307.318 279.496L285.16 292.271V95.8462L307.318 83.0706V279.496Z" fill="#ECE5D9"/>
<path d="M333.571 240.509L318.421 231.775L296.261 244.551L311.412 253.285L333.571 240.509Z" fill="#FFF9ED"/>
<path d="M318.421 233.767L330.114 240.509L311.412 251.292L299.718 244.549L318.421 233.767ZM318.421 233.102L298.567 244.551L311.412 251.958L331.266 240.509L318.421 233.102Z" fill="#ECE5D9"/>
<path d="M311.412 294.602L296.261 285.866V244.551L311.412 253.285V294.602Z" fill="#C3BEB1"/>
<path d="M333.571 281.826L311.412 294.602V253.284L333.571 240.509V281.826Z" fill="#ECE5D9"/>
<path opacity="0.6" d="M314.171 257.142L312.87 257.893V255.564L314.171 254.815V257.142ZM316.741 253.333L315.439 254.085V256.413L316.741 255.662V253.333ZM319.31 251.852L318.009 252.601V254.929L319.31 254.18V251.852ZM321.879 250.37L320.577 251.119V253.448L321.879 252.698V250.37ZM324.449 248.888L323.148 249.639V251.968L324.449 251.217V248.888ZM327.018 247.408L325.717 248.158V250.486L327.018 249.737V247.408ZM329.587 245.927L328.286 246.676V249.005L329.587 248.255V245.927ZM332.155 244.443L330.854 245.194V247.523L332.155 246.773V244.443ZM314.171 261.644L312.87 262.395V260.066L314.171 259.315V261.644ZM316.741 257.834L315.439 258.585V260.913L316.741 260.164V257.834ZM319.31 256.354L318.009 257.103V259.431L319.31 258.681V256.354ZM321.879 254.872L320.577 255.623V257.952L321.879 257.199V254.872ZM324.449 253.391L323.148 254.142V256.47L324.449 255.721V253.391ZM327.018 251.911L325.717 252.66V254.988L327.018 254.238V251.911ZM329.587 250.427L328.286 251.178V253.506L329.587 252.755V250.427ZM332.155 248.947L330.854 249.698V252.025L332.155 251.274V248.947ZM314.171 266.146L312.87 266.897V264.569L314.171 263.817V266.146ZM316.741 262.336L315.439 263.087V265.415L316.741 264.665V262.336ZM319.31 260.856L318.009 261.605V263.934L319.31 263.183V260.856ZM321.879 259.374L320.577 260.124V262.454L321.879 261.703V259.374ZM324.449 257.893L323.148 258.644V260.972L324.449 260.222V257.893ZM327.018 256.411L325.717 257.16V259.489L327.018 258.739V256.411ZM329.587 254.929L328.286 255.68V258.009L329.587 257.258V254.929ZM332.155 253.448L330.854 254.199V256.527L332.155 255.778V253.448ZM314.171 270.649L312.87 271.398V269.071L314.171 268.32V270.649ZM316.741 266.839L315.439 267.589V269.916L316.741 269.167V266.839ZM319.31 265.357L318.009 266.108V268.436L319.31 267.685V265.357ZM321.879 263.877L320.577 264.628V266.955L321.879 266.205V263.877ZM324.449 262.395L323.148 263.144V265.472L324.449 264.722V262.395ZM327.018 260.913L325.717 261.662V263.991L327.018 263.24V260.913ZM329.587 259.431L328.286 260.183V262.511L329.587 261.76V259.431ZM332.155 257.952L330.854 258.701V261.029L332.155 260.279V257.952ZM314.171 275.151L312.87 275.9V273.573L314.171 272.822V275.151ZM316.741 271.341L315.439 272.09V274.42L316.741 273.669V271.341ZM319.31 269.859L318.009 270.61V272.939L319.31 272.188V269.859ZM321.879 268.377L320.577 269.128V271.455L321.879 270.706V268.377ZM324.449 266.897L323.148 267.646V269.975L324.449 269.224V266.897ZM327.018 265.415L325.717 266.165V268.495L327.018 267.742V265.415ZM329.587 263.934L328.286 264.685V267.012L329.587 266.263V263.934ZM332.155 262.454L330.854 263.203V265.53L332.155 264.781V262.454ZM314.171 279.653L312.87 280.402V278.074L314.171 277.325V279.653ZM316.741 275.843L315.439 276.592V278.921L316.741 278.171V275.843ZM319.31 274.361L318.009 275.113V277.441L319.31 276.69V274.361ZM321.879 272.88L320.577 273.63V275.957L321.879 275.208V272.88ZM324.449 271.398L323.148 272.148V274.477L324.449 273.726V271.398ZM327.018 269.916L325.717 270.667V272.996L327.018 272.245V269.916ZM329.587 268.436L328.286 269.187V271.514L329.587 270.765V268.436ZM332.155 266.954L330.854 267.703V270.032L332.155 269.281V266.954ZM314.171 284.154L312.87 284.905V282.576L314.171 281.827V284.154ZM316.741 280.345L315.439 281.096V283.425L316.741 282.674V280.345ZM319.31 278.863L318.009 279.613V281.941L319.31 281.192V278.863ZM321.879 277.382L320.577 278.131V280.459L321.879 279.71V277.382ZM324.449 275.9L323.148 276.651V278.979L324.449 278.228V275.9ZM327.018 274.42L325.717 275.17V277.498L327.018 276.747V274.42ZM329.587 272.938L328.286 273.687V276.014L329.587 275.265V272.938ZM332.155 271.455L330.854 272.205V274.534L332.155 273.783V271.455Z" fill="#C3BEB1"/>
<path opacity="0.6" d="M308.653 254.814L309.954 255.564V257.893L308.653 257.142V254.814ZM306.082 255.66L307.383 256.411V254.083L306.082 253.331V255.66ZM303.515 254.179L304.816 254.929V252.601L303.515 251.852V254.179ZM300.945 252.697L302.246 253.448V251.119L300.945 250.37V252.697ZM298.374 251.217L299.675 251.968V249.639L298.374 248.888V251.217ZM308.653 259.316L309.954 260.067V262.396L308.653 261.645V259.316ZM306.082 260.163L307.383 260.912V258.585L306.082 257.834V260.163ZM303.515 258.681L304.816 259.43V257.103L303.515 256.354V258.681ZM300.945 257.199L302.246 257.952V255.622L300.945 254.872V257.199ZM298.374 255.72L299.675 256.469V254.142L298.374 253.391V255.72ZM308.653 263.818L309.954 264.57V266.898L308.653 266.147V263.818ZM306.082 264.665L307.383 265.414V263.087L306.082 262.336V264.665ZM303.515 263.183L304.816 263.934V261.605L303.515 260.855V263.183ZM300.945 261.702L302.246 262.453V260.124L300.945 259.373V261.702ZM298.374 260.22L299.675 260.97V258.642L298.374 257.891V260.22ZM308.653 268.32L309.954 269.07V271.398L308.653 270.649V268.32ZM306.082 269.167L307.383 269.916V267.588L306.082 266.839V269.167ZM303.515 267.685L304.816 268.436V266.108L303.515 265.357V267.685ZM300.945 266.203L302.246 266.953V264.626L300.945 263.875V266.203ZM298.374 264.722L299.675 265.471V263.144L298.374 262.395V264.722ZM308.653 272.821L309.954 273.572V275.9L308.653 275.151V272.821ZM306.082 273.669L307.383 274.419V272.09L306.082 271.341V273.669ZM303.515 272.186L304.816 272.937V270.608L303.515 269.857V272.186ZM300.945 270.706L302.246 271.455V269.128L300.945 268.377V270.706ZM298.374 269.224L299.675 269.975V267.646L298.374 266.896V269.224ZM308.653 277.325L309.954 278.074V280.402L308.653 279.652V277.325ZM306.082 278.169L307.383 278.919V276.59L306.082 275.841V278.169ZM303.515 276.688L304.816 277.439V275.111L303.515 274.359V276.688ZM300.945 275.208L302.246 275.957V273.629L300.945 272.88V275.208ZM298.374 273.726L299.675 274.476V272.147L298.374 271.398V273.726ZM308.653 281.827L309.954 282.576V284.905L308.653 284.154V281.827ZM306.082 282.672L307.383 283.423V281.094L306.082 280.343V282.672ZM303.515 281.192L304.816 281.941V279.613L303.515 278.862V281.192ZM300.945 279.709L302.246 280.459V278.131L300.945 277.382V279.709ZM298.374 278.227L299.675 278.978V276.651L298.374 275.9V278.227Z" fill="#C3BEB1"/>
<path opacity="0.6" d="M286.881 99.4945L288.468 98.5772V246.066L286.881 246.981V99.4945ZM290.352 244.98L291.939 244.065V96.5776L290.352 97.4933V244.98ZM293.822 242.979L295.411 242.062V94.5765L293.822 95.4922V242.979ZM297.294 240.976L298.883 240.061V92.5737L297.294 93.4894V240.976ZM300.766 238.977L302.354 238.061V90.5726L300.766 91.4883V238.977ZM304.237 89.4855V236.974L305.824 236.058V88.5698L304.237 89.4855Z" fill="#C3BEB1"/>
<path opacity="0.6" d="M283.437 283.333L281.85 282.416V98.5772L283.437 99.4945V283.333ZM279.966 97.4917L278.378 96.576V280.415L279.966 281.33V97.4917ZM276.496 95.4922L274.907 94.5765V278.415L276.496 279.331V95.4922ZM273.024 93.4894L271.435 92.5737V276.413L273.024 277.328V93.4894ZM269.552 91.4867L267.964 90.571V274.41L269.552 275.325V91.4867ZM264.492 88.5698V272.409L266.081 273.324V89.4855L264.492 88.5698Z" fill="#C3BEB1"/>
<path opacity="0.6" d="M288.244 251.197L286.943 251.948V249.62L288.244 248.868V251.197ZM290.813 247.389L289.512 248.138V250.466L290.813 249.717V247.389ZM293.383 245.907L292.082 246.656V248.985L293.383 248.235V245.907ZM288.244 255.7L286.943 256.45V254.122L288.244 253.371V255.7ZM290.813 251.891L289.512 252.64V254.968L290.813 254.218V251.891ZM293.383 250.409L292.082 251.16V253.489L293.383 252.736V250.409ZM288.244 260.202L286.943 260.951V258.624L288.244 257.873V260.202ZM290.813 256.393L289.512 257.142V259.471L290.813 258.72V256.393ZM293.383 254.909L292.082 255.66V257.989L293.383 257.238V254.909ZM288.244 264.702L286.943 265.452V263.124L288.244 262.375V264.702ZM290.813 260.894L289.512 261.645V263.973L290.813 263.222V260.894ZM293.383 259.412L292.082 260.163V262.491L293.383 261.74V259.412ZM288.244 269.204L286.943 269.955V267.626L288.244 266.877V269.204ZM290.813 265.394L289.512 266.145V268.474L290.813 267.724V265.394ZM293.383 263.914L292.082 264.665V266.992L293.383 266.243V263.914ZM288.244 273.706L286.943 274.457V272.127L288.244 271.378V273.706ZM290.813 269.896L289.512 270.647V272.976L290.813 272.225V269.896ZM293.383 268.417L292.082 269.167V271.494L293.383 270.745V268.417ZM288.244 278.208L286.943 278.96V276.631L288.244 275.88V278.208ZM290.813 274.4L289.512 275.15V277.478L290.813 276.729V274.4ZM293.383 272.919L292.082 273.668V275.996L293.383 275.247V272.919ZM288.244 282.722L286.943 283.473V281.144L288.244 280.395V282.722ZM290.813 278.913L289.512 279.664V281.993L290.813 281.242V278.913ZM293.383 277.431L292.082 278.181V280.509L293.383 279.76V277.431Z" fill="#C3BEB1"/>
<path d="M270.763 269.056L242.177 252.575L224.974 262.492L253.561 278.976L270.763 269.056Z" fill="#FFF9ED"/>
<path d="M242.177 254.568L267.308 269.059L253.562 276.984L228.433 262.493L242.177 254.568ZM242.177 253.902L227.28 262.493L253.562 277.646L268.46 269.058L242.177 253.902Z" fill="#ECE5D9"/>
<path d="M253.561 293.862L224.974 277.378V262.492L253.561 278.976V293.862Z" fill="#C3BEB1"/>
<path d="M270.763 283.945L253.561 293.862V278.976L270.763 269.055V283.945Z" fill="#ECE5D9"/>
<path d="M270.572 290.299L258.95 283.599L238.965 295.123L250.586 301.825L270.572 290.299Z" fill="#FFF9ED"/>
<path d="M258.95 285.59L267.115 290.299L250.586 299.832L242.42 295.123L258.95 285.59ZM258.95 284.928L241.268 295.123L250.586 300.494L268.268 290.299L258.95 284.928Z" fill="#ECE5D9"/>
<path d="M250.586 308.846L238.965 302.146V295.122L250.586 301.824V308.846Z" fill="#C3BEB1"/>
<path d="M270.572 297.325L250.586 308.847V301.825L270.572 290.3V297.325Z" fill="#ECE5D9"/>
<path opacity="0.6" d="M243.576 274.825L244.836 275.553V277.812L243.576 277.084V274.825ZM241.083 275.648L242.345 276.374V274.115L241.083 273.389V275.648ZM238.591 274.21L239.853 274.936V272.679L238.591 271.953V274.21ZM236.1 272.772L237.36 273.5V271.241L236.1 270.515V272.772ZM233.607 271.336L234.869 272.064V269.805L233.607 269.077V271.336ZM231.113 269.899L232.377 270.626V268.368L231.113 267.64V269.899ZM228.624 268.461L229.884 269.188V266.93L228.624 266.204V268.461ZM226.13 267.023L227.39 267.751V265.492L226.13 264.766V267.023ZM243.576 279.192L244.836 279.918V282.177L243.576 281.449V279.192ZM241.083 280.013L242.345 280.741V278.482L241.083 277.754V280.013ZM238.591 278.576L239.853 279.303V277.045L238.591 276.317V278.576ZM236.1 277.14L237.36 277.866V275.609L236.1 274.883V277.14ZM233.607 275.702L234.869 276.43V274.171L233.607 273.445V275.702ZM231.113 274.266L232.377 274.994V272.735L231.113 272.007V274.266ZM228.624 272.829L229.884 273.556V271.298L228.624 270.57V272.829ZM226.13 271.391L227.39 272.118V269.86L226.13 269.134V271.391ZM243.576 283.56L244.836 284.286V286.543L243.576 285.817V283.56ZM241.083 284.379L242.345 285.107V282.848L241.083 282.122V284.379ZM238.591 282.943L239.853 283.671V281.412L238.591 280.684V282.943ZM236.1 281.506L237.36 282.233V279.975L236.1 279.247V281.506ZM233.607 280.07L234.869 280.796V278.539L233.607 277.812V280.07ZM231.113 278.632L232.377 279.36V277.101L231.113 276.374V278.632ZM228.624 277.195L229.884 277.923V275.664L228.624 274.936V277.195ZM226.13 275.759L227.39 276.485V274.228L226.13 273.5V275.759ZM251.045 281.389L252.305 282.117V279.858L251.045 279.131V281.389ZM248.553 279.954L249.815 280.68V278.421L248.553 277.693V279.954ZM246.062 278.516L247.322 279.242V276.985L246.062 276.257V278.516ZM251.045 285.757L252.305 286.485V284.226L251.045 283.499V285.757ZM248.553 284.32L249.815 285.048V282.788L248.553 282.061V284.32ZM246.062 282.884L247.322 283.61V281.351L246.062 280.623V282.884ZM246.062 287.25L247.322 287.978V285.719L246.062 284.991V287.25Z" fill="#C3BEB1"/>
<path d="M240.363 279.85L224.999 270.991L207.796 280.911L223.162 289.767L240.363 279.85Z" fill="#FFF9ED"/>
<path d="M224.999 272.32L210.102 280.913L223.162 288.442L238.058 279.85L224.999 272.32Z" fill="#E6332A"/>
<path d="M223.162 296.143L207.796 287.283V280.911L223.162 289.767V296.143Z" fill="#C3BEB1"/>
<path d="M240.363 286.225L223.162 296.143V289.767L240.363 279.85V286.225Z" fill="#ECE5D9"/>
<path opacity="0.6" d="M221.078 292.48L222.34 293.206V290.949L221.078 290.223V292.48ZM218.587 291.044L219.847 291.77V289.511L218.587 288.785V291.044ZM216.094 289.606L217.356 290.334V288.074L216.094 287.347V289.606ZM213.6 288.169L214.864 288.896V286.638L213.6 285.91V288.169ZM211.111 286.733L212.371 287.461V285.202L211.111 284.475V286.733ZM208.617 285.295L209.877 286.023V283.764L208.617 283.037V285.295Z" fill="#C3BEB1"/>
<path opacity="0.6" d="M226.321 289.494L225.059 290.222V292.48L226.321 291.753V289.494ZM228.812 288.058L227.552 288.784V291.043L228.812 290.315V288.058ZM231.304 286.62L230.043 287.346V289.605L231.304 288.877V286.62ZM233.797 285.182L232.535 285.91V288.169L233.797 287.443V285.182ZM236.288 283.746L235.028 284.474V286.731L236.288 286.005V283.746ZM238.787 282.308L237.525 283.034V285.291L238.787 284.565V282.308Z" fill="#C3BEB1"/>
<path d="M331.683 285.945L296.321 265.558L274.161 278.332L309.526 298.722L331.683 285.945Z" fill="#FFF9ED"/>
<path d="M296.321 267.551L328.227 285.947L309.524 296.731L277.618 278.334L296.321 267.551ZM296.321 266.885L276.468 278.332L309.526 297.394L329.381 285.945L296.321 266.885Z" fill="#ECE5D9"/>
<path d="M309.526 319.081L274.161 298.693V278.332L309.526 298.722V319.081Z" fill="#C3BEB1"/>
<path d="M331.682 306.306L309.526 319.081V298.722L331.682 285.945V306.306Z" fill="#ECE5D9"/>
<path opacity="0.6" d="M293.691 291.961L294.953 292.687V294.946L293.691 294.218V291.961ZM291.201 292.784L292.461 293.51V291.251L291.201 290.523V292.784ZM288.706 291.346L289.968 292.072V289.815L288.706 289.087V291.346ZM286.215 289.908L287.476 290.636V288.376L286.215 287.65V289.908ZM283.723 288.471L284.985 289.199V286.938L283.723 286.212V288.471ZM281.23 287.035L282.492 287.761V285.502L281.23 284.774V287.035ZM278.74 285.597L280 286.323V284.066L278.74 283.339V285.597ZM276.245 284.159L277.507 284.887V282.628L276.245 281.901V284.159ZM293.691 296.327L294.953 297.054V299.313L293.691 298.585V296.327ZM291.201 297.148L292.461 297.876V295.616L291.201 294.889V297.148ZM288.706 295.713L289.968 296.44V294.181L288.706 293.453V295.713ZM286.215 294.275L287.476 295.002V292.744L286.215 292.018V294.275ZM283.723 292.837L284.985 293.565V291.306L283.723 290.58V292.837ZM281.23 291.401L282.492 292.129V289.87L281.23 289.142V291.401ZM278.74 289.965L280 290.691V288.434L278.74 287.706V289.965ZM276.245 288.527L277.507 289.253V286.996L276.245 286.268V288.527ZM293.691 300.693L294.953 301.421V303.679L293.691 302.952V300.693ZM291.201 301.514L292.461 302.242V299.983L291.201 299.257V301.514ZM288.706 300.078L289.968 300.806V298.545L288.706 297.819V300.078ZM286.215 298.642L287.476 299.368V297.111L286.215 296.383V298.642ZM283.723 297.205L284.985 297.932V295.674L283.723 294.946V297.205ZM281.23 295.767L282.492 296.495V294.236L281.23 293.51V295.767ZM278.74 294.331L280 295.059V292.8L278.74 292.072V294.331ZM276.245 292.895L277.507 293.621V291.364L276.245 290.636V292.895ZM293.691 305.061L294.953 305.789V308.047L293.691 307.32V305.061ZM291.201 305.882L292.461 306.609V304.351L291.201 303.623V305.882ZM288.706 304.444L289.968 305.172V302.913L288.706 302.187V304.444ZM286.215 303.008L287.476 303.736V301.477L286.215 300.749V303.008ZM283.723 301.572L284.985 302.298V300.041L283.723 299.313V301.572ZM281.23 300.135L282.492 300.862V298.604L281.23 297.878V300.135ZM278.74 298.697L280 299.425V297.166L278.74 296.44V298.697ZM276.245 297.261L277.507 297.989V295.73L276.245 295.002V297.261ZM306.146 301.4L307.406 302.127V299.869L306.146 299.141V301.4ZM303.653 299.962L304.915 300.689V298.431L303.653 297.705V299.962ZM301.163 298.524L302.423 299.252V296.993L301.163 296.267V298.524ZM298.668 297.088L299.93 297.816V295.557L298.668 294.829V297.088ZM296.177 295.651L297.439 296.378V294.12L296.177 293.392V295.651ZM306.146 305.766L307.406 306.494V304.235L306.146 303.507V305.766ZM303.653 304.33L304.915 305.056V302.799L303.653 302.071V304.33ZM301.163 302.892L302.423 303.618V301.361L301.163 300.635V302.892ZM298.668 301.454L299.93 302.182V299.923L298.668 299.197V301.454ZM296.177 300.018L297.439 300.746V298.487L296.177 297.759V300.018ZM306.146 310.133L307.406 310.861V308.602L306.146 307.875V310.133ZM303.653 308.696L304.915 309.424V307.165L303.653 306.437V308.696ZM301.163 307.26L302.423 307.986V305.729L301.163 305.001V307.26ZM298.668 305.822L299.93 306.55V304.291L298.668 303.565V305.822ZM296.177 304.384L297.439 305.112V302.853L296.177 302.127V304.384ZM306.146 314.499L307.406 315.225V312.968L306.146 312.242V314.499ZM303.653 313.061L304.915 313.789V311.53L303.653 310.804V313.061ZM301.163 311.626L302.423 312.354V310.095L301.163 309.367V311.626ZM298.668 310.19L299.93 310.916V308.659L298.668 307.931V310.19ZM296.177 308.752L297.439 309.478V307.221L296.177 306.494V308.752Z" fill="#C3BEB1"/>
<path opacity="0.6" d="M313.996 300.537L312.736 301.265V299.006L313.996 298.279V300.537ZM316.489 296.841L315.227 297.568V299.828L316.489 299.1V296.841ZM318.981 295.405L317.721 296.133V298.39L318.981 297.664V295.405ZM321.474 293.967L320.212 294.695V296.952L321.474 296.226V293.967ZM323.966 292.53L322.705 293.257V295.516L323.966 294.788V292.53ZM326.459 291.092L325.197 291.82V294.079L326.459 293.352V291.092ZM328.95 289.658L327.688 290.386V292.643L328.95 291.917V289.658ZM313.996 304.903L312.736 305.629V303.372L313.996 302.644V304.903ZM316.489 301.209L315.227 301.936V304.195L316.489 303.467V301.209ZM318.981 299.771L317.721 300.499V302.758L318.981 302.03V299.771ZM321.474 298.335L320.212 299.063V301.32L321.474 300.594V298.335ZM323.966 296.898L322.705 297.625V299.882L323.966 299.156V296.898ZM326.459 295.46L325.197 296.187V298.446L326.459 297.718V295.46ZM328.95 294.022L327.688 294.75V297.009L328.95 296.281V294.022ZM313.996 309.271L312.736 309.997V307.738L313.996 307.012V309.271ZM316.489 305.577L315.227 306.303V308.561L316.489 307.834V305.577ZM318.981 304.139L317.721 304.865V307.124L318.981 306.396V304.139ZM321.474 302.701L320.212 303.429V305.688L321.474 304.96V302.701ZM323.966 301.265L322.705 301.993V304.25L323.966 303.524V301.265ZM326.459 299.828L325.197 300.555V302.812L326.459 302.086V299.828ZM328.95 298.39L327.688 299.117V301.376L328.95 300.648V298.39ZM313.996 313.637L312.736 314.365V312.106L313.996 311.378V313.637ZM316.489 309.942L315.227 310.67V312.927L316.489 312.201V309.942ZM318.981 308.505L317.721 309.232V311.489L318.981 310.763V308.505ZM321.474 307.069L320.212 307.795V310.054L321.474 309.326V307.069ZM323.966 305.631L322.705 306.359V308.618L323.966 307.89V305.631ZM326.459 304.195L325.197 304.923V307.18L326.459 306.454V304.195ZM328.95 302.758L327.688 303.485V305.742L328.95 305.016V302.758Z" fill="#C3BEB1"/>
<path d="M344.014 304.476L344.018 391.85L343.469 392.168L343.465 304.794L344.014 304.476Z" fill="#ECE5D9"/>
<path d="M322.536 316.935L322.538 404.311L321.989 404.629L321.987 317.255L322.536 316.935Z" fill="#ECE5D9"/>
<path d="M321.987 317.255L321.989 404.629L308.217 396.688L308.213 309.314L321.987 317.255Z" fill="#C3BEB1"/>
<path d="M324.357 317.984L324.359 405.359L322.538 404.311L322.536 316.935L324.357 317.984Z" fill="#D1D3D4"/>
<path d="M325.954 319.541L325.955 406.916L323.809 405.679L323.808 318.302L325.954 319.541Z" fill="#C3BEB1"/>
<path d="M347.983 306.762L347.986 394.137L325.956 406.915L325.954 319.541L347.983 306.762Z" fill="#ECE5D9"/>
<path d="M329.108 320.202L329.11 393.83L327.137 394.968L327.135 321.342L329.108 320.202Z" fill="#E3DCD0"/>
<path opacity="0.5" d="M329.108 320.202L328.833 320.361L328.835 393.67L327.136 394.651V394.968L329.109 393.83L329.108 320.202Z" fill="#C3BEB1"/>
<path d="M332.054 318.503L332.057 392.131L330.084 393.27L330.081 319.644L332.054 318.503Z" fill="#E3DCD0"/>
<path opacity="0.5" d="M332.053 318.503L331.779 318.663L331.782 391.973L330.084 392.954V393.27L332.057 392.131L332.053 318.503Z" fill="#C3BEB1"/>
<path d="M335.001 316.804L335.004 390.433L333.029 391.573L333.028 317.947L335.001 316.804Z" fill="#E3DCD0"/>
<path opacity="0.5" d="M335 316.804L334.725 316.964L334.727 390.273L333.029 391.254V391.573L335.003 390.433L335 316.804Z" fill="#C3BEB1"/>
<path d="M337.946 315.106V388.734L335.973 389.873L335.971 316.247L337.946 315.106Z" fill="#E3DCD0"/>
<path opacity="0.5" d="M337.945 315.106L337.669 315.266L337.671 388.576L335.972 389.557V389.873L337.945 388.734V315.106Z" fill="#C3BEB1"/>
<path d="M340.889 313.409L340.893 387.036L338.92 388.176L338.917 314.548L340.889 313.409Z" fill="#E3DCD0"/>
<path opacity="0.5" d="M340.889 313.409L340.615 313.569L340.618 386.877L338.92 387.859V388.176L340.892 387.036L340.889 313.409Z" fill="#C3BEB1"/>
<path d="M343.836 311.71L343.84 385.337L341.865 386.477L341.864 312.852L343.836 311.71Z" fill="#E3DCD0"/>
<path opacity="0.5" d="M343.836 311.71L343.561 311.87L343.563 385.179L341.865 386.16V386.477L343.839 385.337L343.836 311.71Z" fill="#C3BEB1"/>
<path d="M346.783 310.012L346.785 383.64L344.81 384.779L344.809 311.153L346.783 310.012Z" fill="#E3DCD0"/>
<path opacity="0.5" d="M346.783 310.012L346.506 310.171L346.508 383.481L344.81 384.462V384.779L346.784 383.64L346.783 310.012Z" fill="#C3BEB1"/>
<path d="M345.837 305.524L345.286 305.844L343.465 304.794L344.014 304.476L330.244 296.533L308.213 309.314L321.987 317.255L322.536 316.935L324.357 317.984L323.808 318.303L325.954 319.541L347.983 306.763L345.837 305.524Z" fill="#FFF9ED"/>
<path d="M324.414 318.303L324.963 317.984L322.536 316.585L321.987 316.904L308.822 309.314L330.244 296.886L343.408 304.477L342.859 304.796L345.288 306.194L345.837 305.876L347.377 306.762L325.954 319.189L324.414 318.303Z" fill="#E6332A"/>
<path d="M324.963 318.619V317.984L324.414 318.302L324.963 318.619Z" fill="#D1D3D4"/>
<path d="M331.588 396.853C331.598 396.895 331.598 405.749 331.598 405.749L346.525 397.143L347.078 387.631C345.162 388.93 343.26 390.249 341.2 391.329C337.939 393.038 334.71 394.879 331.588 396.853Z" fill="#E3DCD0"/>
<path d="M347.911 398.433L346.112 397.391V387.66L347.91 388.699L347.911 398.433Z" fill="#C3BEB1"/>
<path d="M332.173 407.506L328.554 405.415L328.551 395.682L332.171 397.773L332.173 407.506Z" fill="#C3BEB1"/>
<path d="M345.231 386.065L328.551 395.682L332.171 397.773L348.851 388.156L345.231 386.065Z" fill="#FFF9ED"/>
<path d="M348.851 388.156L332.171 397.773L332.173 407.507L333.113 406.966V398.31L347.91 389.779L347.911 398.433L348.849 397.891L348.851 388.156Z" fill="#ECE5D9"/>
<path d="M458.071 313.255L458.081 362.907L455.688 364.294L455.678 314.643L458.071 313.255Z" fill="#ECE5D9"/>
<path d="M438.644 316.251L435.964 314.704L435.975 364.355L438.656 365.902L438.644 316.251Z" fill="#C3BEB1"/>
<path d="M471.879 321.216L471.891 370.867L459.619 377.989L459.608 328.336L471.879 321.216Z" fill="#ECE5D9"/>
<path d="M459.608 328.336L459.619 377.989L456.939 376.443L456.927 326.792L459.608 328.336Z" fill="#C3BEB1"/>
<path d="M456.927 326.792L456.939 376.443L420.021 397.868L420.01 348.216L456.927 326.792Z" fill="#ECE5D9"/>
<path d="M399.006 347.534L399.017 397.186L396.624 398.573L396.613 348.922L399.006 347.534Z" fill="#ECE5D9"/>
<path d="M396.613 348.922L396.624 398.573L386.772 392.903L386.777 343.251L396.613 348.922Z" fill="#C3BEB1"/>
<path d="M402.977 349.823L402.987 399.474L399.017 397.186L399.006 347.534L402.977 349.823Z" fill="#C3BEB1"/>
<path d="M410.419 356.882L410.43 406.534L400.594 400.862L400.584 351.212L410.419 356.882Z" fill="#C3BEB1"/>
<path d="M422.69 349.762L422.702 399.414L410.43 406.534L410.419 356.882L422.69 349.762Z" fill="#ECE5D9"/>
<path d="M471.878 321.216L459.607 328.336L456.927 326.792L420.009 348.217L422.69 349.762L410.418 356.882L400.584 351.212L402.977 349.823L399.005 347.534L396.612 348.922L386.776 343.251L399.046 336.128L401.726 337.676L438.644 316.251L435.963 314.703L448.235 307.583L458.071 313.256L455.678 314.643L459.648 316.933L462.041 315.544L471.878 321.216Z" fill="#FFF9ED"/>
<path d="M402.216 351.21L404.609 349.821L399.004 346.59L396.611 347.979L388.406 343.25L399.048 337.072L401.729 338.619L440.274 316.249L437.593 314.702L448.237 308.527L456.439 313.257L454.047 314.645L459.65 317.877L462.043 316.488L470.248 321.218L459.606 327.393L456.926 325.847L418.38 348.219L421.061 349.764L410.417 355.939L402.216 351.21Z" fill="#E6332A"/>
<g opacity="0.3">
<path opacity="0.3" d="M456.833 329.935L422.684 349.762L422.681 349.927L456.929 330.04L456.927 329.921C456.896 329.922 456.862 329.917 456.833 329.935Z" fill="#C3BEB1"/>
<path opacity="0.3" d="M471.879 324.466V324.346L459.608 331.426L459.609 331.558C459.64 331.556 471.879 324.466 471.879 324.466Z" fill="#C3BEB1"/>
<path opacity="0.3" d="M386.871 346.394C386.842 346.376 386.809 346.38 386.777 346.38V346.501L396.518 352.116C396.547 352.134 396.58 352.142 396.613 352.142V352.01L386.871 346.394Z" fill="#C3BEB1"/>
<path opacity="0.3" d="M410.326 360.08C410.357 360.096 410.388 360.104 410.422 360.104C410.455 360.104 410.488 360.096 410.517 360.078L422.692 353.012V352.893C422.659 352.893 422.627 352.888 422.596 352.906L410.422 359.972L400.681 354.357C400.65 354.339 400.619 354.344 400.586 354.344V354.465L410.326 360.08Z" fill="#C3BEB1"/>
<path opacity="0.3" d="M456.833 333.841L422.684 353.668L422.681 353.833L456.929 333.947L456.927 333.828C456.896 333.828 456.862 333.823 456.833 333.841Z" fill="#C3BEB1"/>
<path opacity="0.3" d="M459.608 335.33L459.609 335.464C459.642 335.464 471.879 328.371 471.879 328.371V328.252L459.608 335.33Z" fill="#C3BEB1"/>
<path opacity="0.3" d="M386.871 350.299C386.842 350.283 386.809 350.288 386.777 350.288V350.407L396.518 356.024C396.547 356.04 396.58 356.05 396.613 356.05C396.613 356.048 396.613 355.916 396.613 355.916L386.871 350.299Z" fill="#C3BEB1"/>
<path opacity="0.3" d="M410.326 363.986C410.357 364.004 410.388 364.012 410.422 364.012C410.455 364.012 410.488 364.004 410.517 363.984L422.692 356.918V356.799C422.659 356.799 422.627 356.794 422.596 356.812L410.422 363.878L400.681 358.263C400.65 358.245 400.619 358.25 400.586 358.25V358.371L410.326 363.986Z" fill="#C3BEB1"/>
<path opacity="0.3" d="M456.833 337.746L422.684 357.574L422.681 357.737L456.929 337.852L456.927 337.733C456.896 337.734 456.862 337.729 456.833 337.746Z" fill="#C3BEB1"/>
<path opacity="0.3" d="M459.608 339.238L459.609 339.37C459.642 339.37 471.879 332.278 471.879 332.278V332.158L459.608 339.238Z" fill="#C3BEB1"/>
<path opacity="0.3" d="M386.871 354.205C386.842 354.187 386.809 354.192 386.777 354.192V354.311L396.518 359.927C396.547 359.945 396.58 359.954 396.613 359.954V359.821L386.871 354.205Z" fill="#C3BEB1"/>
<path opacity="0.3" d="M410.326 367.89C410.357 367.908 410.388 367.916 410.422 367.916C410.455 367.916 410.488 367.908 410.517 367.89L422.692 360.824V360.703C422.659 360.703 422.627 360.7 422.596 360.718L410.422 367.784L400.681 362.167C400.65 362.149 400.619 362.156 400.586 362.156V362.275L410.326 367.89Z" fill="#C3BEB1"/>
<path opacity="0.3" d="M456.833 341.653L422.684 361.48L422.681 361.645L456.929 341.758L456.927 341.638C456.896 341.638 456.862 341.634 456.833 341.653Z" fill="#C3BEB1"/>
<path opacity="0.3" d="M459.608 343.142L459.609 343.274C459.642 343.274 471.879 336.182 471.879 336.182V336.062L459.608 343.142Z" fill="#C3BEB1"/>
<path opacity="0.3" d="M386.871 358.111C386.842 358.093 386.809 358.098 386.777 358.098V358.219L396.518 363.834C396.547 363.852 396.58 363.86 396.613 363.86V363.728L386.871 358.111Z" fill="#C3BEB1"/>
<path opacity="0.3" d="M410.326 371.798C410.357 371.814 410.388 371.822 410.422 371.822C410.455 371.822 410.488 371.814 410.517 371.796L422.692 364.73V364.611C422.659 364.611 422.627 364.606 422.596 364.624L410.422 371.69L400.681 366.075C400.65 366.057 400.619 366.062 400.586 366.062V366.183L410.326 371.798Z" fill="#C3BEB1"/>
<path opacity="0.3" d="M456.833 345.559L422.684 365.386L422.681 365.551L456.929 345.665L456.927 345.546C456.896 345.546 456.862 345.541 456.833 345.559Z" fill="#C3BEB1"/>
<path opacity="0.3" d="M459.608 347.048L459.609 347.182C459.642 347.182 471.879 340.09 471.879 340.09V339.97L459.608 347.048Z" fill="#C3BEB1"/>
<path opacity="0.3" d="M386.871 362.017C386.842 362.001 386.809 362.006 386.777 362.006V362.125L396.518 367.741C396.547 367.758 396.58 367.767 396.613 367.767C396.613 367.766 396.613 367.634 396.613 367.634L386.871 362.017Z" fill="#C3BEB1"/>
<path opacity="0.3" d="M410.326 375.702C410.357 375.72 410.388 375.728 410.422 375.728C410.455 375.728 410.488 375.72 410.517 375.702L422.692 368.634V368.515C422.659 368.515 422.627 368.51 422.596 368.53L410.422 375.594L400.681 369.979C400.65 369.961 400.619 369.966 400.586 369.966V370.087L410.326 375.702Z" fill="#C3BEB1"/>
<path opacity="0.3" d="M456.833 349.464L422.684 369.292L422.681 369.455L456.929 349.57L456.927 349.451C456.896 349.451 456.862 349.446 456.833 349.464Z" fill="#C3BEB1"/>
<path opacity="0.3" d="M459.608 350.954L459.609 351.086C459.642 351.086 471.879 343.994 471.879 343.994V343.875L459.608 350.954Z" fill="#C3BEB1"/>
<path opacity="0.3" d="M386.871 365.923C386.842 365.905 386.809 365.91 386.777 365.91V366.029L396.518 371.646C396.547 371.664 396.58 371.672 396.613 371.672V371.538L386.871 365.923Z" fill="#C3BEB1"/>
<path opacity="0.3" d="M410.326 379.608C410.357 379.626 410.388 379.634 410.422 379.634C410.455 379.634 410.488 379.626 410.517 379.608L422.692 372.542V372.422C422.659 372.422 422.627 372.418 422.596 372.436L410.422 379.502L400.681 373.885C400.65 373.867 400.619 373.874 400.586 373.874V373.993L410.326 379.608Z" fill="#C3BEB1"/>
<path opacity="0.3" d="M456.833 353.371L422.684 373.198L422.681 373.363L456.929 353.475L456.927 353.356C456.896 353.356 456.862 353.351 456.833 353.371Z" fill="#C3BEB1"/>
<path opacity="0.3" d="M459.608 354.86L459.609 354.992C459.642 354.992 471.879 347.9 471.879 347.9V347.781L459.608 354.86Z" fill="#C3BEB1"/>
<path opacity="0.3" d="M386.871 369.829C386.842 369.811 386.809 369.816 386.777 369.816V369.937L396.518 375.552C396.547 375.57 396.58 375.578 396.613 375.578V375.446L386.871 369.829Z" fill="#C3BEB1"/>
<path opacity="0.3" d="M410.326 383.515C410.357 383.532 410.388 383.54 410.422 383.54C410.455 383.54 410.488 383.532 410.517 383.514L422.692 376.448V376.329C422.659 376.329 422.627 376.324 422.596 376.342L410.422 383.408L400.681 377.793C400.65 377.775 400.619 377.78 400.586 377.78V377.901L410.326 383.515Z" fill="#C3BEB1"/>
<path opacity="0.3" d="M456.833 357.276L422.684 377.102L422.681 377.267L456.929 357.382L456.927 357.262C456.896 357.264 456.862 357.259 456.833 357.276Z" fill="#C3BEB1"/>
<path opacity="0.3" d="M459.608 358.764L459.609 358.898C459.642 358.898 471.879 351.806 471.879 351.806V351.687L459.608 358.764Z" fill="#C3BEB1"/>
<path opacity="0.3" d="M386.871 373.734C386.842 373.717 386.809 373.72 386.777 373.72V373.841L396.518 379.458C396.547 379.474 396.58 379.484 396.613 379.484C396.613 379.482 396.613 379.35 396.613 379.35L386.871 373.734Z" fill="#C3BEB1"/>
<path opacity="0.3" d="M410.326 387.42C410.357 387.438 410.388 387.446 410.422 387.446C410.455 387.446 410.488 387.438 410.517 387.418L422.692 380.352V380.233C422.659 380.233 422.627 380.228 422.596 380.246L410.422 387.312L400.681 381.697C400.65 381.679 400.619 381.684 400.586 381.684V381.805L410.326 387.42Z" fill="#C3BEB1"/>
<path opacity="0.3" d="M456.833 361.181L422.684 381.008L422.681 381.173L456.929 361.287L456.927 361.168C456.896 361.168 456.862 361.163 456.833 361.181Z" fill="#C3BEB1"/>
<path opacity="0.3" d="M459.608 362.671L459.609 362.804C459.642 362.804 471.879 355.711 471.879 355.711V355.592L459.608 362.671Z" fill="#C3BEB1"/>
<path opacity="0.3" d="M386.871 377.641C386.842 377.623 386.809 377.628 386.777 377.628V377.747L396.518 383.364C396.547 383.382 396.58 383.39 396.613 383.39V383.256L386.871 377.641Z" fill="#C3BEB1"/>
<path opacity="0.3" d="M410.326 391.326C410.357 391.344 410.388 391.352 410.422 391.352C410.455 391.352 410.488 391.344 410.517 391.326L422.692 384.26V384.139C422.659 384.139 422.627 384.136 422.596 384.154L410.422 391.22L400.681 385.603C400.65 385.585 400.619 385.59 400.586 385.59V385.711L410.326 391.326Z" fill="#C3BEB1"/>
<path opacity="0.3" d="M456.833 365.087L422.684 384.914L422.681 385.079L456.929 365.192L456.927 365.073C456.896 365.074 456.862 365.069 456.833 365.087Z" fill="#C3BEB1"/>
<path opacity="0.3" d="M459.608 366.578L459.609 366.71C459.642 366.71 471.879 359.618 471.879 359.618V359.499L459.608 366.578Z" fill="#C3BEB1"/>
<path opacity="0.3" d="M386.871 381.545C386.842 381.527 386.809 381.532 386.777 381.532V381.653L396.518 387.268C396.547 387.286 396.58 387.294 396.613 387.294V387.162L386.871 381.545Z" fill="#C3BEB1"/>
<path opacity="0.3" d="M410.326 395.232C410.357 395.248 410.388 395.256 410.422 395.256C410.455 395.256 410.488 395.248 410.517 395.23L422.692 388.164V388.045C422.659 388.045 422.627 388.04 422.596 388.058L410.422 395.124L400.681 389.509C400.65 389.491 400.619 389.496 400.586 389.496V389.617L410.326 395.232Z" fill="#C3BEB1"/>
<path opacity="0.3" d="M456.833 368.993L422.684 388.82L422.681 388.985L456.929 369.099L456.927 368.98C456.896 368.978 456.862 368.975 456.833 368.993Z" fill="#C3BEB1"/>
<path opacity="0.3" d="M459.608 370.482L459.609 370.616C459.642 370.616 471.879 363.523 471.879 363.523V363.404L459.608 370.482Z" fill="#C3BEB1"/>
<path opacity="0.3" d="M386.871 385.451C386.842 385.435 386.809 385.438 386.777 385.438V385.559L396.518 391.176C396.547 391.192 396.58 391.2 396.613 391.2V391.068L386.871 385.451Z" fill="#C3BEB1"/>
<path opacity="0.3" d="M410.326 399.138C410.357 399.156 410.388 399.164 410.422 399.164C410.455 399.164 410.488 399.156 410.517 399.136L422.692 392.07V391.951C422.659 391.951 422.627 391.946 422.596 391.964L410.422 399.03L400.681 393.415C400.65 393.397 400.619 393.402 400.586 393.402V393.523L410.326 399.138Z" fill="#C3BEB1"/>
<path opacity="0.3" d="M456.833 372.899L422.684 392.726L422.681 392.891L456.929 373.005L456.927 372.886C456.896 372.886 456.862 372.881 456.833 372.899Z" fill="#C3BEB1"/>
<path opacity="0.3" d="M459.608 374.39L459.609 374.522C459.642 374.522 471.879 367.43 471.879 367.43V367.311L459.608 374.39Z" fill="#C3BEB1"/>
<path opacity="0.3" d="M386.871 389.359C386.842 389.341 386.809 389.346 386.777 389.346V389.465L396.518 395.082C396.547 395.1 396.58 395.108 396.613 395.108V394.974L386.871 389.359Z" fill="#C3BEB1"/>
<path opacity="0.3" d="M410.421 402.936L400.679 397.319C400.648 397.301 400.617 397.306 400.584 397.306V397.427L410.324 403.042C410.355 403.06 410.386 403.068 410.421 403.068C410.453 403.068 410.486 403.06 410.515 403.042L422.69 395.976V395.855C422.658 395.855 422.625 395.852 422.594 395.87L410.421 402.936Z" fill="#C3BEB1"/>
</g>
<path d="M430.635 382.923C430.647 382.977 430.647 394.396 430.647 394.396L449.897 383.296L450.612 371.026C448.14 372.702 445.684 374.401 443.031 375.795C438.829 378.005 434.66 380.379 430.635 382.923Z" fill="#E3DCD0"/>
<path d="M451.687 384.96L449.368 383.617L449.365 371.065L451.684 372.406L451.687 384.96Z" fill="#C3BEB1"/>
<path d="M431.389 396.662L426.723 393.965L426.719 381.411L431.387 384.109L431.389 396.662Z" fill="#C3BEB1"/>
<path d="M448.23 369.01L426.719 381.412L431.387 384.11L452.9 371.706L448.23 369.01Z" fill="#FFF9ED"/>
<path d="M452.9 371.707L431.387 384.11L431.389 396.662L432.602 395.963V384.802L451.684 373.799L451.687 384.96L452.898 384.262L452.9 371.707Z" fill="#ECE5D9"/>
<path d="M249.759 321.169H199.632L162.329 342.679L189.966 358.613H224.615L227.934 360.529H275.359L249.759 321.169Z" fill="#D1D3D4"/>
<path d="M302.936 309.121L275.475 293.29L248.018 309.121L275.475 324.954L302.936 309.121Z" fill="#FFF9ED"/>
<path d="M275.475 360.474L248.018 344.642V309.121L275.475 324.954V360.474Z" fill="#C3BEB1"/>
<path d="M302.936 344.642L275.476 360.474V324.954L302.936 309.121V344.642Z" fill="#ECE5D9"/>
<path opacity="0.9" d="M269.493 321.503H275.475L264.052 301.012L261.574 301.304L248.018 309.121L269.493 321.503Z" fill="#C3BEB1"/>
<path d="M297.16 244.26L275.476 231.759L253.793 244.26L275.476 256.762L297.16 244.26Z" fill="#FFF9ED"/>
<path d="M275.476 233.147L256.204 244.26L275.476 255.372L294.751 244.26L275.476 233.147Z" fill="#E6332A"/>
<path d="M275.476 321.503L253.793 309V244.26L275.476 256.762V321.503Z" fill="#C3BEB1"/>
<path d="M297.16 309L275.476 321.503V256.762L297.16 244.26V309Z" fill="#ECE5D9"/>
<path opacity="0.6" d="M277.502 260.924L279.303 259.884V316.892L277.502 317.932V260.924ZM281.441 315.66L283.244 314.62V257.612L281.441 258.652V315.66ZM285.38 313.388L287.185 312.35V255.342L285.38 256.38V313.388ZM289.321 311.117L291.124 310.078V253.07L289.321 254.109V311.117ZM293.263 308.844L295.064 307.804V250.796L293.263 251.836V308.844Z" fill="#C3BEB1"/>
<path opacity="0.6" d="M273.107 317.932L271.306 316.892V259.884L273.107 260.924V317.932ZM269.166 258.652L267.364 257.612V314.62L269.166 315.66V258.652ZM265.226 256.38L263.423 255.342V312.35L265.226 313.388V256.38ZM261.287 254.109L259.484 253.07V310.078L261.287 311.117V254.109ZM257.346 251.837L255.545 250.798V307.806L257.346 308.845V251.837Z" fill="#C3BEB1"/>
<path opacity="0.6" d="M278.759 327.685L277.398 328.47V326.034L278.759 325.249V327.685ZM281.448 323.7L280.086 324.484V326.919L281.448 326.136V323.7ZM284.137 322.151L282.775 322.935V325.37L284.137 324.587V322.151ZM286.824 320.602L285.462 321.386V323.821L286.824 323.038V320.602ZM289.512 319.052L288.152 319.835V322.27L289.512 321.487V319.052ZM292.199 317.501L290.839 318.286V320.721L292.199 319.936V317.501ZM294.888 315.952L293.528 316.735V319.171L294.888 318.386V315.952ZM297.575 314.401L296.215 315.186V317.62L297.575 316.837V314.401ZM278.759 332.395L277.398 333.18V330.745L278.759 329.96V332.395ZM281.448 328.411L280.086 329.196V331.63L281.448 330.846V328.411ZM284.137 326.86L282.775 327.645V330.081L284.137 329.296V326.86ZM286.824 325.31L285.462 326.093V328.528L286.824 327.745V325.31ZM289.512 323.761L288.152 324.544V326.979L289.512 326.196V323.761ZM292.199 322.212L290.839 322.995V325.43L292.199 324.647V322.212ZM294.888 320.663L293.528 321.446V323.881L294.888 323.098V320.663ZM297.575 319.112L296.215 319.897V322.332L297.575 321.547V319.112ZM278.759 337.106L277.398 337.889V335.454L278.759 334.671V337.106ZM281.448 333.122L280.086 333.905V336.34L281.448 335.557V333.122ZM284.137 331.571L282.775 332.354V334.79L284.137 334.005V331.571ZM286.824 330.02L285.462 330.805V333.241L286.824 332.456V330.02ZM289.512 328.471L288.152 329.255V331.69L289.512 330.905V328.471ZM292.199 326.921L290.839 327.706V330.14L292.199 329.356V326.921ZM294.888 325.37L293.528 326.154V328.589L294.888 327.805V325.37ZM297.575 323.821L296.215 324.605V327.04L297.575 326.256V323.821ZM278.759 341.815L277.398 342.6V340.165L278.759 339.38V341.815ZM281.448 337.829L280.086 338.613V341.048L281.448 340.264V337.829ZM284.137 336.28L282.775 337.064V339.499L284.137 338.715V336.28ZM286.824 334.731L285.462 335.515V337.95L286.824 337.166V334.731ZM289.512 333.182L288.152 333.965V336.401L289.512 335.617V333.182ZM292.199 331.63L290.839 332.415V334.85L292.199 334.065V331.63ZM294.888 330.081L293.528 330.866V333.3L294.888 332.516V330.081ZM297.575 328.53L296.215 329.315V331.751L297.575 330.965V328.53ZM278.759 346.526L277.398 347.309V344.874L278.759 344.09V346.526ZM281.448 342.54L280.086 343.325V345.76L281.448 344.975V342.54ZM284.137 340.991L282.775 341.774V344.209L284.137 343.424V340.991ZM286.824 339.44L285.462 340.225V342.661L286.824 341.875V339.44ZM289.512 337.889L288.152 338.673V341.108L289.512 340.325V337.889ZM292.199 336.34L290.839 337.124V339.559L292.199 338.776V336.34ZM294.888 334.791L293.528 335.575V338.01L294.888 337.227V334.791ZM297.575 333.242L296.215 334.026V336.461L297.575 335.676V333.242ZM278.759 351.235L277.398 352.018V349.583L278.759 348.799V351.235ZM281.448 347.25L280.086 348.034V350.469L281.448 349.686V347.25ZM284.137 345.701L282.775 346.485V348.92L284.137 348.137V345.701ZM286.824 344.149L285.462 344.934V347.37L286.824 346.584V344.149ZM289.512 342.6L288.152 343.384V345.819L289.512 345.035V342.6ZM292.199 341.049L290.839 341.835V344.27L292.199 343.485V341.049ZM294.888 339.5L293.528 340.284V342.719L294.888 341.936V339.5ZM297.575 337.95L296.215 338.733V341.169L297.575 340.385V337.95Z" fill="#C3BEB1"/>
<path opacity="0.6" d="M272.032 325.25L273.393 326.035V328.47L272.032 327.685V325.25ZM269.345 326.136L270.706 326.919V324.484L269.345 323.701V326.136ZM266.656 324.587L268.017 325.37V322.935L266.656 322.152V324.587ZM263.967 323.038L265.33 323.821V321.386L263.967 320.603V323.038ZM261.279 321.489L262.642 322.272V319.837L261.279 319.054V321.489ZM258.592 319.937L259.955 320.722V318.286L258.592 317.501V319.937ZM255.903 318.386L257.264 319.171V316.736L255.903 315.952V318.386ZM253.216 316.837L254.577 317.62V315.187L253.216 314.402V316.837ZM272.032 329.96L273.393 330.745V333.181L272.032 332.396V329.96ZM269.345 330.847L270.706 331.63V329.196L269.345 328.411V330.847ZM266.656 329.296L268.017 330.081V327.646L266.656 326.861V329.296ZM263.967 327.747L265.33 328.53V326.095L263.967 325.312V327.747ZM261.279 326.196L262.642 326.98V324.544L261.279 323.761V326.196ZM258.592 324.647L259.955 325.431V322.995L258.592 322.212V324.647ZM255.903 323.098L257.264 323.882V321.446L255.903 320.663V323.098ZM253.216 321.548L254.577 322.333V319.897L253.216 319.112V321.548ZM272.032 334.671L273.393 335.454V337.89L272.032 337.106V334.671ZM269.345 335.557L270.706 336.341V333.905L269.345 333.122V335.557ZM266.656 334.005L268.017 334.79V332.355L266.656 331.571V334.005ZM263.967 332.456L265.33 333.241V330.806L263.967 330.021V332.456ZM261.279 330.905L262.642 331.69V329.255L261.279 328.472V330.905ZM258.592 329.356L259.955 330.14V327.706L258.592 326.921V329.356ZM255.903 327.807L257.264 328.591V326.156L255.903 325.372V327.807ZM253.216 326.257L254.577 327.04V324.605L253.216 323.821V326.257ZM272.032 339.378L273.393 340.163V342.599L272.032 341.814V339.378ZM269.345 340.265L270.706 341.048V338.613L269.345 337.829V340.265ZM266.656 338.716L268.017 339.499V337.064L266.656 336.28V338.716ZM263.967 337.167L265.33 337.95V335.515L263.967 334.731V337.167ZM261.279 335.618L262.642 336.401V333.966L261.279 333.182V335.618ZM258.592 334.067L259.955 334.852V332.417L258.592 331.632V334.067ZM255.903 332.516L257.264 333.3V330.866L255.903 330.081V332.516ZM253.216 330.966L254.577 331.751V329.316L253.216 328.53V330.966ZM272.032 344.091L273.393 344.874V347.309L272.032 346.526V344.091ZM269.345 344.975L270.706 345.76V343.325L269.345 342.54V344.975ZM266.656 343.425L268.017 344.21V341.775L266.656 340.991V343.425ZM263.967 341.876L265.33 342.661V340.226L263.967 339.44V341.876ZM261.279 340.327L262.642 341.11V338.675L261.279 337.891V340.327ZM258.592 338.776L259.955 339.56V337.124L258.592 336.341V338.776ZM255.903 337.227L257.264 338.011V335.575L255.903 334.792V337.227ZM253.216 335.676L254.577 336.462V334.026L253.216 333.243V335.676ZM272.032 348.8L273.393 349.583V352.019L272.032 351.235V348.8ZM269.345 349.686L270.706 350.47V348.034L269.345 347.251V349.686ZM266.656 348.137L268.017 348.92V346.485L266.656 345.702V348.137ZM263.967 346.586L265.33 347.372V344.936L263.967 344.151V346.586ZM261.279 345.036L262.642 345.819V343.384L261.279 342.6V345.036ZM258.592 343.485L259.955 344.27V341.835L258.592 341.05V343.485ZM255.903 341.936L257.264 342.72V340.284L255.903 339.501V341.936ZM253.216 340.387L254.577 341.171V338.735L253.216 337.952V340.387ZM250.54 315.296L251.903 316.08V313.644L250.54 312.861V315.296ZM250.54 320.005L251.903 320.789V318.353L250.54 317.57V320.005ZM250.54 324.714L251.903 325.498V323.062L250.54 322.279V324.714ZM250.54 329.425L251.903 330.21V327.775L250.54 326.99V329.425ZM250.54 334.136L251.903 334.919V332.484L250.54 331.7V334.136ZM250.54 338.843L251.903 339.626V337.193L250.54 336.408V338.843Z" fill="#C3BEB1"/>
<path d="M172.528 298.454H122.401L85.0979 319.964L112.736 335.9H147.384L150.703 337.814H198.127L172.528 298.454Z" fill="#D1D3D4"/>
<path d="M193.844 232.217L170.663 218.851L147.48 232.217L170.663 245.585L193.844 232.217Z" fill="#FFF9ED"/>
<path d="M149.115 232.217L170.663 219.794L192.21 232.217L170.663 244.641L149.115 232.217Z" fill="#E6332A"/>
<path d="M170.663 335.374L147.48 322.009V232.218L170.663 245.586V335.374Z" fill="#C3BEB1"/>
<path d="M193.845 322.009L170.663 335.374V245.586L193.845 232.218V322.009Z" fill="#ECE5D9"/>
<path d="M221.31 281.223L205.46 272.084L182.277 285.449L198.127 294.588L221.31 281.223Z" fill="#FFF9ED"/>
<path d="M205.46 274.166L217.694 281.221L198.127 292.501L185.893 285.448L205.46 274.166ZM205.46 273.474L184.688 285.45L198.128 293.198L218.901 281.222L205.46 273.474Z" fill="#ECE5D9"/>
<path d="M198.127 337.815L182.277 328.674V285.449L198.127 294.588V337.815Z" fill="#C3BEB1"/>
<path d="M221.31 324.446L198.127 337.814V294.587L221.31 281.222V324.446Z" fill="#ECE5D9"/>
<path opacity="0.6" d="M201.013 298.624L199.653 299.407V296.972L201.013 296.189V298.624ZM203.702 294.636L202.342 295.422V297.857L203.702 297.072V294.636ZM206.391 293.087L205.029 293.871V296.306L206.391 295.523V293.087ZM209.079 291.538L207.718 292.322V294.757L209.079 293.974V291.538ZM211.766 289.988L210.405 290.773V293.208L211.766 292.423V289.988ZM214.455 288.439L213.093 289.224V291.658L214.455 290.874V288.439ZM217.142 286.888L215.78 287.672V290.107L217.142 289.323V286.888ZM219.831 285.339L218.469 286.123V288.558L219.831 287.774V285.339ZM201.013 303.333L199.653 304.118V301.683L201.013 300.898V303.333ZM203.702 299.347L202.342 300.131V302.566L203.702 301.782V299.347ZM206.391 297.798L205.029 298.582V301.017L206.391 300.233V297.798ZM209.079 296.249L207.718 297.033V299.468L209.079 298.683V296.249ZM211.766 294.697L210.405 295.482V297.916L211.766 297.132V294.697ZM214.455 293.148L213.093 293.931V296.367L214.455 295.583V293.148ZM217.142 291.599L215.78 292.382V294.818L217.142 294.034V291.599ZM219.831 290.048L218.469 290.833V293.269L219.831 292.483V290.048ZM201.013 308.042L199.653 308.826V306.392L201.013 305.607V308.042ZM203.702 304.058L202.342 304.841V307.277L203.702 306.493V304.058ZM206.391 302.507L205.029 303.292V305.728L206.391 304.942V302.507ZM209.079 300.956L207.718 301.742V304.177L209.079 303.392V300.956ZM211.766 299.407L210.405 300.191V302.626L211.766 301.843V299.407ZM214.455 297.858L213.093 298.642V301.077L214.455 300.294V297.858ZM217.142 296.308L215.78 297.093V299.528L217.142 298.743V296.308ZM219.831 294.759L218.469 295.542V297.978L219.831 297.194V294.759ZM201.013 312.753L199.653 313.536V311.101L201.013 310.317V312.753ZM203.702 308.768L202.342 309.552V311.987L203.702 311.202V308.768ZM206.391 307.216L205.029 308.001V310.435L206.391 309.651V307.216ZM209.079 305.667L207.718 306.451V308.886L209.079 308.102V305.667ZM211.766 304.118L210.405 304.902V307.337L211.766 306.553V304.118ZM214.455 302.568L213.093 303.353V305.788L214.455 305.003V302.568ZM217.142 301.019L215.78 301.802V304.237L217.142 303.454V301.019ZM219.831 299.468L218.469 300.251V302.687L219.831 301.903V299.468ZM201.013 317.462L199.653 318.247V315.812L201.013 315.028V317.462ZM203.702 313.476L202.342 314.261V316.695L203.702 315.911V313.476ZM206.391 311.927L205.029 312.71V315.146L206.391 314.362V311.927ZM209.079 310.378L207.718 311.161V313.597L209.079 312.813V310.378ZM211.766 308.827L210.405 309.612V312.048L211.766 311.263V308.827ZM214.455 307.278L213.093 308.062V310.497L214.455 309.713V307.278ZM217.142 305.728L215.78 306.511V308.946L217.142 308.163V305.728ZM219.831 304.179L218.469 304.962V307.397L219.831 306.612V304.179ZM201.013 322.171L199.653 322.956V320.521L201.013 319.736V322.171ZM203.702 318.187L202.342 318.97V321.405L203.702 320.622V318.187ZM206.391 316.638L205.029 317.421V319.856L206.391 319.073V316.638ZM209.079 315.087L207.718 315.872V318.307L209.079 317.522V315.087ZM211.766 313.536L210.405 314.32V316.755L211.766 315.972V313.536ZM214.455 311.987L213.093 312.771V315.206L214.455 314.423V311.987ZM217.142 310.437L215.78 311.222V313.657L217.142 312.872V310.437ZM219.831 308.888L218.469 309.673V312.106L219.831 311.323V308.888ZM201.013 326.882L199.653 327.665V325.23L201.013 324.446V326.882ZM203.702 322.897L202.342 323.681V326.116L203.702 325.332V322.897ZM206.391 321.347L205.029 322.132V324.567L206.391 323.782V321.347ZM209.079 319.796L207.718 320.579V323.015L209.079 322.231V319.796ZM211.766 318.247L210.405 319.03V321.466L211.766 320.682V318.247ZM214.455 316.696L213.093 317.481V319.917L214.455 319.132V316.696ZM217.142 315.147L215.78 315.932V318.366L217.142 317.583V315.147ZM219.831 313.598L218.469 314.382V316.817L219.831 316.034V313.598Z" fill="#C3BEB1"/>
<path opacity="0.6" d="M195.242 296.188L196.602 296.972V299.407L195.242 298.624V296.188ZM192.553 297.073L193.913 297.858V295.423L192.553 294.638V297.073ZM189.866 295.522L191.226 296.306V293.871L189.866 293.087V295.522ZM187.178 293.974L188.537 294.757V292.322L187.178 291.538V293.974ZM184.49 292.423L185.85 293.208V290.773L184.49 289.988V292.423ZM195.242 300.896L196.602 301.681V304.116L195.242 303.331V300.896ZM192.553 301.782L193.913 302.566V300.13L192.553 299.347V301.782ZM189.866 300.233L191.226 301.017V298.581L189.866 297.798V300.233ZM187.178 298.683L188.537 299.468V297.032L187.178 296.249V298.683ZM184.49 297.134L185.85 297.917V295.483L184.49 294.698V297.134ZM195.242 305.607L196.602 306.392V308.825L195.242 308.042V305.607ZM192.553 306.493L193.913 307.276V304.841L192.553 304.058V306.493ZM189.866 304.942L191.226 305.727V303.292L189.866 302.507V304.942ZM187.178 303.393L188.537 304.178V301.743L187.178 300.958V303.393ZM184.49 301.843L185.85 302.626V300.191L184.49 299.407V301.843ZM195.242 310.317L196.602 311.101V313.536L195.242 312.753V310.317ZM192.553 311.202L193.913 311.987V309.552L192.553 308.768V311.202ZM189.866 309.653L191.226 310.436V308.003L189.866 307.218V309.653ZM187.178 308.102L188.537 308.886V306.45L187.178 305.667V308.102ZM184.49 306.553L185.85 307.337V304.901L184.49 304.118V306.553ZM195.242 315.028L196.602 315.811V318.247L195.242 317.462V315.028ZM192.553 315.913L193.913 316.696V314.262L192.553 313.477V315.913ZM189.866 314.362L191.226 315.145V312.71L189.866 311.927V314.362ZM187.178 312.813L188.537 313.596V311.161L187.178 310.378V312.813ZM184.49 311.262L185.85 312.047V309.612L184.49 308.827V311.262ZM195.242 319.735L196.602 320.52V322.956L195.242 322.171V319.735ZM192.553 320.622L193.913 321.405V318.97L192.553 318.186V320.622ZM189.866 319.073L191.226 319.856V317.421L189.866 316.637V319.073ZM187.178 317.522L188.537 318.307V315.872L187.178 315.087V317.522ZM184.49 315.973L185.85 316.756V314.321L184.49 313.538V315.973ZM195.242 324.446L196.602 325.229V327.665L195.242 326.881V324.446ZM192.553 325.332L193.913 326.116V323.68L192.553 322.897V325.332ZM189.866 323.782L191.226 324.567V322.131L189.866 321.346V323.782ZM187.178 322.233L188.537 323.016V320.581L187.178 319.797V322.233ZM184.49 320.682L185.85 321.465V319.03L184.49 318.247V320.682Z" fill="#C3BEB1"/>
<path opacity="0.6" d="M172.462 249.398L174.125 248.442V287.036L172.462 287.995V249.398ZM176.094 285.899L177.756 284.941V246.346L176.094 247.304V285.899ZM179.728 283.805L181.388 282.848V244.252L179.728 245.212V283.805ZM183.358 281.71L185.02 280.752V242.158L183.358 243.116V281.71ZM186.989 279.616L188.652 278.658V240.065L186.989 241.022V279.616ZM190.623 238.927V277.522L192.283 276.566V237.971L190.623 238.927Z" fill="#C3BEB1"/>
<path opacity="0.6" d="M168.86 326.023L167.2 325.065V248.442L168.86 249.398V326.023ZM165.23 247.304L163.568 246.346V322.97L165.23 323.927V247.304ZM161.598 245.212L159.936 244.252V320.876L161.598 321.834V245.212ZM157.965 243.118L156.304 242.159V318.782L157.965 319.74V243.118ZM154.335 241.023L152.673 240.067V316.69L154.335 317.646V241.023ZM149.041 237.973V314.595L150.703 315.554V238.929L149.041 237.973Z" fill="#C3BEB1"/>
<path opacity="0.6" d="M173.888 292.403L172.528 293.187V290.752L173.888 289.968V292.403ZM176.576 288.419L175.217 289.203V291.638L176.576 290.854V288.419ZM179.265 286.868L177.904 287.654V290.089L179.265 289.304V286.868ZM173.888 297.114L172.528 297.898V295.462L173.888 294.679V297.114ZM176.576 293.128L175.217 293.913V296.349L176.576 295.563V293.128ZM179.265 291.577L177.904 292.363V294.796L179.265 294.013V291.577ZM173.888 301.823L172.528 302.608V300.173L173.888 299.389V301.823ZM176.576 297.837L175.217 298.622V301.056L176.576 300.272V297.837ZM179.265 296.288L177.904 297.072V299.507L179.265 298.723V296.288ZM173.888 306.532L172.528 307.316V304.882L173.888 304.097V306.532ZM176.576 302.548L175.217 303.331V305.767L176.576 304.983V302.548ZM179.265 300.999L177.904 301.782V304.218L179.265 303.432V300.999ZM173.888 311.243L172.528 312.026V309.591L173.888 308.807V311.243ZM176.576 307.258L175.217 308.042V310.477L176.576 309.694V307.258ZM179.265 305.708L177.904 306.493V308.928L179.265 308.143V305.708ZM173.888 315.953L172.528 316.737V314.302L173.888 313.518V315.953ZM176.576 311.968L175.217 312.753V315.188L176.576 314.403V311.968ZM179.265 310.417L177.904 311.2V313.636L179.265 312.852V310.417ZM173.888 320.663L172.528 321.448V319.012L173.888 318.227V320.663ZM176.576 316.677L175.217 317.46V319.895L176.576 319.112V316.677ZM179.265 315.128L177.904 315.911V318.346L179.265 317.563V315.128ZM173.888 325.385L172.528 326.168V323.733L173.888 322.949V325.385ZM176.576 321.399L175.217 322.184V324.619L176.576 323.834V321.399ZM179.265 319.85L177.904 320.633V323.068L179.265 322.285V319.85Z" fill="#C3BEB1"/>
<path d="M145.664 388.153L168.059 401.071H178.301L172.263 372.82L145.664 388.153Z" fill="#D1D3D4"/>
<path d="M223.498 397.909L205.344 372.539L178.744 387.872L196.151 397.909H210.964L190.708 409.588L208.113 419.624H218.353L217.457 397.909H223.498Z" fill="#D1D3D4"/>
<path d="M247.821 361.513L206.072 337.442L180.947 351.927L222.697 375.997L247.821 361.513Z" fill="#FFF9ED"/>
<path d="M206.072 339.382L184.314 351.927L222.697 374.059L244.455 361.513L206.072 339.382Z" fill="#E6332A"/>
<path d="M222.697 397.739L180.947 373.668V351.927L222.697 375.998V397.739Z" fill="#C3BEB1"/>
<path d="M247.821 383.255L222.698 397.739V375.998L247.821 361.513V383.255Z" fill="#ECE5D9"/>
<path d="M247.54 392.537L230.567 382.752L201.379 399.579L218.353 409.366L247.54 392.537Z" fill="#FFF9ED"/>
<path d="M230.567 385.662L242.492 392.537L218.353 406.456L206.428 399.579L230.567 385.662ZM230.567 384.691L204.743 399.579L218.353 407.427L244.174 392.537L230.567 384.691Z" fill="#ECE5D9"/>
<path d="M218.353 419.624L201.379 409.837V399.578L218.353 409.365V419.624Z" fill="#C3BEB1"/>
<path d="M247.54 402.796L218.353 419.624V409.366L247.54 392.537V402.796Z" fill="#ECE5D9"/>
<path opacity="0.6" d="M208.113 369.937L209.957 371V374.299L208.113 373.238V369.937ZM204.475 371.137L206.317 372.199V368.902L204.475 367.838V371.137ZM200.837 369.038L202.679 370.1V366.802L200.837 365.739V369.038ZM197.195 366.94L199.037 368.003V364.704L197.195 363.642V366.94ZM193.555 364.841L195.399 365.904V362.607L193.555 361.542V364.841ZM189.917 362.744L191.759 363.806V360.508L189.917 359.447V362.744ZM186.277 360.645L188.117 361.706V358.409L186.277 357.348V360.645ZM182.637 358.547L184.479 359.608V356.31L182.637 355.249V358.547ZM208.113 376.316L209.957 377.377V380.676L208.113 379.615V376.316ZM204.475 377.514L206.317 378.577V375.278L204.475 374.215V377.514ZM200.837 375.417L202.679 376.479V373.18L200.837 372.118V375.417ZM197.195 373.316L199.037 374.379V371.081L197.195 370.017V373.316ZM193.555 371.218L195.399 372.281V368.982L193.555 367.92V371.218ZM189.917 369.121L191.759 370.184V366.885L189.917 365.822V369.121ZM186.277 367.022L188.117 368.083V364.784L186.277 363.723V367.022ZM182.637 364.925L184.479 365.985V362.687L182.637 361.626V364.925ZM208.113 382.695L209.957 383.756V387.053L208.113 385.992V382.695ZM204.475 383.893L206.317 384.954V381.655L204.475 380.594V383.893ZM200.837 381.792L202.679 382.856V379.558L200.837 378.495V381.792ZM197.195 379.695L199.037 380.757V377.459L197.195 376.396V379.695ZM193.555 377.597L195.399 378.66V375.361L193.555 374.299V377.597ZM189.917 375.497L191.759 376.561V373.262L189.917 372.198V375.497ZM186.277 373.399L188.117 374.462V371.163L186.277 370.1V373.399ZM182.637 371.302L184.479 372.361V369.064L182.637 368.003V371.302ZM219.021 379.525L220.865 380.588V377.289L219.021 376.226V379.525ZM215.383 377.428L217.225 378.49V375.191L215.383 374.129V377.428ZM211.745 375.328L213.585 376.391V373.092L211.745 372.031V375.328ZM219.021 385.902L220.865 386.965V383.666L219.021 382.603V385.902ZM215.383 383.803L217.225 384.867V381.569L215.383 380.506V383.803ZM211.745 381.706L213.585 382.768V379.47L211.745 378.407V381.706ZM211.745 388.083L213.585 389.145V385.847L211.745 384.784V388.083Z" fill="#C3BEB1"/>
<path d="M203.422 377.275L180.983 364.338L155.865 378.824L178.301 391.76L203.422 377.275Z" fill="#FFF9ED"/>
<path d="M180.983 367.25L198.375 377.277L178.301 388.855L160.907 378.825L180.983 367.25ZM180.983 366.279L159.227 378.825L178.299 389.823L200.054 377.276L180.983 366.279Z" fill="#ECE5D9"/>
<path d="M178.301 401.07L155.865 388.132V378.824L178.301 391.76V401.07Z" fill="#C3BEB1"/>
<path d="M203.422 386.584L178.301 401.07V391.76L203.422 377.275V386.584Z" fill="#ECE5D9"/>
<path opacity="0.6" d="M175.259 395.722L177.101 396.784V393.486L175.259 392.423V395.722ZM171.621 393.624L173.461 394.684V391.386L171.621 390.326V393.624ZM167.981 391.525L169.823 392.586V389.287L167.981 388.226V391.525ZM164.339 389.428L166.183 390.489V387.19L164.339 386.129V389.428ZM160.699 387.327L162.545 388.388V385.091L160.699 384.03V387.327ZM157.061 385.228L158.903 386.291V382.992L157.061 381.929V385.228Z" fill="#C3BEB1"/>
<path opacity="0.6" d="M182.913 391.36L181.071 392.423V395.721L182.913 394.659V391.36ZM186.553 389.261L184.708 390.325V393.624L186.553 392.56V389.261ZM190.195 387.164L188.349 388.226V391.525L190.195 390.462V387.164ZM193.833 385.066L191.991 386.129V389.427L193.833 388.365V385.066ZM197.471 382.967L195.629 384.031V387.328L197.471 386.266V382.967ZM201.121 380.863L199.279 381.926V385.224L201.121 384.162V380.863Z" fill="#C3BEB1"/>
<path d="M91.4983 336.935L62.5178 353.644L96.6337 373.316H121.123L123.71 351.282L91.4983 336.935Z" fill="#D1D3D4"/>
<path d="M89.4668 333.782L88.4387 353.893L127.53 331.354L89.4668 333.782Z" fill="#D1D3D4"/>
<path d="M132.896 305.669L133.315 305.425L149.923 311.757L149.504 311.998L132.896 305.669Z" fill="#ECE5D9"/>
<path d="M166.093 324.808L166.511 324.565L166.507 347.145L166.088 347.39L166.093 324.808Z" fill="#ECE5D9"/>
<path d="M149.505 311.998L149.923 311.757L166.511 324.565L166.093 324.808L149.505 311.998Z" fill="#FFF9ED"/>
<path d="M149.505 311.999L166.093 324.808L166.088 347.391L132.892 328.249L132.897 305.669L149.505 311.999Z" fill="#C3BEB1"/>
<path d="M104.036 323.201L132.909 306.553L148.197 312.368L149.019 313.171L120.644 329.532L104.036 323.201Z" fill="#E6332A"/>
<path d="M120.644 329.532L149.02 313.17L150.705 313.804L166.104 325.693L137.232 342.342L120.644 329.532Z" fill="#E6332A"/>
<path d="M148.202 312.359L116.708 330.518L120.459 331.248L150.705 313.804L148.202 312.359Z" fill="#E6332A"/>
<path d="M137.789 342.02V333.782L121.123 343.393V373.315L123.342 372.034C123.339 372.032 124.124 371.582 124.124 371.582V362.345V358.877L133.401 353.88V366.231C133.466 366.199 166.101 347.382 166.101 347.382L166.106 325.693L137.789 342.02Z" fill="#ECE5D9"/>
<path d="M164.532 345.731C164.472 345.766 164.472 335.966 164.472 335.966L155.739 340.645V344.115V350.803L154.956 351.253L156.173 351.957L165.75 346.435L164.532 345.731Z" fill="#E6332A"/>
<path d="M155.739 340.645L156.041 347.358L157.465 346.537H163.891L164.045 335.965L155.739 340.645Z" fill="#D1D3D4"/>
<path d="M156.175 354.519L154.956 353.815V351.253L156.175 351.956V354.519Z" fill="#C3BEB1"/>
<path d="M165.75 348.997L156.175 354.519V351.956L165.75 346.434V348.997Z" fill="#ECE5D9"/>
<path d="M155.325 340.495L154.956 340.281V351.263L155.325 351.476V340.495Z" fill="#C3BEB1"/>
<path d="M163.893 335.555L163.522 335.341V346.323L163.893 346.537V335.555Z" fill="#C3BEB1"/>
<path d="M156.054 340.514V342.657L163.609 338.301V336.159L156.054 340.514Z" fill="#D0CBBD"/>
<path d="M155.325 340.494V351.476L156.337 350.893V340.93L163.891 336.574V346.537L164.947 345.928V334.948L155.325 340.494Z" fill="#ECE5D9"/>
<path d="M154.956 340.281L155.325 340.494L164.946 334.948L164.576 334.734L154.956 340.281Z" fill="#FFF9ED"/>
<path d="M140.636 363.477L139.419 362.775V360.211L140.636 360.914V363.477Z" fill="#C3BEB1"/>
<path d="M150.214 357.955L140.636 363.477V360.914L150.214 355.392V357.955Z" fill="#ECE5D9"/>
<path d="M148.995 354.689C148.934 354.724 148.934 344.924 148.934 344.924L140.202 349.603V353.073V359.761L139.419 360.211L140.636 360.915L150.213 355.393L148.995 354.689Z" fill="#E6332A"/>
<path d="M140.203 349.603L140.285 357.793L144.27 355.497H148.354L148.509 344.923L140.203 349.603Z" fill="#D1D3D4"/>
<path d="M139.79 349.453L139.419 349.24V360.221L139.79 360.435V349.453Z" fill="#C3BEB1"/>
<path d="M148.356 344.513L147.985 344.301V355.283L148.356 355.497V344.513Z" fill="#C3BEB1"/>
<path d="M140.517 349.278V355.17L148.072 350.814V344.921L140.517 349.278Z" fill="#D0CBBD"/>
<path d="M139.79 349.452V360.434L140.798 359.851V349.888L148.354 345.531V355.496L149.41 354.886V343.906L139.79 349.452Z" fill="#ECE5D9"/>
<path d="M139.419 349.24L139.79 349.452L149.408 343.906L149.039 343.692L139.419 349.24Z" fill="#FFF9ED"/>
<path d="M121.123 343.392L87.9385 324.26L104.605 314.649L137.789 333.783L121.123 343.392Z" fill="#FFF9ED"/>
<path d="M89.313 324.26L104.605 315.441L136.415 333.783L121.123 342.6L89.313 324.26Z" fill="#E6332A"/>
<path opacity="0.5" d="M124.124 358.875L124.424 368.138L126.392 367.002H132.819L132.976 353.878L124.124 358.875Z" fill="#D1D3D4"/>
<path d="M123.71 358.723L123.339 358.509V372.04L123.71 372.254V358.723Z" fill="#C3BEB1"/>
<path d="M132.82 353.47L132.449 353.257V366.788L132.82 367.002V353.47Z" fill="#C3BEB1"/>
<path d="M124.438 358.744V360.886L132.536 356.216V354.073L124.438 358.744Z" fill="#D0CBBD"/>
<path d="M132.536 355.796V355.706L124.438 360.376V360.466L132.536 355.796ZM124.438 358.913V359.005L132.536 354.335V354.245L124.438 358.913ZM124.438 359.889V359.979L132.536 355.311V355.22L124.438 359.889ZM124.438 359.401V359.491L132.536 354.823V354.732L124.438 359.401Z" fill="#C3BEB1"/>
<path d="M123.71 358.723V372.254L124.719 371.673V359.159L132.819 354.487V367.002L133.875 366.393V352.861L123.71 358.723Z" fill="#ECE5D9"/>
<path d="M123.339 358.509L123.71 358.723L133.873 352.862L133.504 352.648L123.339 358.509Z" fill="#FFF9ED"/>
<path d="M87.9385 324.26V354.181L90.1613 355.464C90.2414 355.488 90.2414 343.135 90.2414 343.135L118.262 358.937V362.405V371.642L119.045 372.093C119.027 372.104 121.123 373.314 121.123 373.314V343.391L87.9385 324.26Z" fill="#C3BEB1"/>
<path d="M118.674 358.785L119.044 358.571V372.102L118.674 372.316V358.785Z" fill="#D0CBBD"/>
<path d="M90.8218 342.725L91.1912 342.511V356.043L90.8218 356.256V342.725Z" fill="#D0CBBD"/>
<path d="M117.947 358.806V360.948L91.1045 345.472V343.329L117.947 358.806Z" fill="#D1D3D4"/>
<path d="M118.674 358.786V372.317L117.664 371.736V359.221L90.8234 343.744V356.259L89.7659 355.65V342.119L118.674 358.786Z" fill="#C3BEB1"/>
<path d="M119.043 358.571L118.674 358.785L89.7668 342.118L90.1379 341.904L119.043 358.571Z" fill="#ECE5D9"/>
<path opacity="0.6" d="M136.374 337.253L130.37 340.713V342.494L136.374 339.032V337.253Z" fill="#C3BEB1"/>
<path d="M136.196 338.931L130.37 342.29V342.494L136.374 339.032V337.253L136.196 337.354V338.931Z" fill="#C3BEB1"/>
<path d="M136.196 338.931L130.37 342.29V342.494L136.374 339.032L136.196 338.931Z" fill="#FFF9ED"/>
<path opacity="0.6" d="M156.813 333.607L150.809 337.068V338.849L156.813 335.387V333.607Z" fill="#C3BEB1"/>
<path d="M156.636 335.287L150.809 338.645V338.849L156.813 335.387V333.607L156.636 333.709V335.287Z" fill="#C3BEB1"/>
<path d="M156.636 335.287L150.809 338.645V338.849L156.813 335.387L156.636 335.287Z" fill="#FFF9ED"/>
<path opacity="0.6" d="M136.374 347.165L130.37 350.626V346.673L136.374 343.212V347.165Z" fill="#C3BEB1"/>
<path d="M136.196 343.315V347.063L130.37 350.423V350.626L136.374 347.165V343.212L136.196 343.315Z" fill="#C3BEB1"/>
<path d="M136.196 347.063L130.37 350.424V350.626L136.374 347.166L136.196 347.063Z" fill="#FFF9ED"/>
<path opacity="0.6" d="M128.685 341.686L122.682 345.146V346.927L128.685 343.465V341.686Z" fill="#C3BEB1"/>
<path d="M128.507 343.363L122.682 346.723V346.927L128.685 343.465V341.686L128.507 341.787V343.363Z" fill="#C3BEB1"/>
<path d="M128.507 343.364L122.682 346.723V346.927L128.685 343.465L128.507 343.364Z" fill="#FFF9ED"/>
<path opacity="0.6" d="M128.685 351.599L122.682 355.059V351.106L128.685 347.645V351.599Z" fill="#C3BEB1"/>
<path d="M128.507 347.746V351.496L122.682 354.857V355.059L128.685 351.599V347.645L128.507 347.746Z" fill="#C3BEB1"/>
<path d="M128.507 351.496L122.682 354.857V355.059L128.685 351.599L128.507 351.496Z" fill="#FFF9ED"/>
<path opacity="0.6" d="M109.309 349.46L115.312 352.92V351.143L109.309 347.679V349.46Z" fill="#C3BEB1"/>
<path d="M109.487 349.359L115.312 352.718V352.92L109.309 349.46V347.679L109.487 347.782V349.359Z" fill="#D1D3D4"/>
<path d="M109.487 349.359L115.312 352.718V352.92L109.309 349.46L109.487 349.359Z" fill="#ECE5D9"/>
<path opacity="0.6" d="M93.7539 340.491L99.7556 343.951V342.172L93.7539 338.71V340.491Z" fill="#C3BEB1"/>
<path d="M93.9288 340.39L99.7556 343.749V343.951L93.7539 340.491V338.71L93.9288 338.813V340.39Z" fill="#D1D3D4"/>
<path d="M93.9288 340.39L99.7556 343.749V343.951L93.7539 340.491L93.9288 340.39Z" fill="#ECE5D9"/>
<path d="M419.62 282.757L419.738 317.219C419.686 302.027 409.562 286.875 389.413 275.41C349.354 252.619 284.885 253.02 245.393 276.305C225.765 287.879 215.998 302.918 216.049 317.918L215.93 283.456C215.88 268.458 225.645 253.415 245.274 241.843C284.768 218.561 349.235 218.152 389.298 240.946C409.443 252.414 419.566 267.565 419.62 282.757Z" fill="#252956"/>
<path d="M419.62 282.757L419.738 317.219C419.686 302.027 409.562 286.875 389.413 275.41C349.354 252.619 284.885 253.02 245.393 276.305C225.765 287.879 215.998 302.918 216.049 317.918L215.93 283.456C215.88 268.458 225.645 253.415 245.274 241.843C284.768 218.561 349.235 218.152 389.298 240.946C409.443 252.414 419.566 267.565 419.62 282.757Z" fill="#252956"/>
<path d="M437 282.696L437.077 310.319C437.138 327.877 425.706 345.482 402.741 359.023C356.5 386.285 281.019 386.77 234.135 360.094C210.544 346.673 198.695 328.932 198.631 311.14L198.555 283.519C198.616 301.309 210.469 319.05 234.059 332.474C280.94 359.151 356.426 358.662 402.665 331.402C425.629 317.861 437.061 300.256 437 282.696Z" fill="#252956"/>
<path d="M437 282.696L437.077 310.319C437.138 327.877 425.706 345.482 402.741 359.023C356.5 386.285 281.019 386.77 234.135 360.094C210.544 346.673 198.695 328.932 198.631 311.14L198.555 283.519C198.616 301.309 210.469 319.05 234.059 332.474C280.94 359.151 356.426 358.662 402.665 331.402C425.629 317.861 437.061 300.256 437 282.696Z" fill="#252956"/>
<path d="M401.501 233.751C448.384 260.427 448.887 304.146 402.665 331.401C356.426 358.66 280.942 359.15 234.059 332.472C187.177 305.797 186.656 262.067 232.895 234.805C279.118 207.552 354.619 207.076 401.501 233.751ZM246.269 325.277C286.309 348.061 350.78 347.653 390.288 324.361C429.782 301.076 429.338 263.733 389.295 240.949C349.235 218.158 284.766 218.564 245.272 241.847C205.761 265.141 206.208 302.481 246.269 325.277Z" fill="#3C4384"/>
<path opacity="0.4" d="M418.761 290.639C415.932 302.914 406.443 314.813 390.277 324.348C350.789 347.664 286.318 348.07 246.273 325.279C229.644 315.821 219.846 303.887 216.891 291.485C219.692 279.183 229.182 267.284 245.373 257.747C284.863 234.46 349.334 234.051 389.401 256.845C406.005 266.303 415.804 278.238 418.761 290.639Z" fill="#E1DEF8"/>
<path d="M482.515 377.782L408.268 334.976C406.508 333.964 404.074 334.113 401.395 335.676L475.642 378.479C478.322 376.918 480.753 376.767 482.515 377.782Z" fill="#E1DEF8"/>
<path d="M482.515 377.782L408.268 334.976C406.508 333.964 404.074 334.113 401.395 335.676L475.642 378.479C478.322 376.918 480.753 376.767 482.515 377.782Z" fill="#E1DEF8"/>
<path d="M394.666 358.565L468.913 401.373C467.176 400.369 466.094 398.226 466.076 395.184C466.035 389.057 470.319 381.575 475.642 378.478L401.395 335.675C396.076 338.772 391.79 346.252 391.826 352.38C391.844 355.428 392.927 357.566 394.666 358.565Z" fill="#E1DEF8"/>
<path d="M475.64 378.479L401.392 335.675C396.074 338.772 391.788 346.252 391.824 352.381C391.844 355.428 392.927 357.566 394.664 358.566L468.911 401.374C467.174 400.37 466.091 398.227 466.073 395.184C466.035 389.058 470.319 381.576 475.64 378.479Z" fill="#E1DEF8"/>
<path d="M475.64 378.48C470.319 381.577 466.035 389.059 466.073 395.185C466.112 401.316 470.458 403.775 475.78 400.678C481.103 397.581 485.389 390.099 485.35 383.966C485.314 377.839 480.965 375.383 475.64 378.48Z" fill="#E1DEF8"/>
<path d="M619.043 437.549L455.58 349.454C452.343 347.602 447.879 347.895 442.966 350.774L603.905 439.128C609.799 435.676 615.156 435.322 619.043 437.549Z" fill="#323974"/>
<path d="M619.043 437.549L455.58 349.454C452.343 347.602 447.879 347.895 442.966 350.774L603.905 439.128C609.799 435.676 615.156 435.322 619.043 437.549Z" fill="#323974"/>
<path d="M430.729 392.834L589.219 489.6C585.389 487.405 582.991 482.7 582.928 475.993C582.804 462.489 592.198 445.984 603.905 439.127L442.966 350.773C433.211 356.484 425.386 370.237 425.487 381.493C425.539 387.084 427.535 391.005 430.729 392.834Z" fill="#323974"/>
<path d="M582.928 475.993C582.804 462.489 592.198 445.984 603.905 439.127L442.966 350.773C433.211 356.484 425.386 370.237 425.487 381.493L582.928 475.993Z" fill="#3C4384"/>
<path d="M425.487 381.496C425.539 387.087 427.535 391.008 430.729 392.835L589.219 489.6C585.389 487.406 582.991 482.7 582.928 475.994L425.487 381.496Z" fill="#323974"/>
</g>
<path d="M324.795 250.48V318.767L302.994 306.181V237.893L324.795 250.48Z" fill="#1281D2"/>
<path d="M346.595 237.893L324.795 250.481L302.994 237.893L324.795 225.307L346.595 237.893Z" fill="#5DCDFF"/>
<path d="M324.795 250.48V318.767L346.595 306.181V237.893L324.795 250.48Z" fill="#1FA1FF"/>
<path d="M298.012 275.09V328.488L280.965 318.646V265.247L298.012 275.09Z" fill="#1281D2"/>
<path d="M315.058 265.247L298.012 275.09L280.965 265.247L298.012 255.405L315.058 265.247Z" fill="#5DCDFF"/>
<path d="M298.012 275.09V328.488L315.058 318.646V265.247L298.012 275.09Z" fill="#1FA1FF"/>
<path d="M273.842 296.848V334.735L261.747 327.752V289.865L273.842 296.848Z" fill="#1281D2"/>
<path d="M285.936 289.865L273.842 296.849L261.747 289.865L273.842 282.882L285.936 289.865Z" fill="#5DCDFF"/>
<path d="M273.842 296.848V334.735L285.936 327.752V289.865L273.842 296.848Z" fill="#1FA1FF"/>
<path d="M366.849 129.048C366.849 111.949 375.95 102.563 388.863 103.952C392.974 104.389 397.477 105.921 402.188 108.645C414.535 115.769 425.395 129.361 431.711 144.086L387.431 178.009C375.287 164.537 366.849 145.496 366.849 129.048Z" fill="#1476BC"/>
<path d="M402.189 190.258C396.919 187.215 391.924 182.989 387.431 178.008L431.71 144.085C432.541 146.02 433.298 147.974 433.966 149.936C436.244 156.646 437.526 163.45 437.528 169.855C437.532 192.395 421.708 201.531 402.189 190.258Z" fill="#0A798C"/>
<path d="M375.543 165.126L373.422 204.701L401.285 188.614L403.405 149.04L375.543 165.126Z" fill="#156096"/>
<path d="M375.543 165.126L350.426 121.623L378.289 105.536L403.406 149.039L375.543 165.126Z" fill="#1476BC"/>
<path d="M411.267 162.658L380.109 162.489L407.972 146.402L416.697 159.906L411.267 162.658Z" fill="#0A798C"/>
<path d="M404.599 205.775L390.592 195.319L418.454 179.233L427.181 192.737L404.599 205.775Z" fill="#0A798C"/>
<path d="M414.947 182.893C414.952 176.385 413.629 169.475 411.268 162.66L380.051 162.523L377.931 202.098L377.92 202.268C378.475 202.626 379.035 202.969 379.607 203.295C399.125 214.57 414.95 205.434 414.947 182.893Z" fill="#0DA5BF"/>
<path d="M373.422 204.701L375.543 165.126L362.578 119.587C349.317 117.807 339.913 127.217 339.913 144.6C339.909 166.423 354.757 192.826 373.422 204.701Z" fill="#1FA1FF"/>
<path d="M416.697 159.906L433.967 149.935C428.236 133.04 416.158 116.705 402.189 108.644C397.478 105.92 392.974 104.387 388.864 103.951L371.587 113.926L416.697 159.906Z" fill="#FF9238"/>
<path d="M416.697 159.907C410.96 143.016 398.882 126.68 384.913 118.62C380.201 115.895 375.697 114.362 371.587 113.927L384.826 159.766L416.042 159.903L416.697 159.907Z" fill="#FFC366"/>
<defs>
<radialGradient id="paint0_radial_1_7084" cx="0" cy="0" r="1" gradientUnits="userSpaceOnUse" gradientTransform="translate(192.776 397.079) scale(65.0493 64.9618)">
<stop stop-color="#818181"/>
<stop offset="0.2048" stop-color="#9B9B9B"/>
<stop offset="1" stop-color="white"/>
</radialGradient>
<clipPath id="clip0_1_7084">
<rect width="496" height="547" fill="white" transform="translate(0 0.181641)"/>
</clipPath>
</defs>
</svg>
