<svg width="111" height="302" viewBox="0 0 111 302" fill="none" xmlns="http://www.w3.org/2000/svg">
<path opacity="0.3" d="M81.6319 266.287C59.3724 260.409 23.4694 261.412 6.58393 272.757C-6.80743 281.753 2.00762 302.086 36.9278 301.191C37.6007 298.159 39.8762 292.02 41.1064 289.173C41.4371 288.408 41.8071 287.624 42.443 287.087C43.0072 286.606 43.7333 286.368 44.434 286.142C48.4715 284.821 52.5067 283.503 56.5697 282.268C63.796 280.074 73.3464 277.389 80.3023 280.342C81.4608 280.83 82.5685 281.454 83.7571 281.873C85.3087 282.423 86.9621 282.622 88.6086 282.666C91.476 282.749 94.6926 282.733 94.6926 282.733C94.6926 282.733 88.7936 268.169 81.6319 266.287Z" fill="#948581"/>
<path d="M101.625 276.087C99.8561 274.542 96.5123 271.897 93.1084 270.089C91.0457 270.318 88.9252 270.357 86.7307 270.241C82.2468 270.019 76.9976 269.45 73.1312 266.879C73.0503 267.728 73.0503 268.634 73.1104 269.524C73.2307 271.303 73.374 272.031 75.4298 273.291C85.7988 279.627 87.2163 280.474 89.094 281.406C91.2214 282.46 93.816 283.79 99.4052 282.203C102.233 280.943 102.411 279.771 102.282 278.739C102.212 278.187 102.34 276.714 101.625 276.087Z" fill="#DD8936"/>
<path d="M101.07 275.118C98.5242 273.057 92.2898 268.883 89.1958 266.129C88.3494 265.378 87.8546 263.9 87.3852 262.815C86.185 260.04 78.3157 259.458 74.7708 261.301C73.1058 262.17 72.8029 265.028 72.981 267.679C73.1012 269.457 73.2446 270.183 75.305 271.439C85.6717 277.782 87.9494 278.926 89.8733 279.761C91.7279 280.563 93.668 281.315 97.7264 280.432C99.1023 280.136 100.42 279.472 101.371 278.438C102.208 277.516 102.626 276.38 101.07 275.118Z" fill="white"/>
<path d="M85.9376 259.29C85.7203 258.691 85.4312 258.085 84.9178 257.703C84.4923 257.384 83.9582 257.266 83.4356 257.188C81.0468 256.829 78.547 257.289 76.445 258.48L75.1015 259.1C74.3315 260.194 74.4078 261.648 74.5118 262.976C74.5673 263.695 74.6945 263.919 75.3328 264.375C78.6742 266.75 86.7285 265.885 86.6013 263.047C86.5411 261.769 86.3747 260.495 85.9376 259.29Z" fill="#FBBD9E"/>
<path d="M29.4054 299.335C32.8347 302.031 40.9282 302.84 42.8661 298.22C43.7656 296.07 40.2114 282.024 39.8553 277.954C39.7558 276.791 39.5778 274.744 39.5778 274.744C39.2517 274.36 38.0354 274.122 37.5683 273.93C35.575 273.107 32.0855 274.122 29.9303 274.122C28.8319 274.122 28.2954 281.497 28.2468 282.23C27.9393 286.706 26.7322 297.235 29.4054 299.335Z" fill="#DD8936"/>
<path d="M29.218 296.922C32.6474 299.618 40.741 300.427 42.6765 295.809C43.5783 293.661 40.334 279.625 39.9779 275.555C39.8761 274.394 39.7004 272.343 39.7004 272.343C39.372 271.959 37.8435 271.712 37.3787 271.52C35.3877 270.694 31.8982 271.711 29.7407 271.711C28.6446 271.711 28.1081 279.084 28.0549 279.814C27.752 284.289 26.5472 294.822 29.218 296.922Z" fill="white"/>
<path d="M39.4574 271.17C39.3048 270.631 39.0851 270.079 38.6596 269.718C38.3058 269.417 37.8457 269.281 37.3901 269.177C35.3205 268.726 33.1006 268.978 31.1882 269.896L29.9764 270.359C29.2364 271.27 29.2134 272.546 29.2272 273.721C29.2319 274.35 29.3313 274.56 29.8655 274.997C32.652 277.275 39.7604 276.991 39.8159 274.496C39.8413 273.374 39.7696 272.248 39.4574 271.17Z" fill="#FBBD9E"/>
<path d="M36.8493 218.585C36.8655 221.772 37.0066 225.005 36.2411 228.099C35.6653 230.418 34.5993 232.578 33.6466 234.775C30.2704 242.542 30.5294 247.267 29.7177 255.714C29.3177 259.893 28.5939 266.347 28.7395 270.537C28.6794 274.676 39.5803 276.094 40.8012 272.042C45.2319 249.951 51.5703 245.042 55.7697 224.205C56.6808 219.686 61.5947 200.116 61.5947 200.116C63.0284 208.149 67.5215 226.235 67.8846 230.504C68.243 234.791 68.2084 237.363 69.0663 241.58C70.2364 247.318 72.3661 249.137 73.8207 260.986C74.0218 264.462 87.2421 264.582 86.8883 260.494C85.917 249.306 85.799 242.723 85.8337 238.112C85.8684 233.309 85.5355 228.508 84.7631 223.765C84.5989 222.766 84.4694 221.76 84.4024 220.752C83.7572 210.867 88.1555 208.654 79.433 169.518C75.6544 156.471 43.1622 166.514 41.0302 175.683C39.7953 190.418 36.8493 203.629 36.8493 218.585Z" fill="#2D272B"/>
<path d="M107.941 123.487C100.666 117.023 80.9129 100.612 69.4154 102.247C67.7897 109.519 69.8247 115.895 76.5308 121.137L98.6146 132.662L98.7857 140.876C98.7857 140.876 98.4712 143.769 101.519 145.233C102.735 145.816 104.347 146.287 106.708 145.908C110.505 145.291 110.75 142.541 110.75 137.044C110.75 134.64 110.794 131.92 110.778 129.779C110.76 127.371 109.737 125.087 107.941 123.487Z" fill="#8B7D77"/>
<path d="M40.082 112.756C38.1095 114.012 36.1346 115.372 34.7795 117.279C32.4278 120.588 32.3445 125.072 33.4129 128.985C35.4894 136.588 44.1541 141.879 44.1541 157.71C44.1541 169.423 40.26 167.755 36.9046 188.012C35.8756 194.217 48.5015 196.682 60.5216 196.083C60.6118 193.479 61.4859 178.848 61.6732 172.806L75.5941 171.499C76.7087 180.624 78.5193 192.762 78.5193 192.762C82.8598 191.093 84.1825 186.516 83.9374 182.738L80.5497 161.072C79.597 156.293 79.4073 151.404 79.997 146.569C81.07 137.705 82.8089 123.072 83.4171 116.255C83.6484 113.653 82.9384 110.599 81.6481 108.326C74.1742 95.1586 51.6858 105.331 40.082 112.756Z" fill="#8B7D77"/>
<path d="M45.1046 124.091C43.0534 120.604 41.4208 116.601 43.1783 112.314C44.7438 108.487 52.4974 105.485 55.5267 104.324C58.8474 103.05 67.341 100.59 71.8364 103.82C74.5859 105.795 76.5375 112.138 76.2947 117.043C76.0797 121.39 76.1075 161.259 75.7537 170.648L60.961 172.086C60.9564 172.084 58.045 146.043 45.1046 124.091Z" fill="#9B8A84"/>
<path d="M47.6091 120.313C59.058 137.395 61.7681 173.224 61.1947 183.257C66.7954 184.39 75.4902 181.188 76.7019 179.812C76.7019 179.812 71.5775 121.002 71.9221 114.753C72.4933 104.445 66.5989 101.489 56.2738 105.444C52.4328 106.912 41.4233 111.079 47.6091 120.313Z" fill="white"/>
<path d="M104.562 138.123C101.551 138.123 99.1116 139.866 99.1116 142.024V142.255C99.1116 144.41 101.551 146.156 104.562 146.156C107.57 146.156 110.01 144.41 110.01 142.255V142.024C110.012 139.866 107.573 138.123 104.562 138.123Z" fill="#726561"/>
<path d="M101.72 140.297C100.617 139.897 99.301 139.245 98.1541 139.492C97.6338 139.612 97.169 139.906 96.6579 140.056C95.9896 140.248 95.2797 140.19 94.5952 140.308C91.5359 140.849 91.4781 143.668 91.1127 146.15C90.9994 146.924 90.9046 147.784 91.3625 148.413C91.5891 148.723 91.9313 148.943 92.0793 149.294C92.1765 149.516 92.1811 149.759 92.2296 149.993C92.4424 151.022 93.4945 151.648 94.5282 151.813C98.1078 152.372 104.504 148.938 106.317 147.831C107.778 146.94 108.979 145.4 108.979 143.828C108.979 142.003 108.35 139.351 103.778 139.439C102.603 139.46 101.72 140.297 101.72 140.297Z" fill="#FBBD9E"/>
<path d="M106.393 141.375C107.681 142.323 108.435 143.389 107.809 146.703C108.694 145.886 109.138 144.913 109.134 143.461C109.129 142.256 108.872 141.507 107.494 140.362C106.386 139.442 104.883 139.136 103.151 139.398C102.649 139.476 101.718 140.297 101.718 140.297C102.814 140.295 104.624 140.087 106.393 141.375Z" fill="#9B8A84"/>
<path d="M104.828 141.302C106.104 141.302 107.138 140.744 107.138 140.057C107.138 139.37 106.104 138.813 104.828 138.813C103.552 138.813 102.518 139.37 102.518 140.057C102.518 140.744 103.552 141.302 104.828 141.302Z" fill="#9B8A84"/>
<path d="M104.807 140.946C105.866 140.946 106.724 140.483 106.724 139.912C106.724 139.342 105.866 138.879 104.807 138.879C103.748 138.879 102.89 139.342 102.89 139.912C102.89 140.483 103.748 140.946 104.807 140.946Z" fill="#FFF2DD"/>
<path d="M69.7991 107.094C71.8826 113.46 70.0072 122.134 62.8918 124.09C56.9003 125.734 50.5226 120.536 48.4391 114.167C46.3532 107.794 67.7156 100.721 69.7991 107.094Z" fill="#F2A883"/>
<path d="M66.2379 118.98C64.8412 120.818 64.3024 121.535 63.1277 121.766C59.4671 122.481 52.2824 115.791 53.3091 108.624C53.3761 108.15 53.619 107.709 53.9705 107.387C55.61 105.873 57.5756 103.273 58.9099 97.9017C59.3238 96.2367 61.3102 95.5962 62.6121 96.7085C67.0358 100.508 70.3055 107.676 70.1344 110.708C70.0396 112.417 67.297 117.574 66.2379 118.98Z" fill="#F2A883"/>
<path d="M57.4139 107.335C58.1007 111.155 60.9566 114.994 63.7014 117.741C65.2392 119.279 66.6822 120.539 68.3332 120.229C69.5727 120 71.7904 116.86 72.5234 115.838C78.9913 106.801 79.5209 105.374 80.24 104.135C81.7015 101.628 82.8346 99.6831 79.8978 97.4446C78.0363 96.034 72.5026 92.9631 70.1947 92.5862C68.1806 92.2578 66.0578 91.9964 64.1454 92.7087C62.9082 93.1665 61.8469 94.0014 60.8918 94.9079C59.287 96.4388 55.4668 98.6748 55.3535 100.885C55.2402 103.112 55.3489 105.45 57.4139 107.335Z" fill="#FBBD9E"/>
<path d="M73.0412 104.481C76.3549 104.659 79.6247 104.315 80.5913 103.522C83.4772 101.434 82.7558 98.2609 82.4182 96.2722C82.1129 94.4708 79.9577 89.4159 77.7355 87.2006C75.5202 84.9899 72.6735 83.4382 69.5771 82.9619C60.6951 81.6021 55.3256 86.9647 53.5635 94.2813C52.9206 96.9476 53.212 99.1605 52.6478 103.545C52.1414 107.458 52.7403 109.819 55.3279 109.819C56.7917 109.819 57.4484 108.057 57.6288 107.458C57.7606 107.034 57.4947 106.6 57.2449 106.232C56.5512 105.21 55.8575 104.074 55.9083 102.842C55.943 102.053 56.4171 101.249 57.1062 100.865C57.8554 100.453 58.5815 100.738 59.2591 101.159C60.6697 102.037 61.0327 104.327 60.9171 105.857C60.7691 107.821 62.6352 108.369 62.9705 107.906C66.7953 102.655 70.5947 104.352 73.0412 104.481Z" fill="#99655B"/>
<path d="M66.3029 115.654C66.2128 115.421 66.111 115.249 65.9838 115.101L56.5629 104.33C56.4797 104.235 56.3941 104.161 56.3086 104.104C56.1375 103.995 55.964 103.96 55.8021 103.995L55.1084 104.15L62.1729 123.898L62.8689 123.743C63.0632 123.701 63.239 123.556 63.3546 123.306L66.3006 116.998C66.474 116.618 66.4671 116.103 66.3029 115.654Z" fill="#3D3D3D"/>
<path d="M65.2853 115.255L55.8668 104.486C55.7858 104.391 55.6979 104.315 55.6124 104.255C55.2354 104.014 54.8285 104.139 54.6227 104.581L51.6743 110.889C51.4177 111.449 51.5564 112.29 51.9888 112.799L61.4074 123.573C61.486 123.663 61.5692 123.735 61.6571 123.788C62.0364 124.028 62.4457 123.92 62.6584 123.462L65.6045 117.153C65.8611 116.592 65.7201 115.752 65.2853 115.255Z" fill="#232323"/>
<path d="M65.4797 113.109C64.9201 112.837 64.386 113.052 63.824 113.264C63.6807 113.313 63.2159 113.505 63.1141 113.387C62.9175 113.16 64.7259 112.178 64.9664 111.988C66.1989 111.021 65.0843 109.902 62.462 111.072C61.6041 111.461 58.9008 113.412 58.1146 113.096C57.7746 112.952 58.2117 112.087 58.9702 110.744C59.4558 109.884 60.0709 109.102 60.7901 108.429C61.1092 108.131 61.4491 107.802 61.729 107.516C62.6331 106.598 62.0041 105.439 60.6606 106.251C60.4155 106.401 59.8466 106.84 59.3055 107.266C58.5331 107.883 57.8556 108.607 57.2914 109.421C56.2947 110.864 54.1118 114.263 53.3972 114.409L51.9172 112.714C51.9496 114.196 51.6837 116.846 51.464 118.248C51.2074 119.929 49.8222 126.466 49.4938 128.422C49.4637 128.601 54.5187 130.802 56.7294 131.528C56.7179 130.605 57.9504 128.032 58.3643 127.671C59.8443 126.381 61.0954 124.815 61.9209 123.032C62.5476 121.679 62.9291 120.22 63.6437 118.921C64.2333 117.838 65.0635 116.821 65.1745 115.598C65.2323 114.98 65.2855 115.107 65.6948 114.754C66.1896 114.326 66.067 113.394 65.4797 113.109Z" fill="#FBBD9E"/>
<path d="M48.6659 124.871L47.5467 128.589C45.5719 125.546 43.7936 123.569 42.1795 118.75C41.8257 117.688 41.354 116.225 40.3087 115.82C33.7691 113.29 32.8002 120.863 32.4788 123.305C32.2036 125.386 31.5561 150.197 32.754 160.679C33.0014 162.839 34.1992 164.767 36.0399 165.919L37.8784 167.077C39.6196 168.171 41.9228 167.709 43.0859 166.014C48.7584 157.754 57.7029 133.147 58.6348 130.027C59.6847 126.533 49.54 121.948 48.6659 124.871Z" fill="#8B7D77"/>
<path d="M48.6658 124.871L32.7539 160.682C33.0013 162.842 34.1992 164.77 36.0399 165.922L37.8783 167.08C39.6196 168.174 41.9227 167.712 43.0859 166.017C48.7583 157.757 57.7028 133.15 58.6347 130.031C59.6846 126.534 49.5399 121.948 48.6658 124.871Z" fill="url(#paint0_linear_1_10730)"/>
<path d="M80.6195 54.3943L72.8239 72.0054L68.5635 74.483L76.3591 56.8721L80.6195 54.3943Z" fill="#C00A15"/>
<path d="M51.6332 0.679577C52.8372 -0.0200304 54.5015 0.0775847 56.3377 1.13978L89.6354 20.3639C93.2868 22.472 96.2385 27.5831 96.2269 31.783L96.1687 55.7603C96.1641 57.8452 95.4274 59.3118 94.2397 60.0021L89.9793 62.4775C91.167 61.7895 91.9037 60.3205 91.9083 58.2357L91.9665 34.2561C91.9781 30.0585 89.0264 24.9473 85.375 22.8369L52.0795 3.6128C50.241 2.55061 48.5768 2.45299 47.3728 3.1526L51.6332 0.679577Z" fill="#C00A15"/>
<path d="M52.0773 3.61562C48.4258 1.5075 45.4531 3.19959 45.4415 7.39491L45.3833 31.3744C45.3717 35.5721 48.3237 40.6832 51.9751 42.7937L60.8886 47.9396L68.5611 74.4805L76.3568 56.8694L85.2703 62.0154C88.924 64.1235 91.8944 62.4315 91.9061 58.2361L91.9642 34.2566C91.9758 30.059 89.0239 24.9478 85.3724 22.8374L52.0773 3.61562Z" fill="#EC2121"/>
<path d="M66.1532 37.3448C66.1532 35.5876 66.3367 34.2954 66.704 33.4656C67.0712 32.6382 67.7453 31.9989 68.7238 31.555C69.7023 31.1087 70.353 30.6625 70.6761 30.2162C71.0015 29.77 71.1621 29.1935 71.1621 28.4893C71.1621 26.3672 70.3184 24.8169 68.6333 23.8431C67.8337 23.3805 67.1922 23.2969 66.711 23.592C66.2299 23.8849 65.979 24.5287 65.958 25.5235L61.2559 22.8087C61.2768 20.424 61.944 18.9319 63.2595 18.3345C64.5727 17.7395 66.3648 18.0928 68.6333 19.4037C70.925 20.7262 72.7029 22.3973 73.9673 24.4125C75.2317 26.43 75.864 28.6125 75.864 30.96C75.864 32.0245 75.6595 32.9148 75.2481 33.626C74.8367 34.3349 74.1185 34.9717 73.0912 35.5342L71.7778 36.2245C70.955 36.6661 70.4857 37.4703 70.3671 38.6301L70.3022 39.7435L66.1532 37.3448ZM65.6837 42.8394C65.6837 42.0026 65.9278 41.4541 66.4205 41.1938C66.9109 40.9335 67.5408 41.0265 68.3079 41.4704C69.0772 41.912 69.7047 42.5465 70.1975 43.3763C70.6879 44.2037 70.9343 45.0358 70.9343 45.8749C70.9343 46.6977 70.6925 47.2416 70.2114 47.5019C69.7302 47.7622 69.0958 47.6623 68.3056 47.2067C67.5177 46.7511 66.8806 46.1166 66.3995 45.3008C65.923 44.485 65.6837 43.6645 65.6837 42.8394Z" fill="white"/>
<defs>
<linearGradient id="paint0_linear_1_10730" x1="53.6697" y1="125.354" x2="40.405" y2="159.284" gradientUnits="userSpaceOnUse">
<stop stop-color="#9B8A84"/>
<stop offset="1" stop-color="#8B7D77"/>
</linearGradient>
</defs>
</svg>
