<svg width="308" height="320" viewBox="0 0 308 320" fill="none" xmlns="http://www.w3.org/2000/svg">
<path opacity="0.7" d="M290.782 183.435L307.89 173.492L251.926 141.183L234.821 151.126L225.773 145.9L140.352 195.541L149.4 200.765L103.225 227.598L94.1807 222.374L8.75676 272.019L17.8077 277.24L0.699463 287.18L56.6602 319.489L73.7653 309.549L84.6807 315.852L123.93 293.043L136.861 300.507L183.13 273.622L167.699 264.715L213.686 237.99L229.114 246.9L275.381 220.008L262.448 212.545L301.697 189.733L290.782 183.435Z" fill="#398E82"/>
<path d="M307.89 165.237L307.884 167.67L290.772 177.61L290.782 175.177L307.89 165.237Z" fill="#95A2AB"/>
<path d="M149.4 192.512L149.394 194.942L140.346 189.721L140.352 187.288L149.4 192.512Z" fill="#68775D"/>
<path d="M301.697 181.481L301.688 183.915L262.442 206.724L262.448 204.29L301.697 181.481Z" fill="#95A2AB"/>
<path d="M275.381 211.758L275.375 214.188L229.105 241.076L229.114 238.643L275.381 211.758Z" fill="#95A2AB"/>
<path d="M229.114 238.643L229.105 241.077L213.679 232.168L213.686 229.734L229.114 238.643Z" fill="#7B868D"/>
<path d="M213.686 229.734L213.68 232.168L167.693 258.893L167.699 256.459L213.686 229.734Z" fill="#95A2AB"/>
<path d="M17.8076 268.984L17.8015 271.418L8.75049 266.194L8.75668 263.763L17.8076 268.984Z" fill="#68775D"/>
<path d="M136.86 292.258L136.854 294.688L123.921 287.222L123.93 284.789L136.86 292.258Z" fill="#7B868D"/>
<path d="M183.13 265.365L183.121 267.798L136.854 294.686L136.86 292.256L183.13 265.365Z" fill="#95A2AB"/>
<path d="M123.93 284.789L123.921 287.222L84.6746 310.028L84.6808 307.597L123.93 284.789Z" fill="#95A2AB"/>
<path d="M84.6808 307.592L84.6746 310.023L73.7593 303.722L73.7654 301.292L84.6808 307.592Z" fill="#7B868D"/>
<path d="M56.6602 311.236L56.6541 313.67L0.693359 281.361L0.699462 278.927L56.6602 311.236Z" fill="#7B868D"/>
<path d="M307.89 165.24L290.782 175.179L301.697 181.48L262.448 204.289L275.381 211.759L229.114 238.644L213.686 229.734L167.699 256.46L183.13 265.366L136.861 292.257L123.93 284.788L84.6807 307.596L73.7653 301.296L56.6602 311.236L0.699463 278.927L17.8077 268.984L8.75676 263.763L94.1807 214.121L103.225 219.345L149.4 192.512L140.352 187.288L225.773 137.647L234.821 142.871L251.926 132.931L307.89 165.24Z" fill="#B7C2C9"/>
<path d="M73.7653 301.292L73.7591 303.722L56.6541 313.665L56.6602 311.232L73.7653 301.292Z" fill="#95A2AB"/>
<path d="M298.907 127.936L298.805 164.413L281.715 174.344L281.82 137.864L298.907 127.936Z" fill="#413F47"/>
<path d="M157.297 155.198L157.193 191.675L148.145 186.451L148.249 149.977L157.297 155.198Z" fill="#2D2C31"/>
<path d="M297.199 135.58L285.371 142.41V169.701L297.199 162.875V135.58Z" fill="#F8F8F8"/>
<path d="M296.593 137.059L285.804 143.288V168.149L296.593 161.919V137.059Z" fill="#43636B"/>
<path d="M297.199 136.5L296.181 137.088V163.321L297.199 162.73V136.5Z" fill="#F8F8F8"/>
<path d="M286.029 143.078V169.311L285.447 169.643V143.416L286.029 143.078Z" fill="#F8F8F8"/>
<path d="M297.199 139.916L285.98 146.398V147.594L297.199 141.119V139.916Z" fill="#F8F8F8"/>
<path d="M292.732 144.169L292.631 180.643L253.363 203.464L253.467 166.987L292.732 144.169Z" fill="#413F47"/>
<path d="M257.975 171.207L290.6 152.373V179.668L257.975 198.501V171.207Z" fill="#F8F8F8"/>
<path d="M258.408 172.092L289.551 154.11V178.971L258.408 196.95V172.092Z" fill="#43636B"/>
<path d="M279.71 185.203L280.771 184.591V158.358L279.71 158.973V185.203Z" fill="#F8F8F8"/>
<path d="M268.785 192.12L269.85 191.507V165.274L268.785 165.893V192.12Z" fill="#F8F8F8"/>
<path d="M258.633 171.877V198.107L258.052 198.446V172.213L258.633 171.877Z" fill="#F8F8F8"/>
<path d="M258.581 175.195L290.311 156.874V158.074L258.581 176.394V175.195Z" fill="#F8F8F8"/>
<path d="M266.398 174.454L266.296 210.931L228.453 232.928L228.554 196.447L266.398 174.454Z" fill="#413F47"/>
<path d="M228.554 196.446L228.452 232.927L213.021 224.017L213.126 187.54L228.554 196.446Z" fill="#2D2C31"/>
<path d="M213.126 187.54L213.021 224.017L158.617 255.634L158.719 219.157L213.126 187.54Z" fill="#413F47"/>
<path d="M25.6833 231.682L25.5787 268.162L16.5339 262.935L16.6355 226.461L25.6833 231.682Z" fill="#2D2C31"/>
<path d="M136.301 250.059L136.196 286.533L123.266 279.07L123.367 242.589L136.301 250.059Z" fill="#2D2C31"/>
<path d="M186.65 213.367V213.354L201.568 204.737V230.915L188.431 238.504V218.624C188.431 218.077 187.588 218.132 187.588 218.673V238.99L172.972 247.435V221.267L186.65 213.367Z" fill="#43636B"/>
<path d="M201.337 231.8L202.281 231.259V204.832L201.337 204.715V231.8Z" fill="#F8F8F8"/>
<path d="M201.343 205.289V231.802L200.669 231.411V204.902L201.343 205.289Z" fill="#A8A9A9"/>
<path d="M173.058 221.669L173.07 248.163L172.385 247.794V221.278L173.058 221.669Z" fill="#A8A9A9"/>
<path d="M173.07 248.164L174.009 247.62V221.125L173.07 221.667V248.164Z" fill="#F8F8F8"/>
<path d="M202.155 204.857V205.512L173.169 222.242V221.583L202.155 204.857Z" fill="#F8F8F8"/>
<path d="M201.734 209.906V210.565L173.47 226.885V226.224L201.734 209.906Z" fill="#F8F8F8"/>
<path d="M188.268 218.339V238.591L187.619 238.967V218.714L188.268 218.339Z" fill="#AEAEAE"/>
<path d="M188.721 217.672V238.343L188.074 238.718V218.094L188.721 217.672Z" fill="#F8F8F8"/>
<path d="M187.838 218.183V238.857L187.185 239.229V218.605L187.838 218.183Z" fill="#F8F8F8"/>
<path d="M189.046 229.333C189.046 229.33 189.046 229.327 189.046 229.324C189.046 229.321 189.046 229.315 189.046 229.312C189.046 229.309 189.046 229.306 189.046 229.303C189.046 229.3 189.05 229.297 189.05 229.293C189.05 229.29 189.05 229.287 189.05 229.284C189.053 229.278 189.053 229.275 189.053 229.272C189.053 229.269 189.056 229.266 189.056 229.263C189.056 229.257 189.056 229.254 189.059 229.25C189.059 229.247 189.059 229.244 189.062 229.241C189.062 229.235 189.062 229.232 189.065 229.229C189.065 229.226 189.068 229.223 189.068 229.22C189.068 229.217 189.071 229.214 189.071 229.21C189.074 229.207 189.074 229.204 189.074 229.198C189.077 229.198 189.077 229.192 189.08 229.189C189.08 229.186 189.083 229.183 189.083 229.18C189.086 229.177 189.086 229.174 189.09 229.17C189.093 229.164 189.093 229.161 189.096 229.158C189.099 229.152 189.102 229.146 189.105 229.14C189.111 229.13 189.117 229.121 189.12 229.115C189.127 229.109 189.13 229.103 189.136 229.097C189.139 229.093 189.142 229.087 189.145 229.084C189.148 229.081 189.148 229.078 189.151 229.075C189.154 229.072 189.157 229.069 189.16 229.066C189.163 229.063 189.166 229.06 189.166 229.057C189.169 229.053 189.17 229.054 189.17 229.054L189.173 229.051L189.176 229.047C189.179 229.044 189.182 229.041 189.185 229.038C189.188 229.035 189.191 229.032 189.194 229.029C189.197 229.026 189.2 229.023 189.203 229.02C189.206 229.02 189.209 229.017 189.213 229.014C189.216 229.01 189.219 229.007 189.222 229.007C189.225 229.004 189.228 229.001 189.231 228.998C189.234 228.998 189.237 228.995 189.24 228.992C189.243 228.992 189.246 228.989 189.25 228.989L189.253 228.986L189.542 228.82C189.545 228.817 189.545 228.817 189.545 228.817C189.551 228.813 189.554 228.814 189.557 228.811C189.56 228.811 189.563 228.807 189.566 228.807C189.566 228.807 189.573 228.804 189.576 228.804C189.576 228.801 189.579 228.801 189.582 228.801C189.585 228.798 189.588 228.798 189.588 228.798C189.594 228.795 189.597 228.795 189.597 228.795C189.603 228.795 189.606 228.795 189.61 228.792C189.61 228.792 189.616 228.792 189.619 228.792C189.622 228.792 189.622 228.792 189.622 228.792H189.625L189.628 228.789C189.631 228.789 189.634 228.789 189.637 228.789C189.64 228.789 189.643 228.789 189.649 228.792C189.653 228.792 189.656 228.792 189.659 228.792C189.665 228.792 189.671 228.795 189.674 228.795C189.68 228.798 189.686 228.801 189.692 228.804L189.834 228.884C189.816 228.875 189.791 228.869 189.769 228.872C189.745 228.875 189.717 228.884 189.689 228.9L189.4 229.069C189.373 229.084 189.345 229.106 189.323 229.134C189.299 229.158 189.277 229.189 189.259 229.216V229.22C189.24 229.25 189.225 229.284 189.213 229.315C189.203 229.349 189.197 229.383 189.197 229.413L189.2 230.899C189.2 230.93 189.206 230.958 189.219 230.976V230.979C189.228 231.001 189.243 231.016 189.262 231.028L189.12 230.946C189.105 230.939 189.093 230.927 189.083 230.912C189.08 230.906 189.077 230.902 189.074 230.896C189.074 230.893 189.071 230.89 189.071 230.884C189.068 230.881 189.068 230.878 189.068 230.875C189.065 230.872 189.065 230.866 189.065 230.863C189.062 230.859 189.062 230.856 189.062 230.853C189.062 230.85 189.062 230.847 189.059 230.844C189.059 230.841 189.059 230.838 189.059 230.835C189.059 230.835 189.059 230.829 189.059 230.823C189.059 230.819 189.059 230.816 189.059 230.813L189.053 229.33C189.043 229.34 189.046 229.337 189.046 229.333Z" fill="#EFEFEF"/>
<path d="M189.388 229.081C189.277 229.146 189.188 229.299 189.188 229.426L189.191 230.912C189.191 231.038 189.284 231.093 189.394 231.025L189.684 230.859C189.794 230.795 189.887 230.638 189.887 230.508L189.881 229.026C189.881 228.896 189.791 228.847 189.677 228.912L189.388 229.081Z" fill="#CBCBCB"/>
<g opacity="0.4">
<path opacity="0.4" d="M189.884 230.094L189.887 230.51C189.887 230.639 189.794 230.796 189.684 230.86L189.394 231.026C189.284 231.091 189.191 231.039 189.191 230.913V230.67L189.884 230.094Z" fill="#BBBBBB"/>
</g>
<path opacity="0.9" d="M189.351 230.184C189.397 230.353 189.548 230.372 189.69 230.23C189.831 230.086 189.908 229.83 189.862 229.661C189.816 229.492 189.665 229.474 189.523 229.615C189.379 229.76 189.302 230.015 189.351 230.184Z" fill="#BBBBBB"/>
<path d="M189.483 230.312C189.551 230.561 189.782 230.592 189.991 230.377C190.197 230.164 190.314 229.789 190.246 229.537C190.176 229.288 189.948 229.257 189.739 229.472C189.53 229.688 189.413 230.063 189.483 230.312Z" fill="#DBDBDB"/>
<path d="M189.708 230.199C189.757 230.374 189.911 230.389 190.055 230.248C190.203 230.1 190.28 229.839 190.234 229.669C190.188 229.5 190.031 229.479 189.886 229.623C189.742 229.768 189.662 230.026 189.708 230.199Z" fill="#EFEFEF"/>
<path d="M185.992 231.088C185.992 231.085 185.992 231.082 185.992 231.079C185.992 231.076 185.992 231.072 185.992 231.069C185.992 231.066 185.992 231.063 185.992 231.06C185.992 231.057 185.995 231.051 185.995 231.048C185.995 231.045 185.995 231.042 185.995 231.039C185.998 231.036 185.998 231.032 185.998 231.029C185.998 231.023 186.001 231.02 186.001 231.017C186.001 231.014 186.001 231.011 186.004 231.008C186.004 231.005 186.004 230.998 186.007 230.995C186.007 230.992 186.01 230.989 186.01 230.986C186.01 230.983 186.013 230.98 186.013 230.974C186.013 230.971 186.016 230.968 186.016 230.965C186.019 230.962 186.019 230.958 186.022 230.955C186.022 230.952 186.022 230.949 186.025 230.946C186.025 230.943 186.029 230.94 186.029 230.937C186.032 230.934 186.032 230.928 186.035 230.925C186.038 230.922 186.038 230.919 186.041 230.912C186.044 230.909 186.047 230.903 186.05 230.897C186.056 230.888 186.062 230.879 186.065 230.869C186.072 230.863 186.075 230.857 186.081 230.851C186.084 230.848 186.087 230.845 186.09 230.839C186.09 230.836 186.093 230.833 186.096 230.829C186.099 230.826 186.102 230.823 186.105 230.82C186.109 230.817 186.112 230.814 186.115 230.811L186.118 230.808L186.121 230.805C186.124 230.798 186.127 230.796 186.13 230.792C186.133 230.789 186.136 230.789 186.139 230.786C186.143 230.783 186.146 230.78 186.149 230.777C186.152 230.774 186.155 230.771 186.158 230.768C186.161 230.768 186.164 230.765 186.167 230.762C186.17 230.759 186.173 230.759 186.176 230.755C186.179 230.752 186.182 230.753 186.185 230.749C186.189 230.746 186.192 230.746 186.195 230.743H186.198L186.487 230.574C186.49 230.574 186.49 230.574 186.493 230.571C186.496 230.571 186.499 230.568 186.502 230.568C186.506 230.565 186.509 230.565 186.509 230.565C186.509 230.565 186.518 230.562 186.521 230.559C186.524 230.559 186.524 230.555 186.527 230.555C186.53 230.555 186.533 230.556 186.536 230.552C186.539 230.552 186.542 230.552 186.542 230.552C186.549 230.549 186.552 230.549 186.555 230.549C186.558 230.549 186.561 230.549 186.564 230.546H186.57H186.573C186.576 230.546 186.579 230.546 186.582 230.546C186.586 230.546 186.588 230.546 186.595 230.546C186.598 230.546 186.601 230.546 186.604 230.549C186.61 230.549 186.616 230.549 186.619 230.552C186.625 230.556 186.632 230.556 186.638 230.559L186.779 230.642C186.761 230.629 186.739 230.626 186.715 230.629C186.69 230.629 186.662 230.639 186.635 230.657L186.345 230.823C186.318 230.842 186.29 230.863 186.269 230.888V230.891C186.244 230.915 186.223 230.946 186.204 230.974C186.183 231.008 186.17 231.039 186.158 231.072C186.149 231.106 186.142 231.137 186.142 231.171L186.145 232.654C186.145 232.687 186.152 232.715 186.164 232.734C186.173 232.755 186.189 232.774 186.207 232.783L186.065 232.703C186.05 232.694 186.038 232.681 186.029 232.666C186.026 232.663 186.023 232.657 186.019 232.654V232.663C186.019 232.66 186.016 232.657 186.016 232.654C186.013 232.651 186.013 232.648 186.013 232.641C186.01 232.638 186.01 232.635 186.01 232.632C186.007 232.629 186.007 232.626 186.007 232.623C186.007 232.62 186.007 232.614 186.007 232.611C186.004 232.608 186.004 232.605 186.004 232.601C186.004 232.598 186.004 232.595 186.004 232.592C186.004 232.589 186.004 232.586 186.004 232.583L186.001 231.097C185.992 231.094 185.992 231.091 185.992 231.088Z" fill="#EFEFEF"/>
<path d="M186.333 230.833C186.223 230.898 186.133 231.052 186.133 231.181L186.136 232.664C186.136 232.793 186.229 232.845 186.339 232.781L186.629 232.612C186.739 232.547 186.832 232.39 186.832 232.264L186.825 230.778C186.825 230.649 186.736 230.6 186.622 230.667L186.333 230.833Z" fill="#CBCBCB"/>
<g opacity="0.4">
<path opacity="0.4" d="M186.829 231.851L186.832 232.267C186.832 232.393 186.739 232.553 186.629 232.614L186.339 232.783C186.229 232.848 186.136 232.796 186.136 232.667V232.423L186.829 231.851Z" fill="#BBBBBB"/>
</g>
<path opacity="0.9" d="M186.293 231.94C186.339 232.109 186.49 232.131 186.632 231.986C186.773 231.841 186.85 231.589 186.807 231.42C186.758 231.251 186.607 231.229 186.465 231.374C186.324 231.518 186.247 231.774 186.293 231.94Z" fill="#BBBBBB"/>
<path d="M186.425 232.068C186.493 232.32 186.724 232.347 186.93 232.132C187.142 231.92 187.256 231.545 187.185 231.295C187.118 231.043 186.89 231.015 186.681 231.231C186.471 231.446 186.358 231.818 186.425 232.068Z" fill="#DBDBDB"/>
<path d="M186.656 231.956C186.702 232.128 186.856 232.147 187.001 232.002C187.148 231.854 187.225 231.596 187.179 231.424C187.13 231.248 186.976 231.23 186.832 231.375C186.687 231.519 186.607 231.784 186.656 231.956Z" fill="#EFEFEF"/>
<path d="M201.555 204.418L202.275 204.834L173.067 221.677L172.375 221.28L201.555 204.418Z" fill="#F3F3F3"/>
<path d="M174.147 228.062L174.046 264.543L136.196 286.534L136.301 250.059L174.147 228.062Z" fill="#413F47"/>
<path d="M123.367 242.589L123.266 279.07L83.9976 301.888L84.1021 265.41L123.367 242.589Z" fill="#413F47"/>
<path d="M84.1021 265.41L83.9975 301.887L73.0854 295.587L73.19 259.106L84.1021 265.41Z" fill="#2D2C31"/>
<path d="M56.1004 269.038L55.9957 305.516L8.49219 278.089L8.59678 241.615L56.1004 269.038Z" fill="#2D2C31"/>
<path d="M298.907 127.937L281.82 137.864L292.732 144.168L253.467 166.986L266.398 174.453L228.554 196.446L213.126 187.54L158.719 219.157L174.147 228.063L136.3 250.06L123.367 242.59L84.1021 265.411L73.19 259.107L56.1003 269.038L8.59668 241.615L25.6833 231.681L16.6355 226.46L93.6546 181.701L102.702 186.921L157.297 155.197L148.249 149.976L225.265 105.217L234.316 110.437L251.403 100.51L298.907 127.937Z" fill="#48474F"/>
<path d="M73.19 259.106L73.0854 295.587L55.9956 305.515L56.1003 269.037L73.19 259.106Z" fill="#413F47"/>
<path d="M47.6338 270.253L15.0142 251.419V278.71L47.6338 297.544V270.253Z" fill="#A8A9A9"/>
<path d="M47.2002 271.133L16.0603 253.157V278.015L47.2002 295.993V271.133Z" fill="#233A3F"/>
<path d="M25.9019 284.247L24.8374 283.632V257.405L25.9019 258.017V284.247Z" fill="#A8A9A9"/>
<path d="M36.8232 291.163L35.7649 290.548V264.321L36.8232 264.933V291.163Z" fill="#A8A9A9"/>
<path d="M46.9756 270.922V297.149L47.5601 297.487V271.258L46.9756 270.922Z" fill="#A8A9A9"/>
<path d="M47.0279 274.235L15.2974 255.918V257.118L47.0279 275.438V274.235Z" fill="#A8A9A9"/>
<path d="M87.4802 269.657L120.103 250.823V278.114L87.4802 296.951V269.657Z" fill="#F8F8F8"/>
<path d="M87.9141 270.539L119.054 252.56V277.417L87.9141 295.399V270.539Z" fill="#43636B"/>
<path d="M109.215 283.655L110.277 283.042V256.81L109.215 257.422V283.655Z" fill="#F8F8F8"/>
<path d="M98.2876 290.571L99.3521 289.959V263.726L98.2876 264.341V290.571Z" fill="#F8F8F8"/>
<path d="M88.1355 270.333V296.562L87.5571 296.901V270.668L88.1355 270.333Z" fill="#F8F8F8"/>
<path d="M88.0894 273.645L119.817 255.324V256.521L88.0894 274.844V273.645Z" fill="#F8F8F8"/>
<path d="M70.5936 266.554L58.7646 273.383V300.678L70.5936 293.848V266.554Z" fill="#F8F8F8"/>
<path d="M69.9874 268.038L59.2014 274.265V299.126L69.9874 292.899V268.038Z" fill="#43636B"/>
<path d="M70.5936 267.475L69.5752 268.059V294.292L70.5936 293.702V267.475Z" fill="#F8F8F8"/>
<path d="M59.423 274.052V300.282L58.8416 300.617V274.388L59.423 274.052Z" fill="#F8F8F8"/>
<path d="M70.5936 270.892L59.3738 277.371V278.568L70.5936 272.092V270.892Z" fill="#F8F8F8"/>
<path d="M138.943 254.555L171.563 235.721V263.012L138.943 281.849V254.555Z" fill="#F8F8F8"/>
<path d="M139.374 255.436L170.514 237.457V262.315L139.374 280.297V255.436Z" fill="#43636B"/>
<path d="M160.675 268.55L161.74 267.935V241.705L160.675 242.317V268.55Z" fill="#F8F8F8"/>
<path d="M149.751 275.466L150.812 274.851V248.621L149.751 249.234V275.466Z" fill="#F8F8F8"/>
<path d="M139.602 255.224V281.454L139.017 281.789V255.56L139.602 255.224Z" fill="#F8F8F8"/>
<path d="M139.549 258.54L171.28 240.22V241.416L139.549 259.737V258.54Z" fill="#F8F8F8"/>
<path d="M231.237 201.266L263.86 182.429V209.723L231.237 228.557V201.266Z" fill="#F8F8F8"/>
<path d="M231.671 202.147L262.811 184.168V209.026L231.671 227.005V202.147Z" fill="#43636B"/>
<path d="M252.972 215.259L254.033 214.643V188.417L252.972 189.029V215.259Z" fill="#F8F8F8"/>
<path d="M242.044 222.175L243.109 221.56V195.333L242.044 195.945V222.175Z" fill="#F8F8F8"/>
<path d="M231.895 201.933V228.163L231.311 228.498V202.271L231.895 201.933Z" fill="#F8F8F8"/>
<path d="M231.843 205.247L263.573 186.93V188.129L231.843 206.45V205.247Z" fill="#F8F8F8"/>
<path d="M298.999 91.5304L298.897 128.005L281.789 137.945L281.894 101.47L298.999 91.5304Z" fill="#A08E64"/>
<path d="M157.371 118.799L157.269 155.277L148.219 150.056L148.323 113.578L157.371 118.799Z" fill="#A08E64"/>
<path d="M292.806 107.773L292.705 144.251L253.455 167.057L253.563 130.582L292.806 107.773Z" fill="#DFD09B"/>
<path d="M275.621 147.167L257.193 157.815V141.039L275.621 130.388V147.167Z" fill="#A08E64"/>
<path d="M273.895 146.185L257.193 155.826V141.041L273.895 131.402V146.185Z" fill="#F8F8F8"/>
<path d="M273.243 146.039L257.845 154.927V142.317L273.243 133.429V146.039Z" fill="#43636B"/>
<path d="M265.89 150.414L265.198 150.814V137.693L265.89 137.293V150.414Z" fill="#F8F8F8"/>
<path d="M291.406 138.043L272.981 148.694V131.918L291.406 121.267V138.043Z" fill="#A08E64"/>
<path d="M289.68 137.061L272.981 146.705V131.92L289.68 122.278V137.061Z" fill="#F8F8F8"/>
<path d="M289.028 136.919L273.634 145.807V133.197L289.028 124.306V136.919Z" fill="#43636B"/>
<path d="M281.678 141.29L280.983 141.693V128.572L281.678 128.169V141.29Z" fill="#F8F8F8"/>
<path d="M266.493 138.046L266.392 174.524L228.523 196.527L228.628 160.049L266.493 138.046Z" fill="#FFEBB2"/>
<path d="M228.628 160.048L228.523 196.525L213.095 187.619L213.197 151.145L228.628 160.048Z" fill="#A08E64"/>
<path d="M213.197 151.145L213.095 187.619L158.712 219.223L158.814 182.749L213.197 151.145Z" fill="#DFD09B"/>
<path d="M25.7785 195.278L25.6708 231.758L16.626 226.531L16.7306 190.054L25.7785 195.278Z" fill="#A08E64"/>
<path d="M136.377 213.663L136.273 250.141L123.339 242.671L123.444 206.194L136.377 213.663Z" fill="#A08E64"/>
<path d="M187.345 194.127L168.92 204.778V188.002L187.345 177.351V194.127Z" fill="#A08E64"/>
<path d="M185.622 193.147L168.92 202.788V188L185.622 178.358V193.147Z" fill="#F8F8F8"/>
<path d="M184.967 193.002L169.572 201.893V189.28L184.967 180.389V193.002Z" fill="#43636B"/>
<path d="M177.617 197.376L176.922 197.78V184.655L177.617 184.252V197.376Z" fill="#F8F8F8"/>
<path d="M209.907 181.151L191.483 191.801V175.025L209.907 164.375V181.151Z" fill="#A08E64"/>
<path d="M208.182 180.169L191.483 189.81V175.025L208.182 165.38V180.169Z" fill="#F8F8F8"/>
<path d="M207.529 180.025L192.135 188.913V176.299L207.529 167.415V180.025Z" fill="#43636B"/>
<path d="M200.18 184.397L199.481 184.8V171.676L200.18 171.276V184.397Z" fill="#F8F8F8"/>
<path d="M174.239 191.653L174.138 228.134L136.273 250.14L136.377 213.662L174.239 191.653Z" fill="#FFEBB2"/>
<path d="M123.444 206.194L123.339 242.671L84.0928 265.483L84.1944 229.003L123.444 206.194Z" fill="#FFEBB2"/>
<path d="M84.1943 229L84.0927 265.48L73.1775 259.18L73.2821 222.699L84.1943 229Z" fill="#A08E64"/>
<path d="M56.1925 232.632L56.0879 269.11L8.5874 241.683L8.68889 205.206L56.1925 232.632Z" fill="#A08E64"/>
<path d="M298.999 91.5293L281.894 101.469L292.806 107.77L253.563 130.579L266.493 138.045L228.628 160.048L213.197 151.145L158.814 182.749L174.239 191.653L136.377 213.661L123.444 206.192L84.1945 229.001L73.2823 222.7L56.1926 232.631L8.68896 205.204L25.7787 195.274L16.7308 190.05L93.7468 145.29L102.798 150.514L157.371 118.799L148.323 113.578L225.342 68.8188L234.39 74.0426L251.498 64.1025L298.999 91.5293Z" fill="#FFEBB2"/>
<path d="M73.2822 222.699L73.1776 259.18L56.0879 269.107L56.1925 232.63L73.2822 222.699Z" fill="#FFEBB2"/>
<path d="M303.167 91.2594L303.161 93.6929L286.072 103.621L286.078 101.19L303.167 91.2594Z" fill="#45454C"/>
<path d="M153.107 118.51L153.101 120.941L144.075 115.729L144.081 113.299L153.107 118.51Z" fill="#232226"/>
<path d="M296.993 107.494L296.987 109.924L257.738 132.733L257.747 130.303L296.993 107.494Z" fill="#45454C"/>
<path d="M270.677 137.767L270.671 140.2L228.604 164.646L228.613 162.212L270.677 137.767Z" fill="#45454C"/>
<path d="M228.612 162.21L228.603 164.644L213.178 155.737L213.184 153.304L228.612 162.21Z" fill="#232226"/>
<path d="M213.184 153.304L213.178 155.737L162.992 184.899L162.998 182.469L213.184 153.304Z" fill="#45454C"/>
<path d="M21.4964 194.997L21.4872 197.428L12.4578 192.216L12.467 189.786L21.4964 194.997Z" fill="#232226"/>
<path d="M136.359 215.826L136.353 218.257L123.419 210.79L123.429 208.357L136.359 215.826Z" fill="#232226"/>
<path d="M178.426 191.375L178.42 193.809L136.353 218.254L136.359 215.824L178.426 191.375Z" fill="#45454C"/>
<path d="M123.429 208.357L123.419 210.79L84.1545 233.608L84.1607 231.175L123.429 208.357Z" fill="#45454C"/>
<path d="M84.1607 231.173L84.1545 233.606L73.2393 227.306L73.2455 224.872L84.1607 231.173Z" fill="#232226"/>
<path d="M56.1587 234.804L56.1526 237.238L4.40039 207.359L4.40659 204.926L56.1587 234.804Z" fill="#232226"/>
<path d="M303.167 91.2589L286.078 101.19L296.993 107.49L257.747 130.299L270.677 137.766L228.613 162.211L213.184 153.305L162.998 182.47L178.426 191.376L136.359 215.825L123.428 208.355L84.1606 231.173L73.2453 224.872L56.1586 234.803L4.40649 204.925L21.4962 194.994L12.4668 189.782L93.7067 142.571L102.733 147.786L153.107 118.51L144.081 113.299L225.299 66.0965L234.329 71.3111L251.415 61.3804L303.167 91.2589Z" fill="#6A6D75"/>
<path d="M73.2454 224.872L73.2392 227.306L56.1526 237.236L56.1587 234.803L73.2454 224.872Z" fill="#45454C"/>
<path d="M262.367 169.573L243.943 180.224V163.448L262.367 152.797V169.573Z" fill="#A08E64"/>
<path d="M260.642 168.591L243.943 178.233V163.448L260.642 153.806V168.591Z" fill="#F8F8F8"/>
<path d="M259.986 168.448L244.595 177.336V164.725L259.986 155.838V168.448Z" fill="#43636B"/>
<path d="M252.64 172.818L251.944 173.221V160.1L252.64 159.696V172.818Z" fill="#F8F8F8"/>
<path d="M158.522 229.405L140.094 240.055V223.279L158.522 212.629V229.405Z" fill="#A08E64"/>
<path d="M156.796 228.426L140.094 238.064V223.279L156.796 213.637V228.426Z" fill="#F8F8F8"/>
<path d="M156.144 228.279L140.746 237.166V224.556L156.144 215.665V228.279Z" fill="#43636B"/>
<path d="M148.791 232.654L148.096 233.057V219.933L148.791 219.529V232.654Z" fill="#F8F8F8"/>
<path d="M233.341 169.475V177.511L239.396 174.01V165.974L233.341 169.475Z" fill="#A08E64"/>
<path d="M233.341 169.474V176.138L238.199 173.329V166.671L233.341 169.474Z" fill="#F8F8F8"/>
<path d="M233.341 170.622V175.772L237.75 173.231V168.074L233.341 170.622Z" fill="#43636B"/>
<path d="M163.047 210.118V218.16L169.102 214.659V206.62L163.047 210.118Z" fill="#A08E64"/>
<path d="M163.047 210.123V216.78L167.908 213.977V207.317L163.047 210.123Z" fill="#F8F8F8"/>
<path d="M163.047 211.265V216.418L167.453 213.874V208.721L163.047 211.265Z" fill="#43636B"/>
<path d="M104.976 245.239L86.551 255.889V239.113L104.976 228.463V245.239Z" fill="#A08E64"/>
<path d="M103.25 244.262L86.551 253.904V239.115L103.25 229.474V244.262Z" fill="#F8F8F8"/>
<path d="M102.598 244.114L87.2002 253.005V240.392L102.598 231.507V244.114Z" fill="#43636B"/>
<path d="M95.2483 248.488L94.553 248.891V235.767L95.2483 235.364V248.488Z" fill="#F8F8F8"/>
<path d="M120.764 236.121L102.336 246.771V229.989L120.764 219.342V236.121Z" fill="#A08E64"/>
<path d="M119.035 235.137L102.336 244.778V229.989L119.035 220.351V235.137Z" fill="#F8F8F8"/>
<path d="M118.383 234.99L102.989 243.881V231.268L118.383 222.383V234.99Z" fill="#43636B"/>
<path d="M111.033 239.364L110.338 239.767V226.646L111.033 226.243V239.364Z" fill="#F8F8F8"/>
<path d="M30.4766 245.239L48.9014 255.889V239.113L30.4766 228.463V245.239Z" fill="#706142"/>
<path d="M32.2024 244.262L40.5304 249.071L40.6473 258.118L48.9013 262.887V239.115L32.2024 229.474V244.262Z" fill="#A8A9A9"/>
<path d="M32.8545 244.114L40.5979 248.584L40.7179 257.743L48.2491 262.093V240.392L32.8545 231.507V244.114Z" fill="#233A3F"/>
<path d="M40.2043 257.942L40.9028 258.345V235.767L40.2043 235.364V257.942Z" fill="#A8A9A9"/>
<path d="M14.6912 236.12L33.1161 246.771V229.989L14.6912 219.341V236.12Z" fill="#706142"/>
<path d="M16.417 235.136L33.116 244.778V229.989L16.417 220.351V235.136Z" fill="#A8A9A9"/>
<path d="M17.0691 234.99L32.4637 243.881V231.267L17.0691 222.382V234.99Z" fill="#233A3F"/>
<path d="M24.4189 239.364L25.1142 239.767V226.646L24.4189 226.243V239.364Z" fill="#A8A9A9"/>
<path d="M51.5164 263.677L51.5134 264.643L47.0833 267.215L47.0863 266.252L51.5164 263.677Z" fill="#81795D"/>
<path d="M47.0862 266.253L47.0832 267.216L34.3066 267.336L34.3097 266.373L47.0862 266.253Z" fill="#7A7157"/>
<path d="M34.3097 266.372L34.3066 267.335L9.18433 252.83L9.18733 251.867L34.3097 266.372Z" fill="#665F47"/>
<path d="M51.5143 263.678L47.0842 266.253L34.3077 266.373L9.1853 251.867L9.33299 244.456L13.76 241.884L51.5143 263.678Z" fill="#8C8564"/>
<path d="M14.5282 234.913L14.5097 242.379L10.6118 244.644L10.6333 237.177L14.5282 234.913Z" fill="#FFEBB2"/>
<path d="M9.68276 244.151L9.66126 251.614L9.62427 244.468L9.64276 237.004L9.68276 244.151Z" fill="#827A5E"/>
<path d="M50.929 255.93L50.9105 263.396L46.6711 265.86L46.6895 258.394L50.929 255.93Z" fill="#FFEBB2"/>
<path d="M34.3497 258.393L34.3281 265.859L9.66113 251.615L9.68263 244.152L34.3497 258.393Z" fill="#897E62"/>
<path d="M46.6893 258.393L46.6709 265.859H34.3281L34.3497 258.393H46.6893Z" fill="#A69A76"/>
<path d="M50.9289 255.929L46.6895 258.393H34.3499L9.68282 244.152L9.64282 237.005L13.8822 234.541L14.5283 234.913L10.6334 237.178L10.8611 243.977L34.6482 257.71L46.3449 257.821L50.2644 255.544L50.9289 255.929Z" fill="#C4B48C"/>
<path d="M298.999 55.231L298.897 91.7085L281.789 101.652L281.894 65.171L298.999 55.231Z" fill="#A08E64"/>
<path d="M157.371 82.5043L157.269 118.982L148.219 113.758L148.323 77.2805L157.371 82.5043Z" fill="#A08E64"/>
<path d="M292.806 71.4756L292.705 107.95L253.455 130.762L253.563 94.2814L292.806 71.4756Z" fill="#DFD09B"/>
<path d="M275.621 110.871L257.193 121.522V104.743L275.621 94.0953V110.871Z" fill="#A08E64"/>
<path d="M273.895 109.888L257.193 119.53V104.744L273.895 95.1025V109.888Z" fill="#F8F8F8"/>
<path d="M273.243 109.743L257.845 118.631V106.021L273.243 97.1327V109.743Z" fill="#43636B"/>
<path d="M265.89 114.114L265.198 114.517V101.396L265.89 100.993V114.114Z" fill="#F8F8F8"/>
<path d="M291.406 101.747L272.981 112.397V95.6218L291.406 84.9709V101.747Z" fill="#A08E64"/>
<path d="M289.68 100.766L272.981 110.405V95.6225L289.68 85.9778V100.766Z" fill="#F8F8F8"/>
<path d="M289.028 100.621L273.634 109.506V96.8954L289.028 88.0076V100.621Z" fill="#43636B"/>
<path d="M281.678 104.993L280.983 105.393V92.2718L281.678 91.8718V104.993Z" fill="#F8F8F8"/>
<path d="M266.493 101.75L266.392 138.225L228.523 160.234L228.628 123.753L266.493 101.75Z" fill="#FFEBB2"/>
<path d="M228.628 123.753L228.523 160.234L213.095 151.324L213.197 114.847L228.628 123.753Z" fill="#A08E64"/>
<path d="M213.197 114.847L213.095 151.324L158.712 182.932L158.814 146.451L213.197 114.847Z" fill="#DFD09B"/>
<path d="M25.7787 158.98L25.671 195.457L16.6262 190.236L16.7308 153.756L25.7787 158.98Z" fill="#A08E64"/>
<path d="M136.377 177.363L136.273 213.84L123.339 206.377L123.444 169.896L136.377 177.363Z" fill="#A08E64"/>
<path d="M187.345 157.829L168.92 168.48V151.704L187.345 141.053V157.829Z" fill="#A08E64"/>
<path d="M185.622 156.848L168.92 166.489V151.704L185.622 142.062V156.848Z" fill="#F8F8F8"/>
<path d="M184.967 156.704L169.572 165.592V152.981L184.967 144.094V156.704Z" fill="#43636B"/>
<path d="M177.617 161.079L176.922 161.479V148.354L177.617 147.954V161.079Z" fill="#F8F8F8"/>
<path d="M209.907 144.854L191.483 155.505V138.726L209.907 128.075V144.854Z" fill="#A08E64"/>
<path d="M208.182 143.873L191.483 153.515V138.726L208.182 129.088V143.873Z" fill="#F8F8F8"/>
<path d="M207.529 143.726L192.135 152.617V140.004L207.529 131.119V143.726Z" fill="#43636B"/>
<path d="M200.18 148.101L199.481 148.504V135.38L200.18 134.98V148.101Z" fill="#F8F8F8"/>
<path d="M174.239 155.361L174.138 191.838L136.272 213.841L136.377 177.364L174.239 155.361Z" fill="#FFEBB2"/>
<path d="M123.444 169.896L123.339 206.377L84.0928 229.186L84.1944 192.705L123.444 169.896Z" fill="#FFEBB2"/>
<path d="M84.1943 192.705L84.0927 229.185L73.1775 222.882L73.2821 186.401L84.1943 192.705Z" fill="#A08E64"/>
<path d="M56.1925 196.336L56.0879 232.811L8.5874 205.387L8.68889 168.909L56.1925 196.336Z" fill="#A08E64"/>
<path d="M298.999 55.2313L281.894 65.1714L292.806 71.4749L253.563 94.2808L266.493 101.75L228.628 123.753L213.197 114.847L158.814 146.451L174.239 155.361L136.377 177.364L123.444 169.897L84.1945 192.706L73.2823 186.402L56.1926 196.336L8.68896 168.909L25.7787 158.979L16.7308 153.755L93.7468 108.996L102.798 114.222L157.371 82.5041L148.323 77.2802L225.342 32.524L234.39 37.7447L251.498 27.8047L298.999 55.2313Z" fill="#FFEBB2"/>
<path d="M73.2822 186.401L73.1776 222.882L56.0879 232.809L56.1925 196.335L73.2822 186.401Z" fill="#FFEBB2"/>
<path d="M303.167 54.9651L303.161 57.3954L286.072 67.3261L286.078 64.8928L303.167 54.9651Z" fill="#45454C"/>
<path d="M153.107 82.2158L153.101 84.6462L144.075 79.4347L144.081 77.0044L153.107 82.2158Z" fill="#232226"/>
<path d="M296.993 71.1961L296.987 73.6264L257.738 96.4353L257.747 94.0018L296.993 71.1961Z" fill="#45454C"/>
<path d="M270.677 101.472L270.671 103.903L228.604 128.348L228.613 125.918L270.677 101.472Z" fill="#45454C"/>
<path d="M228.612 125.916L228.603 128.347L213.178 119.44L213.184 117.01L228.612 125.916Z" fill="#232226"/>
<path d="M213.184 117.01L213.178 119.44L162.992 148.605L162.998 146.172L213.184 117.01Z" fill="#45454C"/>
<path d="M21.4964 158.703L21.4872 161.133L12.4578 155.919L12.467 153.488L21.4964 158.703Z" fill="#232226"/>
<path d="M136.359 179.529L136.353 181.963L123.419 174.493L123.429 172.062L136.359 179.529Z" fill="#232226"/>
<path d="M178.426 155.081L178.42 157.515L136.353 181.96L136.359 179.527L178.426 155.081Z" fill="#45454C"/>
<path d="M123.429 172.062L123.419 174.493L84.1545 197.314L84.1607 194.881L123.429 172.062Z" fill="#45454C"/>
<path d="M84.1607 194.878L84.1545 197.312L73.2393 191.011L73.2455 188.578L84.1607 194.878Z" fill="#232226"/>
<path d="M56.1587 198.51L56.1526 200.944L4.40039 171.062L4.40659 168.632L56.1587 198.51Z" fill="#232226"/>
<path d="M303.167 54.9648L286.078 64.8925L296.993 71.1962L257.747 94.0018L270.677 101.471L228.613 125.917L213.184 117.011L162.998 146.172L178.426 155.082L136.359 179.527L123.428 172.061L84.1606 194.879L73.2453 188.578L56.1586 198.509L4.40649 168.631L21.4962 158.703L12.4668 153.488L93.7067 106.277L102.733 111.492L153.107 82.216L144.081 77.0045L225.299 29.8024L234.329 35.0138L251.415 25.0861L303.167 54.9648Z" fill="#6A6D75"/>
<path d="M73.2454 188.578L73.2392 191.011L56.1526 200.942L56.1587 198.509L73.2454 188.578Z" fill="#45454C"/>
<path d="M262.367 133.279L243.943 143.929V127.153L262.367 116.503V133.279Z" fill="#A08E64"/>
<path d="M260.642 132.296L243.943 141.934V127.152L260.642 117.51V132.296Z" fill="#F8F8F8"/>
<path d="M259.986 132.153L244.595 141.038V128.43L259.986 119.54V132.153Z" fill="#43636B"/>
<path d="M252.64 136.528L251.944 136.925V123.807L252.64 123.404V136.528Z" fill="#F8F8F8"/>
<path d="M158.521 193.11L140.094 203.761V186.985L158.521 176.334V193.11Z" fill="#A08E64"/>
<path d="M156.796 192.128L140.094 201.773V186.985L156.796 177.343V192.128Z" fill="#F8F8F8"/>
<path d="M156.144 191.986L140.746 200.874V188.264L156.144 179.373V191.986Z" fill="#43636B"/>
<path d="M148.791 196.359L148.095 196.759V183.638L148.791 183.235V196.359Z" fill="#F8F8F8"/>
<path d="M233.341 133.178V141.216L239.396 137.715V129.68L233.341 133.178Z" fill="#A08E64"/>
<path d="M233.341 133.182V139.84L238.199 137.037V130.376L233.341 133.182Z" fill="#F8F8F8"/>
<path d="M233.341 134.328V139.481L237.75 136.933V131.783L233.341 134.328Z" fill="#43636B"/>
<path d="M163.047 173.827V181.862L169.102 178.364V170.326L163.047 173.827Z" fill="#A08E64"/>
<path d="M163.047 173.829V180.489L167.908 177.68V171.023L163.047 173.829Z" fill="#F8F8F8"/>
<path d="M163.047 174.973V180.126L167.453 177.582V172.426L163.047 174.973Z" fill="#43636B"/>
<path d="M104.976 208.945L86.551 219.596V202.817L104.976 192.166V208.945Z" fill="#A08E64"/>
<path d="M103.25 207.961L86.551 217.605V202.817L103.25 193.178V207.961Z" fill="#F8F8F8"/>
<path d="M102.598 207.817L87.2002 216.708V204.095L102.598 195.207V207.817Z" fill="#43636B"/>
<path d="M95.2483 212.192L94.553 212.595V199.471L95.2483 199.071V212.192Z" fill="#F8F8F8"/>
<path d="M120.764 199.821L102.336 210.472V193.696L120.764 183.045V199.821Z" fill="#A08E64"/>
<path d="M119.035 198.836L102.336 208.481V193.696L119.035 184.054V198.836Z" fill="#F8F8F8"/>
<path d="M118.383 198.696L102.989 207.583V194.973L118.383 186.082V198.696Z" fill="#43636B"/>
<path d="M111.033 203.067L110.338 203.47V190.349L111.033 189.946V203.067Z" fill="#F8F8F8"/>
<path d="M30.4766 208.945L48.9014 219.596V202.817L30.4766 192.166V208.945Z" fill="#706142"/>
<path d="M32.2024 207.961L40.5304 212.769L40.6473 221.82L48.9013 226.585V202.817L32.2024 193.178V207.961Z" fill="#A8A9A9"/>
<path d="M32.8547 207.817L40.5982 212.29L40.7182 221.446L48.2493 225.796V204.095L32.8547 195.207V207.817Z" fill="#233A3F"/>
<path d="M40.2043 221.649L40.9028 222.046V199.471L40.2043 199.071V221.649Z" fill="#A8A9A9"/>
<path d="M14.6912 199.821L33.1161 210.472V193.696L14.6912 183.045V199.821Z" fill="#706142"/>
<path d="M16.417 198.836L33.116 208.481V193.696L16.417 184.054V198.836Z" fill="#A8A9A9"/>
<path d="M17.0691 198.696L32.4637 207.583V194.973L17.0691 186.082V198.696Z" fill="#233A3F"/>
<path d="M24.4189 203.067L25.1142 203.47V190.349L24.4189 189.946V203.067Z" fill="#A8A9A9"/>
<path d="M51.5164 227.38L51.5134 228.343L47.0833 230.918L47.0863 229.955L51.5164 227.38Z" fill="#81795D"/>
<path d="M47.0862 229.955L47.0832 230.917L34.3066 231.037L34.3097 230.075L47.0862 229.955Z" fill="#7A7157"/>
<path d="M34.3097 230.076L34.3066 231.039L9.18433 216.533L9.18733 215.57L34.3097 230.076Z" fill="#665F47"/>
<path d="M51.5143 227.379L47.0842 229.955L34.3077 230.075L9.1853 215.569L9.33299 208.158L13.76 205.583L51.5143 227.379Z" fill="#8C8564"/>
<path d="M14.5282 198.615L14.5097 206.081L10.6118 208.346L10.6333 200.882L14.5282 198.615Z" fill="#FFEBB2"/>
<path d="M9.68276 207.853L9.66126 215.316L9.62427 208.17L9.64276 200.706L9.68276 207.853Z" fill="#827A5E"/>
<path d="M50.929 219.632L50.9105 227.095L46.6711 229.559L46.6895 222.096L50.929 219.632Z" fill="#FFEBB2"/>
<path d="M34.3497 222.095L34.3281 229.558L9.66113 215.318L9.68263 207.854L34.3497 222.095Z" fill="#897E62"/>
<path d="M46.6893 222.095L46.6709 229.558H34.3281L34.3497 222.095H46.6893Z" fill="#A69A76"/>
<path d="M50.9289 219.631L46.6895 222.095H34.3499L9.68282 207.854L9.64282 200.707L13.8822 198.243L14.5283 198.615L10.6334 200.883L10.8611 207.676L34.6482 221.412L46.3449 221.523L50.2644 219.246L50.9289 219.631Z" fill="#C4B48C"/>
<path d="M298.999 18.9357L298.897 55.4101L281.789 65.3564L281.894 28.8756L298.999 18.9357Z" fill="#A08E64"/>
<path d="M157.371 46.2073L157.269 82.6849L148.219 77.4611L148.323 40.9835L157.371 46.2073Z" fill="#A08E64"/>
<path d="M292.806 35.1786L292.705 71.6592L253.455 94.4681L253.563 57.9875L292.806 35.1786Z" fill="#DFD09B"/>
<path d="M275.621 74.5727L257.193 85.2235V68.4476L275.621 57.7968V74.5727Z" fill="#A08E64"/>
<path d="M273.895 73.5913L257.193 83.2329V68.4475L273.895 58.8058V73.5913Z" fill="#F8F8F8"/>
<path d="M273.243 73.4476L257.845 82.3354V69.7251L273.243 60.834V73.4476Z" fill="#43636B"/>
<path d="M265.89 77.8221L265.198 78.2221V65.101L265.89 64.698V77.8221Z" fill="#F8F8F8"/>
<path d="M291.406 65.4483L272.981 76.0991V59.3232L291.406 48.6724V65.4483Z" fill="#A08E64"/>
<path d="M289.68 64.4713L272.981 74.1098V59.3245L289.68 49.6827V64.4713Z" fill="#F8F8F8"/>
<path d="M289.028 64.3225L273.634 73.2103V60.5999L289.028 51.7121V64.3225Z" fill="#43636B"/>
<path d="M281.678 68.6974L280.983 69.1003V55.9762L281.678 55.5732V68.6974Z" fill="#F8F8F8"/>
<path d="M266.493 65.4516L266.392 101.929L228.523 123.935L228.628 87.4574L266.493 65.4516Z" fill="#FFEBB2"/>
<path d="M228.628 87.456L228.523 123.934L213.095 115.027L213.197 78.5498L228.628 87.456Z" fill="#A08E64"/>
<path d="M213.197 78.5498L213.095 115.027L158.712 146.632L158.814 110.154L213.197 78.5498Z" fill="#DFD09B"/>
<path d="M25.7787 122.683L25.671 159.16L16.6262 153.937L16.7308 117.459L25.7787 122.683Z" fill="#A08E64"/>
<path d="M136.377 141.071L136.272 177.551L123.339 170.082L123.444 133.604L136.377 141.071Z" fill="#A08E64"/>
<path d="M187.345 121.534L168.92 132.185V115.406L187.345 104.755V121.534Z" fill="#A08E64"/>
<path d="M185.622 120.553L168.92 130.194V115.406L185.622 105.767V120.553Z" fill="#F8F8F8"/>
<path d="M184.967 120.409L169.572 129.297V116.683L184.967 107.798V120.409Z" fill="#43636B"/>
<path d="M177.617 124.781L176.922 125.184V112.06L177.617 111.66V124.781Z" fill="#F8F8F8"/>
<path d="M209.907 108.558L191.483 119.209V102.433L209.907 91.782V108.558Z" fill="#A08E64"/>
<path d="M208.182 107.575L191.483 117.22V102.435L208.182 92.7931V107.575Z" fill="#F8F8F8"/>
<path d="M207.529 107.435L192.135 116.323V103.712L207.529 94.8214V107.435Z" fill="#43636B"/>
<path d="M200.18 111.804L199.481 112.208V99.0864L200.18 98.6835V111.804Z" fill="#F8F8F8"/>
<path d="M174.239 119.064L174.138 155.538L136.272 177.547L136.377 141.067L174.239 119.064Z" fill="#FFEBB2"/>
<path d="M123.444 133.604L123.339 170.082L84.0928 192.891L84.1944 156.41L123.444 133.604Z" fill="#FFEBB2"/>
<path d="M84.1943 156.405L84.0927 192.886L73.1775 186.585L73.2821 150.108L84.1943 156.405Z" fill="#A08E64"/>
<path d="M56.1925 160.038L56.0879 196.518L8.5874 169.092L8.68889 132.611L56.1925 160.038Z" fill="#A08E64"/>
<path d="M298.999 18.9346L281.894 28.8745L292.806 35.1751L253.563 57.984L266.493 65.4506L228.628 87.4563L213.197 78.5501L158.814 110.155L174.239 119.064L136.377 141.067L123.444 133.6L84.1945 156.406L73.2823 150.109L56.1926 160.036L8.68896 132.61L25.7787 122.682L16.7308 117.458L93.7468 72.6986L102.798 77.9224L157.371 46.2073L148.323 40.9835L225.342 -3.77592L234.39 1.4479L251.498 -8.49219L298.999 18.9346Z" fill="#FFEBB2"/>
<path d="M73.2822 150.108L73.1776 186.585L56.0879 196.516L56.1925 160.035L73.2822 150.108Z" fill="#FFEBB2"/>
<path d="M303.167 18.6649L303.161 21.0983L286.072 31.0291L286.078 28.5988L303.167 18.6649Z" fill="#45454C"/>
<path d="M153.107 45.9156L153.101 48.3492L144.075 43.1376L144.081 40.7042L153.107 45.9156Z" fill="#232226"/>
<path d="M296.993 34.8994L296.987 37.3327L257.738 60.1385L257.747 57.7082L296.993 34.8994Z" fill="#45454C"/>
<path d="M270.677 65.1724L270.671 67.6057L228.604 92.0544L228.613 89.6178L270.677 65.1724Z" fill="#45454C"/>
<path d="M228.612 89.6161L228.603 92.0526L213.178 83.1432L213.184 80.7097L228.612 89.6161Z" fill="#232226"/>
<path d="M213.184 80.7097L213.178 83.1432L162.992 112.305L162.998 109.875L213.184 80.7097Z" fill="#45454C"/>
<path d="M21.4964 122.406L21.4872 124.84L12.4578 119.625L12.467 117.192L21.4964 122.406Z" fill="#232226"/>
<path d="M136.359 143.232L136.353 145.663L123.419 138.199L123.429 135.766L136.359 143.232Z" fill="#232226"/>
<path d="M178.426 118.785L178.42 121.215L136.353 145.66L136.359 143.23L178.426 118.785Z" fill="#45454C"/>
<path d="M123.429 135.766L123.419 138.199L84.1545 161.017L84.1607 158.584L123.429 135.766Z" fill="#45454C"/>
<path d="M84.1607 158.583L84.1545 161.017L73.2393 154.716L73.2455 152.283L84.1607 158.583Z" fill="#232226"/>
<path d="M56.1587 162.212L56.1526 164.642L4.40039 134.764L4.40659 132.333L56.1587 162.212Z" fill="#232226"/>
<path d="M303.167 18.6646L286.078 28.5985L296.993 34.896L257.747 57.7049L270.677 65.1714L228.613 89.6169L213.184 80.7105L162.998 109.875L178.426 118.785L136.359 143.23L123.428 135.764L84.1606 158.582L73.2453 152.281L56.1586 162.212L4.40649 132.334L21.4962 122.403L12.4668 117.188L93.7067 69.9799L102.733 75.1913L153.107 45.9158L144.081 40.7044L225.299 -6.49477L234.329 -1.28016L251.415 -11.2141L303.167 18.6646Z" fill="#6A6D75"/>
<path d="M73.2454 152.283L73.2392 154.716L56.1526 164.644L56.1587 162.213L73.2454 152.283Z" fill="#45454C"/>
<path d="M262.367 96.982L243.943 107.633V90.8569L262.367 80.2061V96.982Z" fill="#A08E64"/>
<path d="M260.642 96.0019L243.943 105.64V90.8581L260.642 81.2134V96.0019Z" fill="#F8F8F8"/>
<path d="M259.986 95.858L244.595 104.746V92.1324L259.986 83.2444V95.858Z" fill="#43636B"/>
<path d="M252.64 100.228L251.944 100.631V87.5073L252.64 87.1073V100.228Z" fill="#F8F8F8"/>
<path d="M158.522 156.814L140.094 167.464V150.688L158.522 140.038V156.814Z" fill="#A08E64"/>
<path d="M156.796 155.833L140.094 165.475V150.689L156.796 141.045V155.833Z" fill="#F8F8F8"/>
<path d="M156.144 155.69L140.746 164.578V151.964L156.144 143.076V155.69Z" fill="#43636B"/>
<path d="M148.791 160.059L148.096 160.462V147.338L148.791 146.935V160.059Z" fill="#F8F8F8"/>
<path d="M233.341 96.8806V104.916L239.396 101.418V93.3796L233.341 96.8806Z" fill="#A08E64"/>
<path d="M233.341 96.8828V103.543L238.199 100.738V94.0801L233.341 96.8828Z" fill="#F8F8F8"/>
<path d="M233.341 98.0258V103.182L237.75 100.638V95.4814L233.341 98.0258Z" fill="#43636B"/>
<path d="M163.047 137.527V145.566L169.102 142.065V134.029L163.047 137.527Z" fill="#A08E64"/>
<path d="M163.047 137.532V144.192L167.908 141.386V134.726L163.047 137.532Z" fill="#F8F8F8"/>
<path d="M163.047 138.676V143.829L167.453 141.282V136.132L163.047 138.676Z" fill="#43636B"/>
<path d="M104.976 172.649L86.551 183.3V166.524L104.976 155.873V172.649Z" fill="#A08E64"/>
<path d="M103.25 171.665L86.551 181.307V166.525L103.25 156.88V171.665Z" fill="#F8F8F8"/>
<path d="M102.598 171.524L87.2002 180.409V167.798L102.598 158.91V171.524Z" fill="#43636B"/>
<path d="M95.2483 175.892L94.553 176.295V163.174L95.2483 162.774V175.892Z" fill="#F8F8F8"/>
<path d="M120.764 163.524L102.336 174.175V157.399L120.764 146.748V163.524Z" fill="#A08E64"/>
<path d="M119.035 162.544L102.336 172.183V157.401L119.035 147.759V162.544Z" fill="#F8F8F8"/>
<path d="M118.383 162.398L102.989 171.283V158.673L118.383 149.785V162.398Z" fill="#43636B"/>
<path d="M111.033 166.773L110.338 167.17V154.049L111.033 153.649V166.773Z" fill="#F8F8F8"/>
<path d="M30.4766 172.649L48.9014 183.299V166.523L30.4766 155.873V172.649Z" fill="#706142"/>
<path d="M32.2024 171.665L40.5304 176.474L40.6473 185.522L48.9013 190.29V166.525L32.2024 156.88V171.665Z" fill="#A8A9A9"/>
<path d="M32.8547 171.524L40.5982 175.994L40.7182 185.149L48.2493 189.496V167.798L32.8547 158.91V171.524Z" fill="#233A3F"/>
<path d="M40.2043 185.349L40.9028 185.752V163.174L40.2043 162.774V185.349Z" fill="#A8A9A9"/>
<path d="M14.6912 163.524L33.1161 174.175V157.399L14.6912 146.749V163.524Z" fill="#706142"/>
<path d="M16.417 162.544L33.116 172.183V157.401L16.417 147.759V162.544Z" fill="#A8A9A9"/>
<path d="M17.0691 162.399L32.4637 171.283V158.673L17.0691 149.785V162.399Z" fill="#233A3F"/>
<path d="M24.4189 166.774L25.1142 167.17V154.049L24.4189 153.649V166.774Z" fill="#A8A9A9"/>
<path d="M51.5164 191.086L51.5134 192.048L47.0833 194.62L47.0863 193.657L51.5164 191.086Z" fill="#81795D"/>
<path d="M47.0862 193.656L47.0832 194.619L34.3066 194.743L34.3097 193.776L47.0862 193.656Z" fill="#7A7157"/>
<path d="M34.3097 193.778L34.3066 194.744L9.18433 180.241L9.18733 179.272L34.3097 193.778Z" fill="#665F47"/>
<path d="M51.5143 191.084L47.0842 193.656L34.3077 193.776L9.1853 179.271L9.33299 171.86L13.76 169.288L51.5143 191.084Z" fill="#8C8564"/>
<path d="M14.5282 162.321L14.5097 169.785L10.6118 172.049L10.6333 164.589L14.5282 162.321Z" fill="#FFEBB2"/>
<path d="M9.68276 171.556L9.66126 179.022L9.62427 171.876L9.64276 164.409L9.68276 171.556Z" fill="#827A5E"/>
<path d="M50.929 183.338L50.9105 190.801L46.6711 193.266L46.6895 185.802L50.929 183.338Z" fill="#FFEBB2"/>
<path d="M34.3497 185.801L34.3281 193.264L9.66113 179.023L9.68263 171.557L34.3497 185.801Z" fill="#897E62"/>
<path d="M46.6893 185.801L46.6709 193.264H34.3281L34.3497 185.801H46.6893Z" fill="#A69A76"/>
<path d="M50.9289 183.337L46.6895 185.801H34.3499L9.68282 171.557L9.64282 164.41L13.8822 161.946L14.5283 162.321L10.6334 164.589L10.8611 171.385L34.6482 185.118L46.3449 185.229L50.2644 182.952L50.9289 183.337Z" fill="#C4B48C"/>
<path d="M298.999 -17.3607L298.897 19.1198L281.789 29.0599L281.894 -7.41762L298.999 -17.3607Z" fill="#A08E64"/>
<path d="M157.371 9.91137L157.269 46.3919L148.219 41.1651L148.323 4.69055L157.371 9.91137Z" fill="#A08E64"/>
<path d="M292.806 -1.11774L292.705 35.363L253.455 58.1687L253.563 21.6881L292.806 -1.11774Z" fill="#DFD09B"/>
<path d="M275.621 38.2786L257.193 48.9292V32.1532L275.621 21.5026V38.2786Z" fill="#A08E64"/>
<path d="M273.895 37.2966L257.193 46.9351V32.1528L273.895 22.5112V37.2966Z" fill="#F8F8F8"/>
<path d="M273.243 37.1525L257.845 46.0373V33.4269L273.243 24.5391V37.1525Z" fill="#43636B"/>
<path d="M265.89 41.5276L265.198 41.9275V28.8034L265.89 28.4034V41.5276Z" fill="#F8F8F8"/>
<path d="M291.406 29.1542L272.981 39.8048V23.0289L291.406 12.3782V29.1542Z" fill="#A08E64"/>
<path d="M289.68 28.1729L272.981 37.8146V23.029L289.68 13.3875V28.1729Z" fill="#F8F8F8"/>
<path d="M289.028 28.0294L273.634 36.9174V24.307L289.028 15.416V28.0294Z" fill="#43636B"/>
<path d="M281.678 32.4039L280.983 32.8038V19.6827L281.678 19.2797V32.4039Z" fill="#F8F8F8"/>
<path d="M266.493 29.1586L266.392 65.6394L228.523 87.6421L228.628 51.1646L266.493 29.1586Z" fill="#FFEBB2"/>
<path d="M228.628 51.1628L228.523 87.6404L213.095 78.731L213.197 42.2534L228.628 51.1628Z" fill="#A08E64"/>
<path d="M213.197 42.2534L213.095 78.731L158.712 110.338L158.814 73.8579L213.197 42.2534Z" fill="#DFD09B"/>
<path d="M25.7787 86.3879L25.671 122.862L16.6262 117.642L16.7308 81.1609L25.7787 86.3879Z" fill="#A08E64"/>
<path d="M136.377 104.773L136.273 141.25L123.339 133.784L123.444 97.3062L136.377 104.773Z" fill="#A08E64"/>
<path d="M187.345 85.2375L168.92 95.8881V79.1092L187.345 68.4615V85.2375Z" fill="#A08E64"/>
<path d="M185.622 84.2531L168.92 93.8976V79.1092L185.622 69.4707V84.2531Z" fill="#F8F8F8"/>
<path d="M184.967 84.1095L169.572 93.0003V80.3869L184.967 71.4991V84.1095Z" fill="#43636B"/>
<path d="M177.617 88.4841L176.922 88.887V75.7659L177.617 75.3629V88.4841Z" fill="#F8F8F8"/>
<path d="M209.907 72.2643L191.483 82.915V66.139L209.907 55.4884V72.2643Z" fill="#A08E64"/>
<path d="M208.182 71.2822L191.483 80.9207V66.1384L208.182 56.4937V71.2822Z" fill="#F8F8F8"/>
<path d="M207.529 71.1406L192.135 80.0254V67.415L207.529 58.5272V71.1406Z" fill="#43636B"/>
<path d="M200.18 75.51L199.481 75.91V62.7888L200.18 62.3859V75.51Z" fill="#F8F8F8"/>
<path d="M174.239 82.7675L174.138 119.245L136.272 141.251L136.377 104.773L174.239 82.7675Z" fill="#FFEBB2"/>
<path d="M123.444 97.3062L123.339 133.784L84.0928 156.593L84.1944 120.115L123.444 97.3062Z" fill="#FFEBB2"/>
<path d="M84.1943 120.115L84.0927 156.593L73.1775 150.289L73.2821 113.815L84.1943 120.115Z" fill="#A08E64"/>
<path d="M56.1925 123.744L56.0879 160.225L8.5874 132.798L8.68889 96.3179L56.1925 123.744Z" fill="#A08E64"/>
<path d="M298.999 -17.3616L281.894 -7.41851L292.806 -1.11801L253.563 21.6878L266.493 29.1574L228.628 51.1634L213.197 42.254L158.814 73.8584L174.239 82.7678L136.377 104.774L123.444 97.3072L84.1945 120.116L73.2823 113.815L56.1926 123.743L8.68896 96.3165L25.7787 86.3888L16.7308 81.1618L93.7468 36.4056L102.798 41.6294L157.371 9.91116L148.323 4.69034L225.342 -40.0691L234.39 -34.8453L251.498 -44.7852L298.999 -17.3616Z" fill="#FFEBB2"/>
<path d="M73.2822 113.815L73.1776 150.289L56.0879 160.223L56.1925 123.742L73.2822 113.815Z" fill="#FFEBB2"/>
<path d="M153.107 9.62557L153.101 12.0561L144.075 6.84147L144.081 4.41095L153.107 9.62557Z" fill="#232226"/>
<path d="M296.993 -1.39392L296.987 1.03641L257.738 23.8453L257.747 21.4149L296.993 -1.39392Z" fill="#45454C"/>
<path d="M270.677 28.879L270.671 31.3095L228.604 55.758L228.613 53.3277L270.677 28.879Z" fill="#45454C"/>
<path d="M228.612 53.3257L228.603 55.756L213.178 46.8498L213.184 44.4163L228.612 53.3257Z" fill="#232226"/>
<path d="M213.184 44.4163L213.178 46.8498L162.992 76.0145L162.998 73.581L213.184 44.4163Z" fill="#45454C"/>
<path d="M21.4964 86.1099L21.4872 88.5403L12.4578 83.3288L12.467 80.8983L21.4964 86.1099Z" fill="#232226"/>
<path d="M136.359 106.932L136.353 109.366L123.419 101.902L123.429 99.469L136.359 106.932Z" fill="#232226"/>
<path d="M178.426 82.4878L178.42 84.9213L136.353 109.367L136.359 106.933L178.426 82.4878Z" fill="#45454C"/>
<path d="M123.429 99.469L123.419 101.902L84.1545 124.72L84.1607 122.287L123.429 99.469Z" fill="#45454C"/>
<path d="M84.1607 122.287L84.1545 124.72L73.2393 118.417L73.2455 115.986L84.1607 122.287Z" fill="#232226"/>
<path d="M56.1587 125.917L56.1526 128.35L4.40039 98.4717L4.40659 96.0382L56.1587 125.917Z" fill="#232226"/>
<path d="M303.167 -17.6288L286.078 -7.69495L296.993 -1.39426L257.747 21.4146L270.677 28.878L228.613 53.3267L213.184 44.4172L162.998 73.582L178.426 82.4884L136.359 106.934L123.428 99.4705L84.1606 122.289L73.2453 115.988L56.1586 125.916L4.40649 96.0371L21.4962 86.1094L12.4668 80.8978L93.7067 33.6864L102.733 38.8981L153.107 9.62552L144.081 4.4109L225.299 -42.7911L234.329 -37.5766L251.415 -47.5073L303.167 -17.6288Z" fill="#6A6D75"/>
<path d="M73.2454 115.986L73.2392 118.417L56.1526 128.347L56.1587 125.914L73.2454 115.986Z" fill="#45454C"/>
<path d="M262.367 60.6852L243.943 71.336V54.5601L262.367 43.9093V60.6852Z" fill="#A08E64"/>
<path d="M260.642 59.7051L243.943 69.3468V54.5582L260.642 44.9165V59.7051Z" fill="#F8F8F8"/>
<path d="M259.986 59.5602L244.595 68.4512V55.8376L259.986 46.9466V59.5602Z" fill="#43636B"/>
<path d="M252.64 63.9346L251.944 64.3375V51.2134L252.64 50.8104V63.9346Z" fill="#F8F8F8"/>
<path d="M158.521 120.517L140.094 131.168V114.392L158.521 103.741V120.517Z" fill="#A08E64"/>
<path d="M156.796 119.536L140.094 129.178V114.39L156.796 104.748V119.536Z" fill="#F8F8F8"/>
<path d="M156.144 119.391L140.746 128.282V115.669L156.144 106.781V119.391Z" fill="#43636B"/>
<path d="M148.791 123.766L148.095 124.169V111.045L148.791 110.645V123.766Z" fill="#F8F8F8"/>
<path d="M233.341 60.5873V68.623L239.396 65.1251V57.0862L233.341 60.5873Z" fill="#A08E64"/>
<path d="M233.341 60.5895V67.25L238.199 64.4443V57.7836L233.341 60.5895Z" fill="#F8F8F8"/>
<path d="M233.341 61.7341V66.8873L237.75 64.346V59.19L233.341 61.7341Z" fill="#43636B"/>
<path d="M163.047 101.233V109.269L169.102 105.771V97.7322L163.047 101.233Z" fill="#A08E64"/>
<path d="M163.047 101.238V107.896L167.908 105.09V98.4325L163.047 101.238Z" fill="#F8F8F8"/>
<path d="M163.047 102.38V107.536L167.453 104.992V99.8389L163.047 102.38Z" fill="#43636B"/>
<path d="M104.976 136.352L86.551 147.003V130.227L104.976 119.576V136.352Z" fill="#A08E64"/>
<path d="M103.25 135.373L86.551 145.012V130.227L103.25 120.585V135.373Z" fill="#F8F8F8"/>
<path d="M102.598 135.227L87.2002 144.115V131.504L102.598 122.616V135.227Z" fill="#43636B"/>
<path d="M95.2483 139.601L94.553 140.001V126.88L95.2483 126.477V139.601Z" fill="#F8F8F8"/>
<path d="M120.764 127.231L102.336 137.878V121.102L120.764 110.452V127.231Z" fill="#A08E64"/>
<path d="M119.035 126.249L102.336 135.89V121.102L119.035 111.46V126.249Z" fill="#F8F8F8"/>
<path d="M118.383 126.102L102.989 134.993V122.379L118.383 113.491V126.102Z" fill="#43636B"/>
<path d="M111.033 130.476L110.338 130.879V117.755L111.033 117.352V130.476Z" fill="#F8F8F8"/>
<path d="M30.4766 136.352L48.9014 147.003V130.227L30.4766 119.576V136.352Z" fill="#706142"/>
<path d="M32.2024 135.373L40.5304 140.179L40.6473 149.227L48.9013 153.995V130.227L32.2024 120.585V135.373Z" fill="#A8A9A9"/>
<path d="M32.8547 135.227L40.5982 139.697L40.7182 148.852L48.2493 153.202V131.504L32.8547 122.616V135.227Z" fill="#233A3F"/>
<path d="M40.2043 149.055L40.9028 149.458V126.88L40.2043 126.477V149.055Z" fill="#A8A9A9"/>
<path d="M14.6912 127.231L33.1161 137.879V121.103L14.6912 110.452V127.231Z" fill="#706142"/>
<path d="M16.417 126.249L33.116 135.891V121.102L16.417 111.46V126.249Z" fill="#A8A9A9"/>
<path d="M17.0691 126.102L32.4637 134.993V122.379L17.0691 113.492V126.102Z" fill="#233A3F"/>
<path d="M24.4189 130.477L25.1142 130.88V117.756L24.4189 117.353V130.477Z" fill="#A8A9A9"/>
<path d="M51.5164 154.787L51.5134 155.753L47.0833 158.328L47.0863 157.362L51.5164 154.787Z" fill="#81795D"/>
<path d="M47.0862 157.362L47.0832 158.327L34.3066 158.447L34.3097 157.482L47.0862 157.362Z" fill="#7A7157"/>
<path d="M34.3097 157.483L34.3066 158.449L9.18433 143.943L9.18733 142.977L34.3097 157.483Z" fill="#665F47"/>
<path d="M51.5143 154.786L47.0842 157.361L34.3077 157.481L9.1853 142.975L9.33299 135.564L13.76 132.989L51.5143 154.786Z" fill="#8C8564"/>
<path d="M14.5282 126.024L14.5097 133.488L10.6118 135.755L10.6333 128.289L14.5282 126.024Z" fill="#FFEBB2"/>
<path d="M9.68276 135.259L9.66126 142.722L9.62427 135.576L9.64276 128.112L9.68276 135.259Z" fill="#827A5E"/>
<path d="M50.929 147.041L50.9105 154.504L46.6711 156.969L46.6895 149.502L50.929 147.041Z" fill="#FFEBB2"/>
<path d="M34.3497 149.501L34.3281 156.967L9.66113 142.723L9.68263 135.26L34.3497 149.501Z" fill="#897E62"/>
<path d="M46.6893 149.5L46.6709 156.967H34.3281L34.3497 149.5H46.6893Z" fill="#A69A76"/>
<path d="M50.9289 147.04L46.6895 149.501H34.3499L9.68282 135.26L9.64282 128.113L13.8822 125.649L14.5283 126.024L10.6334 128.289L10.8611 135.085L34.6482 148.821L46.3449 148.932L50.2644 146.655L50.9289 147.04Z" fill="#C4B48C"/>
<path d="M157.371 -26.3857L157.269 10.0951L148.219 4.87123L148.323 -31.6095L157.371 -26.3857Z" fill="#A08E64"/>
<path d="M292.806 -37.4144L292.705 -0.936829L253.455 21.872L253.563 -14.6055L292.806 -37.4144Z" fill="#DFD09B"/>
<path d="M275.621 1.98108L257.193 12.6287V-4.14723L275.621 -14.7979V1.98108Z" fill="#A08E64"/>
<path d="M273.895 0.999368L257.193 10.6409V-4.14765L273.895 -13.7892V0.999368Z" fill="#F8F8F8"/>
<path d="M273.243 0.852584L257.845 9.74359V-2.86981L273.243 -11.7578V0.852584Z" fill="#43636B"/>
<path d="M265.89 5.22717L265.198 5.63031V-7.49383L265.89 -7.89697V5.22717Z" fill="#F8F8F8"/>
<path d="M291.406 -7.14283L272.981 3.50798V-13.268L291.406 -23.9188V-7.14283Z" fill="#A08E64"/>
<path d="M289.68 -8.12478L272.981 1.51675V-13.2686L289.68 -22.9133V-8.12478Z" fill="#F8F8F8"/>
<path d="M289.028 -8.26851L273.634 0.619305V-11.9941L289.028 -20.8789V-8.26851Z" fill="#43636B"/>
<path d="M266.493 -7.14142L266.392 29.3393L228.523 51.3453L228.628 14.8677L266.493 -7.14142Z" fill="#FFEBB2"/>
<path d="M228.628 14.8664L228.523 51.3439L213.095 42.4375L213.197 5.95679L228.628 14.8664Z" fill="#A08E64"/>
<path d="M213.197 5.95679L213.095 42.4375L158.712 74.042L158.814 37.5645L213.197 5.95679Z" fill="#DFD09B"/>
<path d="M25.7787 50.0901L25.671 86.5677L16.6262 81.3439L16.7308 44.8693L25.7787 50.0901Z" fill="#A08E64"/>
<path d="M136.377 68.4748L136.273 104.955L123.339 97.4888L123.444 61.0112L136.377 68.4748Z" fill="#A08E64"/>
<path d="M187.345 48.9427L168.92 59.5934V42.8176L187.345 32.1668V48.9427Z" fill="#A08E64"/>
<path d="M185.622 47.9577L168.92 57.5994V42.8171L185.622 33.1754V47.9577Z" fill="#F8F8F8"/>
<path d="M184.967 47.8167L169.572 56.7015V44.0911L184.967 35.2031V47.8167Z" fill="#43636B"/>
<path d="M177.617 52.1887L176.922 52.5887V39.4675L177.617 39.0676V52.1887Z" fill="#F8F8F8"/>
<path d="M209.907 35.9645L191.483 46.6151V29.8392L209.907 19.1885V35.9645Z" fill="#A08E64"/>
<path d="M208.182 34.9842L191.483 44.6227V29.8371L208.182 20.1956V34.9842Z" fill="#F8F8F8"/>
<path d="M207.529 34.839L192.135 43.73V31.1166L207.529 22.2256V34.839Z" fill="#43636B"/>
<path d="M200.18 39.2137L199.481 39.6168V26.4927L200.18 26.0895V39.2137Z" fill="#F8F8F8"/>
<path d="M174.239 46.4708L174.138 82.9516L136.272 104.954L136.377 68.4738L174.239 46.4708Z" fill="#FFEBB2"/>
<path d="M123.444 61.0112L123.339 97.4888L84.0928 120.295L84.1944 83.8201L123.444 61.0112Z" fill="#FFEBB2"/>
<path d="M84.1943 83.8183L84.0927 120.293L73.1775 113.992L73.2821 77.5146L84.1943 83.8183Z" fill="#A08E64"/>
<path d="M56.1925 87.4463L56.0879 123.924L8.5874 96.4973L8.68889 60.0195L56.1925 87.4463Z" fill="#A08E64"/>
<path d="M298.999 -53.6587L281.894 -43.7156L292.806 -37.4149L253.563 -14.606L266.493 -7.14263L228.628 14.8665L213.197 5.95691L158.814 37.5646L174.239 46.4708L136.377 68.4737L123.444 61.0102L84.1945 83.819L73.2823 77.5153L56.1926 87.4462L8.68896 60.0195L25.7787 50.0888L16.7308 44.868L93.7468 0.108559L102.798 5.33238L157.371 -26.3859L148.323 -31.6097L225.342 -76.3659L234.39 -71.1421L251.498 -81.0852L298.999 -53.6587Z" fill="#FFEBB2"/>
<path d="M73.2822 77.5146L73.1776 113.992L56.0879 123.923L56.1925 87.4455L73.2822 77.5146Z" fill="#FFEBB2"/>
<path d="M270.677 -7.41846L270.671 -4.98493L228.604 19.4606L228.613 17.03L270.677 -7.41846Z" fill="#45454C"/>
<path d="M228.612 17.03L228.603 19.4605L213.178 10.5511L213.184 8.12054L228.612 17.03Z" fill="#232226"/>
<path d="M213.184 8.12054L213.178 10.5511L162.992 39.7188L162.998 37.2855L213.184 8.12054Z" fill="#45454C"/>
<path d="M21.4964 49.814L21.4872 52.2445L12.4578 47.0329L12.467 44.6025L21.4964 49.814Z" fill="#232226"/>
<path d="M136.359 70.6399L136.353 73.0734L123.419 65.6037L123.429 63.1733L136.359 70.6399Z" fill="#232226"/>
<path d="M178.426 46.1921L178.42 48.6256L136.353 73.0743L136.359 70.6408L178.426 46.1921Z" fill="#45454C"/>
<path d="M123.429 63.1733L123.419 65.6037L84.1545 88.4219L84.1607 85.9914L123.429 63.1733Z" fill="#45454C"/>
<path d="M84.1607 85.9942L84.1545 88.4248L73.2393 82.1241L73.2455 79.6937L84.1607 85.9942Z" fill="#232226"/>
<path d="M56.1587 89.6196L56.1526 92.0531L4.40039 62.1745L4.40659 59.7441L56.1587 89.6196Z" fill="#232226"/>
<path d="M303.167 -53.9244L286.078 -43.9937L296.993 -37.69L257.747 -14.8841L270.677 -7.41755L228.613 17.0309L213.184 8.12153L162.998 37.2865L178.426 46.1927L136.359 70.6414L123.428 63.1748L84.1606 85.9929L73.2453 79.6924L56.1586 89.62L4.40649 59.7446L21.4962 49.8137L12.4668 44.6023L93.7067 -2.61209L102.733 2.59933L153.107 -26.6732L144.081 -31.8878L225.299 -79.0836L234.329 -73.8722L251.415 -83.803L303.167 -53.9244Z" fill="#6A6D75"/>
<path d="M73.2454 79.6937L73.2392 82.1241L56.1526 92.0549L56.1587 89.6214L73.2454 79.6937Z" fill="#45454C"/>
<path d="M262.367 24.3895L243.943 35.0401V18.2641L262.367 7.61353V24.3895Z" fill="#A08E64"/>
<path d="M260.642 23.4057L243.943 33.0474V18.2618L260.642 8.6203V23.4057Z" fill="#F8F8F8"/>
<path d="M259.986 23.2638L244.595 32.1518V19.5383L259.986 10.6534V23.2638Z" fill="#43636B"/>
<path d="M252.64 27.6384L251.944 28.0383V14.9142L252.64 14.5142V27.6384Z" fill="#F8F8F8"/>
<path d="M158.522 84.2241L140.094 94.8749V78.0958L158.522 67.4452V84.2241Z" fill="#A08E64"/>
<path d="M156.796 83.2402L140.094 92.8818V78.0962L156.796 68.4577V83.2402Z" fill="#F8F8F8"/>
<path d="M156.144 83.0959L140.746 91.9839V79.3703L156.144 70.4855V83.0959Z" fill="#43636B"/>
<path d="M148.791 87.4711L148.096 87.8708V74.7499L148.791 74.3499V87.4711Z" fill="#F8F8F8"/>
<path d="M233.341 24.2883V32.3272L239.396 28.8292V20.7905L233.341 24.2883Z" fill="#A08E64"/>
<path d="M233.341 24.2932V30.9506L238.199 28.148V21.4875L233.341 24.2932Z" fill="#F8F8F8"/>
<path d="M233.341 25.4377V30.5908L237.75 28.0466V22.8934L233.341 25.4377Z" fill="#43636B"/>
<path d="M163.047 64.9375V72.9732L169.102 69.4754V61.4365L163.047 64.9375Z" fill="#A08E64"/>
<path d="M163.047 64.9381V71.5988L167.908 68.7931V62.1356L163.047 64.9381Z" fill="#F8F8F8"/>
<path d="M163.047 66.0842V71.2404L167.453 68.6961V63.5401L163.047 66.0842Z" fill="#43636B"/>
<path d="M104.976 100.057L86.551 110.707V93.9314L104.976 83.2808V100.057Z" fill="#A08E64"/>
<path d="M103.25 99.0745L86.551 108.716V93.9307L103.25 84.2892V99.0745Z" fill="#F8F8F8"/>
<path d="M102.598 98.9303L87.2002 107.818V95.2079L102.598 86.3169V98.9303Z" fill="#43636B"/>
<path d="M95.2483 103.306L94.553 103.709V90.5845L95.2483 90.1814V103.306Z" fill="#F8F8F8"/>
<path d="M120.764 90.9323L102.336 101.583V84.807L120.764 74.1564V90.9323Z" fill="#A08E64"/>
<path d="M119.035 89.9508L102.336 99.5956V84.807L119.035 75.1655V89.9508Z" fill="#F8F8F8"/>
<path d="M118.383 89.8072L102.989 98.6982V86.0848L118.383 77.1938V89.8072Z" fill="#43636B"/>
<path d="M111.033 94.1818L110.338 94.5849V81.4608L111.033 81.0576V94.1818Z" fill="#F8F8F8"/>
<path d="M30.4766 100.057L48.9014 110.707V93.9314L30.4766 83.2808V100.057Z" fill="#706142"/>
<path d="M32.2024 99.0745L40.5304 103.88L40.6473 112.934L48.9013 117.696V93.9307L32.2024 84.2892V99.0745Z" fill="#A8A9A9"/>
<path d="M32.8547 98.9303L40.5982 103.4L40.7182 112.559L48.2493 116.906V95.2079L32.8547 86.3169V98.9303Z" fill="#233A3F"/>
<path d="M40.2043 112.759L40.9028 113.159V90.5845L40.2043 90.1814V112.759Z" fill="#A8A9A9"/>
<path d="M14.6912 90.9321L33.1161 101.583V84.8067L14.6912 74.1561V90.9321Z" fill="#706142"/>
<path d="M16.417 89.9506L33.116 99.5953V84.8068L16.417 75.1652V89.9506Z" fill="#A8A9A9"/>
<path d="M17.0691 89.8069L32.4637 98.698V86.0846L17.0691 77.1935V89.8069Z" fill="#233A3F"/>
<path d="M24.4189 94.1815L25.1142 94.5847V81.4605L24.4189 81.0574V94.1815Z" fill="#A8A9A9"/>
<path d="M51.5164 118.489L51.5134 119.455L47.0833 122.03L47.0863 121.061L51.5164 118.489Z" fill="#81795D"/>
<path d="M47.0862 121.062L47.0832 122.031L34.3066 122.151L34.3097 121.185L47.0862 121.062Z" fill="#7A7157"/>
<path d="M34.3097 121.184L34.3066 122.15L9.18433 107.645L9.18733 106.679L34.3097 121.184Z" fill="#665F47"/>
<path d="M51.5143 118.492L47.0842 121.064L34.3077 121.187L9.1853 106.681L9.33299 99.2703L13.76 96.6952L51.5143 118.492Z" fill="#8C8564"/>
<path d="M14.5282 89.7286L14.5097 97.189L10.6118 99.4564L10.6333 91.9928L14.5282 89.7286Z" fill="#FFEBB2"/>
<path d="M9.68276 98.9676L9.66126 106.428L9.62427 99.2814L9.64276 91.8148L9.68276 98.9676Z" fill="#827A5E"/>
<path d="M50.929 110.745L50.9105 118.206L46.6711 120.67L46.6895 113.206L50.929 110.745Z" fill="#FFEBB2"/>
<path d="M34.3497 113.206L34.3281 120.669L9.66113 106.428L9.68263 98.9678L34.3497 113.206Z" fill="#897E62"/>
<path d="M46.6893 113.205L46.6709 120.669H34.3281L34.3497 113.205H46.6893Z" fill="#A69A76"/>
<path d="M50.9289 110.745L46.6895 113.206H34.3499L9.68282 98.9679L9.64282 91.8151L13.8822 89.3569L14.5283 89.7293L10.6334 91.9934L10.8611 98.7895L34.6482 112.526L46.3449 112.637L50.2644 110.36L50.9289 110.745Z" fill="#C4B48C"/>
<path d="M266.493 -43.4363L266.392 -6.95573L228.523 15.0472L228.628 -21.4273L266.493 -43.4363Z" fill="#FFEBB2"/>
<path d="M228.628 -21.4287L228.523 15.0459L213.095 6.13947L213.197 -30.3381L228.628 -21.4287Z" fill="#A08E64"/>
<path d="M213.197 -30.3381L213.095 6.13947L158.712 37.7439L158.814 1.26941L213.197 -30.3381Z" fill="#DFD09B"/>
<path d="M25.7787 13.7949L25.671 50.2726L16.6262 45.0488L16.7308 8.57104L25.7787 13.7949Z" fill="#A08E64"/>
<path d="M136.377 32.1829L136.273 68.6605L123.339 61.1907L123.444 24.7164L136.377 32.1829Z" fill="#A08E64"/>
<path d="M187.345 12.6432L168.92 23.294V6.51812L187.345 -4.13269V12.6432Z" fill="#A08E64"/>
<path d="M185.622 11.6647L168.92 21.3032V6.51788L185.622 -3.12384V11.6647Z" fill="#F8F8F8"/>
<path d="M184.967 11.5181L169.572 20.4059V7.79547L184.967 -1.09235V11.5181Z" fill="#43636B"/>
<path d="M177.617 15.8925L176.922 16.2955V3.17133L177.617 2.76837V15.8925Z" fill="#F8F8F8"/>
<path d="M209.907 -0.329903L191.483 10.3207V-6.45522L209.907 -17.1058V-0.329903Z" fill="#A08E64"/>
<path d="M208.182 -1.31285L191.483 8.32887V-6.45667L208.182 -16.0982V-1.31285Z" fill="#F8F8F8"/>
<path d="M207.529 -1.45526L192.135 7.43255V-5.17785L207.529 -14.0687V-1.45526Z" fill="#43636B"/>
<path d="M200.18 2.91986L199.481 3.31981V-9.80133L200.18 -10.2043V2.91986Z" fill="#F8F8F8"/>
<path d="M174.239 10.176L174.138 46.6536L136.272 68.6595L136.377 32.182L174.239 10.176Z" fill="#FFEBB2"/>
<path d="M123.444 24.7164L123.339 61.1907L84.0928 83.9996L84.1944 47.522L123.444 24.7164Z" fill="#FFEBB2"/>
<path d="M84.1943 47.5202L84.0927 83.9978L73.1775 77.6973L73.2821 41.2197L84.1943 47.5202Z" fill="#A08E64"/>
<path d="M56.1925 51.1512L56.0879 87.6287L8.5874 60.2021L8.68889 23.7246L56.1925 51.1512Z" fill="#A08E64"/>
<path d="M298.999 -89.9533L281.894 -80.0102L292.806 -73.7097L253.563 -50.9009L266.493 -43.4373L228.628 -21.4284L213.197 -30.3378L158.814 1.26972L174.239 10.1761L136.377 32.1821L123.444 24.7155L84.1945 47.5212L73.2823 41.2207L56.1926 51.1514L8.68896 23.7248L25.7787 13.7939L16.7308 8.57011L93.7468 -36.1861L102.798 -30.9653L157.371 -62.6776L148.323 -67.9044L225.342 -112.661L234.39 -107.437L251.498 -117.38L298.999 -89.9533Z" fill="#E2D6A1"/>
<path d="M73.2822 41.2197L73.1776 77.6973L56.0879 87.628L56.1925 51.1504L73.2822 41.2197Z" fill="#FFEBB2"/>
<path d="M213.184 -28.1783L213.178 -25.745L162.992 3.41994L162.998 0.989416L213.184 -28.1783Z" fill="#45454C"/>
<path d="M21.4964 13.5136L21.4872 15.947L12.4578 10.7355L12.467 8.302L21.4964 13.5136Z" fill="#232226"/>
<path d="M136.359 34.3459L136.353 36.7763L123.419 29.3097L123.429 26.8762L136.359 34.3459Z" fill="#232226"/>
<path d="M178.426 9.89496L178.42 12.3253L136.353 36.774L136.359 34.3436L178.426 9.89496Z" fill="#45454C"/>
<path d="M123.429 26.8762L123.419 29.3097L84.1545 52.1277L84.1607 49.6974L123.429 26.8762Z" fill="#45454C"/>
<path d="M84.1607 49.6952L84.1545 52.1255L73.2393 45.825L73.2455 43.3915L84.1607 49.6952Z" fill="#232226"/>
<path d="M56.1587 53.327L56.1526 55.7573L4.40039 25.8788L4.40659 23.4453L56.1587 53.327Z" fill="#232226"/>
<path d="M303.167 -90.2247L286.078 -80.2909L296.993 -73.9903L257.747 -51.1815L270.677 -43.7149L228.613 -19.2692L213.184 -28.1787L162.998 0.989105L178.426 9.89551L136.359 34.3442L123.428 26.8744L84.1606 49.6957L73.2453 43.392L56.1586 53.3259L4.40649 23.4442L21.4962 13.5135L12.4668 8.30188L93.7067 -38.9095L102.733 -33.6948L153.107 -62.9704L144.081 -68.182L225.299 -115.381L234.329 -110.169L251.415 -120.1L303.167 -90.2247Z" fill="#6A6D75"/>
<path d="M73.2454 43.3915L73.2392 45.825L56.1526 55.7557L56.1587 53.3254L73.2454 43.3915Z" fill="#45454C"/>
<path d="M158.522 47.9269L140.094 58.5776V41.7986L158.522 31.148V47.9269Z" fill="#A08E64"/>
<path d="M156.796 46.9423L140.094 56.584V41.7985L156.796 32.1569V46.9423Z" fill="#F8F8F8"/>
<path d="M156.144 46.7989L140.746 55.6867V43.0763L156.144 34.1885V46.7989Z" fill="#43636B"/>
<path d="M148.791 51.1703L148.096 51.5732V38.4521L148.791 38.0491V51.1703Z" fill="#F8F8F8"/>
<path d="M163.047 28.6376V36.6795L169.102 33.1785V25.1428L163.047 28.6376Z" fill="#A08E64"/>
<path d="M163.047 28.6418V35.2993L167.908 32.4966V25.8361L163.047 28.6418Z" fill="#F8F8F8"/>
<path d="M163.047 29.7867V34.9397L167.453 32.3956V27.2424L163.047 29.7867Z" fill="#43636B"/>
<path d="M104.976 63.7593L86.551 74.4101V57.6342L104.976 46.9834V63.7593Z" fill="#A08E64"/>
<path d="M103.25 62.7795L86.551 72.4211V57.6357L103.25 47.991V62.7795Z" fill="#F8F8F8"/>
<path d="M102.598 62.6357L87.2002 71.5236V58.9102L102.598 50.0222V62.6357Z" fill="#43636B"/>
<path d="M95.2483 67.006L94.553 67.409V54.2848L95.2483 53.8849V67.006Z" fill="#F8F8F8"/>
<path d="M120.764 54.6348L102.336 65.2856V48.5096L120.764 37.859V54.6348Z" fill="#A08E64"/>
<path d="M119.035 53.6548L102.336 63.2963V48.5109L119.035 38.8662V53.6548Z" fill="#F8F8F8"/>
<path d="M118.383 53.5084L102.989 62.3962V49.7828L118.383 40.898V53.5084Z" fill="#43636B"/>
<path d="M111.033 57.8826L110.338 58.2825V45.1584L111.033 44.7584V57.8826Z" fill="#F8F8F8"/>
<path d="M30.4766 63.761L48.9014 74.4118V57.6359L30.4766 46.9851V63.761Z" fill="#706142"/>
<path d="M32.2024 62.781L40.5304 67.5864L40.6473 76.6372L48.9013 81.4059V57.6372L32.2024 47.9924V62.781Z" fill="#A8A9A9"/>
<path d="M32.8547 62.6379L40.5982 67.1049L40.7182 76.2666L48.2493 80.6137V58.9124L32.8547 50.0244V62.6379Z" fill="#233A3F"/>
<path d="M40.2043 76.4614L40.9028 76.8644V54.2863L40.2043 53.8864V76.4614Z" fill="#A8A9A9"/>
<path d="M14.6912 54.6347L33.1161 65.2855V48.5096L14.6912 37.8589V54.6347Z" fill="#706142"/>
<path d="M16.417 53.6547L33.116 63.2962V48.5109L16.417 38.8661V53.6547Z" fill="#A8A9A9"/>
<path d="M17.0691 53.5083L32.4637 62.3962V49.7828L17.0691 40.8979V53.5083Z" fill="#233A3F"/>
<path d="M24.4189 57.8825L25.1142 58.2825V45.1583L24.4189 44.7584V57.8825Z" fill="#A8A9A9"/>
<path d="M51.5164 82.1946L51.5134 83.1607L47.0833 85.7326L47.0863 84.7665L51.5164 82.1946Z" fill="#81795D"/>
<path d="M47.0862 84.7672L47.0832 85.7333L34.3066 85.8533L34.3097 84.8872L47.0862 84.7672Z" fill="#7A7157"/>
<path d="M34.3097 84.8868L34.3066 85.8529L9.18433 71.3505L9.18733 70.3844L34.3097 84.8868Z" fill="#665F47"/>
<path d="M51.5143 82.1947L47.0842 84.7666L34.3077 84.8866L9.1853 70.3842L9.33299 62.97L13.76 60.3981L51.5143 82.1947Z" fill="#8C8564"/>
<path d="M14.5282 53.4333L14.5097 60.8969L10.6118 63.1613L10.6333 55.6977L14.5282 53.4333Z" fill="#DFD09B"/>
<path d="M9.68276 62.6679L9.66126 70.1345L9.62427 62.9817L9.64276 55.5213L9.68276 62.6679Z" fill="#827A5E"/>
<path d="M50.929 74.45L50.9105 81.9136L46.6711 84.3747L46.6895 76.9113L50.929 74.45Z" fill="#DFD09B"/>
<path d="M34.3497 76.9101L34.3281 84.3735L9.66113 70.1356L9.68263 62.6691L34.3497 76.9101Z" fill="#897E62"/>
<path d="M46.6893 76.9097L46.6709 84.373H34.3281L34.3497 76.9097H46.6893Z" fill="#A69A76"/>
<path d="M50.9289 74.4488L46.6895 76.9102H34.3499L9.68282 62.6692L9.64282 55.5225L13.8822 53.0582L14.5283 53.4336L10.6334 55.6979L10.8611 62.4938L34.6482 76.2302L46.3449 76.3378L50.2644 74.0613L50.9289 74.4488Z" fill="#C4B48C"/>
<path d="M213.197 -66.6416L213.095 -30.1609L158.712 1.44342L158.814 -35.0341L213.197 -66.6416Z" fill="#DFD09B"/>
<path d="M25.7787 -22.5052L25.671 13.9723L16.6262 8.74847L16.7308 -27.7291L25.7787 -22.5052Z" fill="#A08E64"/>
<path d="M136.377 -4.11588L136.273 32.3587L123.339 24.8921L123.444 -11.5854L136.377 -4.11588Z" fill="#A08E64"/>
<path d="M174.239 -26.1276L174.138 10.3532L136.272 32.3559L136.377 -4.11861L174.239 -26.1276Z" fill="#FFEBB2"/>
<path d="M123.444 -11.5854L123.339 24.8921L84.0928 47.701L84.1944 11.2234L123.444 -11.5854Z" fill="#FFEBB2"/>
<path d="M84.1943 11.2203L84.0927 47.6978L73.1775 41.3973L73.2821 4.91962L84.1943 11.2203Z" fill="#A08E64"/>
<path d="M56.1925 14.8511L56.0879 51.3287L8.5874 23.9021L8.68889 -12.5754L56.1925 14.8511Z" fill="#A08E64"/>
<path d="M298.999 -126.254L281.894 -116.314L292.806 -110.01L253.563 -87.204L266.493 -79.7344L228.628 -57.7317L213.197 -66.6411L158.814 -35.0336L174.239 -26.1272L136.377 -4.11823L123.444 -11.5878L84.1945 11.2211L73.2823 4.92036L56.1926 14.8513L8.68896 -12.5753L25.7787 -22.5062L16.7308 -27.73L93.7468 -72.4894L102.798 -67.2656L157.371 -98.9807L148.323 -104.201L225.342 -148.961L234.39 -143.74L251.498 -153.68L298.999 -126.254Z" fill="#E2D6A1"/>
<path d="M73.2822 4.91962L73.1776 41.3973L56.0879 51.328L56.1925 14.8505L73.2822 4.91962Z" fill="#FFEBB2"/>
<path d="M123.429 -9.42255L123.419 -6.99221L84.1545 15.829L84.1607 13.3955L123.429 -9.42255Z" fill="#45454C"/>
<path d="M84.1607 13.3933L84.1545 15.8268L73.2393 9.52311L73.2455 7.09277L84.1607 13.3933Z" fill="#232226"/>
<path d="M56.1587 17.0251L56.1526 19.4586L4.40039 -10.4201L4.40659 -12.8534L56.1587 17.0251Z" fill="#232226"/>
<path d="M303.167 -126.52L286.078 -116.593L296.993 -110.289L257.747 -87.4832L270.677 -80.0136L228.613 -55.5681L213.184 -64.4744L162.998 -35.3128L178.426 -26.4032L136.359 -1.95772L123.428 -9.42429L84.1606 13.3938L73.2453 7.09328L56.1586 17.024L4.40649 -12.8545L21.4962 -22.7854L12.4668 -27.9968L93.7067 -75.2082L102.733 -69.9935L153.107 -99.2693L144.081 -104.481L225.299 -151.683L234.329 -146.471L251.415 -156.399L303.167 -126.52Z" fill="#6A6D75"/>
<path d="M73.2454 7.09277L73.2392 9.52311L56.1526 19.457L56.1587 17.0235L73.2454 7.09277Z" fill="#45454C"/>
<path d="M158.522 11.6252L140.094 22.276V5.50011L158.522 -5.1507V11.6252Z" fill="#A08E64"/>
<path d="M156.796 10.6455L140.094 20.2871V5.50171L156.796 -4.14001V10.6455Z" fill="#F8F8F8"/>
<path d="M156.144 10.4998L140.746 19.3876V6.77724L156.144 -2.11377V10.4998Z" fill="#43636B"/>
<path d="M148.791 14.8746L148.096 15.2746V2.15345L148.791 1.75049V14.8746Z" fill="#F8F8F8"/>
<path d="M104.976 27.4593L86.551 38.1099V21.334L104.976 10.6833V27.4593Z" fill="#A08E64"/>
<path d="M103.25 26.4803L86.551 36.122V21.3335L103.25 11.692V26.4803Z" fill="#F8F8F8"/>
<path d="M102.598 26.3336L87.2002 35.2246V22.611L102.598 13.7232V26.3336Z" fill="#43636B"/>
<path d="M95.2483 30.7083L94.553 31.1113V17.9871L95.2483 17.5842V30.7083Z" fill="#F8F8F8"/>
<path d="M120.764 18.3379L102.336 28.9855V12.2096L120.764 1.55896V18.3379Z" fill="#A08E64"/>
<path d="M119.035 17.3572L102.336 26.9987V12.2102L119.035 2.57166V17.3572Z" fill="#F8F8F8"/>
<path d="M118.383 17.2101L102.989 26.1011V13.4875L118.383 4.59967V17.2101Z" fill="#43636B"/>
<path d="M111.033 21.585L110.338 21.988V8.86382L111.033 8.46387V21.585Z" fill="#F8F8F8"/>
<path d="M30.4766 27.4592L48.9014 38.1098V21.3339L30.4766 10.6833V27.4592Z" fill="#706142"/>
<path d="M32.2024 26.4803L40.5304 31.2857L40.6473 40.3367L48.9013 45.1022V21.3334L32.2024 11.6919V26.4803Z" fill="#A8A9A9"/>
<path d="M32.8547 26.3335L40.5982 30.8036L40.7182 39.9622L48.2493 44.3123V22.611L32.8547 13.7231V26.3335Z" fill="#233A3F"/>
<path d="M40.2043 40.1622L40.9028 40.5652V17.9871L40.2043 17.5841V40.1622Z" fill="#A8A9A9"/>
<path d="M14.6912 18.3375L33.1161 28.9851V12.2092L14.6912 1.55853V18.3375Z" fill="#706142"/>
<path d="M16.417 17.3568L33.116 26.9983V12.2098L16.417 2.57123V17.3568Z" fill="#A8A9A9"/>
<path d="M17.0691 17.2096L32.4637 26.1006V13.4871L17.0691 4.59924V17.2096Z" fill="#233A3F"/>
<path d="M24.4189 21.5846L25.1142 21.9875V8.86339L24.4189 8.46344V21.5846Z" fill="#A8A9A9"/>
<path d="M51.5164 45.8959L51.5134 46.8588L47.0833 49.4339L47.0863 48.4678L51.5164 45.8959Z" fill="#81795D"/>
<path d="M47.0862 48.4686L47.0832 49.4347L34.3066 49.5545L34.3097 48.5916L47.0862 48.4686Z" fill="#7A7157"/>
<path d="M34.3097 48.5912L34.3066 49.5541L9.18433 35.0487L9.18733 34.0858L34.3097 48.5912Z" fill="#665F47"/>
<path d="M51.5143 45.8962L47.0842 48.4681L34.3077 48.5911L9.1853 34.0857L9.33299 26.6745L13.76 24.0994L51.5143 45.8962Z" fill="#8C8564"/>
<path d="M14.5282 17.1313L14.5097 24.5977L10.6118 26.8621L10.6333 19.3955L14.5282 17.1313Z" fill="#DFD09B"/>
<path d="M9.68276 26.3693L9.66126 33.8327L9.62427 26.6831L9.64276 19.2227L9.68276 26.3693Z" fill="#827A5E"/>
<path d="M50.929 38.148L50.9105 45.6146L46.6711 48.0757L46.6895 40.6121L50.929 38.148Z" fill="#DFD09B"/>
<path d="M34.3497 40.6113L34.3281 48.0749L9.66113 33.8339L9.68263 26.3705L34.3497 40.6113Z" fill="#897E62"/>
<path d="M46.6893 40.6111L46.6709 48.0746H34.3281L34.3497 40.6111H46.6893Z" fill="#A69A76"/>
<path d="M50.9289 38.1473L46.6895 40.6114H34.3499L9.68282 26.3706L9.64282 19.224L13.8822 16.7596L14.5283 17.132L10.6334 19.3962L10.8611 26.192L34.6482 39.9285L46.3449 40.0392L50.2644 37.7627L50.9289 38.1473Z" fill="#C4B48C"/>
<path d="M123.444 -47.9191L123.339 -11.4386L84.0928 11.3673L84.1944 -25.1103L123.444 -47.9191Z" fill="#FFEBB2"/>
<path d="M84.1943 -25.11L84.0927 11.3676L73.1775 5.06689L73.2821 -31.4106L84.1943 -25.11Z" fill="#A08E64"/>
<path d="M56.1925 -21.4792L56.0879 14.9983L8.5874 -12.4282L8.68889 -48.9058L56.1925 -21.4792Z" fill="#A08E64"/>
<path d="M73.2822 -31.4106L73.1776 5.0669L56.0879 14.9978L56.1925 -21.4798L73.2822 -31.4106Z" fill="#FFEBB2"/>
<path d="M104.976 -8.86958L86.551 1.78104V-14.9949L104.976 -25.6455V-8.86958Z" fill="#A08E64"/>
<path d="M30.4766 -8.8711L48.9014 1.77952V-14.9964L30.4766 -25.647V-8.8711Z" fill="#706142"/>
<path d="M32.2024 -9.85388L40.5304 -5.04541L40.6473 4.00558L48.9013 8.77105V-14.9947L32.2024 -24.6362V-9.85388Z" fill="#A8A9A9"/>
<path d="M32.8547 -9.99475L40.5982 -5.52465L40.7182 3.63093L48.2493 7.97804V-13.7171L32.8547 -22.6082V-9.99475Z" fill="#233A3F"/>
<path d="M40.2043 3.83236L40.9028 4.23232V-18.3426L40.2043 -18.7457V3.83236Z" fill="#A8A9A9"/>
<path d="M51.5164 9.5639L51.5134 10.5268L47.0833 13.1017L47.0863 12.1388L51.5164 9.5639Z" fill="#81795D"/>
<path d="M47.0862 12.1384L47.0832 13.1013L34.3066 13.2212L34.3097 12.2584L47.0862 12.1384Z" fill="#7A7157"/>
<path d="M34.3097 12.2592L34.3066 13.2221L9.18433 -1.28032L9.18733 -2.24622L34.3097 12.2592Z" fill="#665F47"/>
<path d="M51.5143 9.56441L47.0842 12.1393L34.3077 12.2593L9.1853 -2.24608L9.33299 -9.65725L13.76 -12.2324L51.5143 9.56441Z" fill="#8C8564"/>
<path d="M50.929 1.81598L50.9105 9.27936L46.6711 11.7437L46.6895 4.28011L50.929 1.81598Z" fill="#DFD09B"/>
<path d="M34.3497 4.27927L34.3281 11.7428L9.66113 -2.49817L9.68263 -9.96155L34.3497 4.27927Z" fill="#897E62"/>
<path d="M46.6893 4.27905L46.6709 11.7426H34.3281L34.3497 4.27905H46.6893Z" fill="#A69A76"/>
<path d="M50.9289 1.81523L46.6895 4.27936H34.3499L9.68282 -9.96146L9.64282 -17.1081L13.8822 -19.5724L14.5283 -19.2002L10.6334 -16.9329L10.8611 -10.1368L34.6482 3.59944L46.3449 3.71022L50.2644 1.43067L50.9289 1.81523Z" fill="#C4B48C"/>
</svg>
