<svg width="294" height="328" viewBox="0 0 294 328" fill="none" xmlns="http://www.w3.org/2000/svg">
<path d="M60.5211 295.821L91.4374 313.889L152.811 278.822L153.269 278.556L184.482 189.72L184.586 189.422L246.418 154.089L246.611 153.544L277.912 64.3374L293.394 73.3872L291.788 0.313477L231.562 37.2523L246.113 45.7562L215.502 134.416L214.506 134.986L152.868 170.552L152.787 170.776L122.354 260.488L121.726 260.85L60.5211 295.821Z" fill="#1FA1FF"/>
<path d="M152.787 170.776L184.482 189.721L184.586 189.423L246.418 154.089L246.611 153.545L214.506 134.986L152.868 170.553L152.787 170.776Z" fill="#87D1FF"/>
<path d="M0.924972 327.535L67.592 327.535L152.811 278.821L121.726 260.85L0.924972 327.535Z" fill="#87D1FF"/>
</svg>
