<svg width="293" height="548" viewBox="0 0 293 548" fill="none" xmlns="http://www.w3.org/2000/svg">
<path d="M234.783 226.944C234.783 226.944 244.867 232.788 250.134 237.221C255.403 241.652 266.214 253.848 273.945 257.582C281.674 261.318 286.345 266.737 284.102 277.2C281.861 287.659 267.133 280.373 264.035 276.824C260.937 273.275 251.13 262.907 247.207 259.171C243.284 255.435 236.134 248.926 233.701 244.442C231.276 239.958 234.783 226.944 234.783 226.944Z" fill="#3B5770"/>
<path d="M254.899 66.7259L207.93 0.884766L164.441 118.95L187.059 105.895V334.349L232.281 308.239V79.7843L254.899 66.7259Z" fill="#EC2121"/>
<path d="M187.059 374.608L204.465 384.283V115.569L187.059 105.893V374.608Z" fill="#EC2121"/>
<path d="M272.302 76.4055L225.34 10.5615L181.851 128.624L204.465 115.572V384.286L249.688 358.175V89.4577L272.302 76.4055Z" fill="#FF5F5F"/>
<path d="M225.339 10.5605L207.93 0.884766L164.441 118.95L181.851 128.623L225.339 10.5605Z" fill="#FF2F2F"/>
<path d="M225.148 446.291C227.236 444.985 240.779 448.745 240.779 448.745L255.38 453.645L254.26 464.641C254.26 464.641 249.071 470.193 241.874 465.346C237.588 462.456 229.295 458.736 226.181 454.249C223.919 450.986 223.057 447.597 225.148 446.291Z" fill="black"/>
<path d="M261.26 424.968C263.352 423.662 276.894 427.424 276.894 427.424L291.495 432.325L290.376 443.317C290.376 443.317 285.184 448.87 277.989 444.025C273.703 441.136 265.41 437.413 262.294 432.926C260.034 429.665 259.175 426.273 261.26 424.968Z" fill="black"/>
<path d="M279.944 324.369C279.944 324.369 286.663 330.952 287.699 344.786C288.169 351.014 284.848 377.565 284.848 377.565C284.848 377.565 289.959 391.298 291.222 400.145C292.726 410.654 292.357 431.17 292.357 431.17C291.495 433.907 288.645 436.498 282.959 436.076C277.111 435.643 272.987 428.147 272.987 428.147C272.987 428.147 270.963 411.13 269.061 399.857C267.979 393.439 266.752 389.188 266.143 383.852C265.9 377.715 265.277 362.794 265.277 362.794C265.277 362.794 258.256 390.694 256.039 399.224C260.368 413.44 256.52 452.121 256.114 455.2C247.448 462.032 242.109 455.572 238.528 449.974C238.736 441.375 237.364 426.205 237.046 414.182C236.792 404.701 236.947 400.73 236.792 397.541C236.49 391.351 239.308 372.731 240.736 358.473C242.4 341.853 242.737 329.835 242.737 329.835L279.944 324.369Z" fill="#2A3D4F"/>
<path d="M242.08 277.939C242.216 287.505 243.912 303.996 243.722 309.137C243.383 318.134 240.76 337.627 239.31 344.633C242.398 347.709 254.941 353.037 265.41 350.796C272.869 349.199 284.57 346.782 288.958 339.307C289.011 337.852 281.923 321.569 282.791 316.887C284.869 305.703 285.835 291.861 286.11 282.521C286.303 276 283.763 267.956 281.108 265.234C278.218 262.275 275.81 260.537 270.864 261.883C266.879 262.265 257.93 267.31 255.006 268.971C246.366 268.608 242.043 275.118 242.08 277.939Z" fill="#3B5770"/>
<path d="M273.946 266.752L272.349 257.859L259.941 260.789C259.941 260.789 261.464 265.492 259.941 269.396C259.888 269.524 269.35 268.934 273.946 266.752Z" fill="#FFAD97"/>
<path d="M276.835 239.127C274.29 233.719 264.833 227.491 255.815 235.92C250.908 240.505 250.361 252.018 251.162 257.859C251.905 263.277 253.696 263.183 257.046 263.775C260.593 264.399 267.657 262.658 272.349 257.859C277.639 252.454 278.814 243.328 276.835 239.127Z" fill="#FFC5B3"/>
<path d="M249.264 235.162C249.264 235.162 249.595 239.273 252.346 241.7C255.094 244.128 260.473 246.109 260.473 246.109C260.473 246.109 260.438 247.864 259.941 250.105C259.445 252.348 260.753 253.213 260.753 253.213C260.753 253.213 263.535 248.793 265.413 252.345C267.29 255.897 263.936 257.858 263.936 257.858C263.936 257.858 265.023 260.539 266.943 262.342C268.343 263.658 270.837 265.423 270.837 265.423C270.837 265.423 272.894 259.818 276.446 254.776C279.992 249.731 281.009 245.631 281.02 243.567C281.041 240.579 279.992 235.697 273.948 233.039C268.415 227.877 262.136 230.999 260.518 231.565C258.902 232.134 255.433 233.013 252.535 231.146C252.831 234.057 254.218 236.097 254.218 236.097C254.218 236.097 251.876 235.881 249.264 235.162Z" fill="black"/>
<path d="M264.582 264.638C259.78 264.638 256.418 267.106 255.011 268.973C255.011 268.973 262.636 273.521 267.681 271.419C270.341 270.313 274.509 268.027 275.468 266.796C276.772 265.124 273.946 261.567 273.946 261.567C273.946 261.567 271.045 264.638 264.582 264.638Z" fill="#2A3D4F"/>
<path d="M193.629 245.806C193.629 245.806 190.253 241.888 190.104 239.084C189.954 236.28 189.535 234.974 187.898 236.095C186.261 237.217 187.711 239.426 187.898 240.75C188.082 242.072 186.261 243.01 186.261 243.01V238.152C186.261 238.152 181.405 242.067 181.848 245.806C182.292 249.545 185.5 251.043 187.727 251.601C189.954 252.162 192.676 253.214 192.676 253.214L193.629 245.806Z" fill="#FFC5B3"/>
<path d="M201.003 247.472C201.003 247.472 194.762 244.176 192.895 244.454C189.834 246.556 187.409 249.015 189.813 252.685C192.382 255.521 196.583 257.577 196.583 257.577L201.003 247.472Z" fill="white"/>
<path d="M197.104 245.626C192.98 245.447 190.192 249.231 190.584 255.801C190.814 259.695 205.69 272.941 211.341 278.504C214.936 282.043 236.613 295.484 243.725 298.681C249.563 301.301 251.2 295.783 252.495 292.958C254.488 288.62 254.998 274.955 252.885 272.057C250.135 268.276 244.481 268.329 240.622 268.137C235.016 267.856 226.045 265.738 221.425 263.637C215.488 256.987 201.398 245.81 197.104 245.626Z" fill="#3B5770"/>
<path d="M85.8843 484.982L103.294 494.658V331.953L85.8843 322.277V484.982Z" fill="#FFB240"/>
<path d="M-12.8762 533.703L4.53368 543.379V489.295L-12.8762 479.619L-12.8762 533.703Z" fill="#FFB240"/>
<path d="M171.13 292.79L124.168 226.946L80.6826 345.011L103.294 331.956V494.661L148.523 468.55V305.842L171.13 292.79Z" fill="#FFC943"/>
<path d="M72.3698 450.131L25.4072 384.286L-18.0779 502.352L4.53366 489.297V547.631L49.7621 521.52V463.183L72.3698 450.131Z" fill="#FFC943"/>
<path d="M124.168 226.944L106.759 217.269L63.2734 335.337L80.6826 345.01L124.168 226.944Z" fill="#FFDC5A"/>
<path d="M25.4072 384.286L7.99804 374.611L-35.4871 492.679L-18.0779 502.352L25.4072 384.286Z" fill="#FFDC5A"/>
</svg>
