<svg width="317" height="365" viewBox="0 0 317 365" fill="none" xmlns="http://www.w3.org/2000/svg">
<path d="M21.178 80.5205V189.694L-26.3951 162.247V52.4656L21.178 80.5205Z" fill="#BA353B"/>
<path d="M68.1406 52.4656V161.638L21.178 189.694V79.9099L68.1406 52.4656Z" fill="#E7424A"/>
<path d="M68.1406 52.4655L21.178 25.0198L-26.395 52.4655L20.5676 80.5203L68.1406 52.4655Z" fill="#FE4B53"/>
<path d="M91.927 153.707V230.554L44.3539 203.108V125.65L91.927 153.707Z" fill="#BA353B"/>
<path d="M138.89 125.65V202.499L91.9271 230.554V153.095L138.89 125.65Z" fill="#E7424A"/>
<path d="M138.89 125.65L91.9271 98.2046L44.354 125.65L91.3179 153.708L138.89 125.65Z" fill="#FE4B53"/>
<path d="M162.677 231.167V272.031L115.103 244.585V203.11L162.677 231.167Z" fill="#BA353B"/>
<path d="M209.639 203.11V243.976L162.677 272.031V230.556L209.639 203.11Z" fill="#E7424A"/>
<path d="M209.639 203.111L162.677 175.665L115.103 203.111L162.066 231.167L209.639 203.111Z" fill="#FE4B53"/>
<path d="M9.03937 -8.93378L44.0476 -29.3925L113.545 10.3162L114.063 10.6174L149.407 111.21L149.525 111.548L219.54 151.558L184.532 173.834L183.405 173.189L113.608 132.916L113.517 132.662L79.0558 31.0762L78.3455 30.6658L9.03937 -8.93378Z" fill="#BA353B"/>
<path d="M113.517 132.663L149.407 111.211L149.525 111.548L219.54 151.558L219.758 152.175L183.405 173.19L113.608 132.916L113.517 132.663Z" fill="#E7424A"/>
<path d="M9.03926 -8.93238L44.0474 -29.3911L113.544 10.3175L78.3454 30.6672L9.03926 -8.93238Z" fill="#E7424A"/>
<path d="M211.278 157.831C211.374 157.831 214.766 158.438 214.766 158.438L217.549 161.155L218.522 162.122C220.361 163.947 222.621 165.295 225.1 166.052L230.795 169.474L233.482 162.819L227.288 160.484L222.288 154.853L218.513 152.04L215.218 150.12L208.854 149.544C207.637 149.544 207.716 150.872 208.676 150.842L207.862 151.21C206.883 151.609 207.488 152.841 208.211 152.775H209.107C208.355 153.19 208.531 154.233 209.587 154.247L211.956 154.343L214.866 155.176L216.081 156.104L211.792 155.624C209.519 155.465 209.296 157.383 211.278 157.831Z" fill="#FFB294"/>
<path d="M228.201 172.419C225.323 168.294 229.833 160.517 233.393 161.456C242.695 164.827 251.364 168.279 257.664 172.035C265.445 176.288 275.892 181.883 281.257 188.884C283.677 197.838 280.151 203.985 274.545 205.434L253.25 184.321L228.201 172.419Z" fill="#3B5770"/>
<path d="M207.578 177.486L206.027 172.515L201.821 167.889L198.686 162.642L196.383 158.035L196.173 156.259C195.886 154.439 197.277 154.101 197.683 155.639L198.046 157.268L200.349 160.724L198.622 156.017L197.944 153.421C197.343 151.269 198.671 150.517 199.325 152.215L200.415 155.477L202.333 158.547L200.479 154.069L199.198 150.039C198.75 148.406 200.043 147.56 200.861 149.145L202.46 153.173L204.827 157.525L203.164 152.215L202.548 149.024C202.14 147.112 203.499 146.6 204.251 148.567L205.402 152.021L207.578 156.756L210.201 160.784L209.56 157.329L207.769 155.154C206.76 153.765 207.688 152.58 208.791 153.557L211.287 156.015L213.271 160.722V168.465L215.446 174.671L207.578 177.486Z" fill="#FFB294"/>
<path d="M262.063 241.415C253.83 248.359 245.106 254.914 244.246 267.602C245.191 276.916 266.329 289.419 281.793 300.034C285.865 302.598 294.457 293.789 291.22 288.659C284.353 281.133 276.854 274.435 268.95 268.277L276.372 255.456L262.063 241.415Z" fill="#2A3D4F"/>
<path d="M281.995 305.946L281.185 299.773L284.108 293.275C285.234 290.772 287.968 289.415 290.644 290.027L291.932 290.324C293.635 291.044 295.349 292.669 297.07 294.751C297.603 295.397 297.75 296.281 297.461 297.064L296.662 299.233L297.922 302.651C295.999 306.933 292.769 309.979 288.565 312.097L281.995 305.946Z" fill="black"/>
<path d="M295.764 341.166L299.812 347.734L298.088 350.973C297.032 352.953 295.077 354.234 292.862 354.586C290.621 354.939 288.879 355.933 287.758 357.724C286.496 360.511 289.374 363.926 295.944 364.383C299.611 363.943 304.025 361.607 306.563 358.803L308.267 359.678C312.358 357.492 315.33 355.61 316.689 352.874C314.2 346.663 311.976 343.672 308.543 342.066L302.784 336.395L295.764 341.166Z" fill="black"/>
<path d="M298.372 349.939C292.756 342.25 286.874 336.149 281.187 330.456C275.393 324.659 269.802 319.287 264.897 313.089C258.992 297.943 255.515 282.511 254.009 266.862C253.887 265.668 253.787 264.474 253.696 263.281L276.372 260.848C276.41 261.498 276.453 262.144 276.497 262.794C276.871 268.052 277.508 273.167 278.252 278.19C279.552 286.931 281.19 295.43 282.381 304.042C291.543 312.541 301.223 327.021 311.062 343.32C312.275 346.832 300.263 353.716 298.372 349.939Z" fill="#2A3D4F"/>
<path opacity="0.3" d="M281.187 330.457C275.393 324.66 269.802 319.288 264.897 313.09C258.992 297.944 255.515 282.512 254.009 266.863L276.145 262.245L276.495 262.797C276.869 268.055 277.506 273.17 278.25 278.194C276.225 279.447 274.103 280.356 271.926 280.862C265.912 282.272 262.278 288.453 263.752 294.45C264.988 299.51 266.418 304.334 268.088 308.86L281.187 330.457Z" fill="#2A3D4F"/>
<path d="M289.924 249.63C289.931 258.466 285.281 265.574 281.005 268.724C276.109 272.342 267.837 273.308 260.753 272.705C257.331 272.412 254.183 271.759 251.825 270.859C247.627 267.003 250.242 255.584 250.232 246.409C250.225 238.866 245.679 233.312 242.043 221.692C240.632 217.202 239.358 211.796 238.538 205.015L246.729 200.448L273.007 188.1C275.605 188.09 276.65 188.03 281.262 188.882C289.198 201.867 285.905 220.284 287.309 233.63C288.055 240.791 289.924 249.63 289.924 249.63Z" fill="#3B5770"/>
<path opacity="0.3" d="M260.751 272.705C257.329 272.412 254.181 271.76 251.823 270.859C247.625 267.004 250.71 255.572 250.23 246.41C249.905 240.195 242.708 227.041 239.698 212.807C241.476 211.042 249.161 214.63 248.566 215.307C247.855 216.117 254.949 234.383 253.696 244.925C252.177 257.7 259.78 271.07 260.751 272.705Z" fill="#2A3D4F"/>
<path d="M248.214 163.04C241.767 163.641 240.184 166.188 240.664 171.951C239.156 175.118 243.237 182.298 245.28 186.684C245.871 187.953 246.901 189.809 249.656 189.527C250.616 189.688 251.009 190.576 251.321 191.502C251.906 193.235 251.721 195.285 251.721 195.285C259.289 194.701 265.617 192.983 267.932 187.602L264.508 184.768L258.909 163.04H248.214Z" fill="#FFB294"/>
<path d="M240.339 174.308C241.376 174.366 242.803 173.656 244.551 177.042C245.225 178.346 245.907 179.833 245.907 179.833L249.552 180.496L251.606 185.118C252.256 186.58 254.607 189.014 256.209 189.033C258.915 189.063 263.24 187.14 264.685 185.263C264.685 185.263 266.012 175.74 264.685 171.29C263.357 166.842 262.376 163.316 258.172 161.346C253.968 159.377 246.775 160.809 243.472 163.041C236.515 168.048 238.355 173.057 240.339 174.308Z" fill="black"/>
<path d="M247.186 181.141C246.922 180.518 246.767 179.847 246.733 179.169C246.703 178.59 246.797 177.933 247.26 177.578C247.698 177.245 248.345 177.304 248.811 177.597C249.278 177.893 249.59 178.373 249.839 178.864C250.525 180.221 250.822 181.806 250.467 183.282C250.363 183.715 250.132 184.202 249.692 184.27C249.256 184.336 248.893 183.955 248.632 183.601C247.929 182.657 247.311 181.648 246.79 180.593L247.186 181.141Z" fill="#FFB294"/>
<path d="M247.655 198.948L251.296 193.939C258.96 193.432 266.596 189.957 268.147 186.947L272.181 188.816L263.669 196.227L247.655 198.948Z" fill="white"/>
<path d="M242.064 199.91C242.064 199.91 252.914 205.977 268.799 196.433C274.099 193.248 274.519 190.075 274.519 190.075C274.83 188.603 272.179 187.269 269.717 187.675C268.085 193.571 254.924 195.999 249.231 196.775L242.064 199.91Z" fill="#1E3A47"/>
<path d="M204.827 175.602C208.306 186.363 210.095 193.651 214.023 199.11C217.44 204.291 231.226 212.043 240.594 216.892C245.176 219.265 248.993 217.43 251.151 212.744L252.519 210.558C254.569 202.902 248.282 199.758 243.315 197.991C236.921 195.714 230.417 192.203 223.83 187.789L215.002 170.61C212.313 167.636 204.827 171.09 204.827 175.602Z" fill="#3B5770"/>
</svg>
