<svg width="42" height="145" viewBox="0 0 42 145" fill="none" xmlns="http://www.w3.org/2000/svg">
<path d="M28.3716 15.1987C26.4397 20.8032 19.95 15.9281 19.95 15.9281L24.2547 8.00476C24.2547 8.00476 30.4596 9.13708 28.3716 15.1987Z" fill="#5E2E2E"/>
<path d="M15.5474 18.7001C15.5474 18.7001 12.6889 16.5294 9.21529 20.245C7.01107 22.6005 5.30692 26.9405 3.74135 31.5225C2.8415 34.1647 2.03872 36.4804 1.33954 38.9761C-0.664005 46.1398 0.314032 47.3884 3.80511 46.8358C6.51102 46.4058 9.44945 43.5613 9.21373 40.8459C8.97802 38.1304 15.5474 18.7001 15.5474 18.7001Z" fill="#FFAD97"/>
<path d="M4.13306 30.4619C4.13306 30.4619 6.80235 19.444 11.1996 18.0695C14.6844 16.9802 14.4663 18.8277 14.7928 19.4376C15.1193 20.0476 8.45568 32.6678 8.45568 32.6678C8.45568 32.6678 5.58714 31.2885 4.13306 30.4619Z" fill="#CCB8C1"/>
<path d="M4.27508 29.5527L3.74316 31.5228C3.74316 31.5228 6.10006 33.6474 9.29332 34.2255C11.5119 34.6252 11.8132 33.098 10.0916 32.754C6.61643 32.0628 4.27508 29.5527 4.27508 29.5527Z" fill="white"/>
<path d="M21.3435 75.7975C22.0442 73.9293 9.89048 72.5103 9.89048 72.5103C9.89048 72.5103 9.86516 81.5757 9.53548 85.3933C9.03858 91.1539 9.15166 93.9107 10.8128 101.64C11.5502 105.069 12.4754 118.058 12.2285 122.634C11.8654 129.334 8.77574 132.5 7.72937 134.155C6.68459 135.81 10.6728 137.374 13.1955 134.961C15.7199 132.547 15.9827 132.075 17.4081 131.319C18.8335 130.562 18.3523 128.753 18.2472 124.972C18.1676 122.046 19.4353 112.304 19.9227 106.055C20.6123 97.1883 18.6663 96.9941 18.8017 92.5108C19.0533 84.0713 20.8832 77.0175 21.3435 75.7975Z" fill="#FFAD97"/>
<path d="M19.4114 126.908C19.4066 126.892 19.4021 126.874 19.399 126.86C19.3575 126.707 19.3208 126.626 19.3208 126.626L19.3177 126.632C18.988 125.742 18.2441 124.973 18.2441 124.973C18.2441 124.973 17.6469 130.335 14.4935 132.549C10.9753 135.019 9.40172 135.388 7.72784 134.157C7.72784 134.157 6.88537 135.408 4.93916 137.569C3.90234 138.722 4.77356 139.88 7.84099 139.66C9.46231 139.544 11.7829 138.714 13.0634 137.077C14.4107 135.355 15.452 133.498 16.7102 132.374C16.9061 132.198 17.0752 132.045 17.2456 131.886V131.889C17.3396 133.308 17.2934 134.216 17.3634 135.245C17.6613 135.715 18.1183 135.603 18.4751 135.245C18.6805 134.113 18.4128 133.071 19.0482 130.983C19.7235 128.765 19.5468 127.444 19.4114 126.908Z" fill="#5E2E2E"/>
<path d="M30.7209 80.6253C31.4217 78.7571 19.2699 77.338 19.2699 77.338C19.2699 77.338 19.2426 86.4033 18.9129 90.2209C18.416 95.9815 18.5291 98.7385 20.1918 106.468C20.9276 109.897 21.8532 122.886 21.6063 127.462C21.2432 134.162 18.1532 137.328 17.1068 138.983C16.062 140.638 20.0502 142.202 22.5745 139.789C25.0973 137.374 25.3601 136.903 26.7856 136.146C28.211 135.39 27.7298 133.581 27.6247 129.8C27.545 126.874 28.8128 117.132 29.3001 110.882C29.9897 102.016 28.0437 101.822 28.1791 97.3385C28.4324 88.8991 30.2622 81.8452 30.7209 80.6253Z" fill="#FFC5B3"/>
<path d="M28.7523 131.586C28.7492 131.569 28.7447 131.553 28.7399 131.539C28.6985 131.386 28.6618 131.304 28.6618 131.304L28.6586 131.309C28.329 130.419 27.5866 129.651 27.5866 129.651C27.5866 129.651 26.9878 135.014 23.836 137.226C20.3162 139.696 18.7442 140.066 17.0703 138.834C17.0703 138.834 16.2263 140.088 14.2817 142.247C13.2433 143.402 14.1161 144.558 17.1819 144.337C18.8033 144.222 21.1238 143.393 22.4043 141.755C23.7533 140.035 24.7949 138.177 26.0531 137.052C26.249 136.877 26.4162 136.722 26.5866 136.565L26.5881 136.566C26.6805 137.989 26.6359 138.896 26.7059 139.922C27.0022 140.395 27.4593 140.282 27.816 139.922C28.0231 138.79 27.7553 137.748 28.3892 135.66C29.0645 133.443 28.8893 132.123 28.7523 131.586Z" fill="#5E2E2E"/>
<path d="M6.88067 55.9946C6.88067 55.9946 6.31514 58.6433 6.18933 64.8801C6.03643 72.5439 6.98254 88.0069 6.98254 88.0069C6.98254 88.0069 8.92086 90.3991 13.4663 91.9216C24.5782 95.6436 30.7482 90.6571 30.7482 90.6571C30.7482 90.6571 31.8883 83.0999 32.4824 76.3407C33.051 69.8507 32.7403 63.8098 29.9324 56.7894C25.5288 45.7794 9.51172 51.8315 6.88067 55.9946Z" fill="#4F2525"/>
<path d="M33.5672 30.5131C32.9731 26.385 23.5797 20.7947 23.5797 20.7947C23.5797 20.7947 17.0002 26.4932 18.4304 22.6024C18.8795 21.3761 18.1963 17.7927 18.1963 17.7927C18.1963 17.7927 17.6263 17.6493 16.7981 17.5028C15.5558 18.8773 13.1143 22.5308 11.7892 24.0438C10.5103 25.5043 6.75179 30.5672 7.90168 35.3483C8.88116 39.4287 8.5227 46.2229 8.30451 48.2265C7.86812 52.2638 6.88062 55.9923 6.88062 55.9923C6.88062 55.9923 9.03689 60.9247 18.0194 61.1222C26.6882 61.3133 29.9324 56.787 29.9324 56.787C29.9324 56.787 27.87 45.5827 28.4688 42.1235C29.2429 37.6561 34.7234 38.5608 33.5672 30.5131Z" fill="#EFE8EB"/>
<path d="M17.1597 19.0795C17.1597 19.0795 14.9617 28.0876 14.9617 31.6997C17.7631 30.2122 20.4387 27.2705 21.1219 26.7227C24.21 24.2477 24.677 22.9529 24.677 22.9529C24.677 22.9529 24.0461 20.067 23.9712 19.0222C23.8454 17.283 23.9841 11.6116 23.9841 11.6116L17.1597 19.0795Z" fill="#FFAD97"/>
<path d="M23.1224 19.9532C23.1224 19.9532 21.9613 24.6356 20.2731 26.3238C18.5865 28.0104 14.9617 31.699 14.9617 31.699C14.9617 31.699 18.8301 32.1004 21.2366 32.747C23.006 30.9871 25.5654 25.9734 25.5654 24.4079C25.5654 20.2081 23.1224 19.9532 23.1224 19.9532Z" fill="white"/>
<path d="M14.8516 20.2084C14.8516 20.2084 11.2221 25.6744 10.3828 28.1541C11.9309 29.175 14.9601 31.7009 14.9601 31.7009C14.9601 31.7009 14.9346 28.2608 16.1896 25.3144C16.5909 24.3747 16.9622 21.3041 16.9622 21.3041L14.8516 20.2084Z" fill="white"/>
<path d="M23.3118 3.69551C20.7333 1.5104 14.4043 0.52305 11.7414 6.97645C8.94634 13.742 14.737 22.6751 18.1373 21.3882C20.0421 20.6652 23.8998 18.8973 25.1914 15.325C26.6455 11.3036 25.317 5.39327 23.3118 3.69551Z" fill="#FFC5B3"/>
<path d="M21.77 14.1001C21.77 14.1001 22.2719 13.3755 22.8564 12.9279C23.3406 12.5584 24.2609 12.4453 24.5237 13.8516C24.8868 15.7707 23.3549 16.489 23.3549 16.489L21.77 14.1001Z" fill="#FFC5B3"/>
<path d="M26.9604 40.9135C26.9604 40.9135 27.2551 46.9513 27.7233 51.3709C27.8937 52.9827 29.2301 54.7744 30.7702 55.0834C32.3087 55.3923 33.3232 55.757 34.5877 55.0005C35.1165 54.6868 38.9037 50.9791 40.6955 49.2559C42.4888 47.5326 40.1063 45.0592 38.665 44.0399C36.8701 44.6961 35.0116 46.002 35.0116 46.002L35.204 42.1973C35.204 42.1973 30.3607 39.8751 26.9604 40.9135Z" fill="#FFC5B3"/>
<path d="M27.5211 42.2948C27.5211 42.2948 23.4042 33.3553 26.4413 28.7892C29.7397 23.8249 33.9126 26.1852 35.5753 30.4694C37.2205 34.7027 35.1546 41.3233 35.1546 41.3233L27.5211 42.2948Z" fill="#CCB8C1"/>
<path d="M26.9604 40.9136L27.0483 42.7579C27.0483 42.7579 29.3369 42.1639 31.6112 42.132C33.8855 42.0986 35.204 42.1974 35.204 42.1974L35.475 40.1397C35.475 40.1397 31.3275 38.6569 26.9604 40.9136Z" fill="white"/>
<path d="M22.5857 3.35749C29.5154 4.18567 26.4301 13.3275 26.4301 13.3275C26.4301 13.3275 25.5542 16.2739 21.2684 13.8818C16.9842 11.4896 16.1782 5.75122 16.1782 5.75122C16.1782 5.75122 18.3063 0.361724 22.5857 3.35749Z" fill="#5E2E2E"/>
<path d="M22.2864 12.7793C22.7387 12.4305 23.6034 12.3286 23.8502 13.6457C24.1879 15.447 22.753 16.1206 22.753 16.1206L21.2668 13.8814C21.2684 13.8814 21.7401 13.1997 22.2864 12.7793Z" fill="#FFC5B3"/>
<path d="M23.9028 4.35288C23.9028 5.44862 22.0106 5.38651 19.5133 7.10657C17.0176 8.82344 12.77 9.90966 11.1678 9.78862C6.88043 -0.850259 23.9028 -2.09893 23.9028 4.35288Z" fill="#5E2E2E"/>
</svg>
