<svg width="44" height="42" viewBox="0 0 44 42" fill="none" xmlns="http://www.w3.org/2000/svg">
<path d="M19.2724 3.91277C20.4383 1.97531 23.2472 1.97531 24.4132 3.91277L28.7887 11.1832C29.2075 11.8793 29.8908 12.3757 30.6822 12.559L38.9489 14.4736C41.1519 14.9838 42.0199 17.6552 40.5375 19.3628L34.975 25.7708C34.4424 26.3843 34.1815 27.1875 34.2517 27.9968L34.9854 36.4505C35.1809 38.7033 32.9085 40.3544 30.8263 39.4723L23.0131 36.1621C22.2651 35.8453 21.4205 35.8453 20.6725 36.1621L12.8592 39.4723C10.7771 40.3544 8.50469 38.7033 8.7002 36.4506L9.43387 27.9968C9.50411 27.1875 9.24314 26.3843 8.71061 25.7708L3.14806 19.3628C1.66573 17.6552 2.53372 14.9838 4.73666 14.4736L13.0034 12.559C13.7948 12.3757 14.478 11.8793 14.8969 11.1832L19.2724 3.91277Z" stroke="white" stroke-width="4"/>
</svg>
