<svg width="566" height="301" viewBox="0 0 566 301" fill="none" xmlns="http://www.w3.org/2000/svg">
<path opacity="0.7" d="M471.14 258.4C426.932 256.579 418 277.785 427.517 284.884C434.657 290.211 442.581 292.752 490.838 292.426L489.164 276.378C489.164 276.378 481.556 276.859 475.61 275.672C469.662 274.481 465.979 269.919 465.979 269.919L471.14 258.4Z" fill="#948581"/>
<path d="M537.989 255.855C537.058 252.959 531.837 248.303 529.426 252.192C528.299 254.021 524.262 261.044 522.769 262.826C521.5 264.347 513.819 273.938 513.252 275.614C512.755 277.079 512.378 279.359 513.929 280.349C520.277 284.405 524.644 280.238 528.157 275.933C528.553 275.445 530.177 272.98 532.107 270.049L533.332 270.682L536.226 268.247C536.226 268.247 536.504 266.345 536.657 265.329C536.941 263.465 537.59 262.007 537.784 259.616C538.188 258.222 538.33 256.931 537.989 255.855Z" fill="#E03F3F"/>
<path d="M534.471 189.243C534.405 193.258 533.136 204.449 533.392 205.499C534.042 208.193 539.242 212.443 537.383 229.396C536.575 236.79 534.902 244.149 535.251 251.581C535.341 253.429 535.546 255.323 534.995 257.092C534.506 258.639 530.666 265.531 529.394 266.76C526.162 269.89 520.85 267.093 521.653 265.018C521.934 264.298 523.839 260.845 525.098 258.585C525.87 257.204 526.296 255.673 526.372 254.087C526.462 252.206 526.525 249.608 526.359 247.517C525.616 238.149 521.156 229.238 521.413 219.851C521.582 213.71 520.621 214.87 518.416 210.383C517.496 208.505 517.122 206.365 517.346 204.29C517.63 201.665 517.878 201.695 516.814 198.932C515.236 194.825 516.169 191.511 514.911 187.294C512.902 180.006 534.55 184.592 534.471 189.243Z" fill="#FBBD9E"/>
<path d="M548.708 280.948C548.749 279.973 548.795 278.971 549.175 278.076C549.805 276.589 551.405 275.655 552.988 275.625C554.35 275.595 556.331 275.849 556.776 277.374C556.924 277.874 557.071 278.376 557.218 278.878C557.51 279.883 557.805 280.89 558.1 281.892C558.676 283.868 559.252 285.841 559.833 287.818C560.982 291.748 562.142 295.752 562.123 299.844C562.121 300.712 562.055 301.601 561.703 302.393C560.112 305.96 552.761 306.858 550.111 305.073C548.694 304.123 547.747 302.955 547.824 301.246C548.118 294.477 548.413 287.717 548.708 280.948Z" fill="#E03F3F"/>
<path d="M558.046 202.345C557.085 206.783 556.108 211.224 555.417 215.717C555.002 218.419 554.696 221.219 555.365 223.867C556.184 227.12 558.147 229.97 559.233 233.09C560.592 237.001 560.551 241.816 560.431 245.899C560.188 254.5 558.286 262.936 556.943 271.409C556.708 272.904 556.487 274.422 556.626 275.926C556.984 279.758 558.551 282.941 559.743 293.397C560.183 297.243 549.077 298.335 549.164 292.982C549.41 278 548.269 262.945 544.611 248.413C543.746 244.968 542.758 241.526 542.553 237.986C542.398 235.265 542.709 232.528 542.438 229.815C542.168 227.096 541.328 224.47 540.708 221.812C538.756 213.44 539.013 204.736 538.721 196.116C545.059 198.911 551.508 201.234 558.046 202.345Z" fill="#FBBD9E"/>
<path d="M518.82 144.576C519.563 143.143 521.323 133.374 524.53 133.868C532.162 135.063 548.47 140.792 551.186 142.711C551.631 143.025 552.27 143.735 553.012 144.701C557.677 150.785 560.248 158.19 560.789 165.841C561.419 174.771 561.684 186.997 558.368 206.215C557.906 215.965 516.416 211.879 514.947 202.32C512.057 183.506 510.564 160.472 518.82 144.576Z" fill="#2E2B33"/>
<path d="M499.989 153.886C498.693 155.155 497.391 156.427 496.307 157.881C494.115 160.816 493.13 163.542 493.357 167.216C493.45 168.739 494.148 171.57 495.355 171.49C496.512 171.419 495.988 168.753 495.666 167.342C496.556 169.165 498.821 172.607 499.924 172.358C501.013 172.107 500.593 170.415 499.211 168.136C500.079 168.892 502.571 170.756 503.27 169.839C503.969 168.925 500.767 166.452 500.058 164.809C499.263 162.972 505.402 165.537 506.753 165.21C507.334 165.073 507.665 164.301 507.479 163.731C507.282 163.127 506.303 163.057 505.705 162.827C504.766 162.472 501.717 162.219 503.065 160.395C504.075 159.039 505.574 158.217 506.955 157.237C509.275 155.58 510.626 152.908 511.751 150.293C512.01 149.687 512.261 148.986 511.961 148.407C511.813 148.118 511.554 147.905 511.297 147.714C510.419 147.04 509.357 146.418 508.205 146.529C507.154 146.633 506.6 147.403 505.874 148.121C503.914 150.042 501.952 151.961 499.989 153.886Z" fill="#FBBD9E"/>
<path d="M500.091 158.648C499.559 159.415 498.863 160.038 498.189 160.679C496.758 162.036 496.092 163.182 497.495 163.709C498.489 164.086 499.865 163.081 500.976 161.875C502.45 160.275 506.798 157.889 506.891 155.796C507.005 153.178 502.234 152.397 501.631 154.18C501.036 155.918 501.571 156.505 500.091 158.648Z" fill="url(#paint0_linear_1_23899)"/>
<path d="M504.709 147.851C502.373 150.493 509.521 155.453 511.173 153.591L527.162 135.872C530.784 131.783 523.234 120.51 521.635 122.677C518.594 126.793 505.987 146.407 504.709 147.851Z" fill="#EAEAEA"/>
<path d="M561.513 91.141C558.737 88.0076 546.58 80.7419 539.841 76.8469C535.353 74.2458 527.599 77.3573 525.069 80.6436C523.398 82.8081 523.27 89.1567 523.729 96.6819C517.546 105.209 515.136 108.479 515.466 112.488C516.337 122.997 527.703 118.755 519.064 143.91C514.776 151.91 554.29 154.061 553.941 145.725C552.033 142.501 550.895 136.606 551.905 130.901C553.152 123.859 556.318 117.267 559.656 111.001C561.027 108.432 562.088 105.7 562.844 102.883C563.89 98.9828 565.301 95.4181 561.513 91.141Z" fill="#F8F8F8"/>
<path d="M549.875 127.352C549.875 127.352 515.289 120.697 513.27 120.272C509.26 119.417 507.344 128.793 511.023 129.855C517.615 131.76 538.621 137.631 544.235 139.075C549.203 140.352 556.122 142.162 558.197 140.014C559.269 138.908 562.444 122.816 563.716 116.325C565.039 109.559 566.41 103.513 564.106 95.8893C563.642 94.3526 563.142 92.4665 561.699 91.7677C557.149 89.5542 554.395 92.9388 552.721 98.3732C549.501 108.838 549.875 127.352 549.875 127.352Z" fill="#F8F8F8"/>
<path d="M552.284 99.978C552.221 100.229 552.156 100.478 552.096 100.729C549.557 111.387 549.874 127.352 549.874 127.352C549.874 127.352 515.289 120.697 513.269 120.271C516.291 120.995 519.315 121.707 522.353 122.37L531.486 124.248C537.58 125.46 543.645 126.841 549.77 127.914C550.207 127.919 550.455 127.655 550.45 127.341C550.341 122.502 550.436 117.629 550.761 112.79C550.927 110.366 551.168 107.956 551.465 105.549C551.763 103.141 552.139 100.742 552.762 98.3783C552.568 98.8833 552.426 99.4266 552.284 99.978Z" fill="white"/>
<path d="M494.079 97.2308L469.38 84.8309L482.093 128.393L506.79 140.793L494.079 97.2308Z" fill="white"/>
<path d="M498.677 112.982L499.668 116.274C498.923 117.101 496.387 117.068 496.387 117.068C496.387 117.068 490.792 115.463 487.989 114.999C486.742 114.792 485.748 115.851 485.822 117.112C486.032 120.622 486.676 123.911 487.249 124.804C489.856 128.898 496.524 130.828 498.489 130.757C501.844 130.645 510.193 129.321 510.603 129.444C512.89 130.104 515.106 121.299 512.734 120.529C511.17 119.885 509.129 119.167 508.585 118.728C508.124 118.36 501.363 113.07 498.677 112.982Z" fill="#FBBD9E"/>
<path d="M534.277 80.4559C530.718 83.1881 529.67 91.6796 535.659 93.9396C540.416 95.7247 549.262 90.8114 550.813 85.4617C551.571 82.8359 537.962 77.6281 534.277 80.4559Z" fill="#FBBD9E"/>
<path d="M559.304 45.3651C557.8 37.2095 543.167 33.9368 537.891 46.304C537.891 46.304 537.525 50.7747 537.637 51.2032C537.757 51.6318 538.199 51.8857 538.598 52.1068C540.637 53.2205 542.602 54.8008 543.287 57.0253C543.694 58.3464 543.607 59.763 543.713 61.1469C543.959 64.3622 545.85 69.5809 546.77 70.9429C547.712 72.3376 551.547 77.6136 556.768 78.3533C556.768 78.3533 554.677 73.5167 554.519 70.8882C553.714 57.6749 561.687 58.2728 559.304 45.3651Z" fill="#E8A34F"/>
<path d="M548.323 81.6859L547.761 79.6114C547.335 76.9611 547.122 74.1469 547.493 72.2827C544.589 74.1469 532.252 79.038 532.252 79.038C532.984 82.8975 532.861 85.7363 532.806 87.6742C532.782 88.6568 533.147 89.6229 533.895 90.2671C535.844 91.9402 539.884 92.6529 544.297 89.7433C548.935 86.689 549.068 84.852 548.323 81.6859Z" fill="#F3A984"/>
<path d="M523.201 64.6177C523.264 66.2035 523.714 67.7458 523.815 69.3316C523.894 70.6445 523.731 71.9709 523.802 73.2892C523.952 76.046 525.128 78.6417 525.652 81.352C526.58 86.1804 527.871 88.798 536.832 83.2135C540.733 80.7789 549.884 71.7443 549.753 68.9985C549.625 66.2472 548.741 63.594 547.627 61.0829C546.516 58.5664 545.124 56.11 543.05 54.3086C540.978 52.5044 538.115 51.4398 535.437 52.0539C534.558 52.2532 533.729 52.6246 532.902 52.9985C530.685 53.9866 527.063 54.8216 525.401 56.6749C523.772 58.4982 523.111 62.2731 523.201 64.6177Z" fill="#FBBD9E"/>
<path d="M529.594 48.7992C536.09 45.1772 540.544 44.989 544.005 46.9187C547.99 49.1459 550.761 52.5989 551.569 58.2844C553.78 73.8068 548.222 79.4348 547.758 79.615C547.36 76.79 545.998 68.8037 543.197 69.3741C542.359 69.5434 541.519 70.4303 540.815 69.9472C540.048 69.415 539.854 66.2952 539.698 65.3699C539.48 64.0898 538.495 63.1126 537.476 62.3019C536.507 61.5349 525.167 55.8605 523.581 60.7763C523.583 60.7763 521.965 53.0544 529.594 48.7992Z" fill="#E8A34F"/>
<path d="M547.043 72.9233C546.317 74.3782 543.697 76.745 542.485 76.2564C541.559 75.8769 540.358 72.3993 541.409 70.6441C541.693 70.1719 542.179 69.8335 542.504 69.3749C547.144 62.9084 548.64 69.7132 547.043 72.9233Z" fill="#FBBD9E"/>
<path opacity="0.7" d="M110.648 337.225L231.02 267.724H297.982L294.666 260.535H194.715L189.606 263.685H131.496L0.770508 339.16H58.7444L50.2421 344.406H165.158L161.842 337.222H110.648V337.225ZM208.966 267.727H227.133L106.761 337.227H88.9459L208.966 267.727Z" fill="#948581"/>
<path d="M317.293 279.574L275.942 255.699V252.8L317.293 276.669V279.574Z" fill="url(#paint1_linear_1_23899)"/>
<path d="M326.403 274.32L317.294 279.574V276.67L326.403 271.413V274.32Z" fill="#C9C6C1"/>
<path d="M317.294 276.669L275.942 252.8L285.048 247.538L326.402 271.412L317.294 276.669Z" fill="url(#paint2_linear_1_23899)"/>
<path opacity="0.8" d="M303.163 258H284.955L293.037 263.831L297.42 265.198H302.598L303.163 258Z" fill="#B6B2AE"/>
<path d="M302.595 265.235L295.064 260.893V79.82L304.38 83.1365L302.595 265.235Z" fill="#B6B2AE"/>
<path d="M306.242 263.134L302.595 265.236V84.1682L306.242 82.0638V263.134Z" fill="#C9C6C1"/>
<path d="M302.595 84.1694L295.064 79.821L298.711 77.7165L306.242 82.0649L302.595 84.1694Z" fill="#EFEAE5"/>
<path d="M158.285 74.932L285.412 0.941544L312.442 169.999L185.309 243.992L158.285 74.932Z" fill="#E1DCD8"/>
<path d="M162.048 76.721L282.808 6.42096L308.678 168.216L187.913 238.51L162.048 76.721Z" fill="#FFFBF9"/>
<path d="M155.569 74.0046L282.699 0.00878906L285.413 0.942378L158.285 74.9328L155.569 74.0046Z" fill="#C9C6C1"/>
<path d="M158.285 74.9342L185.309 243.994L182.599 243.08L155.569 74.0059L158.285 74.9342Z" fill="url(#paint3_linear_1_23899)"/>
<path d="M207.866 232.903L300.161 179.023L300.518 181.215L208.227 235.094L207.866 232.903Z" fill="#E1DCD8"/>
<path d="M202.937 231.199L295.228 177.322L300.16 179.023L207.866 232.902L202.937 231.199Z" fill="#C9C6C1"/>
<path d="M207.866 232.902L208.227 235.094L203.3 233.416L202.937 231.199L207.866 232.902Z" fill="url(#paint4_linear_1_23899)"/>
<path d="M298.408 214.657C298.107 214.485 297.832 214.471 297.635 214.588L169.462 288.59V292.122L299.18 217.233C299.371 217.116 299.491 216.878 299.491 216.537C299.491 215.847 299.005 215.003 298.408 214.657Z" fill="url(#paint5_linear_1_23899)"/>
<path d="M169.551 342.053L162.02 337.707V156.635L171.333 159.953L169.551 342.053Z" fill="#B6B2AE"/>
<path d="M173.195 339.953L169.551 342.052V160.982L173.195 158.883V339.953Z" fill="#C9C6C1"/>
<path d="M169.551 160.984L162.02 156.635L165.667 154.536L173.195 158.884L169.551 160.984Z" fill="#EFEAE5"/>
<path d="M166.879 165.066C166.879 165.77 166.306 166.013 165.599 165.604C164.892 165.2 164.321 164.296 164.321 163.589C164.321 162.882 164.892 162.637 165.599 163.052C166.306 163.453 166.879 164.359 166.879 165.066Z" fill="#C9C6C1"/>
<g opacity="0.4">
<path opacity="0.4" d="M291.439 80.8267C291.745 80.8267 291.813 80.7011 291.797 80.6164L291.549 79.1044C291.243 79.1044 291.175 79.2165 291.191 79.3093L291.278 79.8524C289.177 81.0671 287.173 82.2242 285.113 83.4142L276.242 29.7202L275.952 29.8894L284.821 83.5835C281.28 85.6278 277.735 87.6777 274.285 89.6675L265.417 35.9734L265.125 36.1427L273.993 89.8367C270.442 91.8865 266.932 93.9173 263.46 95.918L254.592 42.224L254.302 42.3933L263.17 96.0926C259.617 98.137 256.117 100.157 252.635 102.171L243.767 48.4799L243.475 48.6465L252.343 102.341C248.811 104.382 245.292 106.413 241.807 108.425L232.939 54.7358L232.647 54.9051L241.515 108.596C237.991 110.624 234.473 112.663 230.982 114.68L222.114 60.9891L221.822 61.1583L230.69 114.85C227.171 116.88 223.664 118.906 220.154 120.934L211.286 67.2367L210.997 67.4086L219.865 121.097C216.36 123.12 212.847 125.153 209.329 127.181L200.461 73.4872L200.169 73.6565L209.037 127.348C205.549 129.362 202.028 131.393 198.501 133.432L189.633 79.7378L189.344 79.9071L198.215 133.595C194.726 135.607 191.216 137.638 187.679 139.682L178.808 85.9881L178.519 86.1573L187.387 139.851C183.838 141.901 180.29 143.946 176.665 146.042C171.305 113.589 172.719 122.151 167.852 92.6671L168.469 92.3123C168.57 92.255 168.638 92.1433 168.622 92.0477C168.417 91.9904 166.747 92.951 166.747 92.951C166.648 93.0111 166.58 93.1284 166.594 93.2212C166.798 93.2785 167.415 92.9237 167.415 92.9237C172.126 121.438 171.073 115.065 176.261 146.487C176.281 146.599 176.392 146.629 176.513 146.558C189.961 138.798 277.871 88.0436 291.349 80.2619L291.439 80.8267Z" fill="#6D637C"/>
<path opacity="0.4" d="M178.882 162.756L189.275 220.356L277.35 169.5L266.959 111.909L178.882 162.756ZM262.668 114.49L263.342 118.23L258.784 120.858L258.107 117.124L262.668 114.49ZM220.836 168.272L225.394 165.638L226.069 169.372L221.508 172.006L220.836 168.272ZM221.39 172.074L216.832 174.711L216.155 170.974L220.713 168.337L221.39 172.074ZM225.512 165.57L230.075 162.938L230.747 166.67L226.186 169.306L225.512 165.57ZM230.193 162.868L234.756 160.236L235.431 163.968L230.87 166.604L230.193 162.868ZM234.874 160.163L239.432 157.532L240.109 161.265L235.548 163.902L234.874 160.163ZM234.855 160.07L234.178 156.33L238.739 153.697L239.413 157.436L234.855 160.07ZM234.737 160.141L230.174 162.772L229.5 159.033L234.06 156.404L234.737 160.141ZM230.056 162.84L225.493 165.471L224.819 161.735L229.379 159.104L230.056 162.84ZM225.378 165.542L220.817 168.174L220.143 164.437L224.704 161.806L225.378 165.542ZM220.7 168.239L216.139 170.873L215.465 167.136L220.026 164.505L220.7 168.239ZM216.019 170.941L211.458 173.581L210.784 169.841L215.345 167.21L216.019 170.941ZM216.035 171.04L216.709 174.776L212.151 177.413L211.474 173.673L216.035 171.04ZM216.728 174.872L217.403 178.608L212.842 181.242L212.167 177.508L216.728 174.872ZM216.846 174.806L221.407 172.172L222.081 175.909L217.523 178.546L216.846 174.806ZM221.527 172.104L226.088 169.467L226.762 173.207L222.198 175.841L221.527 172.104ZM226.205 169.405L230.766 166.765L231.443 170.505L226.879 173.139L226.205 169.405ZM230.883 166.7L235.447 164.066L236.121 167.802L231.563 170.439L230.883 166.7ZM235.564 164L240.128 161.367L240.8 165.1L236.241 167.74L235.564 164ZM240.243 161.296L244.804 158.664L245.481 162.398L240.92 165.032L240.243 161.296ZM240.226 161.2L239.552 157.463L244.113 154.832L244.79 158.563L240.226 161.2ZM239.536 157.365L238.859 153.634L243.423 150.997L244.097 154.736L239.536 157.365ZM238.84 153.538L238.168 149.802L242.729 147.165L243.406 150.899L238.84 153.538ZM238.725 153.604L234.164 156.238L233.487 152.501L238.048 149.865L238.725 153.604ZM234.044 156.303L229.486 158.937L228.809 155.203L233.373 152.567L234.044 156.303ZM229.366 159.008L224.805 161.639L224.131 157.905L228.692 155.272L229.366 159.008ZM224.687 161.708L220.124 164.339L219.452 160.608L224.013 157.971L224.687 161.708ZM220.006 164.413L215.446 167.041L214.769 163.31L219.33 160.673L220.006 164.413ZM215.328 167.112L210.77 169.743L210.093 166.012L214.654 163.373L215.328 167.112ZM210.647 169.814L206.086 172.448L205.415 168.714L209.976 166.08L210.647 169.814ZM210.666 169.912L211.343 173.643L206.782 176.28L206.105 172.541L210.666 169.912ZM211.36 173.739L212.031 177.476L207.47 180.115L206.793 176.376L211.36 173.739ZM212.05 177.574L212.724 181.311L208.163 183.942L207.486 180.211L212.05 177.574ZM212.743 181.409L213.418 185.148L208.857 187.777L208.182 184.043L212.743 181.409ZM212.858 181.338L217.419 178.707L218.096 182.443L213.535 185.074L212.858 181.338ZM217.539 178.641L222.1 176.007L222.774 179.741L218.213 182.375L217.539 178.641ZM222.215 175.939L226.778 173.302L227.452 177.042L222.891 179.673L222.215 175.939ZM226.896 173.237L231.459 170.6L232.133 174.337L227.573 176.968L226.896 173.237ZM231.577 170.535L236.138 167.898L236.812 171.635L232.251 174.266L231.577 170.535ZM236.255 167.832L240.816 165.199L241.49 168.935L236.929 171.566L236.255 167.832ZM240.933 165.133L245.494 162.494L246.168 166.233L241.607 168.873L240.933 165.133ZM245.614 162.428L250.178 159.792L250.849 163.531L246.288 166.165L245.614 162.428ZM245.595 162.333L244.924 158.596L249.485 155.965L250.162 159.696L245.595 162.333ZM244.905 158.498L244.23 154.761L248.794 152.13L249.468 155.867L244.905 158.498ZM244.211 154.665L243.537 150.932L248.098 148.298L248.772 152.034L244.211 154.665ZM243.521 150.833L242.844 147.097L247.408 144.46L248.079 148.197L243.521 150.833ZM242.83 147.001L242.153 143.262L246.714 140.633L247.391 144.365L242.83 147.001ZM242.713 147.067L238.152 149.703L237.478 145.964L242.041 143.33L242.713 147.067ZM238.032 149.769L233.471 152.405L232.797 148.669L237.358 146.032L238.032 149.769ZM233.354 152.471L228.795 155.105L228.118 151.368L232.679 148.732L233.354 152.471ZM228.675 155.171L224.114 157.81L223.44 154.07L228.004 151.437L228.675 155.171ZM223.994 157.875L219.433 160.512L218.759 156.773L223.32 154.139L223.994 157.875ZM219.316 160.578L214.755 163.211L214.081 159.478L218.639 156.838L219.316 160.578ZM214.638 163.28L210.077 165.908L209.403 162.177L213.961 159.54L214.638 163.28ZM209.957 165.979L205.396 168.61L204.719 164.877L209.282 162.24L209.957 165.979ZM205.276 168.679L200.715 171.312L200.04 167.579L204.601 164.945L205.276 168.679ZM205.295 168.78L205.969 172.516L201.408 175.147L200.731 171.411L205.295 168.78ZM205.988 172.612L206.662 176.346L202.101 178.982L201.427 175.246L205.988 172.612ZM206.678 176.441L207.355 180.181L202.792 182.814L202.12 179.078L206.678 176.441ZM207.369 180.276L208.046 184.016L203.485 186.644L202.808 182.915L207.369 180.276ZM208.062 184.111L208.737 187.851L204.176 190.479L203.499 186.742L208.062 184.111ZM208.753 187.943L209.43 191.677L204.866 194.314L204.192 190.574L208.753 187.943ZM208.873 187.875L213.434 185.244L214.111 188.978L209.547 191.612L208.873 187.875ZM213.549 185.173L218.112 182.539L218.784 186.273L214.223 188.907L213.549 185.173ZM218.23 182.468L222.788 179.839L223.465 183.571L218.904 186.207L218.23 182.468ZM222.911 179.768L227.469 177.137L228.146 180.874L223.582 183.508L222.911 179.768ZM227.589 177.066L232.15 174.435L232.824 178.174L228.263 180.803L227.589 177.066ZM232.267 174.364L236.831 171.733L237.502 175.467L232.941 178.101L232.267 174.364ZM236.948 171.665L241.506 169.031L242.183 172.768L237.622 175.399L236.948 171.665ZM241.627 168.96L246.185 166.331L246.862 170.068L242.298 172.699L241.627 168.96ZM246.305 166.266L250.869 163.627L251.545 167.366L246.982 170L246.305 166.266ZM250.983 163.561L255.544 160.924L256.221 164.664L251.66 167.292L250.983 163.561ZM250.967 163.465L250.293 159.729L254.854 157.092L255.53 160.829L250.967 163.465ZM250.276 159.63L249.602 155.894L254.163 153.263L254.834 156.994L250.276 159.63ZM249.586 155.798L248.909 152.059L253.47 149.43L254.147 153.167L249.586 155.798ZM248.892 151.961L248.218 148.23L252.779 145.593L253.456 149.329L248.892 151.961ZM248.202 148.134L247.528 144.395L252.089 141.76L252.763 145.497L248.202 148.134ZM247.509 144.302L246.834 140.562L251.395 137.928L252.069 141.663L247.509 144.302ZM246.818 140.464L246.141 136.727L250.702 134.096L251.376 137.836L246.818 140.464ZM246.701 140.53L242.137 143.169L241.463 139.43L246.024 136.796L246.701 140.53ZM242.02 143.232L237.459 145.868L236.782 142.129L241.343 139.5L242.02 143.232ZM237.341 145.934L232.78 148.568L232.103 144.831L236.664 142.2L237.341 145.934ZM232.66 148.636L228.099 151.273L227.425 147.536L231.986 144.905L232.66 148.636ZM227.982 151.338L223.421 153.975L222.747 150.236L227.308 147.605L227.982 151.338ZM223.304 154.038L218.743 156.677L218.066 152.938L222.627 150.309L223.304 154.038ZM218.625 156.74L214.064 159.377L213.39 155.64L217.951 153.009L218.625 156.74ZM213.944 159.445L209.383 162.079L208.709 158.345L213.27 155.705L213.944 159.445ZM209.266 162.147L204.705 164.781L204.031 161.044L208.592 158.407L209.266 162.147ZM204.585 164.846L200.024 167.483L199.35 163.744L203.911 161.11L204.585 164.846ZM199.907 167.546L195.346 170.185L194.669 166.446L199.232 163.812L199.907 167.546ZM199.923 167.647L200.6 171.383L196.036 174.015L195.365 170.281L199.923 167.647ZM200.614 171.479L201.291 175.216L196.73 177.847L196.053 174.113L200.614 171.479ZM201.307 175.314L201.981 179.048L197.42 181.682L196.746 177.945L201.307 175.314ZM201.997 179.141L202.672 182.88L198.113 185.514L197.437 181.78L201.997 179.141ZM202.691 182.978L203.365 186.718L198.804 189.349L198.13 185.615L202.691 182.978ZM203.381 186.81L204.058 190.55L199.497 193.181L198.823 189.442L203.381 186.81ZM204.075 190.648L204.746 194.377L200.188 197.016L199.511 193.276L204.075 190.648ZM204.765 194.478L205.437 198.214L200.878 200.851L200.204 197.111L204.765 194.478ZM204.882 194.409L209.443 191.775L210.118 195.509L205.557 198.149L204.882 194.409ZM209.564 191.707L214.124 189.07L214.801 192.81L210.24 195.444L209.564 191.707ZM214.242 189.008L218.803 186.371L219.477 190.111L214.913 192.744L214.242 189.008ZM218.92 186.306L223.481 183.669L224.155 187.405L219.594 190.045L218.92 186.306ZM223.601 183.601L228.159 180.972L228.836 184.703L224.275 187.34L223.601 183.601ZM228.279 180.901L232.84 178.27L233.517 182.001L228.954 184.641L228.279 180.901ZM232.961 178.199L237.521 175.568L238.198 179.302L233.635 181.936L232.961 178.199ZM237.639 175.5L242.2 172.868L242.874 176.599L238.316 179.236L237.639 175.5ZM242.317 172.795L246.878 170.163L247.555 173.895L242.994 176.531L242.317 172.795ZM246.998 170.092L251.559 167.461L252.236 171.201L247.672 173.832L246.998 170.092ZM251.676 167.393L256.237 164.759L256.912 168.498L252.351 171.13L251.676 167.393ZM256.355 164.691L260.918 162.06L261.59 165.796L257.032 168.427L256.355 164.691ZM256.341 164.593L255.664 160.859L260.222 158.225L260.899 161.959L256.341 164.593ZM255.645 160.763L254.971 157.024L259.532 154.39L260.206 158.127L255.645 160.763ZM254.957 156.931L254.283 153.192L258.841 150.563L259.518 154.294L254.957 156.931ZM254.264 153.096L253.59 149.359L258.151 146.726L258.825 150.465L254.264 153.096ZM253.573 149.261L252.897 145.527L257.457 142.891L258.132 146.63L253.573 149.261ZM252.877 145.432L252.206 141.695L256.764 139.056L257.441 142.795L252.877 145.432ZM252.187 141.597L251.515 137.86L256.074 135.229L256.748 138.963L252.187 141.597ZM251.496 137.762L250.819 134.025L255.383 131.394L256.057 135.128L251.496 137.762ZM250.806 133.927L250.132 130.193L254.69 127.559L255.367 131.296L250.806 133.927ZM250.688 133.998L246.125 136.629L245.453 132.898L250.011 130.262L250.688 133.998ZM246.007 136.703L241.449 139.334L240.772 135.6L245.336 132.964L246.007 136.703ZM241.326 139.403L236.765 142.034L236.091 138.302L240.652 135.666L241.326 139.403ZM236.651 142.105L232.09 144.736L231.416 141.002L235.974 138.368L236.651 142.105ZM231.97 144.807L227.411 147.435L226.735 143.707L231.296 141.067L231.97 144.807ZM227.289 147.509L222.73 150.14L222.056 146.403L226.617 143.772L227.289 147.509ZM222.61 150.211L218.049 152.842L217.378 149.103L221.939 146.472L222.61 150.211ZM217.932 152.905L213.368 155.544L212.697 151.805L217.255 149.177L217.932 152.905ZM213.251 155.61L208.693 158.244L208.016 154.507L212.574 151.876L213.251 155.61ZM208.573 158.312L204.015 160.946L203.338 157.212L207.901 154.578L208.573 158.312ZM203.897 161.012L199.333 163.651L198.659 159.911L203.22 157.28L203.897 161.012ZM199.216 163.714L194.655 166.35L193.978 162.611L198.539 159.982L199.216 163.714ZM194.535 166.413L189.974 169.052L189.3 165.316L193.861 162.679L194.535 166.413ZM194.551 166.514L195.228 170.254L190.667 172.887L189.993 169.151L194.551 166.514ZM195.247 170.346L195.919 174.086L191.361 176.714L190.684 172.986L195.247 170.346ZM195.938 174.181L196.609 177.915L192.051 180.549L191.377 176.812L195.938 174.181ZM196.626 178.014L197.303 181.747L192.742 184.384L192.068 180.647L196.626 178.014ZM197.319 181.848L197.993 185.585L193.435 188.222L192.758 184.482L197.319 181.848ZM198.012 185.68L198.684 189.417L194.126 192.048L193.451 188.314L198.012 185.68ZM198.703 189.515L199.38 193.244L194.819 195.883L194.145 192.144L198.703 189.515ZM199.396 193.345L200.07 197.081L195.509 199.718L194.835 195.982L199.396 193.345ZM200.087 197.177L200.761 200.916L196.197 203.553L195.523 199.816L200.087 197.177ZM200.78 201.012L201.452 204.751L196.891 207.38L196.214 203.649L200.78 201.012ZM200.895 200.946L205.456 198.313L206.133 202.046L201.569 204.68L200.895 200.946ZM205.576 198.244L210.134 195.61L210.811 199.347L206.25 201.978L205.576 198.244ZM210.254 195.542L214.818 192.905L215.489 196.642L210.928 199.276L210.254 195.542ZM214.932 192.843L219.496 190.203L220.17 193.943L215.609 196.571L214.932 192.843ZM219.613 190.141L224.174 187.504L224.851 191.24L220.29 193.877L219.613 190.141ZM224.294 187.438L228.855 184.802L229.53 188.538L224.969 191.178L224.294 187.438ZM228.973 184.733L233.534 182.099L234.208 185.836L229.647 188.473L228.973 184.733ZM233.651 182.034L238.212 179.397L238.889 183.134L234.328 185.77L233.651 182.034ZM238.329 179.332L242.89 176.695L243.564 180.434L239.004 183.068L238.329 179.332ZM243.013 176.629L247.571 174.001L248.245 177.73L243.685 180.369L243.013 176.629ZM247.689 173.927L252.25 171.293L252.924 175.028L248.363 177.664L247.689 173.927ZM252.367 171.225L256.928 168.594L257.602 172.328L253.041 174.962L252.367 171.225ZM257.048 168.526L261.609 165.895L262.286 169.626L257.722 172.262L257.048 168.526ZM261.726 165.824L266.287 163.192L266.961 166.924L262.401 169.56L261.726 165.824ZM261.71 165.725L261.036 161.986L265.594 159.357L266.271 163.094L261.71 165.725ZM261.017 161.89L260.345 158.159L264.903 155.523L265.58 159.259L261.017 161.89ZM260.326 158.064L259.649 154.324L264.21 151.69L264.884 155.427L260.326 158.064ZM259.633 154.229L258.959 150.492L263.517 147.858L264.194 151.592L259.633 154.229ZM258.942 150.391L258.271 146.66L262.829 144.023L263.503 147.763L258.942 150.391ZM258.252 146.559L257.575 142.828L262.136 140.189L262.813 143.928L258.252 146.559ZM257.558 142.73L256.884 138.993L261.445 136.356L262.122 140.096L257.558 142.73ZM256.868 138.895L256.194 135.158L260.757 132.527L261.432 136.258L256.868 138.895ZM256.175 135.06L255.503 131.323L260.064 128.692L260.741 132.429L256.175 135.06ZM255.484 131.228L254.81 127.494L259.371 124.86L260.042 128.594L255.484 131.228ZM254.793 127.395L254.117 123.659L258.68 121.022L259.352 124.759L254.793 127.395ZM254.676 127.464L250.115 130.1L249.444 126.361L254.002 123.727L254.676 127.464ZM249.995 130.166L245.434 132.8L244.76 129.063L249.321 126.427L249.995 130.166ZM245.317 132.865L240.756 135.502L240.079 131.765L244.64 129.126L245.317 132.865ZM240.636 135.57L236.075 138.207L235.398 134.467L239.959 131.834L240.636 135.57ZM235.957 138.27L231.397 140.901L230.725 137.17L235.283 134.533L235.957 138.27ZM231.279 140.972L226.718 143.603L226.044 139.872L230.605 137.235L231.279 140.972ZM226.598 143.674L222.037 146.302L221.363 142.571L225.927 139.935L226.598 143.674ZM221.92 146.376L217.359 149.01L216.682 145.276L221.246 142.639L221.92 146.376ZM217.242 149.078L212.678 151.709L212.004 147.97L216.562 145.342L217.242 149.078ZM212.56 151.778L207.997 154.412L207.325 150.675L211.884 148.041L212.56 151.778ZM207.879 154.483L203.321 157.111L202.644 153.374L207.205 150.743L207.879 154.483ZM203.201 157.185L198.64 159.816L197.963 156.077L202.527 153.445L203.201 157.185ZM198.526 159.887L193.962 162.518L193.288 158.779L197.846 156.15L198.526 159.887ZM193.845 162.586L189.281 165.218L188.609 161.478L193.168 158.85L193.845 162.586ZM189.163 165.283L184.605 167.92L183.928 164.183L188.492 161.552L189.163 165.283ZM189.183 165.381L189.854 169.121L185.296 171.755L184.622 168.018L189.183 165.381ZM189.873 169.214L190.55 172.953L185.986 175.587L185.312 171.853L189.873 169.214ZM190.566 173.048L191.241 176.788L186.68 179.419L186.003 175.68L190.566 173.048ZM191.257 176.881L191.928 180.615L187.367 183.251L186.693 179.515L191.257 176.881ZM191.948 180.721L192.624 184.452L188.064 187.089L187.387 183.35L191.948 180.721ZM192.641 184.548L193.315 188.284L188.754 190.921L188.083 187.182L192.641 184.548ZM193.331 188.383L194.008 192.117L189.445 194.751L188.77 191.016L193.331 188.383ZM194.025 192.218L194.696 195.951L190.135 198.585L189.458 194.849L194.025 192.218ZM194.715 196.044L195.392 199.784L190.828 202.42L190.157 198.684L194.715 196.044ZM195.406 199.879L196.083 203.619L191.519 206.247L190.848 202.516L195.406 199.879ZM196.099 203.711L196.773 207.451L192.212 210.082L191.535 206.345L196.099 203.711ZM196.792 207.549L197.467 211.283L192.903 213.919L192.229 210.18L196.792 207.549ZM196.91 207.478L201.471 204.844L202.145 208.578L197.584 211.212L196.91 207.478ZM201.585 204.776L206.149 202.145L206.823 205.879L202.265 208.512L201.585 204.776ZM206.266 202.074L210.83 199.445L211.501 203.173L206.943 205.813L206.266 202.074ZM210.947 199.371L215.508 196.743L216.185 200.48L211.622 203.111L210.947 199.371ZM215.626 196.669L220.187 194.038L220.864 197.778L216.3 200.409L215.626 196.669ZM220.304 193.967L224.865 191.336L225.539 195.075L220.981 197.704L220.304 193.967ZM224.985 191.27L229.543 188.637L230.22 192.373L225.659 195.004L224.985 191.27ZM229.663 188.571L234.224 185.934L234.901 189.671L230.338 192.305L229.663 188.571ZM234.344 185.866L238.905 183.23L239.577 186.969L235.016 189.6L234.344 185.866ZM239.023 183.167L243.584 180.53L244.261 184.266L239.7 186.898L239.023 183.167ZM243.704 180.464L248.262 177.828L248.939 181.564L244.381 184.201L243.704 180.464ZM248.382 177.762L252.943 175.128L253.617 178.865L249.053 181.502L248.382 177.762ZM253.058 175.06L257.621 172.423L258.295 176.16L253.734 178.8L253.058 175.06ZM257.739 172.358L262.3 169.721L262.976 173.461L258.418 176.095L257.739 172.358ZM262.42 169.659L266.981 167.019L267.655 170.758L263.094 173.395L262.42 169.659ZM267.101 166.954L271.659 164.32L272.333 168.056L267.772 170.693L267.101 166.954ZM267.082 166.858L266.405 163.119L270.968 160.49L271.643 164.219L267.082 166.858ZM266.388 163.023L265.714 159.292L270.275 156.655L270.952 160.392L266.388 163.023ZM265.698 159.191L265.026 155.457L269.587 152.82L270.261 156.56L265.698 159.191ZM265.007 155.359L264.33 151.625L268.891 148.986L269.568 152.725L265.007 155.359ZM264.314 151.524L263.64 147.787L268.201 145.156L268.875 148.89L264.314 151.524ZM263.623 147.689L262.946 143.961L267.51 141.324L268.184 145.061L263.623 147.689ZM262.927 143.862L262.256 140.126L266.817 137.489L267.494 141.226L262.927 143.862ZM262.239 140.028L261.563 136.288L266.126 133.654L266.798 137.388L262.239 140.028ZM261.549 136.193L260.872 132.453L265.436 129.825L266.107 133.556L261.549 136.193ZM260.856 132.36L260.181 128.621L264.742 125.992L265.419 129.729L260.856 132.36ZM260.162 128.525L259.488 124.794L264.052 122.155L264.726 125.894L260.162 128.525ZM259.472 124.693L258.798 120.957L263.359 118.32L264.036 122.059L259.472 124.693ZM257.987 117.193L258.664 120.932L254.1 123.563L253.426 119.824L257.987 117.193ZM253.309 119.895L253.986 123.626L249.425 126.263L248.75 122.526L253.309 119.895ZM248.63 122.6L249.302 126.328L244.744 128.968L244.067 125.231L248.63 122.6ZM243.949 125.299L244.624 129.033L240.065 131.667L239.391 127.931L243.949 125.299ZM239.271 128.002L239.948 131.733L235.384 134.369L234.71 130.633L239.271 128.002ZM234.593 130.701L235.267 134.435L230.706 137.072L230.029 133.332L234.593 130.701ZM229.912 133.4L230.586 137.137L226.025 139.774L225.348 136.037L229.912 133.4ZM225.233 136.102L225.905 139.842L221.347 142.476L220.672 138.739L225.233 136.102ZM220.555 138.802L221.229 142.541L216.666 145.175L215.991 141.439L220.555 138.802ZM215.874 141.507L216.548 145.241L211.987 147.88L211.31 144.141L215.874 141.507ZM211.196 144.209L211.87 147.946L207.309 150.582L206.635 146.843L211.196 144.209ZM206.515 146.909L207.189 150.645L202.628 153.284L201.954 149.548L206.515 146.909ZM201.836 149.611L202.513 153.35L197.95 155.979L197.278 152.247L201.836 149.611ZM197.158 152.31L197.832 156.05L193.271 158.681L192.597 154.949L197.158 152.31ZM192.477 155.018L193.151 158.752L188.59 161.386L187.913 157.651L192.477 155.018ZM187.799 157.717L188.476 161.454L183.915 164.085L183.241 160.351L187.799 157.717ZM179.018 162.783L183.118 160.419L183.795 164.156L179.695 166.522L179.018 162.783ZM179.709 166.621L183.811 164.254L184.485 167.988L180.388 170.36L179.709 166.621ZM180.402 170.453L184.502 168.081L185.178 171.82L181.079 174.187L180.402 170.453ZM181.095 174.285L185.198 171.919L185.872 175.655L181.772 178.019L181.095 174.285ZM181.783 178.12L185.885 175.754L186.562 179.49L182.46 181.857L181.783 178.12ZM182.479 181.952L186.576 179.588L187.253 183.317L183.15 185.689L182.479 181.952ZM183.17 185.787L187.269 183.415L187.943 187.152L183.844 189.521L183.17 185.787ZM183.86 189.614L187.963 187.25L188.637 190.984L184.537 193.353L183.86 189.614ZM184.553 193.451L188.653 191.085L189.327 194.824L185.225 197.191L184.553 193.451ZM185.244 197.283L189.344 194.917L190.018 198.651L185.918 201.023L185.244 197.283ZM185.937 201.116L190.034 198.746L190.711 202.486L186.609 204.849L185.937 201.116ZM186.628 204.95L190.727 202.581L191.402 206.321L187.302 208.687L186.628 204.95ZM187.318 208.785L191.418 206.419L192.095 210.156L187.995 212.519L187.318 208.785ZM188.012 212.618L192.109 210.251L192.785 213.982L188.686 216.349L188.012 212.618ZM189.376 220.184L188.702 216.453L192.802 214.083L193.473 217.817L189.376 220.184ZM193.596 217.752L192.919 214.012L197.483 211.379L198.157 215.115L193.596 217.752ZM198.272 215.052L197.6 211.313L202.161 208.676L202.838 212.416L198.272 215.052ZM202.953 212.347L202.279 208.613L206.84 205.98L207.514 209.713L202.953 212.347ZM207.634 209.645L206.96 205.909L211.521 203.277L212.195 207.008L207.634 209.645ZM212.315 206.946L211.638 203.206L216.199 200.578L216.873 204.306L212.315 206.946ZM216.99 204.244L216.316 200.504L220.877 197.873L221.554 201.607L216.99 204.244ZM221.671 201.542L220.997 197.805L225.558 195.174L226.23 198.913L221.671 201.542ZM226.35 198.836L225.676 195.103L230.237 192.469L230.911 196.205L226.35 198.836ZM231.031 196.137L230.354 192.398L234.915 189.769L235.589 193.506L231.031 196.137ZM235.706 193.438L235.032 189.698L239.593 187.064L240.27 190.804L235.706 193.438ZM240.39 190.733L239.716 186.996L244.277 184.365L244.951 188.104L240.39 190.733ZM245.068 188.03L244.392 184.299L248.955 181.663L249.627 185.399L245.068 188.03ZM249.747 185.328L249.073 181.595L253.633 178.96L254.308 182.697L249.747 185.328ZM254.425 182.629L253.754 178.895L258.315 176.261L258.991 179.998L254.425 182.629ZM259.106 179.927L258.432 176.196L262.993 173.556L263.667 177.296L259.106 179.927ZM263.784 177.222L263.107 173.491L267.671 170.854L268.343 174.593L263.784 177.222ZM268.465 174.522L267.791 170.788L272.352 168.155L273.029 171.889L268.465 174.522ZM277.216 169.476L273.141 171.826L272.467 168.086L276.539 165.739L277.216 169.476ZM276.526 165.638L272.453 167.991L271.776 164.252L275.849 161.901L276.526 165.638ZM275.832 161.806L271.76 164.156L271.086 160.419L275.158 158.066L275.832 161.806ZM275.142 157.971L271.067 160.324L270.392 156.59L274.465 154.24L275.142 157.971ZM274.451 154.141L270.376 156.489L269.699 152.755L273.774 150.402L274.451 154.141ZM273.758 150.309L269.685 152.657L269.011 148.92L273.084 146.57L273.758 150.309ZM273.067 146.472L268.995 148.824L268.318 145.088L272.39 142.735L273.067 146.472ZM272.374 142.637L268.302 144.987L267.625 141.253L271.7 138.906L272.374 142.637ZM271.683 138.807L267.611 141.16L266.937 137.421L271.009 135.071L271.683 138.807ZM270.99 134.975L266.92 137.325L266.246 133.586L270.319 131.238L270.99 134.975ZM270.3 131.14L266.227 133.493L265.553 129.754L269.628 127.401L270.3 131.14ZM269.609 127.306L265.537 129.655L264.86 125.924L268.932 123.571L269.609 127.306ZM268.916 123.476L264.846 125.826L264.169 122.089L268.242 119.739L268.916 123.476ZM268.223 119.644L264.15 121.994L263.479 118.257L267.548 115.905L268.223 119.644ZM263.46 118.159L262.783 114.422L266.855 112.072L267.529 115.812L263.46 118.159Z" fill="#6D637C"/>
<path opacity="0.4" d="M272.579 111.723C272.59 111.794 273.087 114.545 273.087 114.545C273.1 114.619 273.597 117.365 273.597 117.365C273.608 117.436 274.615 123.012 274.615 123.012C274.629 123.083 275.134 125.905 275.134 125.905L295.539 114.13L292.469 97.1229L272.069 108.906L272.579 111.723ZM272.675 111.745L276.035 109.804L276.531 112.558L273.171 114.499L272.675 111.745ZM284.032 111.42L287.389 109.485L287.886 112.231L284.529 114.171L284.032 111.42ZM284.438 114.223L281.081 116.161L280.585 113.407L283.942 111.469L284.438 114.223ZM284.015 111.355L283.521 108.601L286.879 106.663L287.373 109.414L284.015 111.355ZM283.931 111.398L280.574 113.339L280.077 110.588L283.437 108.65L283.931 111.398ZM280.486 113.391L277.129 115.331L276.63 112.577L279.99 110.639L280.486 113.391ZM280.5 113.462L280.997 116.213L277.637 118.154L277.14 115.402L280.5 113.462ZM281.008 116.287L281.504 119.033L278.147 120.97L277.648 118.219L281.008 116.287ZM281.095 116.235L284.452 114.294L284.949 117.048L281.592 118.989L281.095 116.235ZM284.54 114.242L287.899 112.304L288.396 115.056L285.036 116.994L284.54 114.242ZM287.987 112.255L291.344 110.317L291.841 113.066L288.481 115.006L287.987 112.255ZM287.973 112.187L287.476 109.43L290.834 107.492L291.33 110.247L287.973 112.187ZM287.463 109.362L286.966 106.611L290.323 104.667L290.823 107.424L287.463 109.362ZM286.955 106.54L286.456 103.788L289.816 101.845L290.312 104.599L286.955 106.54ZM286.868 106.589L283.508 108.527L283.011 105.775L286.371 103.835L286.868 106.589ZM283.423 108.582L280.063 110.517L279.569 107.765L282.926 105.827L283.423 108.582ZM279.979 110.566L276.619 112.509L276.125 109.755L279.482 107.82L279.979 110.566ZM273.182 114.567L276.542 112.626L277.042 115.381L273.682 117.316L273.182 114.567ZM273.693 117.389L277.053 115.454L277.549 118.203L274.192 120.141L273.693 117.389ZM274.203 120.212L277.56 118.271L278.06 121.025L274.7 122.966L274.203 120.212ZM275.21 125.788L274.713 123.034L278.071 121.093L278.567 123.85L275.21 125.788ZM278.658 123.796L278.158 121.044L281.518 119.104L282.015 121.855L278.658 123.796ZM282.099 121.806L281.603 119.057L284.96 117.119L285.459 119.868L282.099 121.806ZM285.547 119.819L285.05 117.067L288.407 115.127L288.907 117.878L285.547 119.819ZM288.991 117.832L288.495 115.075L291.852 113.137L292.349 115.891L288.991 117.832ZM295.436 114.106L292.436 115.836L291.939 113.091L294.939 111.357L295.436 114.106ZM294.925 111.289L291.925 113.02L291.431 110.265L294.428 108.532L294.925 111.289ZM294.417 108.464L291.418 110.195L290.921 107.443L293.918 105.71L294.417 108.464ZM293.907 105.642L290.907 107.375L290.411 104.618L293.408 102.888L293.907 105.642ZM293.397 102.817L290.4 104.55L289.9 101.802L292.9 100.068L293.397 102.817ZM292.392 97.2486L292.889 100L289.889 101.733L289.39 98.9791L292.392 97.2486ZM289.305 99.0254L289.805 101.782L286.445 103.715L285.948 100.969L289.305 99.0254ZM285.861 101.013L286.357 103.764L283 105.707L282.506 102.95L285.861 101.013ZM282.416 103.002L282.913 105.759L279.553 107.697L279.059 104.946L282.416 103.002ZM278.971 104.995L279.465 107.746L276.111 109.684L275.611 106.933L278.971 104.995ZM276.018 109.733L272.664 111.674L272.167 108.923L275.524 106.985L276.018 109.733Z" fill="#6D637C"/>
<path opacity="0.4" d="M296.134 117.451L275.731 129.231L276.244 132.054C276.255 132.122 276.754 134.873 276.754 134.873C276.765 134.944 277.262 137.696 277.262 137.696C277.276 137.764 278.283 143.337 278.283 143.337C278.297 143.411 278.801 146.236 278.801 146.236L299.207 134.453L296.134 117.451ZM298.596 131.614L295.596 133.342L295.096 130.593L298.096 128.863L298.596 131.614ZM287.599 131.726L284.241 133.667L283.745 130.915L287.102 128.975L287.599 131.726ZM287.189 128.928L290.546 126.991L291.046 129.742L287.686 131.677L287.189 128.928ZM287.612 131.8L288.106 134.554L284.749 136.492L284.252 133.74L287.612 131.8ZM287.697 131.748L291.057 129.813L291.554 132.561L288.196 134.502L287.697 131.748ZM291.144 129.764L294.504 127.826L295.001 130.577L291.641 132.509L291.144 129.764ZM291.131 129.69L290.631 126.939L293.991 124.998L294.485 127.749L291.131 129.69ZM290.62 126.865L290.126 124.113L293.486 122.176L293.98 124.927L290.62 126.865ZM290.535 126.92L287.178 128.86L286.682 126.106L290.039 124.165L290.535 126.92ZM287.091 128.909L283.734 130.842L283.234 128.096L286.594 126.158L287.091 128.909ZM283.646 130.896L280.286 132.837L279.787 130.08L283.147 128.142L283.646 130.896ZM283.657 130.964L284.154 133.721L280.797 135.659L280.297 132.905L283.657 130.964ZM284.165 133.79L284.664 136.541L281.304 138.484L280.805 135.73L284.165 133.79ZM284.675 136.612L285.172 139.363L281.812 141.301L281.318 138.547L284.675 136.612ZM284.763 136.563L288.12 134.622L288.617 137.376L285.259 139.317L284.763 136.563ZM288.207 134.57L291.565 132.629L292.064 135.384L288.704 137.324L288.207 134.57ZM291.655 132.583L295.012 130.645L295.511 133.394L292.151 135.334L291.655 132.583ZM298.083 128.792L295.083 130.525L294.589 127.771L297.588 126.041L298.083 128.792ZM297.575 125.967L294.575 127.703L294.078 124.946L297.078 123.216L297.575 125.967ZM297.064 123.145L294.065 124.878L293.571 122.129L296.568 120.399L297.064 123.145ZM296.06 117.574L296.557 120.325L293.557 122.061L293.058 119.304L296.06 117.574ZM292.973 119.356L293.472 122.102L290.112 124.043L289.616 121.297L292.973 119.356ZM289.531 121.343L290.025 124.097L286.668 126.035L286.171 123.281L289.531 121.343ZM286.084 123.333L286.583 126.084L283.223 128.025L282.727 125.274L286.084 123.333ZM282.639 125.325L283.136 128.074L279.776 130.012L279.279 127.263L282.639 125.325ZM275.835 129.251L279.192 127.31L279.689 130.061L276.331 132.002L275.835 129.251ZM276.342 132.073L279.7 130.132L280.199 132.886L276.839 134.824L276.342 132.073ZM276.853 134.9L280.21 132.96L280.707 135.711L277.349 137.646L276.853 134.9ZM277.363 137.722L280.72 135.779L281.217 138.53L277.857 140.469L277.363 137.722ZM277.871 140.54L281.231 138.601L281.728 141.353L278.37 143.293L277.871 140.54ZM278.875 146.116L278.381 143.364L281.738 141.421L282.238 144.175L278.875 146.116ZM282.323 144.126L281.828 141.369L285.186 139.431L285.683 142.183L282.323 144.126ZM285.767 142.134L285.27 139.382L288.628 137.444L289.127 140.193L285.767 142.134ZM289.214 140.149L288.715 137.392L292.075 135.454L292.572 138.206L289.214 140.149ZM292.662 138.157L292.162 135.405L295.522 133.465L296.019 136.219L292.662 138.157ZM295.61 133.421L298.609 131.69L299.103 134.436L296.106 136.17L295.61 133.421Z" fill="#6D637C"/>
<path opacity="0.4" d="M299.802 137.783L279.4 149.558L279.913 152.381C279.926 152.452 280.423 155.2 280.423 155.2C280.437 155.268 280.934 158.022 280.934 158.022C280.944 158.09 281.952 163.67 281.952 163.67C281.963 163.738 282.47 166.565 282.47 166.565L302.873 154.785L299.802 137.783ZM302.262 151.946L299.265 153.674L298.768 150.928L301.768 149.195L302.262 151.946ZM291.267 152.058L287.907 154.002L287.411 151.245L290.771 149.307L291.267 152.058ZM290.855 149.261L294.215 147.317L294.715 150.074L291.355 152.006L290.855 149.261ZM291.281 152.129L291.775 154.88L288.415 156.824L287.921 154.07L291.281 152.129ZM291.366 152.077L294.723 150.142L295.222 152.891L291.862 154.831L291.366 152.077ZM294.813 150.093L298.17 148.152L298.67 150.907L295.31 152.842L294.813 150.093ZM294.802 150.025L294.303 147.268L297.662 145.33L298.159 148.081L294.802 150.025ZM294.292 147.197L293.792 144.443L297.152 142.503L297.652 145.256L294.292 147.197ZM294.204 147.249L290.844 149.19L290.348 146.436L293.705 144.498L294.204 147.249ZM290.757 149.233L287.4 151.174L286.903 148.425L290.26 146.485L290.757 149.233ZM287.312 151.226L283.955 153.167L283.458 150.412L286.816 148.475L287.312 151.226ZM287.326 151.294L287.823 154.048L284.463 155.989L283.969 153.238L287.326 151.294ZM287.836 154.122L288.33 156.876L284.976 158.808L284.476 156.063L287.836 154.122ZM288.344 156.944L288.841 159.693L285.484 161.633L284.987 158.882L288.344 156.944ZM288.431 156.892L291.789 154.954L292.285 157.706L288.925 159.641L288.431 156.892ZM291.876 154.905L295.233 152.962L295.733 155.716L292.373 157.657L291.876 154.905ZM295.321 152.91L298.681 150.978L299.177 153.723L295.82 155.667L295.321 152.91ZM301.754 149.121L298.754 150.855L298.255 148.103L301.254 146.368L301.754 149.121ZM301.244 146.299L298.249 148.029L297.75 145.278L300.75 143.545L301.244 146.299ZM300.736 143.477L297.739 145.207L297.239 142.453L300.239 140.726L300.736 143.477ZM299.729 137.903L300.223 140.657L297.223 142.388L296.729 139.637L299.729 137.903ZM296.644 139.686L297.141 142.434L293.784 144.375L293.284 141.621L296.644 139.686ZM293.197 141.673L293.694 144.427L290.337 146.365L289.84 143.613L293.197 141.673ZM289.753 143.662L290.249 146.414L286.892 148.357L286.392 145.601L289.753 143.662ZM286.305 145.652L286.805 148.404L283.445 150.341L282.948 147.596L286.305 145.652ZM279.503 149.577L282.861 147.639L283.357 150.391L279.997 152.334L279.503 149.577ZM280.011 152.405L283.371 150.464L283.865 153.216L280.508 155.159L280.011 152.405ZM280.521 155.227L283.879 153.289L284.378 156.041L281.018 157.976L280.521 155.227ZM281.029 158.047L284.389 156.112L284.889 158.857L281.529 160.801L281.029 158.047ZM281.54 160.869L284.899 158.931L285.396 161.682L282.039 163.623L281.54 160.869ZM282.547 166.445L282.05 163.694L285.407 161.753L285.907 164.505L282.547 166.445ZM285.991 164.456L285.495 161.704L288.852 159.761L289.349 162.518L285.991 164.456ZM289.439 162.466L288.939 159.712L292.299 157.777L292.796 160.522L289.439 162.466ZM292.883 160.473L292.386 157.728L295.744 155.787L296.24 158.541L292.883 160.473ZM296.328 158.489L295.834 155.735L299.191 153.794L299.688 156.546L296.328 158.489ZM299.276 153.745L302.275 152.012L302.772 154.763L299.772 156.499L299.276 153.745Z" fill="#6D637C"/>
</g>
<path d="M275.115 34.8084L276.445 35.1822L258.506 66.4401L234.154 80.5053L224.148 97.9383L207.804 107.377L195.884 128.143L180.897 136.795L181.115 138.119L196.706 129.112L208.625 108.346L224.972 98.9099L234.976 81.4742L259.331 67.4174L277.626 35.5207L278.822 35.8619L279.346 31.1893L275.115 34.8084Z" fill="#E03F3F"/>
<path d="M195.122 216.867L191.95 218.701L191.107 214.036L194.281 212.204L195.122 216.867Z" fill="#6697AA"/>
<path d="M199.803 214.167L196.626 215.999L194.131 202.157L197.305 200.323L199.803 214.167Z" fill="#6697AA"/>
<path d="M204.481 211.464L201.307 213.296L196.719 187.868L199.893 186.034L204.481 211.464Z" fill="#6697AA"/>
<path d="M209.163 208.758L205.988 210.592L199.653 175.502L202.827 173.671L209.163 208.758Z" fill="#6697AA"/>
<path d="M213.841 206.062L210.666 207.897L202.975 165.265L206.146 163.431L213.841 206.062Z" fill="#6697AA"/>
<path d="M218.519 203.357L215.345 205.188L209.613 173.423L212.784 171.589L218.519 203.357Z" fill="#6697AA"/>
<path d="M223.2 200.656L220.025 202.49L217.151 186.567L220.325 184.733L223.2 200.656Z" fill="#6697AA"/>
<path d="M227.879 197.955L224.704 199.787L223.279 191.901L226.454 190.066L227.879 197.955Z" fill="#6697AA"/>
<path d="M232.556 195.25L229.385 197.085L225.525 175.71L228.697 173.876L232.556 195.25Z" fill="#6697AA"/>
<path d="M237.235 192.552L234.063 194.38L229.475 168.958L232.647 167.124L237.235 192.552Z" fill="#6697AA"/>
<path d="M241.916 189.854L238.742 191.682L233.747 164.011L236.921 162.177L241.916 189.854Z" fill="#6697AA"/>
<path d="M246.594 187.152L243.422 188.983L239.781 168.818L242.956 166.984L246.594 187.152Z" fill="#6697AA"/>
<path d="M251.275 184.45L248.103 186.276L242.355 154.44L245.527 152.605L251.275 184.45Z" fill="#6697AA"/>
<path d="M255.953 181.749L252.779 183.578L242.631 127.329L245.805 125.503L255.953 181.749Z" fill="#6697AA"/>
<path d="M260.634 179.048L257.459 180.874L249.023 134.126L252.194 132.292L260.634 179.048Z" fill="#6697AA"/>
<path d="M265.313 176.345L262.139 178.179L257.521 152.593L260.695 150.759L265.313 176.345Z" fill="#6697AA"/>
<path d="M269.992 173.644L266.82 175.478L261.085 143.707L264.257 141.873L269.992 173.644Z" fill="#6697AA"/>
<path d="M274.672 170.939L271.498 172.77L264.622 134.672L267.797 132.841L274.672 170.939Z" fill="#6697AA"/>
<path d="M279.782 123.144L277.443 124.495L276.687 120.294L279.021 118.948L279.782 123.144Z" fill="#6697AA"/>
<path d="M283.227 121.152L280.888 122.503L279.621 115.485L281.958 114.134L283.227 121.152Z" fill="#6697AA"/>
<path d="M286.671 119.168L284.335 120.516L282.047 107.852L284.384 106.5L286.671 119.168Z" fill="#6697AA"/>
<path d="M290.117 117.177L287.78 118.526L286.514 111.502L288.85 110.159L290.117 117.177Z" fill="#6697AA"/>
<path d="M293.563 115.188L291.227 116.541L290.465 112.338L292.805 110.995L293.563 115.188Z" fill="#6697AA"/>
<path d="M283.448 143.479L281.112 144.827L278.197 128.669L280.533 127.318L283.448 143.479Z" fill="#6697AA"/>
<path d="M286.893 141.487L284.556 142.838L282.902 133.669L285.239 132.318L286.893 141.487Z" fill="#6697AA"/>
<path d="M290.34 139.501L288.004 140.844L286.983 135.205L289.322 133.853L290.34 139.501Z" fill="#6697AA"/>
<path d="M293.787 137.51L291.448 138.861L289.608 128.658L291.945 127.312L293.787 137.51Z" fill="#6697AA"/>
<path d="M297.229 135.519L294.893 136.87L292.21 122.011L294.546 120.66L297.229 135.519Z" fill="#6697AA"/>
<path d="M287.119 163.802L284.779 165.153L284.078 161.277L286.414 159.923L287.119 163.802Z" fill="#6697AA"/>
<path d="M290.56 161.815L288.223 163.166L287.879 161.25L290.218 159.904L290.56 161.815Z" fill="#6697AA"/>
<path d="M294.006 159.831L291.672 161.173L290.651 155.531L292.988 154.183L294.006 159.831Z" fill="#6697AA"/>
<path d="M297.453 157.84L295.116 159.191L293.776 151.759L296.113 150.407L297.453 157.84Z" fill="#6697AA"/>
<path d="M300.9 155.847L298.56 157.196L296.783 147.355L299.123 146.004L300.9 155.847Z" fill="#6697AA"/>
<g style="mix-blend-mode:multiply" opacity="0.3">
<path d="M422.598 275.624L413.198 264.425C413.198 264.425 384.828 263.576 363.893 264.079C312.243 265.329 313.813 298.055 370.031 300.626C370.94 296.534 372.605 290.26 372.605 290.26L410.392 290.271C412.947 290.246 421.337 292.148 423.665 293.197C424.184 293.429 424.705 293.647 425.243 293.838C427.342 294.58 432.1 295.986 439.969 295.986C443.844 295.989 432.34 277.966 422.598 275.624Z" fill="#948581"/>
</g>
<path d="M447.528 287.946C445.397 286.082 441.373 282.894 437.274 280.724C434.793 280.997 432.238 281.041 429.596 280.91C424.2 280.637 417.881 279.954 413.227 276.859C413.129 277.883 413.126 278.969 413.2 280.042C413.344 282.179 413.516 283.055 415.995 284.572C428.474 292.204 430.182 293.219 432.442 294.344C435.003 295.613 438.128 297.213 444.853 295.299C448.26 293.784 448.473 292.376 448.317 291.134C448.235 290.476 448.391 288.691 447.528 287.946Z" fill="#AF947B"/>
<path d="M446.86 286.777C443.795 284.293 436.289 279.268 432.569 275.958C431.548 275.051 429.119 272.557 428.551 271.244C427.107 267.906 419.465 267.928 415.199 270.147C413.195 271.189 412.832 274.631 413.048 277.816C413.192 279.962 413.362 280.835 415.843 282.347C428.319 289.979 431.062 291.36 433.38 292.364C435.61 293.331 437.949 294.237 442.829 293.175C444.486 292.815 446.074 292.018 447.218 290.765C448.231 289.662 448.733 288.289 446.86 286.777Z" fill="#443B41"/>
<path opacity="0.5" d="M427.483 286.934C421.864 283.396 420.845 282.984 420.774 274.681C419.587 274.946 416.156 269.654 415.201 270.151C413.197 271.193 412.834 274.635 413.05 277.82C413.195 279.966 413.364 280.839 415.845 282.351C428.321 289.983 431.064 291.364 433.382 292.368C435.612 293.335 437.951 294.241 442.831 293.179C444.488 292.819 446.077 292.022 447.22 290.769C447.417 290.553 447.586 290.324 447.731 290.086C441.314 295.234 435.56 292.03 427.483 286.934Z" fill="#2F292D"/>
<path d="M424.69 278.805C424.531 278.805 424.376 278.712 424.307 278.551C424.22 278.346 424.316 278.1 424.523 278.01C429.466 275.876 429.871 274.612 429.873 274.601C429.898 274.374 430.083 274.221 430.326 274.251C430.553 274.273 430.714 274.494 430.689 274.724C430.662 274.989 430.242 276.441 424.851 278.766C424.802 278.794 424.741 278.805 424.69 278.805Z" fill="#51474E"/>
<path d="M426.494 279.952C426.336 279.952 426.186 279.868 426.118 279.709C426.025 279.499 426.118 279.256 426.325 279.166C430.766 277.174 431.14 276.002 431.146 275.989C431.173 275.762 431.361 275.615 431.599 275.64C431.825 275.661 431.989 275.885 431.962 276.112C431.934 276.36 431.552 277.73 426.664 279.917C426.612 279.941 426.554 279.952 426.494 279.952Z" fill="#51474E"/>
<path d="M428.188 281.091C428.032 281.091 427.882 280.998 427.811 280.85C427.716 280.64 427.808 280.397 428.016 280.302C432.206 278.386 432.566 277.256 432.569 277.245C432.593 277.024 432.774 276.887 433.022 276.892C433.251 276.92 433.412 277.143 433.385 277.367C433.358 277.613 432.992 278.931 428.36 281.05C428.302 281.08 428.245 281.091 428.188 281.091Z" fill="#51474E"/>
<path d="M429.929 282.27C429.774 282.27 429.626 282.183 429.555 282.035C429.457 281.825 429.547 281.582 429.752 281.489C433.737 279.625 434.084 278.536 434.084 278.53C434.108 278.301 434.299 278.165 434.537 278.181C434.766 278.2 434.924 278.424 434.9 278.647C434.875 278.888 434.526 280.174 430.104 282.232C430.047 282.259 429.989 282.27 429.929 282.27Z" fill="#51474E"/>
<path d="M431.699 283.398C431.544 283.398 431.399 283.31 431.325 283.163C431.227 282.953 431.314 282.704 431.522 282.611C435.253 280.834 435.584 279.792 435.586 279.781C435.608 279.557 435.799 279.415 436.037 279.429C436.263 279.459 436.427 279.68 436.403 279.904C436.378 280.133 436.045 281.372 431.874 283.357C431.819 283.387 431.759 283.398 431.699 283.398Z" fill="#51474E"/>
<path d="M433.521 284.614C433.366 284.614 433.221 284.529 433.15 284.379C433.046 284.177 433.134 283.929 433.341 283.83C436.873 282.113 437.187 281.114 437.19 281.103C437.215 280.879 437.406 280.748 437.643 280.751C437.87 280.781 438.031 280.997 438.006 281.226C437.984 281.45 437.662 282.651 433.701 284.57C433.644 284.603 433.584 284.614 433.521 284.614Z" fill="#51474E"/>
<path d="M361.902 298.579C366.179 301.925 376.254 302.894 378.645 297.14C379.758 294.462 375.276 276.997 374.815 271.936C374.684 270.49 374.458 267.943 374.458 267.943C374.051 267.463 372.536 267.179 371.955 266.939C369.474 265.918 365.136 267.201 362.451 267.211C361.086 267.214 360.45 276.391 360.39 277.3C360.027 282.868 358.569 295.977 361.902 298.579Z" fill="#AF947B"/>
<path d="M361.66 295.58C365.937 298.921 376.014 299.895 378.405 294.136C379.516 291.456 375.424 274.014 374.963 268.951C374.832 267.505 374.606 264.955 374.606 264.955C374.199 264.475 372.294 264.172 371.712 263.935C369.231 262.914 364.894 264.197 362.211 264.208C360.846 264.213 360.21 273.384 360.15 274.299C359.785 279.872 358.327 292.974 361.66 295.58Z" fill="#443B41"/>
<path opacity="0.5" d="M364.377 294.377C361.424 291.077 361.186 285.837 361.568 281.879C362.109 276.284 362.6 269.586 363.889 264.08C363.288 264.151 362.715 264.203 362.21 264.208C360.845 264.214 360.209 273.385 360.149 274.299C359.786 279.873 358.329 292.974 361.661 295.581C365.633 298.679 374.512 299.667 377.694 295.207C373.283 297.677 367.923 298.34 364.377 294.377Z" fill="#2F292D"/>
<path d="M369.248 275.078C367.817 275.078 366.13 274.991 364.645 274.696C364.422 274.649 364.277 274.434 364.323 274.205C364.367 273.989 364.588 273.858 364.812 273.888C368.008 274.532 372.368 274.126 372.414 274.117C372.63 274.142 372.843 274.265 372.864 274.491C372.884 274.715 372.72 274.917 372.49 274.944C372.384 274.95 371.014 275.078 369.248 275.078Z" fill="#51474E"/>
<path d="M368.476 272.983C367.261 272.983 365.91 272.895 364.666 272.617C364.442 272.568 364.305 272.344 364.352 272.12C364.404 271.904 364.625 271.749 364.846 271.812C368.012 272.519 372.109 271.91 372.15 271.904C372.391 271.853 372.587 272.027 372.62 272.251C372.653 272.472 372.5 272.685 372.276 272.721C372.164 272.74 370.512 272.983 368.476 272.983Z" fill="#51474E"/>
<path d="M369.501 279.227C368.273 279.227 366.79 279.143 364.967 278.84C364.743 278.804 364.593 278.592 364.629 278.368C364.664 278.141 364.861 277.991 365.104 278.024C368.254 278.556 370.366 278.409 371.9 278.308L372.553 278.267C372.793 278.267 372.976 278.439 372.987 278.66C372.998 278.889 372.823 279.08 372.596 279.096L371.955 279.132C371.264 279.179 370.462 279.227 369.501 279.227Z" fill="#51474E"/>
<path d="M368.915 277.061C367.678 277.061 366.253 276.969 364.85 276.646C364.629 276.603 364.49 276.379 364.542 276.158C364.591 275.928 364.801 275.797 365.036 275.846C368.549 276.633 372.349 275.978 372.389 275.978C372.605 275.899 372.829 276.084 372.87 276.308C372.908 276.529 372.758 276.745 372.534 276.786C372.433 276.802 370.924 277.061 368.915 277.061Z" fill="#51474E"/>
<path d="M369.605 283.768C368.581 283.768 367.274 283.697 365.595 283.468C365.368 283.435 365.21 283.23 365.243 283.001C365.273 282.785 365.458 282.599 365.707 282.649C369.679 283.186 371.494 282.859 372.365 282.701C372.763 282.6 372.965 282.785 373.006 283.006C373.044 283.23 372.894 283.443 372.67 283.484C371.974 283.607 371.09 283.768 369.605 283.768Z" fill="#51474E"/>
<path d="M369.337 281.503C368.237 281.503 366.875 281.411 365.302 281.122C365.078 281.081 364.931 280.865 364.969 280.644C365.01 280.414 365.204 280.262 365.45 280.313C369.476 281.045 372.132 280.431 372.156 280.425C372.383 280.365 372.601 280.51 372.653 280.728C372.708 280.947 372.574 281.168 372.353 281.228C372.277 281.247 371.182 281.503 369.337 281.503Z" fill="#51474E"/>
<path d="M426.493 231.885C425.958 228.366 423.955 218.237 423.807 214.678C423.709 212.263 421.149 193.94 420.611 187.828C419.893 179.7 418.048 167.698 415.619 157.526C414.361 152.247 409.601 148.682 404.278 148.952L372.614 150.557C365.078 150.937 359.681 158.877 358.442 166.32C356.54 177.784 356.376 186.862 356.523 198.364C356.553 200.695 357.38 217.975 357.258 222.956C357.187 225.842 356.774 228.702 356.583 231.584C355.833 242.98 358.325 252.983 359.777 267.4C360.214 271.718 375.583 272.709 375.583 267.223C375.752 260.391 378.709 244.869 378.709 234.576C378.709 233.923 378.747 232.439 378.706 230.727C378.572 225.528 379.402 220.254 380.963 215.29C383.848 206.119 387.484 189.602 389.203 182.017C390.426 185.696 399.687 213.676 403.517 225.238C404.597 228.508 405.201 231.895 405.354 235.34C405.553 239.841 405.951 245.005 407.109 248.297C410.108 256.843 411.323 263.814 412.944 272.038C413.91 276.956 430.669 277.59 429.812 270.962C429.479 268.459 427.896 241.096 426.493 231.885Z" fill="#2E2B33"/>
<path d="M441.966 110.491C438.765 109.694 413.132 100.619 413.132 100.619C413.132 100.619 409.428 76.7552 406.09 67.4887C400.609 72.1096 398.546 83.6498 393.838 88.5847C393.838 88.5847 397.058 108.201 401.57 113.868C403.036 115.713 437.738 123.369 438.92 123.609C444.049 124.641 446.833 111.706 441.966 110.491Z" fill="#443C42"/>
<path d="M442.791 111.646L441.868 111.624C437.866 111.605 435.672 122.83 440.225 123.029L441.191 123.048C445.195 123.062 447.346 111.837 442.791 111.646Z" fill="#F2F2F2"/>
<path d="M349.893 89.0771C349.574 94.9318 352.246 103.39 354.831 108.65C358.232 115.58 361.81 122.557 363.379 130.109C364.583 135.901 359.078 156.986 357.099 163.537C355.513 168.786 372.479 177.086 395.672 172.572C397.907 171.551 401.546 159.489 400.678 157.188C401.532 160.982 405.192 170.006 405.192 170.006C414.47 167.563 417.791 161.749 416.424 157.672C412.398 145.711 409.715 134.78 409.75 128.6C409.791 121.28 409.704 106.276 407.458 73.3446C407.092 67.9812 403.868 60.1449 397.891 60.7099C387.044 61.7471 349.893 82.1306 349.893 89.0771Z" fill="url(#paint6_linear_1_23899)"/>
<path d="M399.089 127.617C401.059 114.71 402.451 84.1423 402.64 81.6612C402.735 80.4329 400.554 78.5769 400.554 78.5769L402.642 74.3351C402.096 71.6848 400.674 69.6298 398.758 68.0385C394.773 64.7249 389.142 63.974 384.3 65.8192C378.342 68.0873 372.042 72.6483 367.23 75.6562C360.707 79.7367 359.732 85.7499 367.211 92.4098C368.044 93.1522 372.796 93.2668 372.796 93.2668C372.796 93.2668 372.662 96.504 373.83 97.7978C381.301 106.104 390.605 119.151 399.089 127.617Z" fill="#544C52"/>
<path d="M397.522 79.6689C396.564 69.9711 393.395 63.0192 384.41 67.7412C370.77 74.9142 364.558 77.0621 367.356 82.1225C372.534 89.9479 382.99 104.316 391.85 116.612C394.031 119.639 398.816 118.075 398.783 114.344C398.687 103.355 398.324 87.8 397.522 79.6689Z" fill="#F2F2F2"/>
<path d="M392.807 80.3854C392.572 82.1379 391.718 83.8848 390.438 85.2196L389.57 82.8912C390.563 81.7584 391.368 80.462 391.92 79.0863C392.163 79.3619 392.818 80.3117 392.807 80.3854ZM382.003 85.7548C383.327 86.6528 385.047 86.9939 386.758 86.6991L385.743 84.4499C384.351 84.6274 382.967 84.5237 381.695 84.147C381.719 84.5292 381.946 85.7193 382.003 85.7548Z" fill="#E03F3F"/>
<path d="M389.127 65.9047C382.158 65.8474 374.579 63.5931 368.254 61.617C370.992 66.0524 371.03 72.2208 371.26 74.9721C371.563 78.5941 374.164 84.861 381.607 83.9985C383.569 83.7692 384.227 82.642 385.447 81.9624L388.035 85.737L388.351 80.524C390.972 79.7188 392.41 77.2458 391.703 75.2533C390.74 72.5539 389.58 68.7434 389.127 65.9047Z" fill="#F1A782"/>
<path d="M381.793 89.3013L385.443 81.9592C378.444 83.9681 371.271 79.6828 371.067 72.2204L370.207 74.4641C369.606 76.0281 369.571 77.7695 370.218 79.3117C372.016 83.5915 375.338 87.9447 381.793 89.3013Z" fill="white"/>
<path d="M390.549 72.4792C390.781 72.7795 391.123 77.7173 388.344 80.5179L395.427 81.6262C395.427 81.6289 392.842 75.9759 390.549 72.4792Z" fill="white"/>
<path d="M314.708 122.822C317.714 122.863 336.471 121.807 339.77 121.621C339.822 121.362 343.131 106.164 344.285 101.382C346.054 94.0615 351.005 83.8342 354.114 84.481C354.57 84.5793 360.422 87.4888 361.634 89.7597C366.557 98.9744 358.566 119.689 358.566 119.689C355.094 126.564 352.823 131.283 350.759 134.005C350.538 134.316 350.301 134.608 350.036 134.881C349.176 135.833 348.327 136.415 347.421 136.674C346.409 137.116 345.309 137.392 344.173 137.414C334.797 137.591 315.257 136.347 314.315 136.292C309.094 135.978 309.689 122.754 314.708 122.822Z" fill="#3E373C"/>
<path d="M313.616 123.728L314.512 123.944C318.388 124.94 317.651 136.352 313.196 135.386L312.26 135.162C308.387 134.157 309.162 122.754 313.616 123.728Z" fill="#F2F2F2"/>
<path d="M285.757 122.635C285.991 122.654 286.21 122.679 286.384 122.701C287.572 122.881 288.767 123.012 289.96 123.129C291.472 123.277 292.984 123.402 294.499 123.495C294.499 123.495 300.144 122.193 300.771 121.746C301.817 121 301.956 119.657 300.728 117.749C299.254 115.448 299.098 112.891 300.103 112.203C300.72 111.777 301.252 112.012 302.005 113.672C303.389 116.723 304.574 117.744 306.615 119.079C308.463 120.288 310.671 122.979 311.329 123.965C311.329 123.965 311.73 124.519 312.413 124.453C314.962 124.336 314.533 134.285 311.94 134.194C307.049 134.486 307.235 134.391 303.343 134.771C301.028 135 289.695 133.717 288.565 131.689C288.41 131.397 288.341 131.061 288.148 130.783C286.952 130.013 286.668 129.669 286.207 128.474C284.296 127.745 284.411 126.549 284.4 126.143C284.395 125.733 284.662 125.294 285.069 125.253C284.649 124.917 284.206 124.538 284.056 124.022C283.691 122.753 284.834 122.586 285.757 122.635Z" fill="#FCBE9F"/>
<path d="M394.17 51.1227C393.897 48.8136 393.228 46.3734 391.112 45.3799C387.832 43.8241 380.416 41.3154 369.405 49.5721C367.814 50.7676 366.97 52.7031 366.026 54.4499C364.94 56.4506 365.073 57.5313 365.592 59.562C366.566 63.386 366.209 65.1248 372.661 70.6601C378.085 75.3057 385.326 78.5809 386.925 79.1377C388.983 79.8556 390.919 79.8202 392.72 79.0205C394.404 78.278 395.938 76.2854 395.804 72.0439C395.703 68.8067 395.179 59.6168 394.17 51.1227Z" fill="#FCBE9F"/>
<path d="M373.815 61.2833C374.582 62.3478 377.039 62.4107 377.301 59.6294C377.617 56.2367 380.612 55.0521 382.962 54.6236C386.772 53.9167 390.067 52.6938 392.61 50.7313C393.134 50.3273 393.525 49.8796 393.852 49.3146C393.852 49.3146 394.98 47.6251 393.263 44.1942C392.357 42.3764 388.372 35.3318 380.107 34.5348C376.204 34.1581 372.186 35.0068 368.678 36.7591C355.269 43.4736 362.281 60.5001 364.642 63.4807C366.326 65.596 369.41 68.4264 371.176 69.3818C369.967 66.8734 366.004 62.0042 368.534 59.7933C369.489 58.9554 370.786 58.745 371.913 59.3455C372.797 59.8123 373.239 60.4918 373.815 61.2833Z" fill="#774D47"/>
<path d="M469.567 117.664C469.34 117.615 469.122 117.585 468.942 117.566C467.746 117.435 466.562 117.252 465.374 117.053C463.879 116.804 462.386 116.54 460.898 116.234C460.898 116.234 455.78 113.521 455.289 112.926C454.47 111.935 454.68 110.603 456.362 109.069C458.384 107.232 459.195 104.806 458.406 103.881C457.917 103.307 457.344 103.397 456.187 104.808C454.063 107.396 452.652 108.079 450.332 108.84C448.236 109.531 445.408 111.561 444.518 112.342C444.518 112.342 443.989 112.776 443.345 112.536C440.916 111.758 438.757 121.48 441.284 122.07C445.93 123.612 445.777 123.475 449.44 124.845C451.615 125.664 462.896 127.357 464.512 125.692C464.738 125.449 464.894 125.137 465.145 124.927C466.504 124.488 466.867 124.229 467.621 123.2C469.654 122.984 469.856 121.794 469.968 121.407C470.08 121.013 469.935 120.525 469.553 120.38C470.047 120.159 470.574 119.911 470.852 119.447C471.535 118.309 470.476 117.855 469.567 117.664Z" fill="#FCBE9F"/>
<path d="M398.765 112.328L389.981 85.3011L387.307 86.7204L391.39 115.972C394.027 119.624 396.538 123.115 398.735 126.21C398.817 124.63 398.839 119.155 398.765 112.328Z" fill="#E03F3F"/>
<path d="M384.76 85.0031C384.285 86.2615 385.899 89.5996 387.684 89.5614C390.531 89.4959 392.644 87.1595 391.08 82.1015C390.924 81.6047 389.611 82.792 388.039 83.5426C386.595 84.2305 384.987 84.3971 384.76 85.0031Z" fill="#E03F3F"/>
<defs>
<linearGradient id="paint0_linear_1_23899" x1="498.533" y1="162.769" x2="504.899" y2="154.408" gradientUnits="userSpaceOnUse">
<stop stop-color="#FFC8B0"/>
<stop offset="1" stop-color="#FCBE9F"/>
</linearGradient>
<linearGradient id="paint1_linear_1_23899" x1="291.524" y1="271.282" x2="301.716" y2="261.091" gradientUnits="userSpaceOnUse">
<stop stop-color="#B6B2AE"/>
<stop offset="1" stop-color="#BCB8B4"/>
</linearGradient>
<linearGradient id="paint2_linear_1_23899" x1="275.942" y1="262.102" x2="326.402" y2="262.102" gradientUnits="userSpaceOnUse">
<stop stop-color="#E1DCD8"/>
<stop offset="1" stop-color="#EFEAE5"/>
</linearGradient>
<linearGradient id="paint3_linear_1_23899" x1="134.478" y1="194.961" x2="206.395" y2="123.044" gradientUnits="userSpaceOnUse">
<stop stop-color="#B6B2AE"/>
<stop offset="1" stop-color="#BCB8B4"/>
</linearGradient>
<linearGradient id="paint4_linear_1_23899" x1="204.307" y1="234.424" x2="206.848" y2="231.883" gradientUnits="userSpaceOnUse">
<stop stop-color="#B6B2AE"/>
<stop offset="1" stop-color="#BCB8B4"/>
</linearGradient>
<linearGradient id="paint5_linear_1_23899" x1="233.171" y1="251.806" x2="234.704" y2="254.461" gradientUnits="userSpaceOnUse">
<stop stop-color="#EAE5E1"/>
<stop offset="1" stop-color="#C9C6C1"/>
</linearGradient>
<linearGradient id="paint6_linear_1_23899" x1="346.599" y1="100.879" x2="389.607" y2="118.882" gradientUnits="userSpaceOnUse">
<stop stop-color="#3B3439"/>
<stop offset="1" stop-color="#443C42"/>
</linearGradient>
</defs>
</svg>
