<svg width="19" height="18" viewBox="0 0 19 18" fill="none" xmlns="http://www.w3.org/2000/svg">
<path d="M17.9544 14.8694C17.5982 15.8754 16.1843 16.7097 15.0565 16.9533C14.2849 17.1176 13.2771 17.2487 9.88449 15.8421C5.54496 14.0443 2.75039 9.63463 2.53258 9.34853C2.32401 9.06243 0.779053 7.01357 0.779053 4.89456C0.779053 2.77556 1.85517 1.74374 2.28893 1.30075C2.64518 0.93712 3.234 0.770996 3.79882 0.770996C3.98155 0.770996 4.14583 0.780226 4.2935 0.787609C4.72727 0.806067 4.94507 0.831909 5.23118 1.51671C5.58742 2.37502 6.45495 4.49402 6.55832 4.71183C6.66353 4.92963 6.76875 5.22497 6.62108 5.51107C6.48264 5.8064 6.36082 5.93745 6.14301 6.18848C5.92521 6.43952 5.71847 6.63148 5.50066 6.90097C5.30132 7.13539 5.07613 7.38642 5.32716 7.82019C5.57819 8.24473 6.44572 9.66047 7.72303 10.7975C9.37135 12.2649 10.7077 12.7338 11.1858 12.9331C11.542 13.0808 11.9666 13.0457 12.2268 12.7688C12.5572 12.4126 12.9652 11.8219 13.3805 11.2405C13.6758 10.8233 14.0487 10.7717 14.44 10.9193C14.8387 11.0578 16.9485 12.1007 17.3822 12.3166C17.816 12.5344 18.1021 12.6378 18.2073 12.8205C18.3107 13.0033 18.3107 13.8616 17.9544 14.8694Z" fill="white"/>
</svg>
