<svg width="486" height="451" viewBox="0 0 486 451" fill="none" xmlns="http://www.w3.org/2000/svg">
<g style="mix-blend-mode:multiply" opacity="0.5">
<path d="M156.461 311.122C147.944 311.122 139.578 313.356 132.201 317.604L2.13877 392.483C-1.00829 394.295 0.280799 399.091 3.91381 399.091H250.268L362.584 311.122H156.461Z" fill="#C0BFBB"/>
</g>
<path d="M379.067 3.88567C378.648 3.62452 378.213 3.36482 377.762 3.10223C377.167 2.76854 376.611 2.48127 376.076 2.23028C370.233 -0.511771 366.697 0.844747 363.574 2.50884C338.014 17.2245 246.977 69.6355 246.977 69.6355C246.68 69.8212 246.384 70.0141 246.095 70.2143C239.235 74.9353 234.524 83.4067 234.268 91.6357C234.24 81.9457 234.22 374.9 234.247 384.671C234.4 389.301 235.717 392.899 241.79 396.522L242.938 397.188C249.798 401.058 253.565 399.677 257.126 397.781C303.691 370.973 327.232 357.422 373.683 330.677C381.74 325.666 384.675 318.256 385.724 313.506L350.021 237.327L385.91 12.6646C385.05 8.48333 382.658 6.12864 379.067 3.88567Z" fill="white"/>
<path d="M373.768 8.76365C380.666 4.7913 386.274 7.9773 386.296 15.8828C386.572 113.398 385.999 211.403 386.275 308.918C386.297 316.822 380.727 326.444 373.828 330.415C334.975 352.783 296.123 375.151 257.272 397.519C250.372 401.49 244.765 398.305 244.743 390.399C244.467 292.885 245.042 194.879 244.764 97.3639C244.74 89.4598 250.311 79.838 257.211 75.8671C296.064 53.4997 334.915 31.1324 373.768 8.76365Z" fill="#CAC9C5"/>
<path d="M251.668 397.198C248.574 397.198 246.792 394.718 246.782 390.396C246.641 341.412 246.718 291.797 246.792 243.818V243.271C246.866 195.409 246.94 145.915 246.804 97.3593C246.782 90.1197 251.91 81.2668 258.231 77.6266L374.787 10.5247C376.42 9.58455 378.005 9.08691 379.375 9.08691C382.468 9.08691 384.25 11.5664 384.26 15.8913C384.401 64.8536 384.324 114.48 384.25 162.472L384.249 163.052C384.176 210.902 384.102 260.384 384.24 308.925C384.262 316.165 379.133 325.018 372.811 328.661L256.256 395.763C254.624 396.7 253.037 397.198 251.668 397.198Z" fill="#171717"/>
<path d="M330.568 45.5938L304.182 60.7839C303.424 61.2206 302.812 60.9609 302.812 60.2065C302.812 59.4506 303.426 58.4844 304.182 58.0491L330.568 42.859C331.326 42.4223 331.939 42.682 331.939 43.4365C331.939 44.1909 331.326 45.1571 330.568 45.5938Z" fill="#0C0C0C"/>
<g opacity="0.5">
<path opacity="0.5" d="M295.878 62.1824C294.994 62.6916 294.276 63.9292 294.276 64.9476C294.276 65.9661 294.993 66.3782 295.878 65.8689C296.761 65.3597 297.48 64.1221 297.48 63.1036C297.48 62.0866 296.762 61.6731 295.878 62.1824Z" fill="url(#paint0_radial_1_13178)"/>
<path opacity="0.4" d="M295.818 61.4005C297.058 60.6867 298.06 61.2655 298.06 62.6917C298.06 64.1179 297.058 65.8516 295.818 66.5654C294.578 67.2777 293.576 66.7003 293.576 65.2742C293.576 63.848 294.58 62.1128 295.818 61.4005Z" fill="url(#paint1_linear_1_13178)"/>
<path opacity="0.4" d="M293.716 64.3541L296.547 65.9848C297.071 65.4669 297.507 64.7893 297.772 64.077L294.762 62.3433C294.274 62.9265 293.903 63.6417 293.716 64.3541Z" fill="url(#paint2_linear_1_13178)"/>
<path opacity="0.7" d="M295.198 63.1994C294.989 63.3198 294.82 63.6114 294.82 63.8522C294.82 64.0931 294.989 64.1903 295.198 64.0698C295.406 63.9494 295.576 63.6564 295.576 63.417C295.576 63.1776 295.406 63.0789 295.198 63.1994Z" fill="url(#paint3_linear_1_13178)"/>
</g>
<path d="M240.598 126.207C240.604 124.767 239.581 123 238.324 122.276C237.067 121.552 236.038 122.136 236.032 123.577L236.064 152.931C236.06 154.395 237.083 156.139 238.34 156.863C239.597 157.586 240.626 157.024 240.632 155.562L240.598 126.207Z" fill="#CAC9C5"/>
<path d="M240.294 126.315C240.295 125.785 240.154 125.209 239.91 124.661C239.695 124.172 239.396 123.705 239.049 123.31C238.758 122.978 238.43 122.698 238.085 122.499C237.471 122.146 236.914 122.113 236.511 122.348L235.6 122.875L238.74 157.32L239.651 156.793C240.045 156.564 240.29 156.077 240.293 155.373V126.315H240.294Z" fill="#F3F2EC"/>
<path d="M239.385 126.841C239.388 125.444 238.395 123.729 237.176 123.027C235.955 122.326 234.957 122.893 234.954 124.291V153.352C234.949 154.772 235.942 156.464 237.163 157.166C238.382 157.867 239.379 157.322 239.385 155.903V126.841Z" fill="#E8E7E2"/>
<path d="M240.598 164.11C240.604 162.67 239.581 160.903 238.324 160.18C237.067 159.455 236.038 160.041 236.032 161.48L236.064 178.003C236.06 179.469 237.083 181.211 238.34 181.934C239.597 182.659 240.626 182.098 240.632 180.634L240.598 164.11Z" fill="#CAC9C5"/>
<path d="M240.294 164.217C240.295 163.688 240.154 163.112 239.91 162.565C239.695 162.075 239.396 161.607 239.049 161.213C238.758 160.881 238.43 160.602 238.085 160.403C237.471 160.051 236.914 160.017 236.511 160.252L235.6 160.779L238.74 182.393L239.651 181.865C240.045 181.638 240.29 181.149 240.293 180.445V164.217H240.294Z" fill="#F3F2EC"/>
<path d="M239.385 164.744C239.388 163.347 238.395 161.632 237.176 160.932C235.955 160.231 234.957 160.797 234.954 162.194V178.424C234.949 179.844 235.942 181.536 237.163 182.237C238.382 182.939 239.379 182.395 239.385 180.975V164.744Z" fill="#E8E7E2"/>
<path opacity="0.95" d="M274.906 405.721L414.03 325.627V261.854L274.906 341.949V405.721Z" fill="#F7F4E8"/>
<path d="M274.906 373.676L414.03 293.58V292.736L274.906 372.831V373.676Z" fill="#EAEAE7"/>
<path opacity="0.95" d="M274.906 94.4168V123.365L414.03 43.2695V14.3213L274.906 94.4168Z" fill="#F7F4E8"/>
<path d="M274.906 94.4154V341.949L414.03 261.853V14.3213L274.906 94.4154Z" fill="#1FA1FF"/>
<path d="M339.106 73.1972C357.228 63.0719 371.655 71.1312 371.674 91.9084C371.69 112.68 357.327 137.406 339.282 147.794C320.994 158.257 306.636 149.866 306.639 129.145C306.643 108.362 321.029 83.852 339.106 73.1972Z" fill="#1583D2"/>
<path d="M400.033 129.689L398.124 130.789L390.76 123.069L383.395 139.267L290.051 193.007C283.979 196.504 279.057 204.245 279.057 210.301V227.949C279.057 234.004 283.979 236.079 290.051 232.581L400.033 169.263C406.105 165.768 411.027 158.025 411.027 151.971V134.321C411.027 128.269 406.105 126.192 400.033 129.689Z" fill="#1583D2"/>
<path d="M411.887 136.512L409.978 137.612L402.613 129.892L395.248 146.092L301.905 199.83C295.833 203.327 290.91 211.068 290.91 217.124V234.772C290.91 240.828 295.833 242.902 301.905 239.406L411.887 176.088C417.958 172.593 422.882 164.85 422.882 158.795V141.148C422.88 135.093 417.958 133.017 411.887 136.512Z" fill="white"/>
<path d="M296.406 241.742C295.242 241.742 294.18 241.482 293.269 240.958C291.334 239.842 290.267 237.647 290.267 234.77V217.123C290.267 210.871 295.345 202.867 301.584 199.273L394.747 145.638L402.027 129.625C402.117 129.431 402.296 129.293 402.507 129.256C402.715 129.217 402.932 129.291 403.08 129.448L410.094 136.802L411.565 135.955C414.964 133.999 418.227 133.635 420.523 134.957C422.46 136.072 423.525 138.269 423.525 141.144V158.794C423.525 165.042 418.449 173.049 412.21 176.643L302.227 239.961C300.177 241.141 298.174 241.742 296.406 241.742ZM402.804 131.024L395.834 146.356C395.779 146.478 395.684 146.579 395.568 146.647L302.226 200.386C296.34 203.774 291.552 211.282 291.552 217.123V234.77C291.552 237.167 292.39 238.97 293.911 239.845C295.798 240.932 298.594 240.568 301.581 238.847L411.564 175.529C417.448 172.141 422.236 164.633 422.236 158.794V141.147C422.236 138.751 421.398 136.947 419.877 136.072C417.99 134.986 415.195 135.348 412.208 137.071C412.207 137.071 410.298 138.169 410.298 138.169C410.043 138.317 409.717 138.27 409.511 138.056L402.804 131.024Z" fill="#5E81E5"/>
<path d="M406.389 209.309C405.731 209.42 405.049 209.683 404.365 210.054C403.77 209.397 402.984 208.969 402.242 208.705C400.905 208.229 399.465 209.046 398.127 211.061C398.037 211.199 397.943 211.34 397.851 211.485C396.23 214.004 394.47 214.726 392.897 213.679C392.396 213.346 391.877 213.091 391.391 212.897C389.983 212.337 388.459 213.245 387.054 215.431C386.696 215.987 386.322 216.595 385.951 217.237C385.618 217.813 385.277 218.292 384.934 218.717C383.387 218.952 381.769 219.309 380.29 219.684C379.701 219.256 379.089 218.909 378.523 218.661C377.05 218.015 375.453 218.938 373.98 221.282C373.678 221.761 373.364 222.281 373.046 222.825C373.019 222.846 372.993 222.858 372.965 222.881C371.502 224.126 369.381 225.993 367.208 228.04C366.954 227.952 366.7 227.833 366.455 227.662C363.904 225.893 360.313 225.44 358.327 225.33C357.361 225.277 356.37 225.839 355.404 227.004C353.412 229.408 349.791 234.032 347.233 238.768C345.492 241.99 343.498 243.197 341.764 241.92C341.156 241.471 340.52 241.131 339.935 240.876C338.469 240.234 336.878 241.131 335.413 243.457C335.175 243.835 334.923 244.256 334.671 244.678C334.433 244.748 334.185 244.821 333.971 244.884C332.611 245.293 331.216 246.093 329.857 247.248C329.128 247.869 328.24 248.636 327.267 249.497C324.782 248.054 321.625 247.612 319.797 247.51C318.833 247.457 317.845 248.02 316.881 249.182C314.843 251.641 311.098 256.426 308.533 261.277C308.187 261.93 307.83 262.486 307.469 262.978C306.186 263.266 304.861 263.902 303.554 264.883C303.46 264.843 303.362 264.822 303.269 264.769C302.894 264.555 302.512 264.379 302.153 264.238C300.771 263.696 299.274 264.585 297.891 266.725C297.404 267.481 296.883 268.335 296.383 269.244C294.811 272.103 293.049 273.406 291.429 272.755C291.337 272.718 291.242 272.684 291.152 272.652C289.814 272.177 288.375 273.019 287.037 275.034C286.295 276.151 285.51 277.483 284.915 278.826C284.229 279.243 283.55 279.765 282.891 280.411C281.363 281.908 279.607 283.859 279.607 284.911C279.607 285.964 281.363 285.892 282.891 285.631C283.549 285.519 284.231 285.256 284.915 284.885C285.51 285.541 286.295 285.97 287.037 286.234C288.375 286.709 289.815 285.892 291.152 283.877C291.244 283.737 291.338 283.597 291.43 283.45C293.052 280.931 294.813 280.209 296.386 281.255C296.885 281.587 297.405 281.843 297.891 282.036C299.272 282.585 300.771 281.75 302.153 279.616C302.512 279.061 302.891 278.451 303.266 277.805C303.359 277.645 303.455 277.515 303.548 277.367C304.856 276.845 306.186 275.949 307.469 274.761C307.83 274.837 308.187 274.979 308.53 275.234C311.097 277.133 314.843 277.606 316.881 277.718C317.845 277.772 318.833 277.197 319.797 276.034C321.628 273.825 324.812 269.749 327.3 265.437C328.261 265.18 329.137 264.926 329.857 264.71C331.217 264.301 332.612 263.493 333.971 262.336C334.185 262.154 334.433 261.942 334.671 261.736C334.923 261.869 335.175 262 335.413 262.103C336.88 262.74 338.47 261.807 339.935 259.475C340.519 258.547 341.156 257.475 341.764 256.326C343.497 253.054 345.492 251.964 347.233 253.183C349.791 254.972 353.412 255.428 355.404 255.536C356.37 255.59 357.361 255.013 358.327 253.846C360.313 251.448 363.904 246.863 366.455 242.155C366.7 241.701 366.954 241.291 367.208 240.911C369.381 240.458 371.502 239.88 372.965 239.439C372.993 239.432 373.018 239.412 373.046 239.405C373.364 239.586 373.678 239.741 373.98 239.873C375.453 240.52 377.05 239.603 378.523 237.262C379.089 236.364 379.699 235.312 380.29 234.208C381.772 232.876 383.39 231.369 384.938 229.822C385.28 229.851 385.621 229.935 385.951 230.128C386.322 230.343 386.697 230.521 387.054 230.663C388.461 231.231 389.984 230.386 391.391 228.204C391.877 227.45 392.395 226.598 392.894 225.693C394.467 222.835 396.227 221.53 397.848 222.183C397.941 222.22 398.036 222.254 398.127 222.288C399.465 222.761 400.905 221.919 402.242 219.904C402.984 218.788 403.77 217.455 404.365 216.113C405.049 215.697 405.73 215.174 406.389 214.529C407.916 213.03 409.672 211.08 409.672 210.028C409.672 208.977 407.916 209.046 406.389 209.309Z" fill="#1583D2"/>
<path d="M409.841 217.803C409.75 217.942 409.656 218.083 409.565 218.228C407.943 220.745 406.182 221.468 404.611 220.422C404.11 220.088 403.591 219.834 403.103 219.64C401.696 219.078 400.173 219.987 398.768 222.173C398.41 222.729 398.034 223.338 397.663 223.981C395.922 227.003 393.984 227.959 392.287 226.615C391.612 226.083 390.892 225.688 390.237 225.403C388.763 224.757 387.167 225.68 385.693 228.024C385.095 228.973 384.445 230.076 383.824 231.255C382.028 234.665 379.977 235.658 378.168 234.403C375.618 232.635 372.028 232.182 370.042 232.072C369.076 232.018 368.084 232.583 367.119 233.746C365.126 236.152 361.506 240.774 358.947 245.51C357.207 248.733 355.214 249.939 353.479 248.662C352.871 248.214 352.235 247.874 351.65 247.618C350.184 246.976 348.594 247.874 347.127 250.199C346.52 251.163 345.855 252.283 345.222 253.485C343.459 256.833 341.435 257.84 339.663 256.601C337.108 254.818 333.503 254.362 331.51 254.251C330.546 254.197 329.558 254.761 328.594 255.924C326.557 258.381 322.81 263.167 320.247 268.018C318.578 271.173 316.686 272.483 314.981 271.51C314.604 271.296 314.225 271.119 313.864 270.98C312.483 270.438 310.985 271.327 309.604 273.467C309.115 274.223 308.595 275.076 308.095 275.984C306.522 278.844 304.762 280.148 303.141 279.496C303.049 279.46 302.955 279.424 302.864 279.392C301.526 278.919 300.085 279.759 298.75 281.776C297.324 283.922 295.687 286.881 295.687 289.137C295.687 291.396 297.324 292.468 298.75 292.975C300.085 293.45 301.526 292.634 302.864 290.618C302.956 290.479 303.049 290.337 303.142 290.192C304.765 287.673 306.524 286.951 308.098 287.997C308.595 288.329 309.116 288.583 309.604 288.777C310.985 289.327 312.483 288.492 313.864 286.357C314.225 285.802 314.603 285.192 314.978 284.545C316.684 281.61 318.576 280.743 320.244 281.976C322.81 283.874 326.555 284.347 328.594 284.46C329.558 284.512 330.546 283.939 331.51 282.774C333.501 280.371 337.11 275.762 339.663 271.038C341.437 267.756 343.459 266.436 345.222 267.754C345.855 268.225 346.52 268.581 347.127 268.845C348.595 269.48 350.185 268.549 351.65 266.217C352.234 265.287 352.871 264.216 353.479 263.067C355.212 259.794 357.207 258.705 358.947 259.923C361.506 261.714 365.126 262.168 367.119 262.278C368.084 262.33 369.076 261.753 370.042 260.588C372.028 258.19 375.618 253.604 378.168 248.897C379.977 245.562 382.027 244.194 383.824 245.537C384.445 246.001 385.095 246.352 385.693 246.614C387.167 247.261 388.763 246.345 390.237 244.002C390.893 242.958 391.615 241.734 392.29 240.421C393.985 237.127 395.923 235.851 397.665 236.868C398.036 237.083 398.41 237.26 398.768 237.404C400.175 237.971 401.696 237.125 403.103 234.945C403.589 234.19 404.109 233.339 404.608 232.432C406.181 229.574 407.941 228.271 409.562 228.922C409.655 228.96 409.748 228.995 409.84 229.028C411.178 229.501 412.619 228.66 413.956 226.644C415.38 224.497 417.019 221.538 417.019 219.282C417.019 217.026 415.38 215.95 413.956 215.446C412.62 214.973 411.178 215.789 409.841 217.803Z" fill="#40579C"/>
<path d="M407.5 221.337C405.617 221.661 403.589 222.818 401.708 224.664C401.679 224.694 401.648 224.723 401.618 224.754C400.895 225.015 400.18 225.172 399.496 225.188C396.079 225.26 391.244 226.569 388.583 227.373C387.292 227.763 385.968 228.527 384.678 229.624C382.433 231.534 378.663 234.85 375.491 238.151C375.023 238.187 374.554 238.238 374.11 238.299C372.036 238.577 369.789 239.874 367.715 241.982C366.996 242.714 366.223 243.538 365.468 244.388C364.892 244.418 364.319 244.469 363.775 244.54C361.806 244.807 359.674 246.03 357.706 248.031C357.291 248.452 356.856 248.907 356.42 249.377C352.896 249.601 348.305 250.838 345.684 251.627C344.323 252.038 342.928 252.836 341.569 253.992C338.764 256.376 333.667 260.863 330.068 264.933C329.585 265.478 329.086 265.967 328.582 266.421C327.885 266.842 327.194 267.376 326.515 267.991C325.102 268.866 323.685 269.359 322.371 269.367C321.514 269.371 320.619 269.455 319.796 269.567C317.733 269.844 315.493 271.122 313.429 273.219C312.573 274.088 311.638 275.076 310.747 276.101C309.822 277.165 308.846 278.045 307.859 278.735V285.524C308.847 285.076 309.823 284.834 310.747 284.832C311.636 284.832 312.573 284.744 313.429 284.628C315.493 284.345 317.733 283.045 319.796 280.949C320.618 280.113 321.514 279.166 322.371 278.183C323.683 276.679 325.102 275.541 326.515 274.788C327.194 274.62 327.884 274.359 328.582 273.977C329.087 273.851 329.585 273.766 330.068 273.755C333.669 273.679 338.765 272.297 341.569 271.453C342.929 271.042 344.325 270.234 345.684 269.078C348.305 266.849 352.896 262.802 356.42 258.967C356.856 258.934 357.291 258.887 357.706 258.832C359.674 258.565 361.806 257.336 363.775 255.336C364.319 254.783 364.893 254.169 365.468 253.54C366.223 253.519 366.996 253.454 367.715 253.358C369.789 253.08 372.036 251.787 374.11 249.679C374.556 249.226 375.023 248.74 375.491 248.235C378.664 247.884 382.433 246.86 384.678 246.183C385.968 245.794 387.292 245.036 388.583 243.941C391.244 241.678 396.08 237.42 399.496 233.559C400.18 232.786 400.895 232.123 401.618 231.55C401.648 231.544 401.677 231.538 401.708 231.534C403.591 231.211 405.619 230.036 407.5 228.191C409.507 226.225 411.813 223.663 411.813 222.282C411.813 220.9 409.507 220.995 407.5 221.337Z" fill="#4E75CC"/>
<path d="M413.691 218.587C413.594 218.683 413.493 218.78 413.394 218.88C411.656 220.618 409.769 221.57 408.084 221.631C407.548 221.651 406.991 221.713 406.469 221.792C404.96 222.021 403.329 222.976 401.82 224.486C401.436 224.869 401.036 225.282 400.639 225.713C398.772 227.728 396.693 228.85 394.874 228.818C394.151 228.805 393.38 228.873 392.676 228.967C391.096 229.179 389.385 230.167 387.805 231.775C387.164 232.426 386.466 233.168 385.8 233.932C383.876 236.148 381.678 237.327 379.738 237.372C377.004 237.437 373.158 238.479 371.027 239.12C369.992 239.432 368.931 240.042 367.895 240.919C365.759 242.736 361.877 246.152 359.135 249.253C357.268 251.362 355.131 252.619 353.273 252.629C352.621 252.633 351.938 252.696 351.313 252.78C349.74 252.992 348.036 253.965 346.464 255.561C345.813 256.221 345.099 256.977 344.422 257.756C342.531 259.932 340.364 261.107 338.461 261.148C335.725 261.209 331.857 262.255 329.723 262.898C328.69 263.208 327.631 263.816 326.598 264.694C324.414 266.549 320.398 270.087 317.648 273.244C315.86 275.295 313.832 276.566 312.004 276.708C311.601 276.739 311.194 276.791 310.808 276.85C309.327 277.08 307.722 278.017 306.241 279.495C305.719 280.016 305.159 280.598 304.625 281.196C302.939 283.076 301.052 284.299 299.314 284.56C299.215 284.574 299.115 284.59 299.016 284.608C297.583 284.853 296.038 285.747 294.606 287.154C293.077 288.65 291.321 290.601 291.321 291.655C291.321 292.706 293.077 292.635 294.606 292.374C296.038 292.129 297.584 291.245 299.016 289.84C299.115 289.744 299.215 289.644 299.316 289.544C301.053 287.804 302.94 286.854 304.626 286.793C305.162 286.774 305.719 286.71 306.241 286.632C307.722 286.407 309.327 285.494 310.808 284.017C311.195 283.633 311.6 283.217 312.002 282.784C313.829 280.821 315.857 279.756 317.648 279.749C320.398 279.739 324.412 278.652 326.598 277.994C327.631 277.683 328.69 277.069 329.723 276.192C331.857 274.377 335.725 270.97 338.461 267.88C340.364 265.731 342.531 264.41 344.422 264.408C345.1 264.408 345.813 264.341 346.464 264.253C348.036 264.038 349.74 263.049 351.313 261.451C351.94 260.814 352.619 260.092 353.273 259.345C355.131 257.215 357.268 256.012 359.135 255.973C361.877 255.915 365.759 254.863 367.895 254.219C368.931 253.907 369.992 253.292 371.027 252.413C373.158 250.602 377.004 247.211 379.738 244.128C381.678 241.944 383.876 240.591 385.8 240.591C386.466 240.59 387.164 240.528 387.805 240.441C389.385 240.229 391.096 239.244 392.676 237.638C393.38 236.922 394.154 236.1 394.877 235.252C396.696 233.124 398.773 231.855 400.64 231.721C401.036 231.691 401.437 231.643 401.822 231.585C403.329 231.358 404.961 230.434 406.47 228.925C406.991 228.406 407.548 227.827 408.082 227.229C409.768 225.349 411.656 224.126 413.393 223.866C413.493 223.85 413.594 223.836 413.692 223.818C415.126 223.572 416.671 222.678 418.104 221.272C419.632 219.775 421.388 217.825 421.388 216.772C421.388 215.719 419.632 215.791 418.104 216.052C416.669 216.296 415.124 217.181 413.691 218.587Z" fill="#6997FF"/>
<path d="M364.726 115.337C366.097 116.132 367.469 116.926 368.839 117.721C370.232 118.527 370.738 120.75 369.824 123.372L365.711 120.988C366.623 118.366 366.118 116.144 364.726 115.337Z" fill="#006633"/>
<path d="M342.606 133.501C341.234 132.707 339.862 131.912 338.493 131.116C344.064 134.345 351.733 133.888 359.952 129.221C361.164 128.525 362.167 127.567 362.973 126.079C363.51 125.085 364.121 124.124 364.662 123.134C365.048 122.431 365.459 121.702 365.71 120.985L369.823 123.369C369.573 124.085 369.161 124.815 368.777 125.517C368.235 126.508 367.623 127.469 367.086 128.461C366.281 129.949 365.279 130.906 364.066 131.603C355.846 136.274 348.179 136.729 342.606 133.501Z" fill="#006633"/>
<path d="M347.866 124.603L343.753 122.22C341.841 121.111 340.366 119.234 339.321 116.59C339.032 115.861 339.09 115.201 339.774 114.231C340.158 113.686 340.479 113.069 340.793 112.47C341.783 110.575 342.149 108.802 341.812 107.309C341.431 105.627 341.003 103.974 340.457 102.443C340.193 101.706 339.768 101.19 339.24 100.884L343.353 103.267C343.881 103.572 344.306 104.09 344.57 104.827C345.118 106.358 345.544 108.01 345.925 109.693C346.263 111.185 345.894 112.958 344.907 114.854C344.594 115.453 344.269 116.068 343.887 116.615C343.203 117.586 343.145 118.244 343.434 118.974C344.479 121.617 345.953 123.496 347.866 124.603Z" fill="#006633"/>
<path d="M370.99 75.6771C372.36 76.4721 373.732 77.2672 375.103 78.0608C369.222 74.6528 361.044 75.1475 351.933 80.237L347.818 77.8533C356.93 72.7624 365.107 72.2676 370.99 75.6771Z" fill="#006633"/>
<path d="M328.888 157.18C327.517 156.387 326.145 155.591 324.774 154.796C318.924 151.406 315.352 144.137 315.354 133.802C315.357 113.019 329.742 88.5084 347.818 77.8535L351.933 80.2372C333.855 90.8921 319.47 115.402 319.467 136.185C319.465 146.521 323.037 153.79 328.888 157.18Z" fill="#006633"/>
<path d="M351.934 80.2372C370.055 70.1119 384.483 78.1713 384.502 98.9485C384.518 119.72 370.154 144.446 352.11 154.834C333.821 165.297 319.464 156.906 319.467 136.185C319.471 115.402 333.856 90.8921 351.934 80.2372Z" fill="#3AAA35"/>
<path d="M310.12 206.555C314.198 204.276 317.446 206.09 317.45 210.767C317.454 215.442 314.221 221.007 310.159 223.346C306.043 225.701 302.811 223.812 302.812 219.148C302.813 214.47 306.051 208.953 310.12 206.555Z" fill="#3AAA35"/>
<path d="M331.163 195.909C335.242 193.63 338.489 195.444 338.493 200.12C338.497 204.796 335.264 210.361 331.203 212.699C327.086 215.054 323.855 213.165 323.855 208.502C323.856 203.824 327.094 198.307 331.163 195.909Z" fill="#3AAA35"/>
<path d="M352.676 185.263C356.755 182.984 360.002 184.798 360.006 189.475C360.01 194.15 356.777 199.715 352.716 202.054C348.599 204.409 345.368 202.52 345.368 197.856C345.369 193.178 348.607 187.661 352.676 185.263Z" fill="#3AAA35"/>
<path d="M369.824 123.372C371.103 119.71 369.605 116.824 366.792 117.494C365.27 117.856 363.75 118.179 362.197 118.729C361.877 118.844 361.547 119.003 361.212 119.196C360.659 119.514 360.098 119.917 359.562 120.334C358.23 121.373 357.473 123.086 356.591 124.615C356.373 124.992 356.18 125.226 355.943 125.364C355.831 125.428 355.708 125.471 355.569 125.499C349.628 126.655 345.602 124.464 343.434 118.976C343.145 118.246 343.203 117.586 343.887 116.617C344.271 116.071 344.594 115.455 344.907 114.855C345.896 112.961 346.264 111.188 345.925 109.695C345.544 108.012 345.118 106.359 344.571 104.829C343.842 102.789 341.873 102.436 339.905 103.57C338.73 104.244 337.558 105.448 336.644 107.14C336.048 108.248 335.343 109.31 334.767 110.423C334.377 111.176 334.009 112.007 333.842 112.755C333.647 113.631 333.679 114.454 333.592 115.579C333.855 117.326 334.048 119.373 334.463 121.241C337.569 135.257 350.012 139.588 364.067 131.608C365.28 130.912 366.283 129.954 367.087 128.466C367.624 127.472 368.237 126.511 368.778 125.522C369.161 124.818 369.574 124.088 369.824 123.372Z" fill="white"/>
<path d="M431.116 291.356C430.759 290.748 429.812 290.921 428.99 291.751C424.248 296.551 417.145 301.828 409.499 306.23C401.854 310.631 394.748 313.533 390.009 314.192C389.187 314.306 388.24 315.225 387.883 316.243C387.525 317.263 387.898 317.999 388.712 317.886C393.847 317.172 401.423 314.096 409.499 309.446C417.576 304.798 425.152 299.15 430.285 293.951C431.102 293.126 431.473 291.964 431.116 291.356Z" fill="#392D6C"/>
<path d="M444.679 327.908L442.067 326.395L415.894 270.338L418.504 271.852L444.679 327.908Z" fill="#CAC9C5"/>
<path d="M418.504 271.851L415.894 270.338L422.067 266.784L424.679 268.297L418.504 271.851Z" fill="#B8C1C7"/>
<path d="M424.679 268.297L450.852 324.354L444.679 327.908L418.504 271.851L424.679 268.297Z" fill="#E8E7E2"/>
<path d="M400.362 282.287L397.751 280.774L403.924 277.219L406.536 278.732L400.362 282.287Z" fill="#B8C1C7"/>
<path d="M374.592 368.261L371.982 366.748L397.751 280.774L400.362 282.287L374.592 368.261Z" fill="#CAC9C5"/>
<path d="M400.362 282.287L406.536 278.732L380.765 364.707L374.592 368.261L400.362 282.287Z" fill="#E8E7E2"/>
<path d="M389.444 302.44L431.792 326.822V330.021L389.444 305.639V302.44Z" fill="#CAC9C5"/>
<path d="M443.808 323.103L431.792 330.02V326.821L443.808 319.904V323.103Z" fill="#E8E7E2"/>
<path d="M431.792 326.822L389.444 302.44L401.461 295.523L443.808 319.904L431.792 326.822Z" fill="#F3F2EC"/>
<path d="M382.497 325.375L424.846 349.755V352.955L382.497 328.574V325.375Z" fill="#CAC9C5"/>
<path d="M436.863 346.036L424.846 352.955V349.754L436.863 342.837V346.036Z" fill="#E8E7E2"/>
<path d="M424.846 349.755L382.497 325.375L394.513 318.456L436.863 342.837L424.846 349.755Z" fill="#F3F2EC"/>
<path d="M375.551 348.308L417.899 372.688V375.887L375.551 351.507V348.308Z" fill="#CAC9C5"/>
<path d="M429.915 368.971L417.899 375.887V372.688L429.915 365.77V368.971Z" fill="#E8E7E2"/>
<path d="M417.899 372.688L375.551 348.308L387.567 341.389L429.915 365.77L417.899 372.688Z" fill="#F3F2EC"/>
<path d="M443.867 307.333L441.257 305.82L447.43 302.265L450.04 303.778L443.867 307.333Z" fill="#B8C1C7"/>
<path d="M418.098 393.307L415.486 391.794L441.257 305.82L443.867 307.333L418.098 393.307Z" fill="#CAC9C5"/>
<path d="M443.867 307.333L450.04 303.778L424.271 389.754L418.098 393.307L443.867 307.333Z" fill="#E8E7E2"/>
<path d="M488.183 352.955L485.573 351.442L459.4 295.385L462.01 296.898L488.183 352.955Z" fill="#CAC9C5"/>
<path d="M462.01 296.898L459.4 295.385L465.573 291.831L468.183 293.344L462.01 296.898Z" fill="#B8C1C7"/>
<path d="M468.183 293.344L494.356 349.401L488.183 352.955L462.01 296.898L468.183 293.344Z" fill="#E8E7E2"/>
<path d="M397.669 277.537L443.867 304.134V307.333L397.669 280.736V277.537Z" fill="#CAC9C5"/>
<path d="M468.102 293.38L443.867 307.333V304.134L468.102 290.181V293.38Z" fill="#E8E7E2"/>
<path d="M443.867 304.134L397.669 277.537L421.904 263.584L468.102 290.181L443.867 304.134Z" fill="#F3F2EC"/>
<path d="M478.048 318.375C477.691 317.767 476.744 317.94 475.922 318.77C471.18 323.57 464.076 328.847 456.432 333.249C448.784 337.651 441.68 340.554 436.941 341.212C436.119 341.325 435.17 342.244 434.815 343.264C434.458 344.282 434.83 345.018 435.645 344.905C440.779 344.191 448.355 341.115 456.432 336.467C464.508 331.817 472.083 326.17 477.217 320.97C478.033 320.146 478.404 318.983 478.048 318.375Z" fill="#392D6C"/>
<path d="M477.489 319.142C477.489 319.415 477.268 319.763 476.995 319.92C476.721 320.075 476.501 319.984 476.501 319.711C476.501 319.438 476.721 319.09 476.995 318.933C477.268 318.777 477.489 318.871 477.489 319.142Z" fill="#E8E7E2"/>
<path d="M436.954 342.712C436.954 342.985 436.733 343.333 436.46 343.489C436.186 343.645 435.966 343.554 435.966 343.28C435.966 343.007 436.186 342.66 436.46 342.504C436.733 342.347 436.954 342.441 436.954 342.712Z" fill="#E8E7E2"/>
<g style="mix-blend-mode:multiply" opacity="0.5">
<path d="M349.819 450.663H320.379L286.639 431.239L324.513 409.434L349.819 450.663Z" fill="#C0BFBB"/>
</g>
<path d="M349.819 450.663L321.191 434.183V402.373L349.819 418.854V450.663Z" fill="#CAC9C5"/>
<path d="M378.445 434.183L349.819 450.663V418.854L378.445 402.373V434.183Z" fill="#E8E7E2"/>
<path d="M406.902 190.428C408.856 188.549 412.587 185.555 416.566 182.834C417.573 185.503 418.436 187.217 419.368 189.916L411.062 193.478L410.43 200.658C410.43 200.658 408.785 203.095 407.614 202.596C406.917 202.299 406.332 200.21 405.891 197.306C405.7 196.043 405.561 194.96 405.524 193.827C405.484 192.548 405.978 191.316 406.902 190.428Z" fill="#FFC7A3"/>
<path d="M410.571 199.213C411.148 198.978 411.836 198.602 412.451 198.711C412.731 198.762 412.984 198.909 413.26 198.978C413.62 199.068 413.998 199.02 414.365 199.069C416.004 199.291 416.093 200.784 416.343 202.094C416.42 202.499 416.489 202.956 416.257 203.298C416.144 203.467 415.968 203.593 415.895 203.783C415.85 203.902 415.851 204.032 415.831 204.157C415.738 204.706 415.192 205.062 414.645 205.17C412.754 205.543 409.277 203.86 408.29 203.31C407.491 202.867 406.821 202.077 406.787 201.241C406.748 200.275 407.026 198.854 409.46 198.801C410.084 198.788 410.571 199.213 410.571 199.213Z" fill="#FFC7A3"/>
<path d="M410.618 203.39C411.252 202.444 410.763 202.095 412.432 202.313C413.656 202.471 414.865 202.619 416.08 202.877C416.195 202.904 416.298 202.895 416.399 202.88C416.378 203.031 416.345 203.173 416.259 203.3C416.145 203.468 415.969 203.594 415.897 203.784C415.851 203.903 415.853 204.034 415.833 204.158C415.739 204.707 415.194 205.064 414.647 205.171C413.342 205.428 411.295 204.708 409.821 204.055C410.132 203.907 410.41 203.701 410.618 203.39Z" fill="#FFAF84"/>
<path d="M408.107 199.887C407.442 200.417 406.978 200.961 407.449 202.657C407.049 202.503 406.725 201.859 406.695 201.089C406.669 200.449 406.789 200.006 407.499 199.368C408.069 198.856 408.862 198.664 409.79 198.766C410.059 198.796 410.571 199.213 410.571 199.213C409.988 199.236 409.02 199.164 408.107 199.887Z" fill="#100114"/>
<path d="M407.375 198.725L410.665 199.051L410.615 199.45C410.606 199.512 410.544 199.566 410.433 199.597L408.871 200.014C408.671 200.068 408.392 200.022 408.245 199.91L407.411 199.274C407.347 199.227 407.32 199.173 407.324 199.124L407.375 198.725Z" fill="#FAF4EA"/>
<path d="M407.554 198.58C407.355 198.632 407.314 198.767 407.461 198.879L408.293 199.513C408.441 199.624 408.721 199.672 408.92 199.619L410.484 199.199C410.683 199.146 410.724 199.012 410.577 198.9L409.745 198.266C409.597 198.155 409.317 198.108 409.118 198.161L407.554 198.58Z" fill="#100114"/>
<path d="M408.654 200.646C409.629 199.709 410.571 199.213 410.571 199.213C410.602 199.198 410.637 199.185 410.669 199.172C410.921 199.066 412.009 201.717 412.009 201.717C412.009 201.717 407.679 201.582 408.654 200.646Z" fill="#FFC7A3"/>
<path d="M412.248 185.311C416.511 182.621 423.062 177.382 426.284 179.075C427.151 182.936 428.114 186.061 424.542 188.844L416.386 192.198C413.985 193.475 410.972 186.236 412.248 185.311Z" fill="#FF5A9D"/>
<path d="M411.683 285.679C411.754 285.708 411.832 285.718 411.904 285.734L411.226 285.342C411.356 285.484 411.503 285.608 411.683 285.679Z" fill="#C0BFBB"/>
<path d="M411.103 282.817C411.618 281.559 412.47 280.447 413.534 279.6C412.962 278.628 412.633 277.611 412.633 276.553C412.633 272.001 418.31 268.082 426.514 266.237L421.906 263.584L397.671 277.537L411.228 285.342C410.994 285.086 410.838 284.749 410.8 284.401C410.74 283.863 410.896 283.319 411.103 282.817Z" fill="#F3F2EC"/>
<path d="M425.086 286.535C421.638 285.622 418.043 285.232 414.503 285.679C413.813 285.768 413.121 285.813 412.422 285.792C412.249 285.788 412.076 285.769 411.906 285.734L443.868 304.135L468.103 290.182L461.47 286.364C455.189 287.404 447.107 288.003 437.037 288.003C432.693 288.002 428.617 287.469 425.086 286.535Z" fill="#F3F2EC"/>
<path d="M412.632 276.555C412.632 277.613 412.962 278.63 413.532 279.602C412.47 280.449 411.616 281.56 411.101 282.818C410.895 283.32 410.739 283.864 410.799 284.403C410.836 284.751 410.992 285.089 411.226 285.344L411.904 285.736C412.075 285.771 412.248 285.79 412.421 285.794C413.118 285.814 413.812 285.768 414.501 285.681C418.043 285.232 421.637 285.624 425.085 286.537C428.616 287.473 432.693 288.005 437.036 288.005C447.105 288.005 455.188 287.406 461.469 286.366L426.512 266.237C418.311 268.084 412.632 272.002 412.632 276.555Z" fill="#C0BFBB"/>
<path d="M447.039 170.404C447.834 178.633 441.911 183.285 441.345 190.12C440.689 189.784 439.921 189.752 439.214 189.537C432.018 187.341 434.014 172.181 438.169 165.81C439.733 163.411 446.477 164.606 447.039 170.404Z" fill="#EAA86C"/>
<path d="M406.284 282.876C406.47 282.409 411.133 278.101 412.491 275.976C413.179 274.902 414.498 274.406 415.744 274.683C416.22 274.79 416.905 274.953 417.518 275.099C418.504 275.334 419.009 275.718 419.205 276.708C419.339 277.389 419.294 278.536 418.958 279.083C418.188 280.344 413.656 285.213 412.152 285.624C410.628 286.04 406.918 285.051 406.681 284.904C406.418 284.746 406.285 284.453 406.262 284.145C406.247 283.947 406.211 283.06 406.284 282.876Z" fill="#CAC9C5"/>
<path d="M430.724 279.549C430.941 278.866 435.659 274.738 436.401 273.918C436.687 273.607 437.437 272.804 437.672 272.488C438.195 271.78 442.39 271.612 442.735 272.69C442.81 272.928 442.78 273.939 442.757 274.206C442.714 274.658 442.544 275.118 442.31 275.455C441.994 275.91 438.219 282.129 436.345 283.143C434.964 283.891 430.823 282.709 430.705 280.771C430.697 280.595 430.663 279.736 430.724 279.549Z" fill="#CAC9C5"/>
<path d="M406.352 282.477C406.537 282.01 411.133 277.019 412.491 274.896C413.179 273.82 414.498 273.323 415.744 273.601C416.22 273.708 416.905 273.87 417.517 274.017C418.504 274.252 418.94 275.025 419.134 276.018C419.269 276.698 419.293 277.454 418.958 278.001C418.188 279.262 413.656 284.134 412.152 284.541C410.628 284.958 406.918 283.968 406.681 283.822C406.25 283.562 406.166 282.944 406.352 282.477Z" fill="#F3F2EC"/>
<path d="M430.778 279.147C430.996 278.467 435.658 273.659 436.401 272.839C436.687 272.527 437.417 271.709 437.672 271.408C438.469 270.462 442.237 270.57 442.685 272.357C442.847 273.011 442.682 273.837 442.31 274.375C441.994 274.831 438.219 281.049 436.345 282.063C434.84 282.878 430.058 281.399 430.778 279.147Z" fill="#F3F2EC"/>
<path d="M411.645 277.453C411.2 276.296 412.725 274.581 413.263 273.659C413.947 272.485 414.563 271.271 415.108 270.026C416.26 270.561 417.442 271.031 418.647 271.443C418.246 271.307 418.391 273.889 418.414 275.002C418.42 275.279 418.366 275.564 418.241 275.813C417.587 277.113 416.518 277.834 415.623 278.319C414.199 279.082 412.211 278.922 411.645 277.453Z" fill="#FFC8A4"/>
<path d="M436.979 267.416C438.235 267.158 439.505 266.991 440.785 266.898C441.131 268.153 442.073 270.962 441.996 272.124C441.93 273.158 440.029 274.814 438.661 275.062C437.417 275.285 436.321 274.759 436.164 274.325C436.019 273.923 436.516 273.528 436.721 273.228C438 271.34 437.866 269.489 436.979 267.416Z" fill="#FFC8A4"/>
<path d="M433.499 238.617C433.451 240.59 433.403 242.566 433.353 244.537C433.347 244.854 433.342 245.182 433.472 245.469C433.624 245.796 433.926 246.019 434.215 246.237C435.201 246.986 436.128 247.83 436.854 248.832C439.339 252.275 439.074 256.886 439.582 261.096C439.871 263.499 440.798 266.044 441.495 268.365C441.818 269.441 437.51 270.598 437.37 269.441C437.059 268.498 436.048 265.571 435.29 264.274C433.256 260.786 431.497 257.133 430.039 253.366C429.815 252.789 429.594 252.198 429.246 251.683C428.975 251.284 428.632 250.935 428.339 250.55C427.677 249.683 427.271 248.626 427.18 247.538L433.499 238.617Z" fill="#6B5DCE"/>
<path d="M418.591 272.04C418.443 272.997 414.176 271.351 414.65 270.654C416.147 265.692 419.188 255.254 419.342 254.25C419.604 252.552 419.77 250.594 420.147 248.922C420.701 246.452 422.507 243.791 423.238 241.366C423.238 241.366 417.373 229.09 418.203 218.607C418.476 215.153 420.868 212.034 422.594 209.427C422.686 209.289 422.773 209.147 422.86 209.004C423.144 209.084 423.43 209.157 423.714 209.239C426.576 210.058 429.361 211.118 432.223 211.931C434.346 212.534 436.508 212.65 438.633 213.052C438.707 213.342 438.914 213.624 439.25 214.039C441.593 216.937 441.955 220.948 441.758 224.665C441.572 228.16 439.674 234.588 432.198 245.568C430.454 248.136 428.635 250.652 426.675 253.06C427.554 255.84 427.554 259.241 425.982 261.7C425.448 262.535 424.76 263.261 424.098 264.004C422.223 266.103 421.057 267.827 419.575 270.22C419.291 270.675 418.699 271.632 418.591 272.04Z" fill="#6B5DCE"/>
<path d="M423.237 241.368C423.237 241.368 428.207 230.156 430.13 225.259C430.432 224.495 430.813 223.671 431.143 221.243L418.124 220.663C418.124 220.663 417.985 224.958 419.725 231.566C420.196 233.356 420.813 235.316 421.597 237.407C422.076 238.682 422.61 240.005 423.237 241.368Z" fill="#6B5DCE"/>
<path d="M420.746 194.665C421.833 191.708 423.318 188.668 422.568 185.612C422.332 184.653 421.92 183.737 421.757 182.764C421.596 181.789 421.73 180.687 422.437 179.995C422.929 179.515 423.889 179.145 424.568 179.06C426.583 178.804 428.954 178.767 430.868 179.578C434.175 180.981 437.484 182.383 440.791 183.785C442.469 184.496 444.175 185.332 445.713 186.372C446.298 186.765 446.449 187.55 446.113 188.171C444.414 191.335 442.016 197.851 440.445 203.779C439.269 208.212 437.916 211.132 439.249 214.039C439.278 214.101 439.326 214.154 439.368 214.209C437.848 219.043 417.784 217.888 421.629 210.865L421.685 210.746C422.397 209.261 422.892 207.663 422.975 206.019C423.284 199.97 418.872 199.763 420.746 194.665Z" fill="#FF5A9D"/>
<path d="M435.867 177.736C435.744 177.967 435.645 178.221 435.61 178.53C435.56 178.955 435.661 179.38 435.762 179.796C436.1 181.186 436.583 181.539 437.036 182.466C437.794 184.012 435.818 186.747 432.908 186.747C429.736 186.747 428.521 184.735 428.465 182.892C428.435 181.984 428.441 182.203 428.412 181.295C428.412 181.295 427.475 181.179 426.765 181.04C426.919 176.786 432.214 177.141 435.867 177.736Z" fill="#FFAF84"/>
<path d="M430.503 182.183C428.834 182.424 425.518 182.781 424.679 181.336C424.085 180.319 425.028 178.5 424.357 177.529C424.042 177.072 423.845 176.998 424.289 176.287C424.891 175.324 425.204 174.64 425.35 173.513C425.574 171.762 424.875 170.641 427.868 166.939C428.66 165.959 429.012 165.613 433.675 165.283C434.75 165.207 435.099 165.307 436.078 166.057C437.776 167.357 438.124 167.885 438.531 170.136C438.744 171.314 438.959 172.508 438.853 173.697C438.715 175.24 438.488 176.817 437.367 177.967C436.062 179.306 432.627 181.877 430.503 182.183Z" fill="#FFC8A4"/>
<path d="M432.343 175.836C432.867 177.754 432.585 178.74 433.43 179.464C434.053 178.196 437.834 177.915 437.92 178.07C438.073 178.353 436.462 180.1 435.595 180.622C436.803 180.973 445.863 176.046 442.716 167.865C440.577 162.311 434.57 161.473 430.59 163.299C428.702 164.165 427.015 166.241 426.844 168.309C427.159 167.829 427.378 168.605 427.807 169.128C428.628 170.128 429.467 171.728 431.044 173.469C431.655 174.141 432.103 174.959 432.343 175.836Z" fill="#EAA86C"/>
<path d="M438.117 178.083C437.797 177.394 436.383 177.37 434.961 178.029C433.538 178.688 432.645 179.781 432.966 180.469C433.287 181.158 434.7 181.183 436.123 180.524C437.545 179.865 438.438 178.772 438.117 178.083Z" fill="#FFC8A4"/>
<path d="M440.222 192.187C438.603 197.304 437.992 205.296 437.992 205.296C434.682 204.63 428.14 201.029 428.14 201.029C427.899 200.638 426.521 199.389 425.322 198.425C424.331 197.629 423.087 197.224 421.815 197.275C420.027 197.347 417.05 197.465 416.207 197.549C415.745 197.597 415.486 198.614 416.419 198.691C418.801 198.889 419.368 198.963 419.368 198.963C419.368 198.963 420.11 202.065 420.282 202.656C420.814 204.485 423.288 204.646 423.675 204.694C424.324 204.777 425.3 204.661 426.916 205.102C429.284 206.207 440.805 212.939 442.412 211.098C446.186 206.775 445.819 195.706 445.819 195.706C445.819 195.706 440.286 191.985 440.222 192.187Z" fill="#FFC7A3"/>
<path d="M447.472 189.681C447.555 193.174 446.828 200.138 446.433 203.611C446.182 205.836 437.285 205.421 437.344 203.163C437.437 199.507 438.485 188.932 439.762 187.439C443.103 183.532 447.38 185.93 447.472 189.681Z" fill="#FF5A9D"/>
<path d="M378.445 402.373L349.817 385.892L333.984 395.007C336.91 394.923 338.821 394.927 338.821 394.927C338.821 394.927 336.187 399.431 335.531 399.497C334.415 405.491 340.673 407.055 351.698 407.194L350.243 412.77C346.287 412.815 342.542 412.758 338.988 412.619L349.816 418.853L378.445 402.373Z" fill="#F3F2EC"/>
<path d="M350.245 412.769L351.7 407.194C340.674 407.055 334.416 405.491 335.532 399.497C336.189 399.429 338.822 394.927 338.822 394.927C338.822 394.927 336.912 394.923 333.986 395.007L321.191 402.373L338.989 412.619C342.544 412.758 346.29 412.816 350.245 412.769Z" fill="#C0BFBB"/>
<path d="M337.361 315.916C339.349 316.772 344.63 319.759 345.47 319.564C348.225 318.925 352.979 316.763 354.165 316.007C354.911 315.53 355.75 312.455 355.924 310.848C356.174 308.509 357.517 309.206 358.262 306.767C358.35 306.479 358.414 306.173 358.599 305.935C358.785 305.699 359.143 305.56 359.395 305.725C359.852 306.03 359.609 307.462 359.389 307.938C359.148 308.455 358.7 308.846 358.46 309.364C358.045 310.266 358.591 310.664 359.602 309.644C360.889 308.348 364.359 304.911 364.668 306.31C364.879 307.273 360.693 309.995 361.269 310.667C361.663 311.084 365.873 307.402 366.574 307.261C366.824 307.212 367.117 307.293 367.237 307.517C367.47 307.949 367.041 308.318 366.625 308.57C365.749 309.104 361.927 312.093 362.266 312.437C362.586 312.761 366.622 309.38 367.573 309.546C367.827 309.59 368.042 309.805 367.966 310.063C367.709 310.913 364.528 312.747 363.807 313.323C363.403 313.645 362.784 313.96 363.008 314.349C363.389 314.849 366.599 312.183 367.103 312.872C367.534 314.001 365.391 314.636 359.255 318.357C355.797 320.457 345.672 326.907 343.402 326.907C341.133 326.907 335.573 324.237 335.573 324.237C334.694 323.422 332.866 321.744 332.43 320.618C331.665 318.632 333.528 314.262 337.361 315.916Z" fill="#FFC8A4"/>
<path d="M348.768 405.63C348.762 405.595 348.764 405.562 348.756 405.525C348.828 405.171 348.831 404.814 348.756 404.455L354.061 404.996C362.92 405.543 367.32 405.206 367.419 408.318C368.484 414.429 355.337 413.605 349.127 412.79C345.796 412.354 348.556 407.054 348.768 405.63Z" fill="#231F20"/>
<path d="M330.137 396.543L333.926 393.708C334.59 392.789 334.479 392.526 335.356 391.806C336.759 390.657 341.137 391.12 341.183 393.381C341.365 394.83 341.071 395.505 340.818 395.953C340.062 397.292 336.533 402.209 335.711 403.468C333.574 406.74 328.92 405.977 329.003 403.723C329.055 402.319 328.683 402.77 330.137 396.543Z" fill="#231F20"/>
<path d="M328.719 382.333C328.795 380.963 329.023 379.596 329.292 378.25C333.068 359.267 329.756 350.999 332.915 345.916L358.115 351.083C360.169 367.074 357.146 367.305 357.288 376.566C357.341 380.004 356.993 383.631 357.127 387.067C357.46 395.647 355.288 399.748 355.873 405.126C355.749 407.591 348.24 407.999 348.291 405.594C348.42 399.458 345.697 391.659 346.827 385.996C347.159 384.346 347.309 382.486 347.39 380.806C347.47 379.148 346.827 373.722 343.57 363.025C343.57 363.025 339.801 374.471 339.711 377.745C339.688 378.547 339.657 379.325 339.622 380.052C339.493 382.772 338.904 385.436 337.98 388C337.251 390.026 336.526 392.81 336.469 397.888C336.434 401.01 329.342 400.818 329.452 398.515C329.72 391.017 328.421 387.698 328.719 382.333Z" fill="#BAB8C4"/>
<path d="M332.687 304.646C330.37 304.643 330.303 306.223 330.009 307.35C326.474 320.885 336.678 325.711 331.399 348.63C328.674 360.379 360.267 361.83 358.342 351.873C356.997 343.358 353.398 331.856 354.57 322.483C354.841 320.342 356.031 317.639 355.113 315.548C354.332 313.765 333.622 304.647 332.687 304.646Z" fill="#8B61C6"/>
<path d="M378.115 311.704C378.627 311.502 379.559 313.211 379.791 313.706C379.617 312.741 378.825 310.86 379.626 310.623C380.806 310.276 381.716 313.866 382.097 315.068C382.555 316.516 382.871 318.012 383.12 319.509C383.213 320.078 383.291 320.307 383.28 320.567C383.249 321.308 382.871 322.823 381.222 324.702C378.536 327.767 371.265 334.794 370.012 334.855C369.255 334.89 368.523 334.634 367.811 334.38C365.18 333.443 354.055 328.77 352.925 327.482C351.585 325.957 356.313 315.869 357.172 316.669C360.421 319.699 369.987 327.017 369.987 327.017C369.987 327.017 377.831 322.415 377.703 322.185C377.157 321.192 375.6 317.011 376.113 316.702C376.508 316.464 376.849 317.027 377.006 317.307C377.086 316.542 376.929 315.788 376.609 315.09C376.075 313.938 377.006 313.596 377.583 314.279C377.723 314.445 378.179 314.913 378.17 314.593C378.129 313.103 377.211 312.058 378.115 311.704Z" fill="#FFC8A4"/>
<path d="M351.787 314.68C352.146 314.275 353.729 314.45 354.185 314.743C356.21 316.045 363.37 320.828 365.95 322.858C368.052 324.512 363.286 333.027 360 331.976C358.796 331.59 350.953 328.1 350.316 327.268C348.81 325.3 349.746 316.975 351.787 314.68Z" fill="#8B61C6"/>
<path d="M377.121 322.488L384.126 314.22C384.442 313.847 384.484 313.29 384.219 312.989L381.542 309.938C381.491 309.879 381.432 309.834 381.366 309.802L381.948 310.08C382.014 310.111 382.073 310.157 382.124 310.217L384.803 313.268C385.068 313.568 385.024 314.125 384.708 314.5L377.704 322.766C377.45 323.067 377.092 323.162 376.824 323.035L376.242 322.756C376.508 322.884 376.866 322.787 377.121 322.488Z" fill="#FAF4EA"/>
<path d="M373.485 318.343L380.489 310.076C380.805 309.702 381.279 309.637 381.544 309.938L384.221 312.989C384.486 313.29 384.442 313.847 384.128 314.22L377.122 322.488C376.805 322.861 376.328 322.92 376.063 322.62L373.384 319.569C373.12 319.267 373.168 318.717 373.485 318.343Z" fill="#100114"/>
<path d="M379.165 314.793C379.085 314.532 378.995 314.263 379.034 313.992C379.07 313.721 379.287 313.454 379.559 313.458C379.786 313.462 379.968 313.644 380.122 313.811C380.602 314.339 381.086 314.867 381.567 315.393C381.96 315.823 382.356 316.26 382.62 316.776C382.971 317.462 383.172 319.306 383.246 320.143C383.272 320.416 383.138 320.672 382.9 320.805C382.196 321.197 380.741 321.918 380.202 322.163C379.481 322.495 378.887 322.587 379.129 321.652C379.328 320.885 379.523 320.138 379.603 319.345C379.759 317.821 379.615 316.262 379.165 314.793Z" fill="#FFC8A4"/>
<path d="M340.588 322.237C341.237 325.289 331.079 327.416 330.302 323.969C329.748 321.511 327.203 311.237 327.658 308.875C328.863 302.639 334.361 303.942 336.672 307.501C339.055 311.173 340.472 321.69 340.588 322.237Z" fill="#8B61C6"/>
<path d="M348.595 291.381C350.175 292.942 351.029 295.205 350.873 297.416C350.856 297.667 350.828 297.93 350.93 298.162C351.079 298.497 351.45 298.661 351.765 298.848C352.084 299.034 352.403 299.351 352.328 299.71C352.272 299.983 352.008 300.158 351.864 300.396C351.73 300.615 351.704 300.882 351.678 301.139C351.576 302.205 351.473 303.277 351.537 304.345C351.559 304.682 351.592 305.03 351.493 305.352C351.218 306.244 350.124 306.52 349.234 306.815C348.753 306.973 348.538 307.111 348.345 307.714C347.808 309.378 347.835 310.156 347.93 311.456C348.119 314.045 337.108 311.875 338.516 308.497C338.697 308.064 338.97 306.556 338.684 306.063C337.815 304.557 334.946 303.557 334.77 298.636C334.392 288.122 344.506 287.342 348.595 291.381Z" fill="#FFC6A2"/>
<path d="M347.074 300.844C347.389 302.144 344.96 302.339 344.707 301.42C344.047 299.978 342.576 300.306 341.991 301.222C341.23 302.416 341.642 303.772 342.916 305.282C343.446 305.912 343.229 306.913 342.462 307.218C339.931 308.22 334.358 303.36 333.395 297.506C332.688 292.798 333.917 290.091 337.384 288.23C339.101 287.308 341.848 286.816 343.225 286.815C348.733 286.808 351.442 290.338 350.965 294.371C350.886 295.025 350.456 295.595 349.842 295.835C348.247 296.457 346.254 297.454 347.074 300.844Z" fill="#7A4B41"/>
<defs>
<radialGradient id="paint0_radial_1_13178" cx="0" cy="0" r="1" gradientUnits="userSpaceOnUse" gradientTransform="translate(295.027 63.4468) rotate(-59.9291) scale(2.60268 2.60636)">
<stop stop-color="#212635"/>
<stop offset="0.3294"/>
<stop offset="0.4439"/>
<stop offset="0.6252"/>
<stop offset="1"/>
</radialGradient>
<linearGradient id="paint1_linear_1_13178" x1="294.799" y1="62.0786" x2="296.691" y2="65.6348" gradientUnits="userSpaceOnUse">
<stop stop-color="#7E85B0"/>
<stop offset="1" stop-color="#6D7499"/>
</linearGradient>
<linearGradient id="paint2_linear_1_13178" x1="294.645" y1="62.162" x2="296.537" y2="65.7178" gradientUnits="userSpaceOnUse">
<stop stop-color="#7E85B0"/>
<stop offset="1" stop-color="#6D7499"/>
</linearGradient>
<linearGradient id="paint3_linear_1_13178" x1="294.934" y1="64.0948" x2="295.466" y2="63.1709" gradientUnits="userSpaceOnUse">
<stop stop-color="#666D88"/>
<stop offset="1" stop-color="#4D5364"/>
</linearGradient>
</defs>
</svg>
