<svg width="98" height="122" viewBox="0 0 98 122" fill="none" xmlns="http://www.w3.org/2000/svg">
<path d="M65.2577 27.5948C64.7324 26.6689 64.2249 25.7252 63.7163 24.7803C61.6173 20.885 59.4482 16.8595 56.0281 13.7744C51.6176 9.79905 45.9394 8.094 40.4482 6.44909C35.5368 4.97557 30.8981 3.57113 27.1609 0.695312V4.88212C30.9515 7.19925 35.2541 8.51028 39.4521 9.769C44.8131 11.3772 49.8748 12.8952 53.7077 16.3486C56.6826 19.0308 58.6168 22.6222 60.6646 26.424C61.1854 27.3911 61.7052 28.3561 62.2405 29.3043C64.5821 33.4388 68.4096 39.1538 74.5941 41.0291L75.6002 37.7126C71.7973 36.5573 68.5108 33.342 65.2577 27.5948Z" fill="#BA353A"/>
<path d="M34.8525 54.1522L30.2305 51.8851C28.7848 50.209 27.27 49.2096 25.5417 48.2859C23.8244 48.9792 22.5056 50.7944 21.5362 53.1438L21.8979 54.1522C19.3471 56.989 17.0812 59.8559 17.3093 63.0033C18.0839 64.6594 19.6643 64.4245 20.7616 63.345C24.8739 59.7391 25.269 59.9995 28.2339 59.8371L32.3762 60.9734L34.8525 54.1522Z" fill="black"/>
<path d="M69.2478 64.5085C62.7505 67.9998 58.1218 76.3658 51.048 73.1294C49.8783 72.5451 48.7642 71.973 47.7025 71.421C39.0483 66.8891 33.6584 63.2932 27.5829 60.4486C25.7967 59.1487 27.7454 52.1629 30.9128 51.6754C33.1475 52.3888 35.2722 53.1321 37.2899 53.9123C43.1929 56.1949 48.1822 58.807 52.3534 61.99L57.957 53.5318L69.2478 64.5085Z" fill="#1E3A47"/>
<path opacity="0.5" d="M69.2476 64.5076C62.7503 67.9989 58.1217 76.3649 51.0479 73.1285C49.8782 72.5442 48.7641 71.9721 47.7023 71.4201C49.2415 67.2333 47.9717 62.4388 44.3881 59.5752L37.2898 53.9103C43.1928 56.1929 48.182 58.8051 52.3533 61.988L57.9569 53.5298L69.2476 64.5076Z" fill="#162B35"/>
<path d="M78.8857 107.715C78.6843 109.5 79.0081 111.532 79.914 113.834C80.8455 114.671 81.9797 114.917 83.1627 115.025L87.7223 118.057C90.242 118.766 92.685 118.683 95.0745 118.057C96.1651 117.412 96.9631 116.666 97.4817 115.825C97.7232 115.431 97.7476 114.945 97.554 114.527L97.3893 114.173C96.7794 113.071 95.8379 112.191 94.6983 111.658C92.7006 110.723 89.8224 109.719 89.6065 109.61C89.2816 109.448 87.3862 107.391 87.3862 107.391L85.4375 103.655L78.6152 105.064L78.8857 107.715Z" fill="black"/>
<path d="M87.7234 107.358C87.7234 110.432 80.8622 112.182 78.8322 108.772C74.9135 100.377 72.4673 91.9039 71.5713 83.3499C65.389 75.1654 59.4415 66.9909 54.7661 57.8738C54.746 57.837 54.7305 57.8026 54.7104 57.767L54.8117 57.7346L71.4901 52.4248L72.3214 52.1622L72.0322 55.9551L71.7238 59.9828L73.0716 62.7628C73.0749 62.7673 81.2683 79.6694 81.2683 79.6694C83.6233 84.08 83.3373 96.3946 87.7234 107.358Z" fill="#1E3A47"/>
<path opacity="0.5" d="M78.8312 108.771C74.9125 100.377 72.4664 91.9038 71.5705 83.3498C65.3881 75.1653 59.4406 66.9908 54.7651 57.8737L54.8108 57.7345L56.6338 52.1609L71.3756 51.6735L71.4903 52.4237L72.0324 55.9539L71.724 59.9816L73.0718 62.7616C70.275 59.9615 63.791 62.8785 65.8933 69.5149C67.2121 73.6728 70.9861 77.8441 74.5119 82.3749C73.3567 88.604 76.0956 98.6894 78.8312 108.771Z" fill="#162B35"/>
<path d="M85.0033 44.123C84.4313 43.5965 83.8214 42.6517 83.2004 41.4208C82.0607 39.1671 80.891 35.9675 79.886 32.6721L79.1683 32.1891L76.7187 30.5352L75.7605 15.5997C78.308 14.2909 82.0864 13.8435 84.5026 21.3903L87.1147 28.9348L89.828 41.2249C90.3644 43.719 87.5998 45.0678 85.0033 44.123Z" fill="#3B5770"/>
<path opacity="0.3" d="M82.1422 35.0854L83.5422 41.419H83.2005C82.0609 39.1653 80.8912 35.9656 79.8862 32.6702L79.1685 32.1873L79.3365 31.6308L80.406 27.5663L81.9296 24.7996C81.9296 24.7996 81.3832 29.7466 81.0805 29.9903C80.7778 30.2341 84.1377 30.1138 84.1377 30.1138L83.4232 30.8094C82.2847 31.9157 81.8005 33.5306 82.1422 35.0854Z" fill="#2A3D4F"/>
<path d="M86.0173 43.1959L86.5571 43.8202C86.6639 45.218 87.4976 46.2654 88.7497 47.109L90.3745 48.6114L90.901 49.8412C91.5053 50.4755 91.8959 50.2719 92.2019 49.7477V50.6002L92.0806 52.5935L91.3906 53.909C91.1858 54.5678 91.4284 54.6413 91.8369 54.4999C91.897 55.0197 92.2108 55.0909 92.6482 54.9451L93.1768 53.6931C93.4818 54.1694 93.976 54.323 94.1519 53.6931L94.6794 50.9263C94.656 49.5306 94.4535 48.203 93.9493 46.9877C92.7006 45.2659 91.2292 43.8057 89.473 42.6839L88.8987 41.8448C88.3612 40.6306 85.5989 42.3089 86.0173 43.1959Z" fill="#FFB294"/>
<path d="M80.4059 27.5616C80.4059 27.5616 77.5757 38.1801 76.4539 43.3819C76.3737 43.7514 76.3036 44.0619 76.2457 44.3624C75.9798 45.738 75.8062 47.0902 75.6794 48.2921C75.4479 50.7072 75.4601 52.498 75.4601 52.498C75.922 55.0177 73.31 60.7604 72.5598 60.8516C71.3245 61.1521 71.6015 58.067 71.8553 56.2062C70.2838 57.9624 67.3479 57.5239 63.3859 60.6902C61.9992 61.6028 59.2258 63.1509 57.1568 63.5438C56.291 63.7174 55.5397 63.6695 55.0778 63.2889C53.2292 61.7286 51.0212 57.8455 51.4263 52.4033C51.6578 49.9192 52.143 49.8035 52.7084 46.0262C52.813 45.3084 52.9276 44.4436 53.0434 43.413L52.9399 41.8761L52.6505 37.7049L52.9621 31.6271L53.3784 23.6196C57.3304 20.1651 62.4487 17.9458 67.3712 15.6008L77.5157 17.0332C79.5402 19.554 80.3136 23.229 80.4059 27.5616Z" fill="#3B5770"/>
<path d="M70.907 24.0042L63.3848 22.9258L72.2994 45.8866C76.829 38.3176 78.6642 30.7774 75.8151 21.7916L70.907 24.0042Z" fill="#F2F2F2"/>
<path d="M70.7302 24.2634L70.1113 27.0736L71.5348 30.004C71.5927 34.1753 72.0545 38.7751 71.5481 41.9447L72.4452 46.1527L74.5086 42.3074C74.2604 37.1857 73.5113 32.4436 72.9805 29.048L73.3611 25.5467L71.5837 24.042L70.7302 24.2634Z" fill="#FF4A51"/>
<path d="M68.5453 14.6588L63.999 17.3297C61.0687 23.2895 65.8209 26.5805 68.6645 30.5325L71.3967 25.3507L76.111 26.9856L75.588 17.8384L68.5453 14.6588Z" fill="white"/>
<path d="M65.7486 16.3057C62.4087 18.1821 63.3846 22.9265 66.3105 27.5585C68.9482 31.732 72.8524 40.7634 72.5408 46.9591C70.2437 40.523 65.6974 32.2885 62.9351 29.7243L64.1404 27.6486L62.0358 27.8178C60.441 24.8508 59.8479 21.5598 60.4856 18.9444L65.7486 16.3057Z" fill="#1E3A47"/>
<path d="M73.1039 16.5256C76.9068 21.3836 76.9903 39.2016 72.3215 46.3555C76.9358 42.1565 79.195 35.1461 79.2017 23.6429L78.1344 22.7535L78.6464 21.575L75.5491 16.5323L73.1039 16.5256Z" fill="#1E3A47"/>
<path d="M72.5441 24.5293C72.228 24.9811 71.8463 25.2861 71.3977 25.3507C67.0751 25.9873 64.3452 20.7709 65.2155 18.0487C66.0101 15.2363 66.4552 13.7061 66.4552 13.7061L74.199 16.8234C74.199 16.8234 74.1779 17.589 74.0755 18.6575C73.8996 20.476 73.4901 23.176 72.5441 24.5293Z" fill="#FFB294"/>
<path opacity="0.5" d="M72.5443 24.5301C72.1081 24.7427 71.6462 24.8451 71.1688 24.7783C67.3782 24.2419 67.1799 16.9243 67.1799 16.9243L74.0757 18.6595C73.8999 20.4769 73.4903 23.1768 72.5443 24.5301Z" fill="#FFB294"/>
<path d="M66.8845 15.1895C66.8845 15.1895 67.2618 18.7865 68.6029 20.506C69.9451 22.2277 72.3145 23.3296 73.2516 23.5099C74.1876 23.6924 74.9421 23.7169 75.6566 23.0836C76.3711 22.4515 77.6833 15.8952 77.6833 15.8952C78.0283 13.3388 78.094 12.5631 77.9916 11.0996C77.8414 8.94162 76.9844 4.087 70.7631 4.05696C67.7626 4.0436 65.638 5.93332 64.8868 8.4697C64.2903 10.4852 65.4199 14.3838 65.4199 14.3838L66.8845 15.1895Z" fill="#FFB294"/>
<path d="M65.2913 14.8025L67.969 16.7591L68.4331 15.0573C68.5399 14.2293 69.3311 13.6618 70.148 13.8421C71.5224 14.1426 73.6693 14.3707 75.8551 13.6573C77.9341 12.9795 78.4561 11.723 78.4561 11.723C79.9686 8.10152 75.4222 4.49347 71.6694 4.0917C67.1108 3.6009 64.8426 6.38543 64.4553 9.07205C64.1025 11.5138 65.2913 14.8025 65.2913 14.8025Z" fill="black"/>
<path d="M66.2707 12.5526C65.899 12.2944 65.3402 12.2443 65.0208 12.5637C64.8405 12.744 64.7659 13.0068 64.7681 13.2616C64.7703 13.5165 64.8417 13.7635 64.9207 14.005C65.0576 14.4246 65.2178 14.8375 65.3981 15.2393C65.545 15.5654 65.7342 15.9126 66.0681 16.0461C66.4098 16.1786 66.8003 16.4835 67.0351 16.203C67.27 15.9204 67.369 15.0768 67.3479 14.7117C67.3045 13.9305 66.9329 13.0111 66.2707 12.5526Z" fill="#FFB294"/>
<path opacity="0.3" d="M57.3904 63.3482C57.3158 63.4172 57.2379 63.4851 57.1634 63.5508C56.2897 63.72 55.5418 63.6766 55.0844 63.2904C53.2292 61.7323 51.0233 57.8493 51.4295 52.4093C51.7055 49.4444 52.3355 49.8551 53.0511 43.419L52.6482 37.7085L52.9632 31.6331H57.3091C58.4454 43.7184 51.3794 53.9629 57.3904 63.3482Z" fill="#2A3D4F"/>
<path d="M76.4551 43.3936C76.375 43.752 76.3048 44.0636 76.247 44.3629C75.981 45.7385 75.8073 47.0908 75.6805 48.2927C72.4797 50.2103 68.6089 51.3767 65.6162 51.3767C65.3848 51.3767 65.1655 51.3655 64.9451 51.3533C60.2652 51.0528 56.3833 48.6733 52.7084 46.0279C52.0039 45.5081 51.2983 44.9862 50.605 44.4676C49.7035 43.7976 48.8142 43.1287 47.9128 42.4921C45.9718 41.1287 44.0531 39.6842 42.1923 38.2864C39.2007 36.0349 36.1023 33.7 32.9138 31.6889C23.1044 25.5177 8.10424 25.0914 0.570801 30.695V26.5927C9.63008 21.5433 24.5011 22.3035 34.7501 28.7529C38.0778 30.8441 41.233 33.2136 44.2835 35.5107C46.1199 36.8974 48.004 38.3186 49.8993 39.6608C50.8353 40.3086 51.7479 40.9997 52.6717 41.682C52.764 41.751 52.8453 41.8098 52.9377 41.8777C56.9242 44.8604 60.7137 47.6094 65.1621 47.8987C68.6667 48.1291 73.7629 45.9823 76.4551 43.3936Z" fill="#E54349"/>
<path d="M45.9139 92.4714L42.3192 93.7211L26.7537 75.3011L28.1516 59.7334L30.245 58.9398L49.4331 76.8736L45.9139 92.4714Z" fill="#1A1A1A"/>
<path d="M42.3192 93.7205L23.3325 75.7789L28.1515 59.7327L47.1382 77.6742L42.3192 93.7205Z" fill="#333333"/>
<path d="M28.1515 59.7327L26.0024 66.8932L33.7919 78.164L45.1805 84.1916L47.1382 77.6742L28.1515 59.7327Z" fill="#1A1A1A"/>
<path d="M33.192 75.4205L32.0968 78.3943C31.9622 78.7593 32.0723 79.1701 32.3706 79.4227L32.8658 79.8378C33.3322 80.2273 34.0422 80.0681 34.2971 79.5184L35.3511 77.2447L33.192 75.4205Z" fill="#666666"/>
<path d="M32.9527 75.2379L31.8576 78.2117C31.7229 78.5767 31.8331 78.9896 32.1314 79.24L32.6266 79.6551C33.093 80.0447 33.803 79.8878 34.0579 79.3357L35.1118 77.0621L32.9527 75.2379Z" fill="#808080"/>
<path d="M35.4837 78.5969L32.1704 75.4651L32.6779 74.0127L35.9922 77.1457L35.4837 78.5969Z" fill="#4D4D4D"/>
<path d="M35.3889 66.235C34.6054 65.7264 33.8953 65.1377 34.4685 64.2985C35.4846 63.2858 36.4673 62.7838 37.3688 63.4816L35.3889 66.235Z" fill="#333333"/>
<path d="M38.0521 58.3066L34.4907 65.3259L34.9581 67.2056L36.1467 69.1333L37.9275 70.1071L39.9363 70.8906L41.2496 69.9813L42.2378 69.8923L43.3152 66.9385L43.8505 64.686L42.6018 61.6622L43.4966 57.7135L39.0861 55.7502L38.0521 58.3066Z" fill="#FFB294"/>
<path d="M53.3784 23.6214C50.7251 26.3447 46.6496 34.0752 42.6697 41.4673L36.8903 59.0895C36.8624 61.2564 41.1717 63.135 43.8917 61.952L49.7513 46.0492L58.5914 36.567C62.5211 31.3796 57.5474 20.8758 53.3784 23.6214Z" fill="#3B5770"/>
<path d="M41.6247 66.8677C41.0582 67.0413 40.4962 68.281 41.0627 68.7195C41.9186 69.6366 41.6615 70.4735 41.6236 71.8714C41.9319 72.7562 43.0738 72.6537 43.2018 72.1173C43.3465 70.0127 42.8845 67.6478 41.6247 66.8677Z" fill="#333333"/>
<g style="mix-blend-mode:multiply" opacity="0.3">
<path d="M92.7601 121.126C77.6675 123.048 60.9794 120.856 57.0641 114.28C56.1617 112.765 56.673 110.8 58.186 109.893C63.2006 106.898 70.4871 106.576 80.0135 106.742C82.3229 106.782 82.2666 115.092 82.2666 115.092C84.1042 116.144 97.3395 115.885 97.9839 115.909L92.7601 121.126Z" fill="#948581"/>
</g>
</svg>
