<svg width="143" height="215" viewBox="0 0 143 215" fill="none" xmlns="http://www.w3.org/2000/svg">
<g style="mix-blend-mode:multiply" opacity="0.3">
<path d="M91.634 144.646C134.996 142.857 149.446 156.472 140.191 165.539C132.315 173.258 98.2395 171.692 81.0794 171.068L91.634 144.646Z" fill="#948581"/>
</g>
<g style="mix-blend-mode:multiply" opacity="0.3">
<path d="M13.6942 186.792C42.4582 183.129 74.263 187.307 81.7249 199.839C83.4446 202.726 82.4702 206.471 79.5867 208.2C70.0297 213.908 56.143 214.521 37.9871 214.205C33.5858 214.13 33.693 198.293 33.693 198.293C30.1909 196.287 4.96662 196.78 3.73848 196.736L13.6942 186.792Z" fill="#948581"/>
</g>
<path d="M55.646 102.857L79.4152 95.2163L83.1265 78.0239L59.3573 85.6646L55.646 102.857Z" fill="#3D312D"/>
<path d="M54.9577 93.4834L54.6556 93.2097L56.7865 83.3381L57.1458 83.6635L59.3555 85.6657L55.646 102.858L53.3774 100.8L54.9577 93.4834Z" fill="#473933"/>
<path d="M80.5558 75.6963L80.9168 76.0217L83.1265 78.0239L59.3555 85.6646L57.0851 83.6104L56.7866 83.337L80.5558 75.6963Z" fill="#544039"/>
<path d="M74.8207 79.7546C76.6495 80.1443 75.9684 77.9043 73.9894 77.5021C72.7398 77.2411 71.8871 77.4772 71.8871 77.4772C71.821 77.5148 72.4431 79.4489 72.7184 79.5043C72.8703 79.5383 73.7696 79.5311 74.8207 79.7546Z" fill="#212123"/>
<path d="M68.353 75.6224C70.7717 73.8776 69.5436 75.3131 73.1458 71.4427L75.9382 73.6416C75.9382 73.6416 75.1409 75.3202 74.7977 76.3231C74.4616 77.301 72.8419 79.9825 72.6363 80.4759C72.4271 80.9711 72.1268 81.4538 71.671 81.7344C71.3581 81.9275 70.9934 82.0098 70.6466 82.1331C70.3534 82.2422 70.071 82.3761 69.7653 82.4369C69.3613 82.5209 68.9429 82.4691 68.53 82.4155C68.1188 82.3637 67.6951 82.3082 67.3054 82.1545C66.9157 82.0061 66.5546 81.7434 66.3669 81.368C66.0416 80.7066 66.3329 79.9235 66.4384 79.1923C66.501 78.7561 66.4956 78.3109 66.5975 77.8819C66.8299 76.9362 67.5592 76.1945 68.353 75.6224Z" fill="#FCBE9F"/>
<path d="M72.6667 69.1573C74.3328 70.0493 75.6468 70.9897 77.3809 71.5475C76.0312 74.1146 75.7862 75.1335 75.4841 75.6198C75.0479 76.3188 70.7806 74.7385 70.7502 73.6623C70.7502 73.6623 71.6852 70.8877 72.3074 68.9624C72.4271 69.0268 72.5469 69.0929 72.6667 69.1573Z" fill="#EFEFEF"/>
<path d="M68.1456 79.5617C68.3888 79.8871 68.5354 80.4823 68.1921 80.7094C67.0444 81.4656 66.0075 82.2645 65.414 82.8938C64.5684 83.793 62.7522 82.4183 63.6335 81.5066C64.1591 80.9631 64.6918 80.2035 65.6196 79.6189C66.4098 79.1184 67.3608 78.5142 68.1456 79.5617Z" fill="#212123"/>
<path d="M77.1591 166.988C77.4576 166.5 77.8385 166.021 78.2371 165.581C80.0498 163.583 81.816 161.546 83.4267 159.376C83.5465 159.217 83.6431 159.085 83.7235 158.983C84.6978 157.683 87.256 152.629 87.9765 151.315C89.5103 148.512 93.3288 151.567 94.085 153.555C94.3639 154.29 94.3138 155.198 94.0832 156.187C94.0331 157.864 93.6345 158.906 93.5076 160.22C93.4379 160.933 93.3145 162.274 93.3145 162.274L91.3856 164.074L90.5043 163.677C89.2708 165.794 88.2267 167.576 87.9675 167.928C85.9546 170.674 82.0949 172.287 78.3372 170.503C77.0196 169.882 76.4101 168.227 77.1591 166.988Z" fill="#2E2B33"/>
<path d="M80.9938 85.0321L97.6211 90.5329C95.8584 97.3619 94.0976 104.189 92.3349 111.016C92.0042 112.289 91.6752 113.58 91.7092 114.894C91.7825 117.611 93.3825 120.014 94.271 122.583C97.3316 131.408 92.5583 142 92.7246 151.448C92.8104 156.395 88.7453 162.144 86.1049 162.9C84.1992 163.447 82.4186 162.691 83.0353 160.961C83.4179 159.89 84.3118 158.36 85.2217 156.828C86.1334 155.281 87.2793 152.113 86.5463 146.57C85.8009 140.946 84.4136 136.417 83.5662 130.809C82.9066 126.451 82.1755 122.404 81.6696 118.585C80.1947 107.437 78.727 96.0425 80.9938 85.0321Z" fill="#FCBE9F"/>
<path d="M106.511 156.105C107.323 153.529 109.974 144.556 110.575 143.181C111.864 140.259 115.931 142.969 116.855 144.883C117.171 145.539 117.137 147.093 116.937 148.949L117.014 152.109L115.982 154.989C115.507 157.447 115.042 159.421 114.978 159.605C113.823 162.862 111.016 165.685 106.815 164.956C105.439 164.711 104.008 163.166 104.357 161.811C104.888 159.778 106.511 156.105 106.511 156.105Z" fill="#2E2B33"/>
<path d="M98.0466 106.094C102.269 107.351 106.393 108.974 110.031 111.409C109.525 112.92 109.021 114.43 108.508 116C108.118 117.194 107.832 118.597 108.542 119.634C108.859 120.097 109.334 120.417 109.761 120.789C112.564 123.213 113.006 127.404 112.638 131.095C112.282 134.629 111.935 137.726 112.563 141.171C113.196 141.827 113.877 142.22 114.508 142.695C115.157 143.182 115.328 143.734 115.428 144.54C115.709 146.811 113.896 152.719 113.578 153.988C112.727 157.408 106.613 157.909 107.309 154.326C107.441 153.647 107.734 152.251 108.031 150.708C108.769 145.138 107.119 138.789 104.284 133.852C102.251 130.316 98.9887 127.484 97.6283 123.637C96.6933 120.991 96.7541 118.091 97.1027 115.304C97.2815 113.864 97.6569 110.111 98.0466 106.094Z" fill="#FCBE9F"/>
<path d="M82.4329 71.5798C82.8244 70.5983 83.2713 69.5972 84.0686 68.8875C85.6847 67.4466 89.3513 64.6506 91.5198 65.0815C96.6862 66.1094 108.699 72.9064 110.437 74.2275C111.581 75.0945 112.911 80.9134 113.285 83.9203C113.996 89.6857 113.993 99.2371 109.531 115.911C108.569 122.123 78.8325 122.846 78.8682 113.968C78.9201 101.424 77.5364 83.7736 82.4329 71.5798Z" fill="#2E2B33"/>
<path d="M78.727 49.5463C81.2745 39.2295 78.7324 26.9535 85.0501 22.8865C88.107 20.9183 90.5061 23.1224 92.5476 26.0829C92.5476 26.0829 88.0784 46.8664 85.9815 52.8481C83.4501 60.0793 76.6873 74.2432 76.3333 75.0173C75.831 76.1077 70.3624 73.6068 70.618 72.5681C73.0118 65.9429 78.727 49.5463 78.727 49.5463Z" fill="url(#paint0_linear_1_4891)"/>
<path d="M105.97 58.6655C105.135 61.0485 104.868 63.5192 106.434 65.9308C107.689 67.858 109.438 69.5956 111.703 76.219C112.008 79.9803 100.097 83.7415 89.9822 81.1315L89.3333 70.8952L87.0683 80.252C81.9519 79.1204 81.0312 73.0297 81.8607 71.0453C82.1664 70.3124 83.3642 67.0301 85.1841 62.5859C86.8949 58.4116 85.7668 55.2225 83.7002 51.547C82.8851 50.0954 82.4221 49.4946 81.3709 47.6318C78.6733 42.8551 83.7199 37.8121 84.1597 33.1337C84.4225 30.3288 82.1467 24.2828 86.0421 22.5827C87.2828 22.0393 88.7093 22.361 90.0233 22.6899C96.1908 24.247 113.85 28.5768 114.595 34.9214C114.842 36.9897 112.361 40.5294 111.635 42.3331C108.803 49.3766 108.115 52.5444 105.97 58.6655Z" fill="url(#paint1_linear_1_4891)"/>
<path d="M106.506 35.8362C108.152 33.7035 108.773 31.5565 108.217 29.4863C107.502 26.8298 102.326 24.5434 100.363 23.6388C98.2109 22.6484 92.6763 20.6355 89.5496 22.5859C87.6368 23.78 87.0575 26.5547 87.0021 29.8244C86.8323 39.9463 91.6572 50.8636 91.6572 50.8636C91.6572 50.8636 103.268 40.0391 106.506 35.8362Z" fill="#494147"/>
<path d="M104.915 34.6121C96.5592 45.4544 91.6537 50.8639 91.6537 50.8639C91.6537 50.8639 88.9026 39.85 89.0098 29.8478C89.0849 22.9723 93.1322 21.2688 99.8128 24.3507C102.301 25.4966 109.432 28.7467 104.915 34.6121Z" fill="#EFEFEF"/>
<path d="M101.159 24.4047L102.108 26.2407L101.077 27.3383L98.9439 25.3003L98.3987 23.1174L101.159 24.4047Z" fill="#EFEFEF"/>
<path d="M92.4028 32.5481C93.2788 33.8853 94.2817 34.0356 95.0826 34.2483C97.5836 34.9097 102.387 31.7204 102.005 26.7202C101.981 26.3877 101.835 26.0731 101.606 25.8336C100.54 24.7109 99.8933 22.5299 99.2175 18.7579C99.0066 17.5869 97.0687 17.3439 96.1176 18.0554C92.8873 20.4759 90.3005 25.2866 90.2773 27.3871C90.2666 28.5724 91.7324 31.5291 92.4028 32.5481Z" fill="#F3A984"/>
<path d="M94.0154 33.7637L88.5468 34.3357C88.5468 34.3357 89.0312 29.1372 92.9105 24.4999C89.471 31.6471 94.0154 33.7637 94.0154 33.7637Z" fill="white"/>
<path d="M93.277 33.5313L98.1735 38.5814C98.1735 38.5814 102.627 35.9856 103.612 31.4056C104.021 29.5124 103.924 27.7068 103.376 26.7504C102.623 25.4454 101.159 24.4032 101.159 24.4032C101.159 24.4032 102.779 27.4495 99.8254 31.1232C98.7027 32.5247 96.1534 34.1338 93.277 33.5313Z" fill="white"/>
<path d="M91.9774 28.6715C91.1318 28.9415 90.1629 29.1684 89.3995 28.7232C88.747 28.3443 88.4342 27.5864 88.1893 26.8731C86.8288 22.917 86.2067 18.7032 86.373 14.5164C86.4302 13.1095 86.5964 11.6402 87.3741 10.4675C88.6219 8.59218 91.1336 7.96102 93.379 8.12549C96.3751 8.3418 99.4625 9.93999 100.583 12.7252C101.375 14.681 104.373 17.3125 104.143 19.3629C104.003 20.6358 102.132 22.3841 100.104 23.5158C98.7564 26.5191 94.8842 27.7276 91.9774 28.6715Z" fill="#FCBE9F"/>
<path d="M98.463 19.8053C99.3748 20.5007 99.9433 19.6193 100.437 18.9167C102.764 15.588 104.491 18.5914 103.211 20.7563C102.736 21.5572 101.974 22.1489 101.171 22.6191C99.9504 23.3378 99.7645 24.1475 99.7645 24.1475L101.279 25.4436C107.761 22.2901 110.905 12.7582 106.74 6.23133C104.221 2.28053 98.4005 -1.38432 91.2837 2.08201C88.3304 3.51932 86.1709 8.00287 86.9968 11.1689C87.7422 10.5146 91.3051 11.8249 93.8687 13.9665C96.5681 16.2262 97.7605 19.2726 98.463 19.8053Z" fill="#E8A34F"/>
<path d="M114.209 47.4712C112.931 53.3152 109.363 64.0931 108.698 64.6151C106.425 66.3939 89.5299 76.6481 89.3046 76.7571C87.1844 77.7547 83.929 71.9589 85.3591 70.8845C90.2681 67.2716 101.604 57.8934 101.604 57.8934C103.093 51.9582 103.647 48.2255 104.85 42.2242C105.791 37.544 109.37 30.3093 112.866 32.0523C116.292 33.7453 115.19 42.9859 114.209 47.4712Z" fill="url(#paint2_linear_1_4891)"/>
<path d="M89.3403 68.0033L93.2589 65.0322C95.8599 63.0407 98.9705 60.6041 101.718 58.1407C101.797 58.1013 101.847 58.0333 101.867 57.96C102.492 55.3642 103.038 52.7435 103.52 50.1192C103.756 48.8052 104.005 47.4949 104.219 46.1791L104.868 42.2284C103.647 48.2261 103.095 51.9587 101.606 57.8956C101.606 57.8956 90.2699 67.274 85.3609 70.8869C85.3698 70.8994 89.3403 68.0033 89.3403 68.0033Z" fill="#494147"/>
<path d="M85.5164 71.141C86.5246 70.4742 90.2698 75.698 89.115 76.481C88.8325 76.6741 88.5733 76.8134 88.3802 76.9331C86.7338 77.9396 83.1369 72.7928 84.6779 71.7488C84.7602 71.6969 84.8871 71.5987 85.5164 71.141Z" fill="#EFEFEF"/>
<path d="M71.8102 84.3568C72.3537 83.7794 73.0741 83.4023 73.7696 83.0197C76.4368 81.5467 77.4183 81.1926 78.8377 78.4986C79.1899 77.8371 79.5313 77.0701 79.281 76.3604C78.793 74.9749 76.6692 75.1145 75.6681 74.0365C75.0853 73.4144 75.3284 72.844 76.4761 72.9048C79.1505 73.0407 80.8274 73.6468 83.4714 73.225L84.9087 72.4919C85.7543 72.1415 88.3643 75.4131 87.8762 76.5411C85.8847 78.1053 84.6531 80.2737 83.1961 82.3009C82.4113 83.3914 82.2468 83.5148 81.3994 84.5606C80.645 85.4884 78.5445 86.2965 77.4343 86.7453C75.6913 87.4442 73.067 86.6843 72.4145 86.1927C71.3383 85.3811 71.2668 84.9396 71.8102 84.3568Z" fill="#FCBE9F"/>
<path d="M39.7159 90.2647C39.6444 89.9108 39.8518 89.5712 40.1843 89.4318C41.5644 88.8597 41.9112 88.3268 42.3921 87.4186C43.2698 85.7614 44.3621 84.3708 45.4026 82.8119C45.7923 82.2291 46.5502 81.6713 46.8255 82.5813C47.0955 83.4769 45.7046 86.1637 45.2559 86.97C46.1301 86.6303 48.0698 86.3872 48.4434 86.3443C48.7992 86.305 51.0963 86.5589 52.3745 86.8825C53.3399 87.1238 53.3863 88.1589 52.5801 88.3341C52.5801 88.3341 53.5688 88.5234 53.6617 88.5538C54.0032 88.6575 54.266 88.9919 54.2803 89.3512C54.2928 89.7088 54.0621 90.0645 53.7296 90.2003C53.9834 90.6544 53.8297 91.2981 53.3971 91.5913C53.095 91.7933 49.7645 91.9166 48.6972 92.5727C49.7019 92.4565 50.2203 92.4314 51.3412 92.4921C52.2994 92.5404 52.2995 93.6202 50.4492 93.9813C47.6247 94.5319 47.2063 94.9593 46.4251 95.206C44.5087 95.8066 42.5852 96.0855 40.599 96.0247C40.1646 96.0104 39.8374 95.6188 39.875 95.1826C40.0287 93.5058 40.0251 91.8397 39.7159 90.2647Z" fill="#FCBE9F"/>
<path d="M28.5983 89.7135C32.0664 89.6045 39.884 89.1575 39.884 89.1575C41.307 89.2737 42.2724 96.3136 40.4364 96.6426C36.5822 97.6741 32.7691 98.6464 30.631 98.8824C24.7048 99.7441 24.7047 92.5971 28.5983 89.7135Z" fill="#CADEEF"/>
<path d="M52.5821 206.028C57.0031 206.47 58.0971 213.395 52.3998 213.795C48.4382 214.071 44.4785 214.376 40.5116 214.503C38.529 214.568 36.5429 214.587 34.5604 214.539C32.8799 214.496 30.2735 214.393 29.6817 212.43C29.2956 211.164 29.2098 209.108 29.3242 207.959C29.4368 206.834 31.2084 206.119 32.3149 205.71C33.0264 205.449 34.26 205.683 35.0287 205.688C35.9511 205.696 36.8718 205.713 37.7889 205.744C39.3621 205.799 40.9353 205.894 42.5031 206.035C45.6744 206.314 49.4179 205.708 52.5821 206.028Z" fill="#C4711E"/>
<path d="M51.9939 205.585C56.4149 206.028 58.099 211.686 52.3998 212.085C48.4383 212.36 44.4785 212.668 40.5116 212.793C38.529 212.857 36.5429 212.877 34.5604 212.827C32.88 212.784 30.2234 212.68 29.6281 210.717C29.2455 209.455 29.1794 208.618 29.3886 207.074C29.537 205.955 30.8724 203.443 35.2218 203.387C35.8672 203.38 37.8139 203.727 39.4926 204.219C41.0086 204.664 50.0775 205.391 51.9939 205.585Z" fill="#59453E"/>
<path d="M31.2603 200.534C34.0562 200.711 36.8522 200.974 39.6588 201.071C39.7178 202.933 39.7715 204.955 39.9002 206.605C40.1237 209.426 29.8926 209.916 30.5541 206.123C30.8651 204.342 31.0529 202.417 31.2603 200.534Z" fill="#473933"/>
<path d="M18.766 190.062C13.0507 193.491 6.95112 197.641 3.73685 196.734C2.12971 196.282 0.889017 195.51 0.656616 194.237C0.583321 193.847 0.790672 192.744 0.992682 191.818C1.20542 190.856 1.85801 190.066 2.75364 189.66C5.37976 188.466 10.7606 186.271 11.3416 185.947C11.6509 185.777 11.9942 185.688 12.3357 185.609C16.2132 184.694 20.0603 183.523 21.6174 184.261C22.2288 184.554 21.9981 186.144 22.016 186.646C22.0464 187.512 21.0774 188.672 18.766 190.062Z" fill="#C4711E"/>
<path d="M18.765 188.283C11.3765 192.716 6.71599 196.165 1.52095 193.324C1.0347 193.058 0.875626 192.528 0.886353 191.992C0.891716 191.731 0.997171 190.603 1.06868 189.861C1.11158 189.429 1.30822 189.005 1.61391 188.701C5.5522 184.755 5.68088 187.294 11.3264 184.178C11.5231 184.071 11.7483 183.976 11.9646 183.921C20.2184 181.868 25.9069 183.992 18.765 188.283Z" fill="#59453E"/>
<path d="M2.92859 183.713C5.5708 183.311 8.20413 182.875 10.8267 182.358C10.8857 184.268 10.9322 186.388 11.0591 188.077C11.27 190.857 1.64864 193.308 2.27075 189.389C2.56036 187.568 2.73731 185.621 2.92859 183.713Z" fill="#473933"/>
<path d="M1.09814 124.877C0.159605 119.015 2.50864 114.406 8.34188 107.62C8.61182 107.304 10.4406 108.187 10.8303 108.341C13.3617 109.343 15.7876 110.629 18.0347 112.168C19.3487 113.069 20.652 114.115 21.3242 115.559C21.9266 116.866 21.9498 118.357 21.9266 119.793C21.8586 123.697 21.5404 127.594 20.9647 131.452L20.4195 143.923C19.9189 147.843 19.3755 151.782 18.2081 155.561C17.2767 158.577 15.9557 161.464 15.0636 164.49C14.1787 167.501 11.8261 182.389 11.7778 185.928C11.7153 190.265 1.579 191.047 1.579 188.605C1.579 183.118 1.82932 176.046 1.37703 170.577C1.11067 167.34 0.867571 163.949 2.16722 160.972C3.03962 158.977 4.56981 157.272 5.10791 155.162C5.81047 152.407 4.69851 149.568 3.98165 146.817C2.16714 139.867 2.23512 131.968 1.09814 124.877Z" fill="#473933"/>
<path d="M42.1561 157.899C43.0588 163.039 42.991 167.17 40.776 204.921C40.5919 208.089 29.7656 208.668 29.7656 205.624C29.905 199.748 28.2622 192.738 27.3773 186.926C25.1355 172.248 28.5339 169.639 28.398 166.997C28.364 166.364 12.8915 142.264 10.462 138.094C9.23746 135.991 8.00405 133.866 7.31578 131.538C6.4273 128.522 6.50589 125.235 7.53739 122.265C8.48844 119.536 10.2457 116.926 10.0294 114.04C9.99544 113.636 18.0329 115.05 18.7105 115.254C21.4546 116.066 28.3265 117.44 28.5696 119.586C28.7091 120.835 29.9104 125.925 29.9104 125.925C34.0346 137.543 40.6508 149.313 42.1561 157.899Z" fill="#473933"/>
<path d="M17.1697 70.5366C19.0199 71.7844 21.3976 73.1413 28.1103 79.2946C33.2732 84.0266 35.0592 86.7815 32.6047 96.5923C31.7198 100.127 30.749 103.634 29.6907 107.116C28.1176 112.311 28.0371 115.762 28.7557 119.691C30.2127 125.126 2.80021 121.593 3.26322 114.614C3.28646 114.247 4.56642 110.815 5.40127 108.6C6.01087 106.998 6.37922 105.307 6.3524 103.591C6.21296 93.512 -1.62614 82.0779 4.78631 72.9285C6.7778 70.0861 13.2278 67.8783 17.1697 70.5366Z" fill="#CADEEF"/>
<path d="M19.953 91.9456C20.1568 88.1468 22.0696 83.1643 25.7451 81.339C28.0298 80.2056 30.0195 81.2301 31.4532 82.8605C32.8762 84.4784 33.5788 86.6147 33.704 88.7635C34.1294 95.9804 34.2099 114.419 34.3601 114.991C34.5531 115.725 49.0352 131.809 49.7342 132.791C51.5111 134.982 46.0891 139.87 44.6321 138.72C41.2373 135.958 30.8758 126.239 27.2289 122.805C26.3655 121.99 25.729 120.997 25.35 119.869C23.7357 115.08 19.456 101.34 19.953 91.9456Z" fill="#CADEEF"/>
<path opacity="0.5" d="M19.9138 91.9456C19.9138 101.376 25.5163 120.325 26.4495 121.677C26.8964 122.415 27.2576 122.774 27.2576 122.774C27.2021 122.833 26.8089 122.508 26.2833 121.796C25.722 121.101 25.2697 119.9 24.8317 118.466C22.4755 111.287 19.3793 99.4771 19.9138 91.9456Z" fill="#F3FDFF"/>
<path d="M49.2033 133.113C52.0172 134.658 53.9067 135.4 54.9436 135.743C55.53 135.936 56.0609 136.21 56.5436 136.596C57.1193 137.059 58.081 137.706 59.4343 138.21C59.9259 138.396 61.3436 138.757 61.4365 139.29C61.5456 139.946 59.302 140.275 58.6531 140.341C60.4318 141.712 62.2088 143.082 63.9876 144.449C64.7885 145.068 64.2843 145.894 63.0294 145.381C61.0361 144.569 59.1732 143.441 57.5339 142.054C58.569 143.668 60.3139 144.683 61.6046 146.103C62.4466 147.023 60.8698 147.73 59.8634 147.113C59.8437 147.453 58.9963 148.03 57.8879 147.756C57.2747 147.606 56.7331 147.254 56.2308 146.879C56.2308 146.879 57.046 147.59 56.9387 148.062C56.8583 148.414 56.0806 148.795 54.8632 148.15C52.2818 146.779 50.9321 146.11 49.2945 144.049C49.1283 143.838 44.8914 138.196 44.8038 137.937C44.2872 136.351 47.7517 132.243 49.2033 133.113Z" fill="#FCBE9F"/>
<path d="M14.8348 69.8262C17.1928 68.6464 22.7453 72.3326 24.8959 74.4814C27.0483 76.6338 27.3665 78.7182 27.3665 78.7182C23.5873 80.1055 17.906 79.9392 14.2448 76.9681C12.1872 75.3001 12.2301 71.1223 14.8348 69.8262Z" fill="#DCF0FF"/>
<path d="M27.4846 72.0201C27.018 73.7095 26.2278 76.3104 26.2278 76.3104C21.4064 77.8872 13.0168 74.5801 14.2253 71.0512C14.2253 71.0512 14.7615 69.8408 14.808 68.6287C14.8652 67.2701 14.3682 66.0581 13.873 64.8246C12.4965 61.3851 11.4651 54.2146 14.0715 51.794C16.939 49.1357 26.5496 44.7382 30.3842 50.3533C31.5909 52.1213 31.8465 53.2904 32.2129 55.7949C32.4364 57.3198 31.9467 58.253 31.9342 58.7678C31.8913 60.1193 32.7654 61.6032 32.7654 62.2718C32.7672 63.037 32.4347 63.5053 32.1504 64.8157C31.9663 65.6577 31.8215 67.6562 31.8304 68.3123C31.8411 69.1275 31.6713 70.0215 31.0224 70.5113C30.5862 70.8438 29.2794 71.069 28.4356 71.1852C27.9761 71.2478 27.6079 71.575 27.4846 72.0201Z" fill="#FCBE9F"/>
<path d="M19.8779 46.8505C23.1619 45.8637 27.3683 45.9907 30.4056 48.1717C33.6396 50.4903 33.3197 55.0794 31.8269 55.7855C31.0886 56.1341 30.159 56.5202 29.5887 57.1191C28.1371 58.6368 29.4546 59.4003 28.7109 60.6427C28.2336 61.4329 27.6758 60.0902 26.5281 60.387C25.4144 60.6748 24.576 61.9155 25.4967 64.6596C25.772 65.4819 26.2349 67.1553 26.1563 68.9198C26.0526 71.1079 22.7865 72.5542 19.5794 71.6103C12.0318 69.381 11.8852 62.788 11.6331 56.5454C11.4096 51.0983 14.5971 48.4434 19.8779 46.8505Z" fill="#99655B"/>
<defs>
<linearGradient id="paint0_linear_1_4891" x1="87.5544" y1="27.6233" x2="73.3604" y2="75.6823" gradientUnits="userSpaceOnUse">
<stop stop-color="#3B3439"/>
<stop offset="1" stop-color="#443C42"/>
</linearGradient>
<linearGradient id="paint1_linear_1_4891" x1="114.615" y1="52.1449" x2="80.5852" y2="52.1449" gradientUnits="userSpaceOnUse">
<stop stop-color="#3B3439"/>
<stop offset="1" stop-color="#443C42"/>
</linearGradient>
<linearGradient id="paint2_linear_1_4891" x1="114.732" y1="39.3624" x2="92.2674" y2="75.3506" gradientUnits="userSpaceOnUse">
<stop stop-color="#3B3439"/>
<stop offset="1" stop-color="#443C42"/>
</linearGradient>
</defs>
</svg>
