<svg width="89" height="151" viewBox="0 0 89 151" fill="none" xmlns="http://www.w3.org/2000/svg">
<g style="mix-blend-mode:multiply" opacity="0.3">
<path d="M38.5305 120.549C81.0852 118.793 95.266 132.154 86.1835 141.053C78.4536 148.628 45.013 147.091 28.1726 146.479L38.5305 120.549Z" fill="#948581"/>
</g>
<path d="M50.3716 21.1987C48.4397 26.8032 41.95 21.9281 41.95 21.9281L46.2547 14.0048C46.2547 14.0048 52.4596 15.1371 50.3716 21.1987Z" fill="#5E2E2E"/>
<path d="M37.5474 24.7001C37.5474 24.7001 34.6889 22.5294 31.2153 26.245C29.0111 28.6005 27.3069 32.9405 25.7413 37.5225C24.8415 40.1647 24.0387 42.4804 23.3395 44.9761C21.336 52.1398 22.314 53.3884 25.8051 52.8358C28.511 52.4058 31.4494 49.5613 31.2137 46.8459C30.978 44.1304 37.5474 24.7001 37.5474 24.7001Z" fill="#FFAD97"/>
<path d="M26.1331 36.4619C26.1331 36.4619 28.8024 25.444 33.1996 24.0695C36.6844 22.9802 36.4663 24.8277 36.7928 25.4376C37.1193 26.0476 30.4557 38.6678 30.4557 38.6678C30.4557 38.6678 27.5871 37.2885 26.1331 36.4619Z" fill="#CCB8C1"/>
<path d="M26.2751 35.5527L25.7432 37.5228C25.7432 37.5228 28.1001 39.6474 31.2933 40.2255C33.5119 40.6252 33.8132 39.098 32.0916 38.754C28.6164 38.0628 26.2751 35.5527 26.2751 35.5527Z" fill="white"/>
<path d="M43.3435 81.7975C44.0442 79.9293 31.8905 78.5103 31.8905 78.5103C31.8905 78.5103 31.8652 87.5757 31.5355 91.3933C31.0386 97.1539 31.1517 99.9107 32.8128 107.64C33.5502 111.069 34.4754 124.058 34.2285 128.634C33.8654 135.334 30.7757 138.5 29.7294 140.155C28.6846 141.81 32.6728 143.374 35.1955 140.961C37.7199 138.547 37.9827 138.075 39.4081 137.319C40.8335 136.562 40.3523 134.753 40.2472 130.972C40.1676 128.046 41.4353 118.304 41.9227 112.055C42.6123 103.188 40.6663 102.994 40.8017 98.5108C41.0533 90.0713 42.8832 83.0175 43.3435 81.7975Z" fill="#FFAD97"/>
<path d="M41.4114 132.908C41.4066 132.892 41.4021 132.874 41.399 132.86C41.3575 132.707 41.3208 132.626 41.3208 132.626L41.3177 132.632C40.988 131.742 40.2441 130.973 40.2441 130.973C40.2441 130.973 39.6469 136.335 36.4935 138.549C32.9753 141.019 31.4017 141.388 29.7278 140.157C29.7278 140.157 28.8854 141.408 26.9392 143.569C25.9023 144.722 26.7736 145.88 29.841 145.66C31.4623 145.544 33.7829 144.714 35.0634 143.077C36.4107 141.355 37.452 139.498 38.7102 138.374C38.9061 138.198 39.0752 138.045 39.2456 137.886V137.889C39.3396 139.308 39.2934 140.216 39.3634 141.245C39.6613 141.715 40.1183 141.603 40.4751 141.245C40.6805 140.113 40.4128 139.071 41.0482 136.983C41.7235 134.765 41.5468 133.444 41.4114 132.908Z" fill="#5E2E2E"/>
<path d="M52.7209 86.6253C53.4217 84.7571 41.2699 83.338 41.2699 83.338C41.2699 83.338 41.2426 92.4033 40.9129 96.2209C40.416 101.982 40.5291 104.738 42.1918 112.468C42.9276 115.897 43.8532 128.886 43.6063 133.462C43.2432 140.162 40.1532 143.328 39.1068 144.983C38.062 146.638 42.0502 148.202 44.5745 145.789C47.0973 143.374 47.3601 142.903 48.7856 142.146C50.211 141.39 49.7298 139.581 49.6247 135.8C49.545 132.874 50.8128 123.132 51.3001 116.882C51.9897 108.016 50.0437 107.822 50.1791 103.339C50.4324 94.8991 52.2622 87.8452 52.7209 86.6253Z" fill="#FFC5B3"/>
<path d="M50.7523 137.586C50.7492 137.569 50.7447 137.553 50.7399 137.539C50.6985 137.386 50.6618 137.304 50.6618 137.304L50.6586 137.309C50.329 136.419 49.5866 135.651 49.5866 135.651C49.5866 135.651 48.9878 141.014 45.836 143.226C42.3162 145.696 40.7442 146.066 39.0703 144.834C39.0703 144.834 38.2263 146.088 36.2817 148.247C35.2433 149.402 36.1161 150.558 39.1819 150.337C40.8033 150.222 43.1238 149.393 44.4043 147.755C45.7533 146.035 46.7949 144.177 48.0531 143.052C48.249 142.877 48.4162 142.722 48.5866 142.565L48.5881 142.566C48.6805 143.989 48.6359 144.896 48.7059 145.922C49.0022 146.395 49.4593 146.282 49.816 145.922C50.0231 144.79 49.7553 143.748 50.3892 141.66C51.0645 139.443 50.8893 138.123 50.7523 137.586Z" fill="#5E2E2E"/>
<path d="M28.8807 61.9946C28.8807 61.9946 28.3151 64.6433 28.1893 70.8801C28.0364 78.5439 28.9825 94.0069 28.9825 94.0069C28.9825 94.0069 30.9209 96.3991 35.4663 97.9216C46.5782 101.644 52.7482 96.6571 52.7482 96.6571C52.7482 96.6571 53.8883 89.0999 54.4824 82.3407C55.051 75.8507 54.7403 69.8098 51.9324 62.7894C47.5288 51.7794 31.5117 57.8315 28.8807 61.9946Z" fill="#4F2525"/>
<path d="M55.5672 36.5131C54.9731 32.385 45.5797 26.7947 45.5797 26.7947C45.5797 26.7947 39.0002 32.4932 40.4304 28.6024C40.8795 27.3761 40.1963 23.7927 40.1963 23.7927C40.1963 23.7927 39.6263 23.6493 38.7981 23.5028C37.5558 24.8773 35.1143 28.5308 33.7892 30.0438C32.5103 31.5043 28.7518 36.5672 29.9017 41.3483C30.8812 45.4287 30.5227 52.2229 30.3045 54.2265C29.8681 58.2638 28.8806 61.9923 28.8806 61.9923C28.8806 61.9923 31.0369 66.9247 40.0194 67.1222C48.6882 67.3133 51.9324 62.787 51.9324 62.787C51.9324 62.787 49.87 51.5827 50.4688 48.1235C51.2429 43.6561 56.7234 44.5608 55.5672 36.5131Z" fill="#EFE8EB"/>
<path d="M39.1597 25.0795C39.1597 25.0795 36.9617 34.0876 36.9617 37.6997C39.7631 36.2122 42.4387 33.2705 43.1219 32.7227C46.21 30.2477 46.677 28.9529 46.677 28.9529C46.677 28.9529 46.0461 26.067 45.9712 25.0222C45.8454 23.283 45.9841 17.6116 45.9841 17.6116L39.1597 25.0795Z" fill="#FFAD97"/>
<path d="M45.1224 25.9532C45.1224 25.9532 43.9613 30.6356 42.2731 32.3238C40.5865 34.0104 36.9617 37.699 36.9617 37.699C36.9617 37.699 40.8301 38.1004 43.2366 38.747C45.006 36.9871 47.5654 31.9734 47.5654 30.4079C47.5654 26.2081 45.1224 25.9532 45.1224 25.9532Z" fill="white"/>
<path d="M36.8516 26.2084C36.8516 26.2084 33.2221 31.6744 32.3828 34.1541C33.9309 35.175 36.9601 37.7009 36.9601 37.7009C36.9601 37.7009 36.9346 34.2608 38.1896 31.3144C38.5909 30.3747 38.9622 27.3041 38.9622 27.3041L36.8516 26.2084Z" fill="white"/>
<path d="M45.3118 9.69551C42.7333 7.5104 36.4043 6.52305 33.7414 12.9765C30.9463 19.742 36.737 28.6751 40.1373 27.3882C42.0421 26.6652 45.8998 24.8973 47.1914 21.325C48.6455 17.3036 47.317 11.3933 45.3118 9.69551Z" fill="#FFC5B3"/>
<path d="M43.77 20.1001C43.77 20.1001 44.2719 19.3755 44.8564 18.9279C45.3406 18.5584 46.2609 18.4453 46.5237 19.8516C46.8868 21.7707 45.3549 22.489 45.3549 22.489L43.77 20.1001Z" fill="#FFC5B3"/>
<path d="M48.9604 46.9135C48.9604 46.9135 49.2551 52.9513 49.7233 57.3709C49.8937 58.9827 51.2301 60.7744 52.7702 61.0834C54.3087 61.3923 55.3232 61.757 56.5877 61.0005C57.1165 60.6868 60.9037 56.9791 62.6955 55.2559C64.4888 53.5326 62.1063 51.0592 60.665 50.0399C58.8701 50.6961 57.0116 52.002 57.0116 52.002L57.204 48.1973C57.204 48.1973 52.3607 45.8751 48.9604 46.9135Z" fill="#FFC5B3"/>
<path d="M49.5211 48.2948C49.5211 48.2948 45.4042 39.3553 48.4413 34.7892C51.7397 29.8249 55.9126 32.1852 57.5753 36.4694C59.2205 40.7027 57.1546 47.3233 57.1546 47.3233L49.5211 48.2948Z" fill="#CCB8C1"/>
<path d="M48.9604 46.9136L49.0483 48.7579C49.0483 48.7579 51.3369 48.1639 53.6112 48.132C55.8855 48.0986 57.204 48.1974 57.204 48.1974L57.475 46.1397C57.475 46.1397 53.3275 44.6569 48.9604 46.9136Z" fill="white"/>
<path d="M44.5857 9.35749C51.5154 10.1857 48.4301 19.3275 48.4301 19.3275C48.4301 19.3275 47.5542 22.2739 43.2684 19.8818C38.9842 17.4896 38.1782 11.7512 38.1782 11.7512C38.1782 11.7512 40.3063 6.36172 44.5857 9.35749Z" fill="#5E2E2E"/>
<path d="M44.2864 18.7793C44.7387 18.4305 45.6034 18.3286 45.8502 19.6457C46.1879 21.447 44.753 22.1206 44.753 22.1206L43.2668 19.8814C43.2684 19.8814 43.7401 19.1997 44.2864 18.7793Z" fill="#FFC5B3"/>
<path d="M45.9028 10.3529C45.9028 11.4486 44.0106 11.3865 41.5133 13.1066C39.0176 14.8234 34.77 15.9097 33.1678 15.7886C28.8804 5.14974 45.9028 3.90107 45.9028 10.3529Z" fill="#5E2E2E"/>
<path d="M25.743 46.78C25.743 46.78 21.5783 41.2105 18.1095 37.9217C14.956 34.9323 13.9843 32.521 11.5476 31.9556C9.11085 31.3871 8.2795 30.6799 7.26658 29.7816C6.32851 28.9518 5.8587 29.4679 6.36994 30.0826C7.17582 31.0526 7.45438 31.7549 7.45438 31.7549C7.45438 31.7549 4.95559 32.2152 2.70677 31.4507C0.456365 30.6847 -0.516565 32.2423 1.05697 34.2633C3.68006 37.6334 9.11244 35.891 10.2368 36.45C11.3613 37.009 12.8935 38.6192 15.3923 42.8254C17.5982 46.5331 21.274 51.7904 23.4528 52.7667C25.6267 53.7382 25.743 46.78 25.743 46.78Z" fill="#FFAD97"/>
<path d="M58.5896 51.0245C59.3573 50.4288 60.5836 49.2153 61.509 48.7582C62.4454 48.2947 63.619 49.2455 65.0699 49.5704C66.2612 49.8396 67.5577 49.6118 67.3188 50.0864C66.8968 50.9289 65.777 51.1981 64.8389 51.2777C63.9024 51.3573 65.5368 53.3211 66.9335 54.5395C68.4879 55.8964 70.5519 58.7568 66.9891 58.9463C63.428 59.1326 61.5071 56.9778 60.4751 55.6639C59.443 54.35 58.0959 51.4051 58.5896 51.0245Z" fill="#FFC5B3"/>
<path d="M1.16357 3.32947V27.6603H1.17485C1.17485 27.6842 1.16357 27.7033 1.16357 27.7288C1.18587 29.5206 3.78506 30.9459 6.97036 30.9077C10.1158 30.8711 12.6435 29.4202 12.6897 27.6603H12.7025V3.32947H1.16357Z" fill="#827DD9"/>
<path d="M12.8205 3.50733C12.7996 1.71489 10.2001 0.291921 7.01456 0.329195C3.82899 0.36647 1.26356 1.84988 1.28453 3.64231C1.30551 5.43475 3.90494 6.85772 7.09051 6.82045C10.2761 6.78317 12.8415 5.29976 12.8205 3.50733Z" fill="#8F8FE5"/>
<path d="M59.6553 35.7385V49.1455H59.6665C59.6665 49.1678 59.6553 49.1885 59.6553 49.2123C59.6776 51.0057 62.2768 52.4295 65.4621 52.3912C68.6075 52.3546 71.1368 50.9053 71.1814 49.1455H71.1938V35.7385H59.6553Z" fill="#EC2121"/>
<path d="M71.2895 35.8472C71.2685 34.0539 68.6691 32.6306 65.4835 32.6679C62.2979 32.7052 59.7325 34.1889 59.7535 35.9822C59.7745 37.7755 62.3739 39.1992 65.5595 39.1619C68.7451 39.1246 71.3105 37.6405 71.2895 35.8472Z" fill="#FF5F5F"/>
</svg>
