<svg width="169" height="168" viewBox="0 0 169 168" fill="none" xmlns="http://www.w3.org/2000/svg">
<path d="M152.639 53.3602V106.063C151.746 118.29 141.808 130.438 123.486 138.983C99.6997 150.078 68.3527 152.045 42.925 145.594V53.3602H152.639Z" fill="#EC2121"/>
<path d="M0.275105 106.062V71.8621L42.925 53.3618V145.595C32.8825 143.047 23.7353 139.231 16.3826 134.083C4.75344 125.941 -0.449291 115.975 0.275105 106.062Z" fill="#2E4356"/>
<path d="M136.532 25.3403C148.161 33.4795 153.363 43.4462 152.639 53.3606H76.4901V10.1997C99.1153 9.68898 121.504 14.82 136.532 25.3403Z" fill="#8F8FE5"/>
<path d="M152.639 79.2214C151.746 91.4488 141.808 103.599 123.486 112.144C99.6997 123.239 68.3527 125.204 42.925 118.752L76.4899 79.2214H152.639Z" fill="#FF5F5F"/>
<path d="M0.275116 66.6953C1.17041 54.4679 11.106 42.3182 29.4296 33.773C43.4087 27.2535 60.0134 23.9073 76.49 23.5344V66.6972L42.9251 106.228C32.8826 103.68 23.7354 99.864 16.3826 94.7156C4.75345 86.5763 -0.44928 76.6096 0.275116 66.6953Z" fill="#3B5770"/>
<path d="M76.4899 53.3602H152.639V79.2211H76.4899V53.3602Z" fill="#6262C4"/>
<path d="M42.9251 106.23L76.49 66.6969V79.2232L42.9251 118.754V106.23Z" fill="#4F7495"/>
<path d="M128.732 49.0863C130.981 54.7203 134.032 69.3538 133.861 71.1211C133.5 74.9043 127.103 78.732 126.021 75.7878C124.712 72.2222 122.319 64.155 121.527 62.0828C119.412 56.5634 116.804 46.8586 116.418 44.9942C116.064 38.7194 112.92 28.1137 108.799 23.8314C108.799 23.8314 112.329 22.0001 114.969 24.4141C116.553 25.8629 120.125 29.8362 121.937 33.4058C122.811 35.1284 126.973 44.6797 128.732 49.0863Z" fill="#1E3A47"/>
<path d="M161.322 145.331C164.039 147.982 164.884 148.747 167.408 151.208C168.883 152.647 167.667 153.97 164.86 153.861C162.392 153.766 156.801 152.564 153.67 151.439C151.447 150.643 147.376 148.39 145.296 147.073C143.214 145.757 142.808 143.931 142.808 143.931V139.507L156.187 140.076C156.184 140.076 158.384 142.467 161.322 145.331Z" fill="#3B5770"/>
<path d="M137.784 159.301C140.503 161.952 141.346 162.715 143.871 165.178C145.345 166.615 144.131 167.938 141.323 167.829C138.854 167.734 133.263 166.532 130.134 165.409C127.911 164.611 123.838 162.36 121.758 161.043C119.678 159.724 119.272 157.899 119.272 157.899V150.092L132.649 154.042C132.645 154.044 134.846 156.435 137.784 159.301Z" fill="#3B5770"/>
<path d="M90.0107 82.1735L116.74 71.8942C116.74 71.8942 121.102 76.1025 129.171 80.9733C133.875 83.8106 146.825 91.4256 150.973 94.3542C153.529 96.1604 154.676 100.058 155.673 108.83C157.316 123.32 158.522 139.865 158.522 139.865C158.522 139.865 155.632 143.912 149.077 143.885C144.049 143.866 140.29 142.304 140.29 142.304L139.27 108.957L117.387 96.3139C117.387 96.3139 129.798 103.997 131.581 110.817C133.01 116.296 133.49 120.497 133.709 127.335C134.176 142.065 134.331 151.706 134.331 151.706C134.331 151.706 133.362 156.59 126.809 156.565C121.779 156.544 117.633 152.454 117.633 152.454L116.305 118.696C116.305 118.696 97.4063 105.222 92.454 99.5259C86.9054 93.1462 90.0107 82.1735 90.0107 82.1735Z" fill="#1E3A47"/>
<path d="M112.094 25.2684C112.094 25.2684 120.088 31.7238 121.039 40.8477C121.511 45.3766 120.288 60.9036 120.249 70.9073C124.098 73.5194 135.073 79.9496 135.073 79.9496C135.073 79.9496 126.233 82.6705 122.774 88.7608C119.224 87.2907 116.367 84.999 116.367 84.999C116.367 84.999 116.728 86.0129 118.73 90.0427C116.328 90.769 108.092 88.8521 100.444 92.1614C92.7899 95.4765 87.4839 93.9968 87.4839 93.9968C87.4839 93.9968 86.1615 87.413 87.0937 81.3265C87.9385 75.8091 89.9935 69.7012 89.572 66.4598C88.2534 56.3222 86.2821 39.9388 86.6395 37.2568C87.2357 32.7706 97.4044 27.9134 97.4044 27.9134C97.4044 27.9134 104.619 22.33 112.094 25.2684Z" fill="#3B5770"/>
<path d="M107.459 24.4139C107.459 24.4139 112.126 24.4138 116.078 32.0986C117.493 34.8505 118.431 36.3343 118.431 36.3343L116.078 38.6337L119.424 40.236C119.424 40.236 120.634 51.9486 119.666 56.7883C118.592 62.1504 113.156 71.8959 113.156 71.8959C113.156 71.8959 109.626 60.9598 108.08 58.237C106.534 55.5142 100.685 47.9712 100.685 47.9712L103.613 43.551L98.8379 41.9915C98.8379 41.9915 92.1047 33.5494 92.8078 31.0033C94.1264 26.2336 98.69 25.2702 98.69 25.2702L107.459 24.4139Z" fill="#1E3A47"/>
<path d="M112.957 33.1188C112.957 33.1188 114.858 38.8675 115.897 44.0703C116.938 49.2712 114.042 66.2625 114.042 66.2625C114.042 66.2625 111.473 49.6615 108.082 44.851C104.068 39.151 98.8395 33.7326 98.8395 33.7326C98.8395 33.7326 109.498 31.7904 112.957 33.1188Z" fill="#EFE8EB"/>
<path d="M110.978 34.1881L111.543 38.6316C111.543 38.6316 114.168 41.1641 114.73 44.2636C115.291 47.3632 115.126 58.971 115.126 58.971L114.042 66.2617L112.485 61.2412C112.485 61.2412 111.283 54.3411 110.251 50.0821C110.106 48.2118 109.947 46.6777 109.787 46.2154C109.075 44.1199 108.929 39.8084 108.929 39.8084L106.153 36.4894L108.799 33.4034L110.978 34.1881Z" fill="#FF65A7"/>
<path d="M109.241 24.9903L109.723 32.0166C109.723 32.0166 108.797 33.4052 106.425 35.4153C103.885 34.6229 97.9929 29.154 97.9929 29.154L99.9563 18.2435L109.241 24.9903Z" fill="#FFAD97"/>
<path d="M98.8668 6.24906C101.508 2.88149 109.106 0.0439661 114.056 7.36756C119.249 15.0504 114.341 27.608 109.797 26.8759C107.249 26.4661 101.516 24.1452 99.0048 20.0416C96.1772 15.4272 96.816 8.86699 98.8668 6.24906Z" fill="#FFC5B3"/>
<path d="M109.373 26.9081L108.798 33.4062L113.428 35.2959C113.428 35.2939 113.902 28.4113 109.373 26.9081Z" fill="white"/>
<path d="M98.6918 25.267C98.6918 25.267 100.259 27.6266 102.994 30.2834C105.116 32.3439 108.799 33.4023 108.799 33.4023L107.057 38.6285C107.057 38.6285 100.665 35.6999 98.3172 33.1441C98.3153 33.1461 95.5437 28.3549 98.6918 25.267Z" fill="white"/>
<path d="M116.007 9.9391C114.953 11.6209 113.31 13.594 109.078 13.8154C105.615 13.9999 102.877 12.9648 102.877 12.9648L103.176 17.5908C103.176 17.5908 102.479 17.618 101.906 17.4161C101.449 15.6604 100.696 15.2487 99.8376 15.9906C98.8666 16.8295 99.0083 20.0457 99.0083 20.0457C99.0083 20.0457 95.3438 16.8799 95.3593 11.5858C95.3671 8.28426 98.2531 1.13551 104.301 0.385869C110.348 -0.363774 114.652 2.7961 116.132 6.02578C116.866 7.64159 116.483 9.17781 116.007 9.9391Z" fill="#3B5770"/>
<path d="M148.275 85.9872H150.039V87.3544H148.275V85.9872Z" fill="#B59EAB"/>
<path d="M124.86 102.573L149.175 88.5339C150.454 87.7959 150.293 86.4927 148.815 85.6421L132.575 76.2657C131.098 75.4131 128.843 75.3198 127.565 76.0578L103.248 90.0971C101.971 90.8351 102.134 92.1363 103.61 92.9889L119.851 102.365C121.325 103.218 123.58 103.313 124.86 102.573Z" fill="#B59EAB"/>
<path d="M102.388 89.9841H103.477V91.3203H102.388V89.9841Z" fill="#B59EAB"/>
<path d="M124.86 101.295L149.175 87.256C150.455 86.518 150.293 85.2149 148.816 84.3642L132.576 74.9878C131.098 74.1353 128.843 74.0422 127.565 74.7802L103.249 88.8195C101.971 89.5575 102.134 90.8587 103.61 91.7113L119.851 101.088C121.325 101.942 123.58 102.035 124.86 101.295Z" fill="#EADCE1"/>
<path opacity="0.5" d="M129.575 75.2397L146.716 85.127L121.174 99.7955L103.982 89.9374L129.575 75.2397Z" fill="#B59EAB"/>
<path d="M131.039 75.0746L132.352 75.8339L106.808 90.5043L105.448 89.7722L131.039 75.0746Z" fill="#EADCE1"/>
<path d="M111.547 88.7963L112.86 89.5575L108.993 91.7618L107.633 91.0295L111.547 88.7963Z" fill="#EADCE1"/>
<path d="M115.786 86.3367L117.099 87.0962L114.386 88.6633L113.026 87.9331L115.786 86.3367Z" fill="#EADCE1"/>
<path d="M119.171 84.4136L120.482 85.175L117.769 86.7423L116.41 86.01L119.171 84.4136Z" fill="#EADCE1"/>
<path d="M122.537 82.4861L123.85 83.2454L121.135 84.8146L119.775 84.0825L122.537 82.4861Z" fill="#EADCE1"/>
<path d="M114.429 92.4531L115.741 93.2125L113.834 94.3137L112.473 93.5835L114.429 92.4531Z" fill="#EADCE1"/>
<path d="M117.217 90.8293L118.528 91.5906L116.619 92.6918L115.26 91.9595L117.217 90.8293Z" fill="#EADCE1"/>
<path d="M120.649 88.8896L121.96 89.6509L119.247 91.2182L117.885 90.4861L120.649 88.8896Z" fill="#EADCE1"/>
<path d="M116.673 93.7526L117.986 94.5121L116.079 95.6131L114.72 94.881L116.673 93.7526Z" fill="#EADCE1"/>
<path d="M119.462 92.1287L120.773 92.8899L118.865 93.9911L117.505 93.259L119.462 92.1287Z" fill="#EADCE1"/>
<path d="M119.06 95.0078L120.373 95.7671L118.464 96.8702L117.105 96.1379L119.06 95.0078Z" fill="#EADCE1"/>
<path d="M121.846 93.384L123.158 94.1415L121.249 95.2446L119.892 94.5125L121.846 93.384Z" fill="#EADCE1"/>
<path d="M122.894 90.1882L124.205 90.9495L121.492 92.5167L120.132 91.7847L122.894 90.1882Z" fill="#EADCE1"/>
<path d="M123.914 86.9674L125.227 87.7267L122.512 89.294L121.152 88.5638L123.914 86.9674Z" fill="#EADCE1"/>
<path d="M127.28 85.0391L128.592 85.7984L125.877 87.3657L124.518 86.6355L127.28 85.0391Z" fill="#EADCE1"/>
<path d="M114.563 89.6743L115.875 90.4358L111.354 93.0187L109.995 92.2866L114.563 89.6743Z" fill="#EADCE1"/>
<path d="M118.15 87.5955L119.462 88.3567L116.747 89.924L115.388 89.1919L118.15 87.5955Z" fill="#EADCE1"/>
<path d="M121.533 85.6741L122.845 86.4334L120.132 88.0007L118.771 87.2686L121.533 85.6741Z" fill="#EADCE1"/>
<path d="M124.9 83.7457L126.211 84.5051L123.498 86.0723L122.137 85.3422L124.9 83.7457Z" fill="#EADCE1"/>
<path d="M114.147 78.6697C114.147 78.6697 118.136 80.7343 120.651 81.9908C123.166 83.2454 130.643 89.6852 129.052 91.169C127.46 92.6527 123.539 94.3637 122.477 94.1423C121.412 93.9248 118.864 91.2622 118.456 90.6524C118.048 90.0426 113.201 88.1898 111.791 86.0729C110.381 83.956 114.147 78.6697 114.147 78.6697Z" fill="#FFC5B3"/>
<path d="M120.717 78.0306L120.641 98.6963C120.633 100.24 122.302 101.213 123.642 100.444L148.013 86.4942C148.634 86.1388 149.021 85.4786 149.023 84.7601L149.1 64.0942C149.106 62.5502 147.438 61.5794 146.098 62.3465L121.727 76.2964C121.105 76.6538 120.721 77.314 120.717 78.0306Z" fill="#9B8790"/>
<path d="M121.383 100.292L122.68 101.049L124.261 99.41L121.152 97.493L121.383 100.292Z" fill="#9B8790"/>
<path d="M148.211 62.4236L149.1 62.9442L146.78 62.9734L148.211 62.4236Z" fill="#9B8790"/>
<path d="M121.727 78.6252L121.651 99.2908C121.643 100.835 123.312 101.808 124.654 101.039L149.023 87.0888C149.644 86.7334 150.031 86.073 150.033 85.3544L150.11 64.6887C150.116 63.1448 148.448 62.1737 147.108 62.9408L122.737 76.891C122.113 77.2483 121.731 77.9085 121.727 78.6252Z" fill="#DDCCD3"/>
<path d="M142.282 92.5068L148.04 89.184V86.673L142.282 89.9939V92.5068Z" fill="#EADCE1"/>
<path d="M126.594 101.576L132.352 98.2514V95.7404L126.594 99.0634V101.576Z" fill="#EADCE1"/>
<path d="M134.593 82.6356C134.593 83.8397 135.665 84.199 136.986 83.4338C138.308 82.6706 139.379 81.0762 139.379 79.8702C139.379 78.6661 138.306 78.3068 136.986 79.072C135.665 79.8352 134.593 81.4296 134.593 82.6356Z" fill="white"/>
<path d="M81.988 59.3519C80.446 48.5209 80.5234 39.1697 86.4118 35.2933C90.6941 32.4753 93.2168 43.9453 94.3821 52.506C94.6637 54.5646 96.6061 64.0226 97.0781 66.2618C99.9485 66.9493 115.487 77.0539 117.427 78.8988C116.942 79.8777 113.32 82.5752 112.269 88.4462C105.814 87.0187 95.6215 80.7419 88.8455 77.2578C83.8291 74.6807 82.7086 64.4266 81.988 59.3519Z" fill="#1E3A47"/>
</svg>
