<svg width="149" height="182" viewBox="0 0 149 182" fill="none" xmlns="http://www.w3.org/2000/svg">
<path d="M90.6652 62.4523C92.8302 58.8648 99.2583 48.0341 102.226 42.0463C103.027 40.4347 102.081 39.3019 102.292 37.479C102.504 35.638 102.047 33.9761 101.299 32.1552C100.961 31.3322 100.466 30.4248 99.5803 30.1009C98.7755 29.8051 97.9427 30.1069 97.2485 30.459C93.0736 32.5837 90.4619 36.8412 89.1198 41.0745C87.8764 45.01 84.8541 51.195 83.6408 55.1607C83.4094 55.9152 83.1097 56.7039 83.0494 57.5087C82.7576 61.3336 85.1683 64.1041 88.0072 63.4059C89.3975 63.0659 89.4902 64.4039 90.6652 62.4523Z" fill="#EC2121"/>
<path d="M71.9978 73.646C74.4947 73.5433 77.2472 71.6098 79.1666 70.5836C82.3396 68.8875 87.7316 65.8775 90.136 63.1975C91.5867 61.5839 91.4582 58.934 91.5709 57.1071C91.6191 56.2781 91.5829 55.3003 91.0276 54.5438C90.5205 53.8557 88.2812 49.5077 85.6615 51.9925C83.5589 53.9885 74.3417 60.6141 72.0661 62.3987C71.0037 63.2317 69.9437 64.0929 68.9739 65.0325C67.9216 66.0546 67.7101 67.7729 67.7483 69.2376C67.7805 70.6279 68.3036 72.0806 69.4263 72.9015C70.219 73.481 71.0924 73.6842 71.9978 73.646Z" fill="#EC2121"/>
<path d="M65.9052 70.2731C64.7945 71.2228 63.6275 72.0598 63.1003 73.5145C62.6054 74.8887 62.7405 76.5607 63.7345 77.6311C64.7284 78.6995 66.6517 78.8725 67.6215 77.7779C68.215 77.1059 68.3498 76.1603 68.6697 75.3233C69.0963 74.2026 69.8913 73.2247 70.9013 72.5789C71.4506 72.2248 72.062 71.9692 72.5892 71.5789C73.1143 71.1906 73.5608 70.6192 73.5809 69.9653C73.6252 68.4824 71.3541 67.0901 70.0623 66.919C69.5372 66.8506 68.9776 66.9211 68.545 67.2249C68.1265 67.5186 67.8769 67.9874 67.6053 68.422C67.1425 69.1645 66.5329 69.7359 65.9052 70.2731Z" fill="#FFC7AD"/>
<path d="M77.3295 66.7357C76.7239 66.3816 76.1746 66.3453 75.7762 66.5727L60.7244 75.5161C61.0926 75.3069 61.5994 75.3391 62.1587 75.665C63.2673 76.3149 64.1548 77.8782 64.1447 79.1559C64.1387 79.7917 63.9116 80.2364 63.5474 80.4456L78.8365 71.9146C79.2309 71.6893 79.4764 71.2064 79.4825 70.5183C79.4946 69.132 78.5286 67.4379 77.3295 66.7357Z" fill="#E22B0B"/>
<path d="M62.1568 75.6649C63.2654 76.3148 64.1549 77.8781 64.1428 79.1558C64.1307 80.4334 63.2212 80.9445 62.1126 80.2946C61.0019 79.6447 60.1145 78.0813 60.1266 76.8017C60.1387 75.5261 61.0461 75.017 62.1568 75.6649Z" fill="#9C1D06"/>
<path d="M61.8187 76.5719C61.4384 76.3485 61.0903 76.3264 60.8368 76.4713L42.8474 86.8755C43.0989 86.7306 43.4471 86.7507 43.8274 86.974C44.5899 87.4167 45.2014 88.4871 45.1974 89.3623C45.1934 89.7989 45.0406 90.1048 44.7912 90.2476L62.7825 79.8434C63.03 79.7006 63.1852 79.3947 63.1892 78.9601C63.1912 78.0849 62.5813 77.0165 61.8187 76.5719Z" fill="#161620"/>
<path d="M43.8255 86.9751C44.588 87.4178 45.1995 88.4882 45.1955 89.3634C45.1894 90.2407 44.5678 90.5928 43.8073 90.1501C43.0467 89.7055 42.4332 88.6371 42.4393 87.7598C42.4453 86.8826 43.0649 86.5345 43.8255 86.9751Z" fill="#2754F0"/>
<path d="M4.15615 93.069L4.13208 100.365C4.14214 97.1474 6.28483 93.9402 10.5503 91.5117C19.033 86.6869 32.6826 86.7714 41.0446 91.7028C45.1994 94.1535 47.2696 97.3365 47.2575 100.514L47.284 93.2179C47.2941 90.0409 45.2275 86.8559 41.0706 84.4072C32.7087 79.4778 19.0591 79.3913 10.5764 84.2181C6.31086 86.6426 4.16621 89.8518 4.15615 93.069Z" fill="#3BCCB1"/>
<path d="M4.15615 93.069L4.13208 100.365C4.14214 97.1474 6.28483 93.9402 10.5503 91.5117C19.033 86.6869 32.6826 86.7714 41.0446 91.7028C45.1994 94.1535 47.2696 97.3365 47.2575 100.514L47.284 93.2179C47.2941 90.0409 45.2275 86.8559 41.0706 84.4072C32.7087 79.4778 19.0591 79.3913 10.5764 84.2181C6.31086 86.6426 4.16621 89.8518 4.15615 93.069Z" fill="#C8C8D5"/>
<path d="M0.474035 93.0537L0.457825 98.9027C0.443741 102.621 2.86428 106.347 7.72735 109.214C17.5179 114.987 33.5017 115.089 43.4271 109.442C48.4209 106.599 50.9296 102.842 50.9437 99.0757L50.9599 93.2267C50.9478 96.9953 48.4366 100.752 43.4428 103.593C33.5154 109.24 17.5341 109.138 7.74356 103.365C2.88452 100.5 0.463975 96.7719 0.474035 93.0537Z" fill="#C8C8D5"/>
<path d="M0.474035 93.0537L0.457825 98.9027C0.443741 102.621 2.86428 106.347 7.72735 109.214C17.5179 114.987 33.5017 115.089 43.4271 109.442C48.4209 106.599 50.9296 102.842 50.9437 99.0757L50.9599 93.2267C50.9478 96.9953 48.4366 100.752 43.4428 103.593C33.5154 109.24 17.5341 109.138 7.74356 103.365C2.88452 100.5 0.463975 96.7719 0.474035 93.0537Z" fill="#C8C8D5"/>
<path d="M43.6899 82.9134C53.4804 88.6859 53.3721 97.9452 43.4448 103.595C33.5175 109.243 17.5356 109.14 7.7451 103.368C-2.0414 97.5972 -1.93668 88.3398 7.99267 82.6921C17.918 77.0423 33.9054 77.1429 43.6899 82.9134ZM40.861 102.07C49.3437 97.245 49.4383 89.3358 41.0703 84.4043C32.7083 79.4748 19.0587 79.3883 10.576 84.2152C2.0973 89.038 2.00273 96.9452 10.3667 101.877C18.7327 106.808 32.3823 106.895 40.861 102.07Z" fill="#EDECF8"/>
<path d="M66.7643 70.9594C66.7703 72.388 66.903 73.8185 67.1646 75.2249C67.2209 75.5328 67.2894 75.8487 67.4544 76.1142C67.6174 76.3818 67.9029 76.5951 68.2168 76.5911C68.5528 76.5871 68.8449 76.3356 68.9978 76.0358C69.2735 75.4945 69.1687 74.8527 69.1103 74.2471C69.054 73.6455 69.0803 72.9574 69.5249 72.5469C69.7362 72.3518 70.016 72.2451 70.2534 72.0801C71.2373 71.4001 71.6316 69.9272 71.6578 68.7925C71.6678 68.4223 71.6255 68.0239 71.3881 67.7422C71.2231 67.547 70.9837 67.4303 70.7382 67.368C70.2553 67.2432 69.7219 67.3076 69.2813 67.545C69.0499 67.6698 68.8449 67.8388 68.6437 68.0078C68.364 68.2371 68.1286 68.4363 67.8066 68.5772C67.4988 68.71 67.2714 68.7865 67.0742 69.0862C66.7221 69.6235 66.7643 70.3478 66.7643 70.9594Z" fill="#FFC7AD"/>
<path d="M114.735 23.8244C111.806 23.8405 108.53 23.7118 105.719 24.3134C105.263 24.4099 105.929 25.8727 105.474 25.9773C103.665 26.3898 102.184 26.7741 101.029 27.929C100.017 28.941 99.3011 30.6713 98.2328 31.8786C98.2066 31.9087 103.446 49.7796 103.446 49.7796L121.645 41.3814L114.735 23.8244Z" fill="#F3A984"/>
<path d="M142.529 70.2694C140.956 67.4445 133.672 53.6138 131.936 50.8473C129.369 46.7548 130.067 40.4189 128.958 35.7913C128.009 31.8417 128.737 26.9323 124.719 25.1175C122.705 24.21 119.892 24.206 117.713 23.8761C117.19 23.7956 114.262 23.699 113.16 23.8237C113.582 25.5038 113.647 33.2461 105.275 32.574C102.691 32.3668 101.45 30.4976 101.337 28.9625C101.19 26.9001 102.973 28.7009 102.854 26.6406C95.0252 25.4837 96.0274 39.095 96.8926 43.3947C98.2467 50.143 112.421 74.4182 113.49 76.1586C117.771 94.0636 138.946 82.0558 142.529 70.2694Z" fill="#FF4A51"/>
<path d="M113.196 23.5645C116.665 29.7595 106.168 36.0189 103.224 30.023C99.1238 21.6671 99.1499 19.9327 101.928 16.8101C102.689 15.955 103.538 15.1582 104.526 14.6029C108.126 12.5808 107.864 14.4057 108.488 15.9308C110.335 20.4559 111.949 21.3351 113.196 23.5645Z" fill="#F3A984"/>
<path d="M100.172 26.7642C100.618 28.418 101.92 30.4844 103.24 31.583C104.188 32.3697 105.596 32.5065 105.596 32.5065L101.892 38.1321C101.892 38.1321 98.9263 34.7036 98.7654 31.8787C98.695 30.6313 98.3287 27.3456 100.172 26.7642Z" fill="#D4E2F6"/>
<path d="M107.866 23.4957C108.065 23.0571 108.25 22.6124 108.425 22.1637C109.033 20.6105 109.707 18.8157 109.846 17.1538C110.295 11.8098 107.723 6.17215 102.483 4.23256C98.7633 2.85633 94.3187 3.68931 91.353 6.32306C90.5522 7.03531 89.8562 7.86223 89.2103 8.71734C88.653 9.45777 88.1177 10.2384 87.8501 11.1257C87.6731 11.7092 87.6151 12.3189 87.5849 12.9285C87.5527 13.6126 87.5546 14.3048 87.6954 14.9768C88.3232 17.9928 91.4438 19.8821 91.6993 23.0329C91.7556 23.721 91.6773 24.4192 91.7558 25.1073C91.8343 25.7914 92.1038 26.4996 92.6793 26.8698C93.2245 27.2219 93.7514 27.2783 94.2001 27.7451C94.8077 28.3768 95.359 29.0952 95.9405 29.7551C96.5723 30.4754 97.216 31.2058 97.9987 31.7571C99.9222 33.1071 101.471 32.5035 102.966 30.8899C104.99 28.7068 106.646 26.1938 107.866 23.4957Z" fill="#FFC7AD"/>
<path d="M110.047 6.85375C107.332 1.69893 105.361 1.55407 102.564 0.843825C99.8498 0.155712 96.8983 0.676841 94.4255 1.96454C91.9004 3.27839 89.816 5.36484 88.303 7.75915C88.2426 7.85573 88.1801 7.95231 88.1217 8.0509C87.3511 9.32049 86.7617 10.6363 86.7537 12.1434C86.7476 12.9401 86.8462 13.757 87.0695 14.5236C87.4921 15.9682 88.9247 15.9722 90.2728 15.7731C92.0856 15.5055 93.9929 13.757 95.518 12.8053C96.2302 12.3607 96.9689 11.908 97.7938 11.745C98.6187 11.584 99.5705 11.7752 100.096 12.4311C100.643 13.1172 100.596 14.083 100.796 14.9381C101.186 16.6302 102.762 17.9179 104.456 18.1513C105.462 18.2901 106.011 18.0688 106.648 17.3062C107.22 16.6201 107.697 15.6885 108.745 15.7992C109.713 15.9018 109.182 17.0245 109.345 17.8112C109.373 17.9601 110.409 19.8172 110.409 19.8172C110.822 19.6221 113.31 13.0528 110.047 6.85375Z" fill="#282837"/>
<path d="M141.892 164.156L143.467 171.407C143.978 171.638 144.284 171.494 144.574 171.202L143.988 162.389L141.892 164.156Z" fill="#161620"/>
<path d="M134.513 179.499C134.646 179.831 134.833 180.134 135.094 180.388C135.716 180.992 136.426 181.402 137.31 181.474C137.859 181.519 138.38 181.344 138.889 181.151C139.847 180.792 140.42 180.058 140.877 179.179C141.428 178.116 141.869 177.133 142.038 175.945C142.115 175.404 142.664 170.996 142.909 170.229C143.137 169.517 144.314 163.907 143.925 161.843C143.825 161.316 143.609 160.883 143.163 160.565C142.774 160.288 142.137 160.077 141.664 160.03C141.153 159.98 140.619 160.117 140.122 160.209C139.801 160.27 139.563 160.282 139.272 160.459C138.541 160.9 137.815 159.93 137.33 160.626C136.791 161.4 136.35 163.26 135.958 164.652C135.755 165.378 134.95 170.107 134.68 171.772C134.483 172.986 134.251 174.195 134.171 175.422C134.084 176.784 133.992 178.209 134.513 179.499Z" fill="#161620"/>
<path d="M129.159 163.204L128.986 154.677L126.572 154.502L127.375 163.321C127.946 163.709 128.642 163.816 129.159 163.204Z" fill="#161620"/>
<path d="M113.134 166.698C112.82 167.494 112.369 168.297 112.423 169.177C112.45 169.569 112.558 169.772 112.892 169.999C113.542 170.442 114.6 170.724 115.357 170.742C116.204 170.764 117.131 170.71 117.944 170.47C119.298 170.074 120.602 169.488 121.775 168.714C122.489 168.243 123.089 167.633 123.431 166.849C123.773 166.068 123.874 165.154 123.956 164.313C124.117 162.694 124.5 160.927 125.797 159.945C126.155 159.676 126.564 159.483 126.932 159.227C129.638 157.356 129.552 153.342 127.461 151.058C126.328 149.819 125.165 150.121 123.874 150.952C122.322 151.952 121.663 153.525 120.618 154.972C120.47 155.177 120.316 155.376 120.149 155.565C119.013 156.875 119.884 150.553 119.379 152.308C117.961 157.249 113.524 165.704 113.134 166.698Z" fill="#161620"/>
<path d="M115.17 117.628C117.25 124.972 117.375 131.35 118.58 138.161C119.127 141.259 120.369 151.744 117.661 158.617C117.043 160.186 121.952 155.223 123.306 154.215C124.242 153.514 126.039 151.889 125.96 150.722C125.506 144.13 127.878 137.682 128.373 131.09C128.733 126.276 127.811 120.187 126.061 114.934L115.17 117.628Z" fill="#F3A984"/>
<path d="M118.631 155.755C118.522 156.307 118.286 156.86 118.093 157.387C117.904 157.9 114.625 163.506 116.142 164.188C117.017 164.58 118.737 163.598 119.204 163.077C120.331 161.822 120.679 160.627 121.687 159.274C122.582 158.069 123.958 157.256 125.256 156.544C125.816 156.236 126.334 155.88 126.709 155.349C127.312 154.494 127.56 153.204 127.274 152.21C127.105 151.619 126.916 151.108 126.602 150.574C126.314 150.086 125.998 149.609 125.87 149.049C125.644 148.075 125.508 147.005 124.828 146.222C124.832 146.222 118.733 155.244 118.631 155.755Z" fill="#F3A984"/>
<path d="M128.125 113.35C129.713 124.748 133.666 137.826 135.362 149.204C135.825 152.317 136.851 161.759 136.079 168.675C135.891 170.353 140.282 170.045 141.66 169.073C142.616 168.399 143.354 163.729 143.23 162.568C142.479 155.518 145.505 149.583 146.179 143.009C146.871 136.255 145.131 126.879 141.962 120.873C141.316 119.65 140.408 118.336 139.034 118.177L128.125 113.35Z" fill="#FFC7AD"/>
<path d="M137.276 163.056C137.153 163.852 136.367 162.2 136.358 162.999C136.352 163.897 135.976 168.055 135.847 168.943C135.69 170.029 135.606 171.462 135.829 172.56C136.024 173.514 136.411 174.373 137.328 174.699C138.399 175.079 139.612 174.198 140.302 173.317C141.038 172.377 141.304 171.629 141.725 170.516C142.103 169.514 142.517 168.48 142.678 167.428C142.996 165.363 143.393 163.043 143.085 160.955C143.052 160.738 142.32 158.036 142.179 158.14C141.831 158.4 141.527 158.726 141.213 159.033C139.986 160.243 138.759 161.45 137.531 162.657C137.065 163.116 137.38 162.359 137.276 163.056Z" fill="#FFC7AD"/>
<path d="M148.62 97.2209C148.6 103.348 147.813 109.408 147.813 115.546C147.813 119.2 148.244 122.42 145.839 125.476C145.181 126.301 143.986 127.387 142.984 127.8C138.351 129.697 133.311 130.504 128.248 130.606C125.991 130.649 115.862 129.474 115.14 127.089C114.196 123.985 113.474 110.011 113.222 105.408C112.991 101.12 113.216 87.537 113.347 80.4607C113.353 80.2515 113.359 80.0422 113.359 79.8451C113.407 77.5453 113.444 76.0765 113.444 76.0765C113.444 76.0765 120.526 77.6459 129.715 73.312C136.278 70.2175 140.518 65.7528 139.968 64.9219C140.785 66.1593 141.634 67.5496 142.469 69.0425C142.566 69.2216 142.668 69.4006 142.767 69.5857C145.513 74.6319 147.992 80.6921 148.433 85.7081C148.775 89.5229 148.632 93.4001 148.62 97.2209Z" fill="#2E3A59"/>
<path d="M129.175 100.5C128.747 100.548 128.708 100.282 128.759 99.9223C128.799 99.6346 128.869 99.3529 128.904 99.0652C128.908 99.0289 128.964 98.3046 128.833 98.3529C128.674 98.4153 128.567 98.5984 128.471 98.7352C128.336 98.9263 128.234 99.1356 128.103 99.3308C127.988 99.5018 127.918 99.6889 127.825 99.872C127.723 100.069 127.652 100.218 127.586 100.423C127.533 100.582 127.413 100.743 127.312 100.874C127.109 101.138 126.809 101.377 126.465 101.216C125.984 100.991 126.29 100.401 126.356 100.033C126.396 99.8217 126.789 99.1819 126.592 98.9988C126.409 98.8297 125.775 99.4877 125.656 99.6084C125.195 100.083 124.801 100.707 124.189 101.009C123.807 101.198 123.153 101.333 123.3 100.677C123.397 100.246 123.718 99.9585 123.966 99.6144C124.284 99.1738 124.588 98.7251 124.892 98.2724C124.966 98.1618 125.465 97.5521 125.387 97.4616C125.328 97.3952 125.079 97.5099 125.028 97.53C124.596 97.6869 124.178 97.8599 123.779 98.0833C123.463 98.2603 123.176 98.4857 122.86 98.6648C122.52 98.8559 121.65 99.369 121.366 98.8418C121.091 98.3408 121.942 97.6366 122.27 97.3851C122.964 96.8539 123.578 96.3127 124.149 95.6447C124.88 94.7896 125.473 93.8138 125.606 92.689C125.656 92.2383 125.562 91.6307 125.212 91.3209C124.497 91.8259 124.103 92.5462 123.594 93.3249C123.178 93.9566 122.698 94.5482 121.908 94.6729C121.529 94.7313 120.938 94.8802 120.672 94.5039C120.423 94.1538 120.582 93.7071 120.848 93.4154C121.113 93.1277 121.473 92.9386 121.707 92.6227C121.93 92.3229 122.099 92.005 122.248 91.6589C122.507 91.0412 122.7 90.3672 123.018 89.7817C123.342 89.1881 123.819 88.6972 124.362 88.3008C124.56 88.1559 124.763 88.0352 124.964 87.9004C125.439 87.5785 125.876 87.2043 126.3 86.8139C127.495 85.7194 128.123 83.9166 129.121 82.6128C130.022 81.4378 131.141 82.4197 132.026 83.2446C132.789 83.9548 133.068 84.6309 133.079 85.6469C133.089 86.5503 132.761 87.3672 132.624 88.2385C132.528 88.8421 132.509 89.4899 132.481 90.0996C132.469 90.3189 132.457 90.5382 132.451 90.7575C132.433 91.4999 132.38 92.2404 132.318 92.9788C132.236 93.9305 132.065 94.8741 131.807 95.7936C131.562 96.6769 131.157 97.4656 130.843 98.3207C130.761 98.5481 130.686 98.7795 130.604 99.0088C130.384 99.6587 129.92 100.415 129.175 100.5Z" fill="#FFC7AD"/>
<path d="M132.696 30.4068C131.248 28.3103 129.65 26.9903 127.377 25.8033C126.344 25.264 124.479 25.0991 123.417 25.6745C122.32 26.268 118.021 31.6361 124.099 46.4788C125.316 49.4546 129.202 57.2492 129.346 58.4383C129.455 59.3276 125.558 83.9086 126.018 86.0755C126.437 88.0433 132.35 88.1841 133.246 87.6972C134.161 87.1982 141.248 61.6173 141.227 60.7401C141.213 60.054 141.165 59.3558 141.058 58.6778C141.004 58.3357 134.127 32.4812 132.696 30.4068Z" fill="#EC2121"/>
<path d="M116.971 27.6827C116.946 27.5318 116.918 27.3809 116.88 27.2239C116.691 26.4372 116.318 25.7008 115.811 25.071C115.546 24.7411 114.473 23.5117 114.063 23.8296C113.836 24.0067 113.693 25.1676 113.594 25.4533C112.902 27.4231 111.826 29.3365 110.224 30.7067C108.973 31.7771 107.242 32.3747 105.598 32.5055C106.329 35.0628 108.836 38.5858 109.232 39.1411C109.383 38.8474 109.802 38.5758 110.033 38.3544C111.277 37.1794 112.528 36.0487 113.606 34.7187C114.099 34.1111 114.602 33.5095 115.079 32.8898C116.304 31.3043 117.276 29.7047 116.971 27.6827Z" fill="#D4E2F6"/>
<path d="M110.101 7.3525C110.572 7.45511 111.029 7.59596 111.443 7.76095C113.753 8.68447 114.745 10.439 115.463 12.7488C116.198 15.1149 116.234 17.5394 116.234 19.986C116.234 21.3944 116.091 22.7344 116.636 24.0443C117.083 25.1086 117.727 25.833 118.429 26.7022C119.793 28.3902 119.648 30.1649 119.526 32.2312C119.459 33.3318 119.302 34.4686 118.893 35.5008C118.517 36.4504 117.815 37.1627 117.328 38.046C116.139 40.1988 115.584 42.8668 115.471 45.3054C115.439 45.9794 115.799 47.3777 114.928 47.4039C114.109 47.428 112.787 45.913 112.352 45.3496C110.029 42.3195 110.381 38.1003 110.409 34.4988C110.417 33.4726 110.552 32.6195 110.988 31.7202C111.465 30.7363 111.421 29.8872 111.423 28.7886C111.425 25.8229 110.035 23.3904 109.644 20.5172C109.447 19.0705 109.644 17.6078 109.568 16.1551C109.493 14.7145 109.025 12.1532 107.737 11.28C107.335 11.0063 106.894 11.0245 106.498 10.7106C104.942 9.49331 105.151 7.81324 107.089 7.32029C108.017 7.08489 109.097 7.13319 110.101 7.3525Z" fill="#282837"/>
<path d="M107.357 14.0448C109.087 13.0609 110.612 15.0629 110.212 17.3707C110.093 18.0427 109.673 18.7952 109.399 19.4189C107.51 23.6944 105.279 21.1291 105.85 19.7087C107.176 16.4089 105.18 15.2822 107.357 14.0448Z" fill="#FFC7AD"/>
</svg>
