<svg width="101" height="192" viewBox="0 0 101 192" fill="none" xmlns="http://www.w3.org/2000/svg">
<path d="M50.2551 166.471C51.4318 165.319 52.5208 164.036 53.5545 162.628C55.6657 159.758 56.8271 155.396 57.1837 151.727C58.1564 151.868 59.6422 152.657 60.1572 153.14C61.189 154.105 61.3891 154.54 61.3052 156.457C61.0286 162.716 60.2544 168.639 60.0485 170.289C59.9035 171.441 59.7928 172.32 59.6669 173.03C59.3579 174.777 58.0649 176.177 56.3561 176.65C55.5951 176.861 54.8704 177.029 54.3993 177.067C49.1928 177.485 49.7345 169.095 50.2551 166.471Z" fill="#F1A782"/>
<path d="M49.5358 173.677C49.6388 171.08 49.927 165.364 49.7859 162.082C49.7477 161.182 49.0878 160.136 48.6567 159.303C47.5544 157.175 51.0159 151.676 54.0598 150.791C54.7635 150.587 57.3363 151.449 58.8754 152.891C59.9072 153.856 60.1359 154.628 60.0234 156.541C59.4322 166.4 58.7724 171.103 58.5493 173.452C58.0801 178.451 49.3604 178.085 49.5358 173.677Z" fill="#414042"/>
<path d="M47.217 156.645C46.9576 156.21 46.7288 155.727 46.7555 155.222C46.7746 154.802 46.9672 154.414 47.1827 154.051C48.1611 152.407 49.7002 151.101 51.4834 150.401L52.5381 149.888C53.5946 149.96 54.4508 150.737 55.2175 151.471C55.6294 151.864 55.7038 152.058 55.6638 152.68C55.4463 155.922 50.873 160.442 49.1928 158.935C48.4376 158.258 47.7357 157.515 47.217 156.645Z" fill="#EDEDED"/>
<path d="M38.3831 189.491C35.654 191.898 28.9558 192.95 27.125 189.195C26.2724 187.446 28.277 175.065 28.8396 171.705C28.9979 170.743 29.2763 169.052 29.2763 169.052C29.572 168.754 30.5979 168.636 31.0003 168.506C32.7091 167.949 35.5432 169.023 37.336 169.16C38.2495 169.231 38.9036 176.203 38.896 176.816C38.8617 180.557 40.5077 187.616 38.3831 189.491Z" fill="#F1A782"/>
<path d="M38.4243 187.471C35.697 189.88 28.9972 190.932 27.1663 187.177C26.3138 185.426 28.3296 173.064 28.8884 169.704C29.0467 168.743 29.3252 167.051 29.3252 167.051C29.6208 166.753 30.9101 166.643 31.3106 166.513C33.0194 165.954 36.2252 167.167 38.0218 167.167C38.2411 167.167 38.3765 169.587 38.449 171.55C38.5233 173.467 38.6912 175.37 38.9544 177.268C39.5189 181.328 40.074 186.016 38.4243 187.471Z" fill="#414042"/>
<path d="M29.6349 165.695C29.7989 165.256 30.0143 164.814 30.392 164.541C30.7067 164.314 31.0996 164.228 31.481 164.175C33.2318 163.933 35.0607 164.289 36.5921 165.17L37.5688 165.632C38.1257 166.44 38.0588 167.503 37.9729 168.477C37.9291 169.002 37.8319 169.166 37.3627 169.494C34.8987 171.208 29.0073 170.516 29.1218 168.437C29.1752 167.505 29.3087 166.57 29.6349 165.695Z" fill="#EDEDED"/>
<path d="M66.9675 59.8682C66.9675 59.8682 66.4413 58.3578 65.5297 56.0921C63.8838 52.0107 62.9147 47.7042 62.3292 43.3444C61.7323 38.9045 59.6573 33.3948 51.8989 29.8894L53.6918 56.5172C53.6918 56.5172 56.0376 66.6025 60.4966 69.1753C64.3204 70.3215 79.6693 69.5794 79.6693 69.5794C82.6541 69.2437 83.8727 62.3837 81.9369 61.8993C81.9369 61.8993 72.1436 59.8682 66.9675 59.8682Z" fill="#F5F5F5"/>
<path d="M45.4833 134.601C45.1934 136.539 44.507 140.086 44.343 142.037C44.322 142.277 32.3831 134.954 31.8873 133.899C31.3132 132.675 31.2312 131.282 31.1912 129.934C30.8326 117.812 34.9406 90.0056 41.3144 88.3197C45.5636 87.1983 48.8572 84.3014 51.9945 82.5334C52.2596 83.3879 53.711 83.8435 53.8826 85.6419C53.9227 86.0768 53.9836 86.5555 54.016 87.0304C54.4756 93.4194 54.2145 103.318 52.252 110.361C48.1077 125.239 46.7745 126.005 45.4833 134.601Z" fill="url(#paint0_linear_1_11044)"/>
<path d="M29.2743 144.278C29.0187 151.659 28.3588 158.04 27.7065 164.49C27.2011 169.495 39.7427 170.49 40.4884 167.038C41.8425 160.777 42.3669 154.445 43.1832 148.047C42.7503 147.946 29.2743 144.278 29.2743 144.278Z" fill="#999693"/>
<path d="M37.0594 132.032C37.0594 132.032 52.5914 146.223 54.2144 148.029C57.0847 150.916 51.0697 161.074 47.6196 159.098C47.6196 159.098 20.6825 144.882 19.7156 139.738C17.7302 129.209 17.118 112.321 16.9826 97.8072C16.9426 93.5065 17.9401 84.6859 19.4907 83.1411C19.0062 84.0661 29.8409 88.6319 30.8154 88.752C34.3513 89.1907 38.4936 89.1411 41.9169 88.1684C42.3213 92.1372 37.0594 117.743 37.0594 132.032Z" fill="#BCB9B5"/>
<path d="M37.5477 27.8867C31.5706 28.1899 25.7116 29.8548 20.1903 32.2407C16.8299 33.6959 13.2501 35.8054 12.2641 39.4329C11.6881 41.5498 12.1231 43.8058 12.5789 45.9571C13.5744 50.685 14.6518 55.4207 16.3988 59.9063C17.7281 63.3259 20.8807 67.802 20.6862 71.5209C20.4459 76.1573 19.1376 81.0664 18.4301 85.6741C18.2908 86.5934 18.9355 89.416 27.7047 91.1973C33.9774 92.4713 40.5018 92.3454 46.6677 90.6327C50.9608 89.4426 54.3039 87.667 53.8557 85.2697C52.6961 79.0447 51.4012 68.3055 51.691 66.631C51.9809 64.9622 52.6524 63.3964 53.2932 61.8363C55.9137 55.4721 58.1698 48.8485 58.7209 41.9579C58.8678 40.1079 58.8869 38.2159 58.3738 36.4385C56.0776 28.4855 44.0702 27.5567 37.5477 27.8867Z" fill="#F5F5F5"/>
<path d="M43.9367 95.6397C47.1465 94.9245 52.5018 93.3396 54.1419 90.496C54.1705 90.1794 54.1668 89.9487 54.1591 89.7294C54.0962 89.9239 54.0065 90.1317 53.894 90.3568C52.4159 92.9753 46.7821 94.608 43.8527 95.2392C36.7294 96.6486 26.8617 95.1267 22.0289 93.2157C20.3792 92.573 17.9342 91.3542 17.6177 89.6111C17.5871 89.8132 17.5606 90.0229 17.532 90.2308C18.1842 91.8042 20.2993 92.9314 21.8937 93.5588C26.1257 95.2677 36.2108 97.2322 43.9367 95.6397Z" fill="#9D9A97"/>
<path d="M11.4442 70.2999C11.4728 68.7379 20.3602 54.6152 23.5452 48.6095L17.7054 33.4495C17.7054 33.4495 11.2649 36.602 8.08756 44.9516C5.62921 51.4093 2.66911 63.0831 0.813434 69.7353C0.151645 72.1155 7.51155 81.5026 9.38058 84.6437C10.4028 86.3564 15.8745 82.849 15.1326 81.0715C14.3907 79.294 11.4137 72.2242 11.4442 70.2999Z" fill="#F5F5F5"/>
<path d="M23.9342 96.8295C24.514 96.7037 25.0289 96.1162 24.8668 95.5479C24.5655 94.478 24.0676 94.5504 23.4097 94.3769C22.7116 94.1938 21.8498 93.778 21.4359 92.8301C21.1594 92.2007 20.5795 92.2255 19.8814 92.544C17.5585 93.6025 21.6971 97.3197 23.9342 96.8295Z" fill="#3D3B36"/>
<path d="M25.2616 87.5598C25.172 87.0315 24.8477 86.7586 24.5692 86.3142C24.1935 85.702 24.2316 84.8304 23.8368 84.2602C23.4878 83.7624 20.4346 82.1167 19.8185 81.9165C19.0194 81.6571 18.1669 81.6207 17.3277 81.5864C16.1949 81.5406 15.6647 81.7981 14.795 81.2965C13.1186 80.3258 9.38807 83.2837 9.99073 84.7255C12.0581 89.6651 16.8089 94.8013 19.7135 94.3054C21.1744 94.0556 23.2418 92.4497 24.3041 91.3951C25.5151 90.1859 25.7117 90.2184 25.2616 87.5598Z" fill="#FCBE9F"/>
<path d="M99.9008 65.4952C99.8016 65.377 99.6566 65.3122 99.5078 65.2626C98.8537 65.0433 91.206 63.2087 90.8608 63.016C90.5042 62.8215 90.2811 62.4076 90.3135 62.0052C90.3917 61.0268 92.1481 60.4299 92.7717 59.8882C94.9459 58.0059 93.6777 56.4495 91.4291 57.8779C89.8138 58.9021 88.5683 59.4858 86.6745 59.7586C85.1602 59.9722 84.4375 60.5136 83.7089 61.2651C83.522 61.4577 83.2436 61.677 83.0319 61.8524C82.866 61.9879 82.2785 62.2893 82.0744 62.2568C79.8525 61.9193 78.5386 69.037 79.9919 69.3536C81.3498 69.5386 81.7274 69.8074 82.9041 70.5092C84.1323 71.2416 85.5722 71.6153 87.0006 71.5562C88.143 71.5123 88.4693 70.9325 88.3262 70.4843C89.0987 71.2567 89.6765 71.5334 90.4928 71.4609C91.4998 71.3713 91.6046 70.4387 91.1907 69.7808C91.6179 70.1488 92.0833 70.4691 92.6325 70.5702C93.4316 70.7152 94.4024 70.1774 94.3814 69.3668C94.3699 68.871 94.0095 68.4608 93.6739 68.1003C93.1704 67.5587 91.9688 66.6168 91.9688 66.1457C92.0203 65.6479 98.4513 67.3394 99.445 66.6795C99.8436 66.4106 100.21 65.8633 99.9008 65.4952Z" fill="#FCBE9F"/>
<path d="M24.5521 85.8709C21.6589 83.3592 17.282 86.4697 20.0894 87.1658C21.1898 87.4404 22.3645 87.8332 22.9844 88.7792C23.3372 89.3151 23.5395 90.0398 24.1403 90.2591C24.6113 89.1129 24.7544 87.8658 24.8936 86.6376C24.9299 86.3229 24.9145 86.1875 24.5521 85.8709Z" fill="#3D3B36"/>
<path d="M23.1524 86.5583V97.4806C23.1371 98.3598 23.7132 99.2448 24.8784 99.92C27.1842 101.249 30.9203 101.249 33.2242 99.92C34.3609 99.262 34.9368 98.4018 34.9521 97.5397V86.6212L23.1524 86.5583Z" fill="#3D3B36"/>
<path d="M33.226 89.0019C35.5299 87.6688 35.5299 85.5118 33.226 84.1825C30.9221 82.8532 27.186 82.8532 24.8802 84.1825C22.5764 85.5118 22.5764 87.6688 24.8802 89.0019C27.186 90.3293 30.9221 90.3293 33.226 89.0019Z" fill="#54514A"/>
<path d="M32.7799 88.7427C34.8377 87.5546 34.8377 85.6284 32.7799 84.4402C30.7221 83.252 27.3844 83.252 25.3265 84.4402C23.2649 85.6284 23.2649 87.5546 25.3265 88.7427C27.3863 89.9309 30.7221 89.9309 32.7799 88.7427Z" fill="#3D3B36"/>
<path d="M32.78 85.7039C30.7221 84.5157 27.3844 84.5157 25.3266 85.7039C24.5771 86.1368 24.1079 86.667 23.9058 87.222C24.1079 87.7789 24.579 88.3091 25.3266 88.742C27.3844 89.9302 30.7221 89.9302 32.78 88.742C33.5276 88.3091 33.9967 87.7789 34.2008 87.222C33.9967 86.667 33.5276 86.1368 32.78 85.7039Z" fill="#3A2B21"/>
<path d="M30.3576 26.7586L29.1121 29.0415L30.3746 30.4549L33.1152 27.9506L33.8649 25.2197L30.3576 26.7586Z" fill="#EDEDED"/>
<path d="M40.8793 38.1743C39.7331 39.8335 39.2888 40.4743 38.2761 40.7184C35.1121 41.4775 28.6029 35.9238 29.2247 29.6435C29.2647 29.2296 29.4592 28.8349 29.7529 28.5393C31.1242 27.1585 32.7357 24.8182 33.6969 20.0923C33.9964 18.6237 35.7014 17.9888 36.8762 18.9138C40.8736 22.053 43.9918 28.1749 43.9594 30.8201C43.9403 32.3115 41.749 36.9137 40.8793 38.1743Z" fill="#F1A782"/>
<path d="M41.6346 37.7163C40.6944 38.1416 36.9468 39.7245 36.3994 39.6863C36.3994 39.6863 36.6359 44.9559 39.6492 44.0043C42.0065 43.2605 41.6346 37.7163 41.6346 37.7163Z" fill="#EC2121"/>
<path d="M39.0771 38.7363L46.2004 40.7885C46.2004 40.7885 44.6384 34.3174 40.7287 27.114C43.5551 37.1972 39.0771 38.7363 39.0771 38.7363Z" fill="white"/>
<path d="M50.1311 17.5266C50.1712 15.8845 49.9538 14.1032 48.5711 13.1877C46.4274 11.7669 41.486 9.25324 32.9247 13.922C31.6907 14.5971 30.9031 15.8694 30.0621 16.9946C29.0951 18.2896 29.0799 19.0581 29.2382 20.5361C29.5299 23.3168 29.1008 24.4975 33.062 29.0327C36.3939 32.8451 41.135 35.8757 42.2031 36.4326C43.5705 37.1458 44.9304 37.3155 46.273 36.9417C47.5299 36.5889 48.8095 35.3493 49.1471 32.3607C49.4083 30.0797 49.9748 23.5876 50.1311 17.5266Z" fill="#FCBE9F"/>
<path d="M34.8279 22.5831C35.2608 23.4032 36.9734 23.7008 37.4425 21.7746C38.009 19.4288 40.2271 18.9042 41.9188 18.8393C44.2455 18.7497 47.1824 18.4522 49.0877 17.0008C50.7984 15.6982 51.5803 13.2704 50.6077 11.2812C50.2339 10.5183 49.6447 9.86802 49.3109 9.08417C48.8284 7.95894 48.8933 6.62205 48.2258 5.59599C47.1826 3.99015 44.8709 3.8471 43.3948 2.62651C43.0705 2.36142 42.7942 2.04475 42.4642 1.78537C39.8781 -0.272467 37.7897 2.28138 35.8119 2.26612C35.3599 2.26422 34.9099 2.1441 34.4579 2.15554C32.8044 2.1994 31.7574 3.87947 30.3956 4.81399C29.4268 5.47768 28.2042 5.81344 27.4681 6.72698C26.3981 8.05819 26.8062 10.0206 26.2875 11.6474C26.1101 12.1986 25.828 12.7173 25.7173 13.2857C25.4599 14.6398 26.2342 15.9767 26.2838 17.3575C26.3124 18.1623 26.095 18.9958 26.3524 19.7606C26.5756 20.4109 27.098 20.842 27.4527 21.4084C27.8112 21.9825 27.838 22.6022 28.1774 23.1915C29.1406 24.8469 31.0173 27.1414 32.1559 27.9939C31.5647 26.1153 29.2818 22.2971 31.2824 21.0021C32.0357 20.512 32.9626 20.4986 33.6969 21.0345C34.2633 21.4484 34.5036 21.9652 34.8279 22.5831Z" fill="#2B2119"/>
<path d="M40.0155 38.4698L32.4632 43.4322C32.4632 43.4322 28.1835 40.3751 27.0697 35.5004C26.4708 32.8685 26.8445 30.6407 27.3251 30.0247C28.4274 28.6134 30.3576 26.7598 30.3576 26.7598C30.3576 26.7598 28.231 30.5474 31.8413 35.2524C33.2164 37.0432 36.3766 39.1412 40.0155 38.4698Z" fill="white"/>
<path d="M41.1423 84.2828L44.8291 75.321L40.4597 42.6111L38.2932 43.1163L36.0408 76.8866L41.1423 84.2828Z" fill="#EC2121"/>
<defs>
<linearGradient id="paint0_linear_1_11044" x1="43.1355" y1="104.707" x2="40.5135" y2="141.26" gradientUnits="userSpaceOnUse">
<stop stop-color="#BCB9B5"/>
<stop offset="1" stop-color="#B0ADA9"/>
</linearGradient>
</defs>
</svg>
