<svg width="255" height="233" viewBox="0 0 255 233" fill="none" xmlns="http://www.w3.org/2000/svg">
<path d="M0.525129 322.252L34.1846 341.922L101.004 303.743L101.502 303.454L135.485 206.736L135.599 206.412L202.916 167.943L203.126 167.35L237.205 70.2281L254.06 80.0809L252.312 0.523438L186.743 40.7398L202.584 49.9983L169.257 146.525L168.173 147.145L101.065 185.867L100.978 186.111L67.844 283.783L67.1611 284.178L0.525129 322.252Z" fill="#EC2121"/>
<path d="M100.978 186.109L135.485 206.735L135.599 206.41L202.916 167.942L203.126 167.349L168.173 147.144L101.065 185.866L100.978 186.109Z" fill="#FF5F5F"/>
<path d="M96.9882 111.754V115.555L95.8259 117.88L93.5917 119.627C92.8322 120.072 92.25 119.816 92.6731 118.95L93.5917 117.612V116.138L87.7797 116.629L83.9359 117.522C81.9455 117.695 81.5708 117.352 82.4149 116.629L87.4675 113.364L93.5937 111.935L95.3362 109.566L97.8847 110.503L96.9882 111.754Z" fill="#FFB294"/>
<path d="M93.5918 111.944C94.5024 113.747 95.8219 114.508 97.8768 113.471C98.9042 111.488 99.9174 109.607 100.886 107.802C104.513 101.049 107.565 95.2652 108.477 89.143L115.524 75.5488L115.716 75.1822L115.143 60.1194C109.845 61.1025 104.867 74.9766 99.8913 89.1409C97.071 97.5839 96.8654 105.85 93.5918 111.944Z" fill="#EC2121"/>
<path d="M161.859 170.006H166.821L167.627 172.958C166.039 175.712 162.56 177.247 158.372 178.324L152.336 179.398L150.727 176.983L151.397 172.958C151.349 172.756 151.268 172.557 151.208 172.355C153.916 171.707 156.492 170.593 158.777 168.846C159.544 169.481 160.773 170.172 161.859 170.006Z" fill="#FFB294"/>
<path d="M160.217 169.666C161.099 170.681 164.506 170.016 165.958 170.929C166.881 171.511 167.066 172.803 166.301 173.58C164.711 175.198 162.657 176.409 160.026 176.808C156.395 176.989 153.22 176.634 151.041 175.107C149.387 177.118 149.872 181.097 150.37 182.485C151.756 184.161 153.263 184.763 155.779 184.094C158.295 183.421 159.063 180.829 161.502 179.4C163.942 177.968 167.036 178.653 168.745 177.027C170.578 175.285 171.289 173.179 171.829 170.456C172.175 169.126 171.893 168.292 169.667 167.682C167.439 167.071 160.217 169.666 160.217 169.666Z" fill="#25435C"/>
<path d="M145.229 111.801C144.153 130.073 140.682 147.35 132.757 162.767C131.234 166.131 129.243 170.507 126.05 172.691C117.152 184.365 110.701 194.458 107.81 205.552C108.141 209.215 109.086 212.091 110.895 213.866L115.456 217.845C107.184 220.929 102.816 214.092 97.8848 207.162C105.663 200.052 102.474 184.041 109.956 172.691C113.699 167.014 120.685 160.485 120.685 160.485V129.37C114.493 123.912 113.522 115.304 117.869 103.483L145.229 111.801Z" fill="#FFB294"/>
<path d="M117.867 117.837L141.606 108.177L148.045 133.797C150.402 148.035 152.805 159.482 158.639 168.737C158.682 168.773 158.732 168.812 158.776 168.848C158.776 173.109 148.504 181.088 145.227 177.299C142.541 168.119 135.72 154.218 133.423 141.978L117.867 117.837Z" fill="#172935"/>
<path d="M110.413 213.343L116.257 214.268C118.356 214.693 119.257 215.787 119.543 217.219C118.205 220.36 116.271 221.929 112.609 222.731C107.988 222.016 104.081 220.63 101.561 217.36C101.561 217.36 97.8483 216.538 96.5409 215.877C95.2355 215.217 94.1718 213.553 94.1718 213.553C93.5695 211.038 95.6907 208.146 98.4043 206.651L99.5587 208.571C99.5587 208.571 104.464 215.259 106.735 216.417C110.423 218.295 113.24 216.953 113.24 216.953L110.413 213.343Z" fill="#25435C"/>
<path d="M99.8167 204.844C102.504 205.549 109.199 210.231 113.836 208.762C113.733 207.912 114.849 200.646 117.873 192.221C118.093 191.572 118.328 190.911 118.592 190.253L118.739 189.872C120.853 184.455 123.76 178.772 127.605 174.118C130.073 171.138 131.232 166.134 132.759 162.77C140.611 147.504 144.091 130.4 145.192 112.316C145.207 112.138 145.207 111.977 145.223 111.8L144.973 111.729L142.229 110.891L117.875 103.478C113.516 115.309 114.499 123.911 120.679 129.373V160.48C120.679 160.48 113.693 167.011 109.964 172.692C103.193 182.944 105.115 196.975 99.8167 204.844Z" fill="#25435C"/>
<path opacity="0.5" d="M118.739 189.875C120.853 184.458 123.76 178.775 127.605 174.121C130.073 171.141 131.232 166.137 132.759 162.773C140.611 147.507 144.09 130.403 145.192 112.319C145.106 112.099 145.031 111.906 144.973 111.732C144.781 111.201 144.665 110.894 144.665 110.894H136.048C139.924 126.896 136.548 144.32 128.707 162.654L118.739 189.875Z" fill="#227FBC"/>
<path d="M116.312 104.988C120.142 111.027 126.344 114.152 135.083 114.156C138.677 114.164 142.707 113.632 147.175 112.562C147.642 104.962 146.085 98.5834 147.598 92.3101C147.598 92.3101 148.049 91.8387 148.672 91.0087C150.275 88.845 153.011 84.2217 151.816 79.0544C150.765 74.5136 142.948 72.2351 142.948 72.2351C142.948 72.2351 135.99 64.5738 130.476 62.3075C124.96 60.0451 115.149 60.1197 115.149 60.1197C115.149 60.1197 111.833 62.3417 111.833 72.4588C111.833 83.6335 119.388 89.6589 119.479 94.2299C119.561 98.6599 116.499 104.621 116.312 104.988Z" fill="#EC2121"/>
<path d="M172.139 95.6902L176.881 93.7622L180.101 90.4765L182.103 86.0466C182.47 85.0433 182.111 84.5296 181.575 85.2911L180.369 87.1363L181.71 83.5686C182.314 82.0496 181.666 81.6911 180.973 82.4969L180.235 83.5686L181.041 81.4916C181.577 80.2828 180.818 79.8578 180.169 80.6173L176.682 85.5812L179.23 80.2829C179.633 79.3219 178.849 78.9412 178.156 79.747L173.529 87.1363L171.718 87.7185L171.182 84.1044C171.025 83.1878 170.042 83.0086 170.042 84.171C170.058 85.6396 169.927 87.0921 169.639 88.5304L170.713 91.7497L167.628 93.4943L169.573 96.4436L172.139 95.6902Z" fill="#FFB294"/>
<path d="M147.527 78.8083C151.226 82.8192 154.715 87.4648 158.037 92.6201C163.352 92.89 167.963 93.0813 170.713 91.7477C172.351 91.2924 173.843 94.3848 173.312 96.067C169.049 99.2862 165.348 100.6 157.435 101.428C151.923 98.8167 147.388 94.5842 140.535 89.8016C131.681 82.5613 141.874 72.6357 147.527 78.8083Z" fill="#EC2121"/>
<path d="M140.367 59.7596L138.369 68.136C134.539 71.176 124.044 67.8761 125.949 63.3353L129.088 55.9158L140.367 59.7596Z" fill="#FFB294"/>
<path d="M140.367 59.7596L138.369 68.136C134.539 71.176 124.044 67.8761 125.949 63.3353L129.088 55.9158L140.367 59.7596Z" fill="#FFB294"/>
<path d="M138.863 66.0657L140.14 69.0714C134.324 74.0937 122.132 68.4973 125.494 61.2187L126.993 60.989C127.116 66.1402 132.76 68.1226 138.863 66.0657Z" fill="white"/>
<path d="M143.093 39.9351C143.093 39.9351 153.627 47.2056 139.743 64.3192C139.743 64.3192 130.168 68.6586 125.619 60.7596C121.07 52.8585 120.113 41.3694 128.492 37.0603C136.87 32.7512 144.052 35.1465 143.093 39.9351Z" fill="#722811"/>
</svg>
