<svg width="235" height="241" viewBox="0 0 235 241" fill="none" xmlns="http://www.w3.org/2000/svg">
<path d="M132.028 211.804L100.767 193.755V191.564L132.028 209.608V211.804Z" fill="url(#paint0_linear_1_10825)"/>
<path d="M138.914 207.834L132.028 211.806V209.61L138.914 205.636V207.834Z" fill="#C9C6C1"/>
<path d="M132.028 209.609L100.767 191.565L107.65 187.586L138.914 205.635L132.028 209.609Z" fill="url(#paint1_linear_1_10825)"/>
<path opacity="0.8" d="M121.345 195.496H107.58L113.69 199.904L117.004 200.937H120.918L121.345 195.496Z" fill="#B6B2AE"/>
<path d="M120.916 200.966L115.223 197.683V60.7947L122.266 63.3019L120.916 200.966Z" fill="#B6B2AE"/>
<path d="M123.673 199.377L120.917 200.966V64.0819L123.673 62.491V199.377Z" fill="#C9C6C1"/>
<path d="M120.916 64.0823L115.223 60.7952L117.98 59.2043L123.673 62.4914L120.916 64.0823Z" fill="#EFEAE5"/>
<path d="M11.8206 57.0998L107.927 1.16406L128.361 128.969L32.2506 184.907L11.8206 57.0998Z" fill="#E1DCD8"/>
<path d="M14.666 58.453L105.959 5.30713L125.516 127.622L34.2191 180.763L14.666 58.453Z" fill="#FFFBF9"/>
<path d="M9.76733 56.3987L105.876 0.458984L107.927 1.16476L11.8204 57.1005L9.76733 56.3987Z" fill="#C9C6C1"/>
<path d="M11.8204 57.1012L32.2505 184.908L30.2015 184.217L9.76733 56.3994L11.8204 57.1012Z" fill="url(#paint2_linear_1_10825)"/>
<path d="M49.3027 176.523L119.076 135.791L119.346 137.448L49.5751 178.18L49.3027 176.523Z" fill="#E1DCD8"/>
<path d="M45.5762 175.236L115.347 134.506L119.076 135.791L49.3027 176.523L45.5762 175.236Z" fill="#C9C6C1"/>
<path d="M49.3027 176.524L49.5751 178.181L45.8506 176.912L45.5762 175.237L49.3027 176.524Z" fill="url(#paint3_linear_1_10825)"/>
<path d="M117.751 162.729C117.524 162.599 117.316 162.589 117.167 162.678L20.2703 218.622V221.292L118.335 164.677C118.48 164.588 118.57 164.409 118.57 164.151C118.57 163.629 118.203 162.991 117.751 162.729Z" fill="url(#paint4_linear_1_10825)"/>
<path d="M20.3361 259.039L14.6431 255.754V118.865L21.6835 121.374L20.3361 259.039Z" fill="#B6B2AE"/>
<path d="M23.0909 257.452L20.3362 259.039V122.153L23.0909 120.566V257.452Z" fill="#C9C6C1"/>
<path d="M20.3361 122.153L14.6431 118.866L17.3998 117.279L23.0908 120.566L20.3361 122.153Z" fill="#EFEAE5"/>
<path d="M18.316 125.24C18.316 125.773 17.8827 125.956 17.3483 125.647C16.8138 125.342 16.3826 124.658 16.3826 124.124C16.3826 123.59 16.8138 123.404 17.3483 123.717C17.8827 124.021 18.316 124.706 18.316 125.24Z" fill="#C9C6C1"/>
<g opacity="0.4">
<path opacity="0.4" d="M112.483 61.5572C112.714 61.5572 112.766 61.4622 112.753 61.3982L112.566 60.2552C112.334 60.2552 112.283 60.3399 112.295 60.4101L112.361 60.8207C110.772 61.7389 109.258 62.6137 107.7 63.5133L100.994 22.9214L100.775 23.0493L107.479 63.6413C104.803 65.1868 102.122 66.7364 99.5143 68.2407L92.8102 27.6488L92.5894 27.7767L99.2935 68.3686C96.609 69.9183 93.9554 71.4535 91.3307 72.966L84.6266 32.3741L84.4079 32.5021L91.112 73.098C88.4254 74.6435 85.7801 76.1706 83.1471 77.6934L76.443 37.1035L76.2222 37.2294L82.9263 77.8213C80.2563 79.3648 77.5965 80.9 74.9615 82.4208L68.2574 41.8329L68.0366 41.9608L74.7407 82.5507C72.0768 84.0839 69.417 85.6253 66.7779 87.1501L60.0738 46.5602L59.853 46.6882L66.5571 87.2781C63.8973 88.8133 61.2458 90.3444 58.5922 91.8775L51.8881 51.2833L51.6694 51.4133L58.3735 92.0012C55.7241 93.5302 53.0684 95.0675 50.4086 96.6006L43.7045 56.0087L43.4837 56.1366L50.1879 96.7265C47.5508 98.2493 44.889 99.7846 42.223 101.326L35.5189 60.734L35.3002 60.862L42.0063 101.45C39.3693 102.97 36.7157 104.506 34.0415 106.051L27.3353 65.4591L27.1166 65.5871L33.8207 106.179C31.1382 107.729 28.4557 109.274 25.7155 110.859C21.6629 86.3247 22.7318 92.7976 19.0527 70.5084L19.519 70.2401C19.5953 70.1968 19.6469 70.1124 19.6345 70.0401C19.4798 69.9968 18.217 70.723 18.217 70.723C18.1427 70.7684 18.0911 70.8571 18.1014 70.9273C18.2562 70.9706 18.7225 70.7023 18.7225 70.7023C22.284 92.2591 21.4875 87.441 25.4101 111.195C25.4245 111.28 25.5092 111.303 25.5999 111.249C35.7665 105.383 102.226 67.0131 112.415 61.1302L112.483 61.5572Z" fill="#6D637C"/>
<path opacity="0.4" d="M27.3911 123.494L35.2487 167.039L101.832 128.593L93.9762 85.0547L27.3911 123.494ZM90.7324 87.0065L91.2421 89.8334L87.7962 91.8206L87.2844 88.9977L90.7324 87.0065ZM59.1082 127.664L62.5541 125.673L63.0638 128.496L59.6158 130.487L59.1082 127.664ZM59.5271 130.539L56.0812 132.532L55.5694 129.707L59.0154 127.714L59.5271 130.539ZM62.6429 125.622L66.0929 123.633L66.6005 126.453L63.1525 128.447L62.6429 125.622ZM66.1817 123.579L69.6317 121.59L70.1414 124.411L66.6934 126.404L66.1817 123.579ZM69.7205 121.534L73.1664 119.545L73.6781 122.368L70.2301 124.361L69.7205 121.534ZM69.706 121.464L69.1943 118.637L72.6423 116.646L73.152 119.473L69.706 121.464ZM69.6173 121.517L66.1672 123.507L65.6575 120.68L69.1056 118.693L69.6173 121.517ZM66.0785 123.558L62.6284 125.547L62.1188 122.723L65.5668 120.733L66.0785 123.558ZM62.5418 125.601L59.0938 127.59L58.5841 124.766L62.0321 122.776L62.5418 125.601ZM59.005 127.64L55.557 129.631L55.0474 126.806L58.4954 124.817L59.005 127.64ZM55.4662 129.683L52.0182 131.678L51.5086 128.851L54.9566 126.862L55.4662 129.683ZM55.4786 129.757L55.9883 132.582L52.5423 134.575L52.0306 131.748L55.4786 129.757ZM56.0027 132.654L56.5124 135.479L53.0644 137.47L52.5547 134.647L56.0027 132.654ZM56.0914 132.604L59.5395 130.613L60.0491 133.438L56.6032 135.431L56.0914 132.604ZM59.6302 130.562L63.0782 128.568L63.5879 131.395L60.1378 133.387L59.6302 130.562ZM63.167 128.521L66.615 126.525L67.1267 129.352L63.6767 131.344L63.167 128.521ZM66.7037 126.476L70.1538 124.485L70.6634 127.31L67.2175 129.303L66.7037 126.476ZM70.2425 124.435L73.6926 122.444L74.2002 125.267L70.7542 127.262L70.2425 124.435ZM73.7792 122.391L77.2272 120.401L77.739 123.224L74.291 125.215L73.7792 122.391ZM73.7669 122.318L73.2572 119.493L76.7052 117.504L77.2169 120.325L73.7669 122.318ZM73.2448 119.419L72.7331 116.598L76.1831 114.605L76.6928 117.432L73.2448 119.419ZM72.7186 116.526L72.211 113.701L75.659 111.708L76.1708 114.531L72.7186 116.526ZM72.632 116.576L69.184 118.567L68.6722 115.742L72.1202 113.749L72.632 116.576ZM69.0932 118.616L65.6472 120.608L65.1355 117.785L68.5856 115.792L69.0932 118.616ZM65.5564 120.661L62.1084 122.65L61.5988 119.828L65.0468 117.836L65.5564 120.661ZM62.0197 122.702L58.5696 124.691L58.062 121.87L61.51 119.877L62.0197 122.702ZM58.4809 124.747L55.0329 126.734L54.5212 123.913L57.9692 121.92L58.4809 124.747ZM54.9442 126.788L51.4982 128.777L50.9865 125.956L54.4345 123.961L54.9442 126.788ZM51.4054 128.83L47.9574 130.822L47.4498 127.999L50.8978 126.008L51.4054 128.83ZM51.4198 128.905L51.9316 131.725L48.4836 133.719L47.9718 130.892L51.4198 128.905ZM51.944 131.798L52.4516 134.623L49.0035 136.618L48.4918 133.791L51.944 131.798ZM52.466 134.697L52.9757 137.522L49.5277 139.511L49.0159 136.69L52.466 134.697ZM52.9901 137.596L53.4998 140.423L50.0518 142.41L49.5421 139.587L52.9901 137.596ZM53.0768 137.542L56.5248 135.553L57.0365 138.378L53.5885 140.367L53.0768 137.542ZM56.6156 135.504L60.0636 133.512L60.5732 136.335L57.1252 138.326L56.6156 135.504ZM60.1502 133.461L63.6003 131.467L64.11 134.294L60.662 136.283L60.1502 133.461ZM63.689 131.418L67.1391 129.425L67.6488 132.25L64.2008 134.239L63.689 131.418ZM67.2278 129.375L70.6758 127.382L71.1855 130.207L67.7375 132.196L67.2278 129.375ZM70.7646 127.332L74.2125 125.341L74.7222 128.166L71.2742 130.155L70.7646 127.332ZM74.3013 125.292L77.7493 123.296L78.2589 126.123L74.811 128.119L74.3013 125.292ZM77.8401 123.247L81.2901 121.253L81.7978 124.08L78.3497 126.072L77.8401 123.247ZM77.8256 123.175L77.318 120.35L80.766 118.361L81.2778 121.181L77.8256 123.175ZM77.3036 120.275L76.7939 117.451L80.244 115.461L80.7537 118.286L77.3036 120.275ZM76.7795 117.378L76.2698 114.556L79.7178 112.564L80.2275 115.389L76.7795 117.378ZM76.2574 114.481L75.7457 111.656L79.1958 109.663L79.7034 112.488L76.2574 114.481ZM75.7354 111.584L75.2236 108.757L78.6717 106.77L79.1834 109.591L75.7354 111.584ZM75.6466 111.634L72.1986 113.627L71.689 110.8L75.139 108.809L75.6466 111.634ZM72.1079 113.677L68.6598 115.67L68.1502 112.845L71.5982 110.852L72.1079 113.677ZM68.5711 115.719L65.1252 117.71L64.6135 114.886L68.0615 112.892L68.5711 115.719ZM65.0344 117.76L61.5864 119.755L61.0767 116.928L64.5268 114.937L65.0344 117.76ZM61.4956 119.805L58.0476 121.798L57.5379 118.971L60.9859 116.98L61.4956 119.805ZM57.9589 121.848L54.5109 123.839L54.0012 121.016L57.4471 119.021L57.9589 121.848ZM54.4221 123.89L50.9741 125.878L50.4645 123.057L53.9104 121.064L54.4221 123.89ZM50.8833 125.931L47.4353 127.92L46.9236 125.098L50.3737 123.104L50.8833 125.931ZM47.3445 127.972L43.8965 129.963L43.3869 127.141L46.8349 125.149L47.3445 127.972ZM47.359 128.048L47.8687 130.873L44.4207 132.862L43.9089 130.037L47.359 128.048ZM47.8831 130.946L48.3928 133.768L44.9448 135.762L44.4351 132.937L47.8831 130.946ZM48.4052 133.84L48.9169 136.667L45.4668 138.658L44.9592 135.834L48.4052 133.84ZM48.9272 136.74L49.4389 139.567L45.9909 141.554L45.4792 138.735L48.9272 136.74ZM49.4513 139.639L49.961 142.466L46.513 144.453L46.0012 141.628L49.4513 139.639ZM49.9734 142.536L50.4851 145.359L47.035 147.352L46.5254 144.525L49.9734 142.536ZM50.0642 142.484L53.5122 140.495L54.0239 143.318L50.5738 145.309L50.0642 142.484ZM53.5988 140.441L57.0489 138.45L57.5565 141.273L54.1085 143.264L53.5988 140.441ZM57.1376 138.396L60.5836 136.409L61.0953 139.23L57.6473 141.223L57.1376 138.396ZM60.6764 136.356L64.1223 134.367L64.6341 137.191L61.184 139.183L60.6764 136.356ZM64.2131 134.313L67.6612 132.324L68.1708 135.151L64.7228 137.138L64.2131 134.313ZM67.7499 132.27L71.1999 130.281L71.7076 133.104L68.2595 135.095L67.7499 132.27ZM71.2887 130.229L74.7346 128.238L75.2463 131.063L71.7983 133.052L71.2887 130.229ZM74.8254 128.185L78.2713 126.197L78.7831 129.022L75.333 131.012L74.8254 128.185ZM78.3621 126.148L81.8122 124.153L82.3239 126.98L78.8739 128.971L78.3621 126.148ZM81.8989 124.103L85.3469 122.11L85.8586 124.937L82.4106 126.924L81.8989 124.103ZM81.8865 124.031L81.3768 121.206L84.8248 119.213L85.3365 122.038L81.8865 124.031ZM81.3644 121.132L80.8548 118.307L84.3027 116.318L84.8104 119.138L81.3644 121.132ZM80.8424 118.235L80.3307 115.408L83.7786 113.421L84.2904 116.246L80.8424 118.235ZM80.3183 115.333L79.8086 112.513L83.2566 110.519L83.7683 113.344L80.3183 115.333ZM79.7962 112.441L79.2865 109.614L82.7345 107.622L83.2442 110.447L79.7962 112.441ZM79.2721 109.543L78.7624 106.716L82.2104 104.725L82.7201 107.548L79.2721 109.543ZM78.7501 106.642L78.2383 103.817L81.6863 101.828L82.196 104.655L78.7501 106.642ZM78.6613 106.692L75.2113 108.687L74.7016 105.86L78.1496 103.869L78.6613 106.692ZM75.1225 108.735L71.6745 110.728L71.1628 107.901L74.6108 105.914L75.1225 108.735ZM71.5858 110.777L68.1378 112.769L67.6261 109.944L71.0741 107.955L71.5858 110.777ZM68.047 112.82L64.599 114.814L64.0893 111.989L67.5373 110L68.047 112.82ZM64.5103 114.863L61.0623 116.856L60.5526 114.029L64.0006 112.04L64.5103 114.863ZM60.9735 116.904L57.5256 118.899L57.0138 116.072L60.4618 114.085L60.9735 116.904ZM57.4368 118.946L53.9888 120.94L53.4792 118.115L56.9271 116.126L57.4368 118.946ZM53.898 120.991L50.45 122.983L49.9403 120.16L53.3884 118.164L53.898 120.991ZM50.3613 123.034L46.9133 125.025L46.4036 122.201L49.8516 120.207L50.3613 123.034ZM46.8225 125.075L43.3745 127.068L42.8648 124.241L46.3128 122.25L46.8225 125.075ZM43.2858 127.116L39.8378 129.111L39.326 126.284L42.7761 124.293L43.2858 127.116ZM43.2981 127.192L43.8099 130.017L40.3598 132.006L39.8522 129.183L43.2981 127.192ZM43.8202 130.089L44.3319 132.914L40.8839 134.903L40.3722 132.08L43.8202 130.089ZM44.3443 132.988L44.854 135.811L41.406 137.802L40.8963 134.977L44.3443 132.988ZM44.8663 135.881L45.376 138.708L41.9301 140.699L41.4184 137.877L44.8663 135.881ZM45.3905 138.782L45.9001 141.609L42.4521 143.598L41.9425 140.776L45.3905 138.782ZM45.9125 141.679L46.4243 144.506L42.9762 146.496L42.4666 143.669L45.9125 141.679ZM46.4366 144.581L46.9442 147.399L43.4983 149.395L42.9866 146.568L46.4366 144.581ZM46.9587 147.476L47.4663 150.301L44.0204 152.294L43.5107 149.467L46.9587 147.476ZM47.0474 147.424L50.4954 145.433L51.0051 148.256L47.5571 150.251L47.0474 147.424ZM50.5862 145.381L54.0342 143.388L54.5459 146.215L51.0979 148.206L50.5862 145.381ZM54.1229 143.34L57.571 141.347L58.0806 144.174L54.6306 146.165L54.1229 143.34ZM57.6597 141.298L61.1077 139.304L61.6174 142.129L58.1693 144.125L57.6597 141.298ZM61.1985 139.253L64.6444 137.266L65.1561 140.086L61.7081 142.08L61.1985 139.253ZM64.7352 137.212L68.1832 135.223L68.6949 138.044L65.2449 140.039L64.7352 137.212ZM68.274 135.169L71.722 133.18L72.2337 136.003L68.7836 137.994L68.274 135.169ZM71.8107 133.129L75.2587 131.139L75.7684 133.96L72.3224 135.953L71.8107 133.129ZM75.3474 131.084L78.7955 129.094L79.3072 131.915L75.8592 133.908L75.3474 131.084ZM78.8862 129.041L82.3342 127.052L82.846 129.879L79.3959 131.868L78.8862 129.041ZM82.423 127L85.871 125.009L86.3806 127.836L82.9327 129.825L82.423 127ZM85.9597 124.957L89.4098 122.968L89.9174 125.793L86.4714 127.782L85.9597 124.957ZM85.9494 124.883L85.4376 122.06L88.8836 120.069L89.3953 122.892L85.9494 124.883ZM85.4232 121.988L84.9135 119.161L88.3615 117.17L88.8712 119.995L85.4232 121.988ZM84.9032 119.091L84.3936 116.264L87.8395 114.277L88.3512 117.098L84.9032 119.091ZM84.3791 116.192L83.8694 113.367L87.3175 111.376L87.8271 114.203L84.3791 116.192ZM83.8571 113.293L83.3453 110.47L86.7933 108.477L87.303 111.304L83.8571 113.293ZM83.3309 110.398L82.8233 107.573L86.2692 105.577L86.7809 108.404L83.3309 110.398ZM82.8088 107.499L82.3012 104.674L85.7472 102.685L86.2568 105.507L82.8088 107.499ZM82.2868 104.599L81.7751 101.775L85.2251 99.7854L85.7348 102.608L82.2868 104.599ZM81.7647 101.7L81.2551 98.8776L84.701 96.8862L85.2127 99.7111L81.7647 101.7ZM81.676 101.754L78.2259 103.743L77.7183 100.922L81.1643 98.9292L81.676 101.754ZM78.1372 103.799L74.6913 105.788L74.1795 102.965L77.6296 100.972L78.1372 103.799ZM74.5984 105.84L71.1504 107.829L70.6408 105.008L74.0887 103.015L74.5984 105.84ZM71.0637 107.882L67.6158 109.872L67.1061 107.049L70.552 105.058L71.0637 107.882ZM67.525 109.925L64.079 111.912L63.5673 109.094L67.0153 107.098L67.525 109.925ZM63.9862 111.968L60.5402 113.957L60.0305 111.132L63.4786 109.143L63.9862 111.968ZM60.4494 114.011L57.0014 116L56.4938 113.173L59.9418 111.184L60.4494 114.011ZM56.9127 116.047L53.4626 118.043L52.955 115.216L56.401 113.229L56.9127 116.047ZM53.3739 118.092L49.928 120.083L49.4162 117.259L52.8622 115.269L53.3739 118.092ZM49.8372 120.135L46.3913 122.126L45.8795 119.303L49.3296 117.312L49.8372 120.135ZM46.3025 122.176L42.8524 124.171L42.3428 121.344L45.7908 119.355L46.3025 122.176ZM42.7637 124.219L39.3157 126.212L38.804 123.385L42.252 121.398L42.7637 124.219ZM39.2249 126.259L35.7769 128.255L35.2673 125.43L38.7153 123.437L39.2249 126.259ZM39.2373 126.336L39.749 129.163L36.301 131.154L35.7914 128.329L39.2373 126.336ZM39.7635 129.233L40.2711 132.06L36.8252 134.047L36.3134 131.228L39.7635 129.233ZM40.2855 132.132L40.7931 134.955L37.3472 136.946L36.8375 134.121L40.2855 132.132ZM40.8055 135.029L41.3172 137.852L37.8693 139.845L37.3596 137.02L40.8055 135.029ZM41.3296 137.928L41.8393 140.753L38.3934 142.746L37.8816 139.919L41.3296 137.928ZM41.8537 140.825L42.3614 143.65L38.9154 145.639L38.4057 142.816L41.8537 140.825ZM42.3758 143.724L42.8875 146.543L39.4395 148.538L38.9298 145.711L42.3758 143.724ZM42.8999 146.619L43.4096 149.444L39.9616 151.437L39.4519 148.613L42.8999 146.619ZM43.4219 149.516L43.9316 152.343L40.4815 154.337L39.9719 151.512L43.4219 149.516ZM43.9461 152.415L44.4537 155.242L41.0057 157.229L40.4939 154.409L43.9461 152.415ZM44.0327 152.366L47.4807 150.375L47.9925 153.197L44.5424 155.189L44.0327 152.366ZM47.5715 150.323L51.0175 148.332L51.5292 151.157L48.0812 153.146L47.5715 150.323ZM51.1083 148.28L54.5583 146.287L55.0659 149.112L51.6179 151.103L51.1083 148.28ZM54.645 146.24L58.0951 144.244L58.6047 147.071L55.1567 149.058L54.645 146.24ZM58.1838 144.197L61.6318 142.203L62.1435 145.028L58.6955 147.022L58.1838 144.197ZM61.7226 142.154L65.1706 140.161L65.6802 142.986L62.2322 144.981L61.7226 142.154ZM65.2593 140.109L68.7073 138.118L69.217 140.943L65.769 142.936L65.2593 140.109ZM68.796 138.068L72.244 136.075L72.7558 138.9L69.3078 140.893L68.796 138.068ZM72.3328 136.026L75.7808 134.032L76.2904 136.859L72.8424 138.85L72.3328 136.026ZM75.8736 133.983L79.3196 131.996L79.8292 134.814L76.3812 136.81L75.8736 133.983ZM79.4083 131.94L82.8563 129.949L83.366 132.772L79.9179 134.765L79.4083 131.94ZM82.945 129.897L86.393 127.908L86.9027 130.731L83.4547 132.722L82.945 129.897ZM86.4838 127.856L89.9318 125.867L90.4436 128.688L86.9935 130.681L86.4838 127.856ZM90.0206 125.814L93.4685 123.824L93.9782 126.645L90.5302 128.638L90.0206 125.814ZM90.0082 125.739L89.4985 122.912L92.9444 120.925L93.4562 123.75L90.0082 125.739ZM89.484 122.84L88.9764 120.02L92.4224 118.026L92.9341 120.851L89.484 122.84ZM88.962 119.947L88.4503 117.12L91.8983 115.129L92.4079 117.954L88.962 119.947ZM88.4379 117.048L87.9282 114.223L91.3741 112.232L91.8859 115.055L88.4379 117.048ZM87.9158 114.147L87.4082 111.326L90.8542 109.333L91.3639 112.16L87.9158 114.147ZM87.3938 111.25L86.882 108.429L90.3301 106.434L90.8418 109.261L87.3938 111.25ZM86.8697 108.355L86.36 105.53L89.808 103.537L90.3197 106.364L86.8697 108.355ZM86.3476 105.456L85.838 102.631L89.288 100.642L89.7977 103.462L86.3476 105.456ZM85.8235 102.557L85.3159 99.7317L88.7639 97.7426L89.2756 100.567L85.8235 102.557ZM85.3015 99.6597L84.7918 96.8368L88.2398 94.8457L88.7474 97.6683L85.3015 99.6597ZM84.7794 96.7625L84.2677 93.9376L87.7178 91.9445L88.2253 94.7691L84.7794 96.7625ZM84.6907 96.8142L81.2427 98.8073L80.7351 95.9804L84.181 93.9893L84.6907 96.8142ZM81.1519 98.8569L77.7039 100.848L77.1942 98.0232L80.6422 96.03L81.1519 98.8569ZM77.6152 100.898L74.1672 102.891L73.6554 100.066L77.1034 98.0708L77.6152 100.898ZM74.0764 102.943L70.6284 104.936L70.1166 102.109L73.5646 100.118L74.0764 102.943ZM70.5396 104.983L67.0916 106.972L66.584 104.152L70.03 102.158L70.5396 104.983ZM67.0029 107.026L63.5549 109.015L63.0452 106.195L66.4932 104.201L67.0029 107.026ZM63.4641 109.069L60.0161 111.056L59.5064 108.235L62.9565 106.242L63.4641 109.069ZM59.9274 111.112L56.4794 113.103L55.9676 110.28L59.4177 108.287L59.9274 111.112ZM56.3907 113.154L52.9406 115.144L52.4309 112.317L55.8769 110.33L56.3907 113.154ZM52.8519 115.195L49.4018 117.186L48.8942 114.362L52.3401 112.37L52.8519 115.195ZM49.3131 117.24L45.8671 119.227L45.3554 116.402L48.8034 114.413L49.3131 117.24ZM45.7763 119.283L42.3283 121.272L41.8166 118.445L45.2667 116.456L45.7763 119.283ZM42.2417 121.326L38.7916 123.315L38.2819 120.488L41.7279 118.501L42.2417 121.326ZM38.7029 123.366L35.2528 125.356L34.7452 122.529L38.1911 120.542L38.7029 123.366ZM35.1641 125.405L31.7181 127.398L31.2064 124.574L34.6565 122.584L35.1641 125.405ZM35.1785 125.479L35.6861 128.306L32.2402 130.297L31.7305 127.473L35.1785 125.479ZM35.7006 128.377L36.2123 131.203L32.7622 133.195L32.2526 130.372L35.7006 128.377ZM36.2247 131.275L36.7344 134.102L33.2863 136.092L32.7746 133.265L36.2247 131.275ZM36.7467 134.173L37.2543 136.996L33.8063 138.989L33.2967 136.164L36.7467 134.173ZM37.2688 137.076L37.7805 139.897L34.3325 141.89L33.8208 139.063L37.2688 137.076ZM37.7929 139.969L38.3026 142.794L34.8546 144.787L34.347 141.96L37.7929 139.969ZM38.315 142.868L38.8267 145.691L35.3766 147.682L34.8669 144.859L38.315 142.868ZM38.8391 145.767L39.3467 148.59L35.8987 150.581L35.3869 147.756L38.8391 145.767ZM39.3611 148.66L39.8728 151.487L36.4228 153.48L35.9152 150.655L39.3611 148.66ZM39.8832 151.559L40.3949 154.386L36.9448 156.373L36.4372 153.552L39.8832 151.559ZM40.4073 154.456L40.917 157.283L37.4689 159.272L36.9572 156.448L40.4073 154.456ZM40.9314 157.357L41.4411 160.18L37.991 162.173L37.4813 159.346L40.9314 157.357ZM41.0201 157.304L44.4681 155.313L44.9778 158.135L41.5298 160.127L41.0201 157.304ZM44.5548 155.261L48.0049 153.272L48.5145 156.095L45.0686 158.086L44.5548 155.261ZM48.0936 153.218L51.5436 151.231L52.0513 154.05L48.6053 156.045L48.0936 153.218ZM51.6324 151.175L55.0804 149.188L55.5921 152.013L52.142 154.002L51.6324 151.175ZM55.1691 149.133L58.6171 147.143L59.1288 149.97L55.6788 151.959L55.1691 149.133ZM58.7058 147.09L62.1538 145.101L62.6635 147.928L59.2176 149.915L58.7058 147.09ZM62.2446 145.051L65.6906 143.06L66.2023 145.885L62.7543 147.874L62.2446 145.051ZM65.7813 143.01L69.2294 141.017L69.7411 143.842L66.291 145.833L65.7813 143.01ZM69.3202 140.965L72.7681 138.972L73.2758 141.799L69.8277 143.788L69.3202 140.965ZM72.8569 138.925L76.3049 136.932L76.8166 139.756L73.3686 141.746L72.8569 138.925ZM76.3957 136.882L79.8416 134.889L80.3534 137.713L76.9074 139.707L76.3957 136.882ZM79.9324 134.839L83.3804 132.848L83.8901 135.673L80.44 137.666L79.9324 134.839ZM83.4671 132.796L86.9172 130.803L87.4268 133.628L83.9788 135.623L83.4671 132.796ZM87.0059 130.754L90.4539 128.76L90.9656 131.587L87.5197 133.578L87.0059 130.754ZM90.5447 128.713L93.9926 126.717L94.5023 129.544L91.0543 131.538L90.5447 128.713ZM94.0835 126.668L97.5294 124.677L98.039 127.501L94.5911 129.495L94.0835 126.668ZM94.069 126.596L93.5573 123.769L97.0073 121.782L97.517 124.6L94.069 126.596ZM93.5449 123.697L93.0352 120.876L96.4832 118.883L96.995 121.707L93.5449 123.697ZM93.0228 120.8L92.5152 117.977L95.9633 115.983L96.4729 118.81L93.0228 120.8ZM92.5008 117.902L91.9891 115.08L95.4371 113.084L95.9488 115.911L92.5008 117.902ZM91.9767 115.003L91.467 112.178L94.915 110.189L95.4247 113.012L91.9767 115.003ZM91.4547 112.104L90.9429 109.285L94.393 107.292L94.9026 110.117L91.4547 112.104ZM90.9285 109.211L90.4209 106.386L93.8688 104.393L94.3806 107.218L90.9285 109.211ZM90.4085 106.312L89.8968 103.485L93.3468 101.494L93.8544 104.317L90.4085 106.312ZM89.8864 103.413L89.3747 100.586L92.8248 98.599L93.3323 101.42L89.8864 103.413ZM89.3623 100.516L88.8526 97.689L92.3006 95.7018L92.8124 98.5267L89.3623 100.516ZM88.8382 97.6167L88.3285 94.7961L91.7786 92.8006L92.2883 95.6275L88.8382 97.6167ZM88.3161 94.7197L87.8065 91.8949L91.2545 89.9017L91.7662 92.7286L88.3161 94.7197ZM87.1936 89.0493L87.7054 91.8762L84.2553 93.8654L83.7456 91.0385L87.1936 89.0493ZM83.6569 91.0921L84.1687 93.913L80.7206 95.9061L80.211 93.0812L83.6569 91.0921ZM80.1202 93.1372L80.6278 95.9557L77.1819 97.9512L76.6701 95.1263L80.1202 93.1372ZM76.5814 95.1779L77.091 98.0005L73.6451 99.9917L73.1355 97.1671L76.5814 95.1779ZM73.0447 97.2207L73.5564 100.041L70.1063 102.035L69.5966 99.2098L73.0447 97.2207ZM69.5079 99.2612L70.0176 102.084L66.5696 104.078L66.0578 101.251L69.5079 99.2612ZM65.9691 101.302L66.4788 104.127L63.0308 106.12L62.5191 103.295L65.9691 101.302ZM62.4324 103.345L62.94 106.172L59.4941 108.163L58.9844 105.338L62.4324 103.345ZM58.8957 105.386L59.4053 108.212L55.9553 110.204L55.4456 107.379L58.8957 105.386ZM55.3569 107.431L55.8665 110.253L52.4185 112.249L51.9068 109.422L55.3569 107.431ZM51.8202 109.473L52.3298 112.298L48.8818 114.291L48.3721 111.465L51.8202 109.473ZM48.2813 111.514L48.791 114.339L45.343 116.334L44.8333 113.509L48.2813 111.514ZM44.7446 113.557L45.2564 116.384L41.8063 118.371L41.2987 115.55L44.7446 113.557ZM41.2079 115.598L41.7175 118.425L38.2696 120.414L37.7599 117.593L41.2079 115.598ZM37.6691 117.644L38.1788 120.467L34.7308 122.459L34.219 119.636L37.6691 117.644ZM34.1324 119.685L34.6441 122.51L31.1961 124.499L30.6864 121.676L34.1324 119.685ZM27.4943 123.515L30.5936 121.728L31.1053 124.553L28.006 126.342L27.4943 123.515ZM28.0163 126.416L31.1177 124.627L31.6273 127.45L28.5301 129.243L28.0163 126.416ZM28.5405 129.313L31.6397 127.52L32.1515 130.347L29.0522 132.136L28.5405 129.313ZM29.0646 132.21L32.1659 130.421L32.6756 133.246L29.5763 135.033L29.0646 132.21ZM29.5846 135.109L32.6859 133.321L33.1976 136.145L30.0963 137.934L29.5846 135.109ZM30.1107 138.007L33.2079 136.219L33.7197 139.038L30.6183 140.831L30.1107 138.007ZM30.6328 140.906L33.7321 139.113L34.2417 141.937L31.1424 143.728L30.6328 140.906ZM31.1548 143.799L34.2562 142.012L34.7658 144.834L31.6666 146.626L31.1548 143.799ZM31.6789 146.7L34.7782 144.911L35.2879 147.738L32.1866 149.527L31.6789 146.7ZM32.201 149.597L35.3003 147.808L35.8099 150.631L32.7107 152.424L32.201 149.597ZM32.7251 152.494L35.8223 150.703L36.334 153.53L33.2327 155.317L32.7251 152.494ZM33.2471 155.393L36.3464 153.602L36.8561 156.429L33.7568 158.218L33.2471 155.393ZM33.7692 158.292L36.8685 156.503L37.3802 159.328L34.2809 161.115L33.7692 158.292ZM34.2933 161.189L37.3905 159.4L37.9022 162.221L34.803 164.01L34.2933 161.189ZM35.325 166.909L34.8154 164.088L37.9147 162.297L38.4222 165.12L35.325 166.909ZM38.5151 165.071L38.0034 162.244L41.4534 160.253L41.9631 163.077L38.5151 165.071ZM42.0498 163.03L41.5422 160.203L44.9902 158.21L45.5019 161.037L42.0498 163.03ZM45.5886 160.985L45.0789 158.162L48.5269 156.171L49.0366 158.994L45.5886 160.985ZM49.1273 158.942L48.6177 156.117L52.0657 154.128L52.5754 156.949L49.1273 158.942ZM52.6661 156.901L52.1544 154.075L55.6024 152.087L56.1121 154.906L52.6661 156.901ZM56.2008 154.859L55.6911 152.032L59.1392 150.043L59.6509 152.865L56.2008 154.859ZM59.7396 152.816L59.23 149.991L62.6779 148.002L63.1856 150.829L59.7396 152.816ZM63.2764 150.771L62.7667 147.948L66.2147 145.957L66.7243 148.782L63.2764 150.771ZM66.8151 148.73L66.3034 145.903L69.7514 143.916L70.2611 146.741L66.8151 148.73ZM70.3498 146.69L69.8401 143.863L73.2881 141.871L73.7999 144.698L70.3498 146.69ZM73.8907 144.644L73.381 141.82L76.829 139.83L77.3386 142.657L73.8907 144.644ZM77.4274 142.602L76.9157 139.781L80.3657 137.788L80.8733 140.613L77.4274 142.602ZM80.9641 140.559L80.4545 137.736L83.9024 135.745L84.4121 138.57L80.9641 140.559ZM84.5009 138.518L83.9932 135.696L87.4413 133.704L87.953 136.529L84.5009 138.518ZM88.0396 136.475L87.53 133.655L90.978 131.659L91.4877 134.486L88.0396 136.475ZM91.5764 134.431L91.0646 131.61L94.5147 129.617L95.0223 132.443L91.5764 134.431ZM95.1152 132.39L94.6055 129.567L98.0535 127.576L98.5652 130.399L95.1152 132.39ZM101.731 128.575L98.6499 130.351L98.1402 127.524L101.219 125.75L101.731 128.575ZM101.209 125.673L98.1298 127.452L97.6181 124.625L100.697 122.848L101.209 125.673ZM100.684 122.776L97.6057 124.553L97.0961 121.728L100.175 119.949L100.684 122.776ZM100.162 119.877L97.0816 121.656L96.5719 118.833L99.6506 117.056L100.162 119.877ZM99.6403 116.982L96.5596 118.757L96.0478 115.934L99.1286 114.155L99.6403 116.982ZM99.1162 114.085L96.0375 115.86L95.5279 113.035L98.6065 111.258L99.1162 114.085ZM98.5941 111.184L95.5155 112.962L95.0038 110.138L98.0824 108.359L98.5941 111.184ZM98.07 108.285L94.9914 110.061L94.4796 107.239L97.5603 105.464L98.07 108.285ZM97.548 105.39L94.4693 107.168L93.9596 104.341L97.0383 102.565L97.548 105.39ZM97.0238 102.493L93.9472 104.269L93.4376 101.442L96.5163 99.6678L97.0238 102.493ZM96.5018 99.5935L93.4231 101.372L92.9135 98.5454L95.9942 96.7666L96.5018 99.5935ZM95.9798 96.6945L92.9011 98.4711L92.3894 95.6502L95.468 93.8716L95.9798 96.6945ZM95.4557 93.7994L92.3791 95.5762L91.8673 92.7513L94.946 90.9745L95.4557 93.7994ZM94.9315 90.9024L91.8529 92.679L91.3453 89.8541L94.4219 88.0755L94.9315 90.9024ZM91.3308 89.7798L90.8191 86.9549L93.8978 85.1784L94.4074 88.0053L91.3308 89.7798Z" fill="#6D637C"/>
<path opacity="0.4" d="M98.2247 84.9145C98.2329 84.9682 98.6085 87.048 98.6085 87.048C98.6188 87.1037 98.9944 89.1794 98.9944 89.1794C99.0026 89.2331 99.764 93.4489 99.764 93.4489C99.7743 93.5025 100.156 95.636 100.156 95.636L115.582 86.7344L113.261 73.877L97.8389 82.7848L98.2247 84.9145ZM98.2969 84.9309L100.837 83.4639L101.213 85.5457L98.6725 87.013L98.2969 84.9309ZM106.883 84.6853L109.421 83.2224L109.796 85.2981L107.258 86.7654L106.883 84.6853ZM107.19 86.8044L104.652 88.2696L104.277 86.1876L106.815 84.7226L107.19 86.8044ZM106.87 84.6359L106.497 82.5539L109.035 81.0889L109.409 83.1687L106.87 84.6359ZM106.807 84.6689L104.269 86.1359L103.893 84.0561L106.433 82.5909L106.807 84.6689ZM104.202 86.1752L101.664 87.6422L101.287 85.5604L103.827 84.0951L104.202 86.1752ZM104.213 86.2289L104.588 88.3087L102.048 89.7759L101.673 87.6958L104.213 86.2289ZM104.597 88.3646L104.972 90.4404L102.434 91.9053L102.057 89.8253L104.597 88.3646ZM104.663 88.3253L107.201 86.8581L107.576 88.9401L105.038 90.4074L104.663 88.3253ZM107.267 86.819L109.807 85.3538L110.182 87.4339L107.642 88.8988L107.267 86.819ZM109.873 85.3168L112.411 83.8518L112.786 85.9296L110.246 87.3966L109.873 85.3168ZM109.863 85.2652L109.487 83.1811L112.025 81.7161L112.401 83.7982L109.863 85.2652ZM109.477 83.1294L109.101 81.0496L111.639 79.5804L112.017 81.6645L109.477 83.1294ZM109.093 80.996L108.715 78.9159L111.255 77.4469L111.631 79.5287L109.093 80.996ZM109.027 81.033L106.487 82.4982L106.111 80.4181L108.651 78.9512L109.027 81.033ZM106.423 82.5395L103.883 84.0025L103.509 81.9224L106.047 80.4574L106.423 82.5395ZM103.819 84.0395L101.279 85.5087L100.905 83.4266L103.443 81.9637L103.819 84.0395ZM98.6807 87.0646L101.221 85.5974L101.598 87.6795L99.0584 89.1424L98.6807 87.0646ZM99.0666 89.1981L101.607 87.7351L101.982 89.8129L99.4442 91.2781L99.0666 89.1981ZM99.4524 91.3318L101.99 89.8646L102.368 91.9466L99.828 93.4136L99.4524 91.3318ZM100.214 95.5473L99.8383 93.4652L102.376 91.9983L102.752 94.0824L100.214 95.5473ZM102.82 94.0411L102.442 91.961L104.982 90.494L105.358 92.5738L102.82 94.0411ZM105.422 92.5368L105.046 90.4588L107.584 88.9938L107.962 91.0716L105.422 92.5368ZM108.028 91.0346L107.653 88.9545L110.191 87.4875L110.568 89.5673L108.028 91.0346ZM110.632 89.5323L110.257 87.4482L112.795 85.9833L113.17 88.0653L110.632 89.5323ZM115.504 86.7158L113.236 88.024L112.861 85.9483L115.128 84.638L115.504 86.7158ZM115.118 84.5863L112.85 85.8946L112.477 83.8125L114.743 82.5022L115.118 84.5863ZM114.734 82.4506L112.467 83.7589L112.091 81.6788L114.357 80.3688L114.734 82.4506ZM114.348 80.3171L112.081 81.6274L111.705 79.5433L113.971 78.2351L114.348 80.3171ZM113.963 78.1814L111.697 79.4917L111.319 77.4139L113.587 76.1036L113.963 78.1814ZM113.203 73.9719L113.579 76.052L111.311 77.3623L110.933 75.2802L113.203 73.9719ZM110.869 75.3152L111.247 77.3993L108.707 78.8602L108.331 76.7845L110.869 75.3152ZM108.265 76.8175L108.641 78.8975L106.103 80.3665L105.729 78.2824L108.265 76.8175ZM105.661 78.3217L106.037 80.4058L103.497 81.8708L103.123 79.7909L105.661 78.3217ZM103.057 79.828L103.431 81.908L100.895 83.373L100.517 81.2932L103.057 79.828ZM100.825 83.4103L98.2887 84.8772L97.9131 82.7974L100.451 81.3322L100.825 83.4103Z" fill="#6D637C"/>
<path opacity="0.4" d="M116.032 89.2439L100.608 98.1495L100.996 100.283C101.004 100.335 101.382 102.415 101.382 102.415C101.39 102.468 101.766 104.548 101.766 104.548C101.776 104.6 102.537 108.813 102.537 108.813C102.548 108.869 102.929 111.005 102.929 111.005L118.356 102.097L116.032 89.2439ZM117.893 99.951L115.626 101.257L115.248 99.1792L117.516 97.8709L117.893 99.951ZM109.58 100.036L107.042 101.503L106.666 99.4228L109.204 97.9556L109.58 100.036ZM109.27 97.9206L111.808 96.4556L112.186 98.5354L109.646 99.9984L109.27 97.9206ZM109.59 100.091L109.964 102.173L107.426 103.638L107.05 101.558L109.59 100.091ZM109.654 100.052L112.194 98.5891L112.57 100.667L110.032 102.134L109.654 100.052ZM112.26 98.552L114.8 97.0868L115.176 99.1669L112.636 100.628L112.26 98.552ZM112.25 98.4961L111.872 96.4163L114.412 94.9491L114.786 97.0291L112.25 98.4961ZM111.864 96.3606L111.491 94.2806L114.031 92.8156L114.404 94.8954L111.864 96.3606ZM111.8 96.4019L109.262 97.8689L108.886 95.7868L111.424 94.3199L111.8 96.4019ZM109.196 97.9062L106.658 99.3669L106.28 97.2911L108.82 95.8261L109.196 97.9062ZM106.592 99.4082L104.052 100.875L103.674 98.7913L106.214 97.3264L106.592 99.4082ZM106.6 99.4598L106.976 101.544L104.438 103.009L104.06 100.927L106.6 99.4598ZM106.984 101.596L107.362 103.675L104.821 105.145L104.444 103.063L106.984 101.596ZM107.37 103.729L107.745 105.809L105.205 107.274L104.832 105.192L107.37 103.729ZM107.436 103.692L109.974 102.225L110.349 104.307L107.811 105.774L107.436 103.692ZM110.04 102.186L112.578 100.718L112.956 102.801L110.415 104.268L110.04 102.186ZM112.646 100.683L115.184 99.2185L115.562 101.296L113.022 102.763L112.646 100.683ZM117.505 97.8173L115.238 99.1276L114.864 97.0455L117.132 95.7375L117.505 97.8173ZM117.122 95.6818L114.854 96.9941L114.478 94.91L116.746 93.6017L117.122 95.6818ZM116.736 93.5481L114.468 94.8584L114.095 92.7806L116.36 91.4723L116.736 93.5481ZM115.976 89.3366L116.352 91.4167L114.084 92.729L113.707 90.6449L115.976 89.3366ZM113.643 90.6842L114.02 92.76L111.48 94.2269L111.105 92.1511L113.643 90.6842ZM111.041 92.1862L111.414 94.2682L108.876 95.7332L108.501 93.6514L111.041 92.1862ZM108.435 93.6904L108.812 95.7705L106.272 97.2374L105.897 95.1576L108.435 93.6904ZM105.83 95.1967L106.206 97.2747L103.666 98.7397L103.29 96.6619L105.83 95.1967ZM100.686 98.1641L103.224 96.6969L103.6 98.777L101.062 100.244L100.686 98.1641ZM101.07 100.298L103.608 98.8306L103.986 100.912L101.446 102.378L101.07 100.298ZM101.456 102.435L103.994 100.968L104.37 103.048L101.832 104.511L101.456 102.435ZM101.842 104.569L104.38 103.1L104.755 105.18L102.215 106.645L101.842 104.569ZM102.226 106.698L104.766 105.233L105.141 107.313L102.603 108.78L102.226 106.698ZM102.985 110.914L102.612 108.834L105.15 107.365L105.527 109.447L102.985 110.914ZM105.591 109.41L105.218 107.326L107.756 105.861L108.131 107.941L105.591 109.41ZM108.195 107.903L107.82 105.823L110.358 104.358L110.735 106.436L108.195 107.903ZM110.801 106.403L110.424 104.319L112.964 102.854L113.339 104.934L110.801 106.403ZM113.407 104.897L113.03 102.817L115.57 101.35L115.945 103.432L113.407 104.897ZM115.636 101.317L117.904 100.009L118.277 102.084L116.012 103.395L115.636 101.317Z" fill="#6D637C"/>
<path opacity="0.4" d="M118.805 104.614L103.381 113.516L103.769 115.65C103.779 115.703 104.155 117.781 104.155 117.781C104.165 117.833 104.541 119.914 104.541 119.914C104.549 119.966 105.31 124.184 105.31 124.184C105.319 124.235 105.702 126.373 105.702 126.373L121.127 117.467L118.805 104.614ZM120.664 115.321L118.399 116.628L118.023 114.552L120.291 113.241L120.664 115.321ZM112.353 115.406L109.813 116.875L109.437 114.791L111.977 113.326L112.353 115.406ZM112.041 113.291L114.581 111.822L114.959 113.906L112.419 115.367L112.041 113.291ZM112.363 115.46L112.737 117.539L110.197 119.009L109.823 116.927L112.363 115.46ZM112.427 115.42L114.965 113.957L115.343 116.035L112.803 117.502L112.427 115.42ZM115.033 113.92L117.571 112.453L117.949 114.535L115.409 115.998L115.033 113.92ZM115.025 113.869L114.647 111.785L117.188 110.32L117.563 112.399L115.025 113.869ZM114.639 111.731L114.262 109.649L116.802 108.182L117.179 110.264L114.639 111.731ZM114.573 111.77L112.033 113.237L111.658 111.155L114.196 109.69L114.573 111.77ZM111.967 113.27L109.429 114.737L109.053 112.659L111.592 111.192L111.967 113.27ZM109.363 114.777L106.825 116.244L106.449 114.162L108.987 112.697L109.363 114.777ZM109.373 114.828L109.749 116.91L107.209 118.377L106.835 116.297L109.373 114.828ZM109.759 116.966L110.133 119.048L107.597 120.509L107.219 118.433L109.759 116.966ZM110.143 119.1L110.518 121.177L107.981 122.644L107.605 120.565L110.143 119.1ZM110.209 119.06L112.747 117.595L113.123 119.675L110.582 121.138L110.209 119.06ZM112.813 117.558L115.351 116.089L115.729 118.171L113.189 119.638L112.813 117.558ZM115.417 116.05L117.957 114.589L118.333 116.665L115.795 118.134L115.417 116.05ZM120.281 113.186L118.013 114.496L117.635 112.416L119.903 111.104L120.281 113.186ZM119.895 111.052L117.631 112.36L117.254 110.28L119.521 108.97L119.895 111.052ZM119.511 108.918L117.245 110.227L116.868 108.145L119.135 106.839L119.511 108.918ZM118.75 104.705L119.123 106.787L116.855 108.095L116.482 106.015L118.75 104.705ZM116.418 106.053L116.793 108.13L114.255 109.597L113.878 107.515L116.418 106.053ZM113.812 107.555L114.187 109.637L111.649 111.102L111.274 109.022L113.812 107.555ZM111.208 109.059L111.583 111.139L109.045 112.608L108.668 110.524L111.208 109.059ZM108.602 110.563L108.979 112.643L106.439 114.108L106.064 112.032L108.602 110.563ZM103.46 113.53L105.997 112.065L106.373 114.145L103.833 115.614L103.46 113.53ZM103.843 115.668L106.383 114.201L106.757 116.281L104.219 117.75L103.843 115.668ZM104.229 117.802L106.767 116.336L107.145 118.417L104.605 119.879L104.229 117.802ZM104.613 119.933L107.153 118.47L107.531 120.546L104.991 122.015L104.613 119.933ZM104.999 122.067L107.539 120.602L107.914 122.682L105.376 124.149L104.999 122.067ZM105.76 126.282L105.385 124.202L107.923 122.735L108.3 124.815L105.76 126.282ZM108.364 124.778L107.989 122.698L110.527 121.229L110.902 123.313L108.364 124.778ZM110.97 123.274L110.593 121.192L113.133 119.729L113.508 121.805L110.97 123.274ZM113.574 121.768L113.199 119.692L115.737 118.225L116.112 120.307L113.574 121.768ZM116.179 120.267L115.805 118.186L118.343 116.718L118.719 118.798L116.179 120.267ZM118.407 116.681L120.675 115.371L121.05 117.451L118.783 118.763L118.407 116.681Z" fill="#6D637C"/>
</g>
<path d="M100.142 26.7677L101.146 27.0503L87.5856 50.6809L69.1756 61.3139L61.611 74.493L49.2551 81.6284L40.2441 97.3271L28.9138 103.868L29.0789 104.869L40.8652 98.0595L49.8763 82.3609L62.2342 75.2275L69.7967 62.0464L88.2087 51.4196L102.04 27.3062L102.944 27.5642L103.34 24.0317L100.142 26.7677Z" fill="#E03F3F"/>
<path d="M39.6686 164.4L37.2709 165.787L36.6333 162.26L39.0331 160.876L39.6686 164.4Z" fill="#6697AA"/>
<path d="M43.2075 162.361L40.8057 163.745L38.9197 153.281L41.3194 151.895L43.2075 162.361Z" fill="#6697AA"/>
<path d="M46.7441 160.317L44.3444 161.701L40.8757 142.478L43.2755 141.092L46.7441 160.317Z" fill="#6697AA"/>
<path d="M50.283 158.271L47.8832 159.658L43.094 133.13L45.4938 131.746L50.283 158.271Z" fill="#6697AA"/>
<path d="M53.8198 156.233L51.42 157.62L45.6052 125.391L48.0029 124.004L53.8198 156.233Z" fill="#6697AA"/>
<path d="M57.3563 154.188L54.9565 155.573L50.6233 131.558L53.021 130.172L57.3563 154.188Z" fill="#6697AA"/>
<path d="M60.8951 152.147L58.4953 153.534L56.3225 141.496L58.7223 140.109L60.8951 152.147Z" fill="#6697AA"/>
<path d="M64.432 150.104L62.0322 151.489L60.9551 145.528L63.3548 144.141L64.432 150.104Z" fill="#6697AA"/>
<path d="M67.9687 148.06L65.571 149.447L62.6533 133.288L65.051 131.902L67.9687 148.06Z" fill="#6697AA"/>
<path d="M71.5055 146.02L69.1078 147.403L65.6392 128.184L68.0369 126.797L71.5055 146.02Z" fill="#6697AA"/>
<path d="M75.0443 143.98L72.6445 145.362L68.8684 124.443L71.2682 123.057L75.0443 143.98Z" fill="#6697AA"/>
<path d="M78.581 141.937L76.1833 143.321L73.4307 128.077L75.8305 126.69L78.581 141.937Z" fill="#6697AA"/>
<path d="M82.1198 139.895L79.7221 141.275L75.3765 117.207L77.7742 115.821L82.1198 139.895Z" fill="#6697AA"/>
<path d="M85.6563 137.853L83.2566 139.235L75.5847 96.7119L77.9845 95.3315L85.6563 137.853Z" fill="#6697AA"/>
<path d="M89.1953 135.811L86.7956 137.191L80.4175 101.851L82.8152 100.464L89.1953 135.811Z" fill="#6697AA"/>
<path d="M92.7319 133.767L90.3322 135.154L86.8408 115.811L89.2406 114.424L92.7319 133.767Z" fill="#6697AA"/>
<path d="M96.2686 131.724L93.8709 133.111L89.5356 109.093L91.9334 107.706L96.2686 131.724Z" fill="#6697AA"/>
<path d="M99.8075 129.68L97.4077 131.065L92.21 102.264L94.6097 100.879L99.8075 129.68Z" fill="#6697AA"/>
<path d="M103.67 93.5475L101.902 94.5688L101.33 91.3933L103.095 90.376L103.67 93.5475Z" fill="#6697AA"/>
<path d="M106.274 92.0418L104.506 93.0632L103.549 87.758L105.315 86.7366L106.274 92.0418Z" fill="#6697AA"/>
<path d="M108.879 90.5422L107.112 91.5616L105.383 81.9872L107.149 80.9658L108.879 90.5422Z" fill="#6697AA"/>
<path d="M111.483 89.0371L109.716 90.0565L108.759 84.7473L110.525 83.7322L111.483 89.0371Z" fill="#6697AA"/>
<path d="M114.089 87.533L112.322 88.5564L111.747 85.3789L113.515 84.3635L114.089 87.533Z" fill="#6697AA"/>
<path d="M106.442 108.92L104.675 109.94L102.471 97.724L104.238 96.7026L106.442 108.92Z" fill="#6697AA"/>
<path d="M109.046 107.415L107.279 108.436L106.029 101.505L107.795 100.483L109.046 107.415Z" fill="#6697AA"/>
<path d="M111.652 105.913L109.885 106.929L109.114 102.666L110.882 101.644L111.652 105.913Z" fill="#6697AA"/>
<path d="M114.258 104.408L112.489 105.43L111.099 97.7166L112.865 96.6992L114.258 104.408Z" fill="#6697AA"/>
<path d="M116.86 102.903L115.094 103.924L113.065 92.6908L114.831 91.6694L116.86 102.903Z" fill="#6697AA"/>
<path d="M109.217 124.285L107.448 125.306L106.918 122.376L108.684 121.353L109.217 124.285Z" fill="#6697AA"/>
<path d="M111.819 122.782L110.052 123.804L109.792 122.355L111.561 121.338L111.819 122.782Z" fill="#6697AA"/>
<path d="M114.423 121.281L112.658 122.296L111.887 118.031L113.653 117.012L114.423 121.281Z" fill="#6697AA"/>
<path d="M117.029 119.777L115.263 120.799L114.25 115.18L116.016 114.159L117.029 119.777Z" fill="#6697AA"/>
<path d="M119.635 118.27L117.866 119.29L116.523 111.851L118.292 110.83L119.635 118.27Z" fill="#6697AA"/>
<path d="M218.404 199.409C216.95 198.138 214.205 195.963 211.409 194.483C209.716 194.669 207.974 194.699 206.172 194.609C202.491 194.423 198.181 193.958 195.006 191.846C194.939 192.545 194.937 193.286 194.988 194.017C195.086 195.475 195.204 196.073 196.894 197.108C205.406 202.313 206.572 203.006 208.113 203.773C209.86 204.639 211.992 205.73 216.579 204.425C218.903 203.391 219.048 202.431 218.942 201.584C218.886 201.135 218.992 199.917 218.404 199.409Z" fill="#AF947B"/>
<path d="M217.948 198.612C215.857 196.918 210.737 193.49 208.199 191.232C207.503 190.614 205.846 188.912 205.459 188.017C204.474 185.74 199.261 185.755 196.351 187.268C194.984 187.98 194.736 190.327 194.884 192.5C194.982 193.963 195.098 194.559 196.79 195.591C205.3 200.796 207.171 201.738 208.752 202.423C210.273 203.082 211.869 203.701 215.198 202.976C216.328 202.731 217.411 202.187 218.191 201.332C218.882 200.58 219.225 199.644 217.948 198.612Z" fill="#443B41"/>
<path opacity="0.5" d="M204.73 198.719C200.897 196.306 200.203 196.025 200.154 190.361C199.344 190.542 197.004 186.932 196.352 187.271C194.986 187.982 194.738 190.33 194.885 192.503C194.984 193.966 195.099 194.562 196.792 195.593C205.302 200.799 207.173 201.741 208.754 202.426C210.275 203.085 211.87 203.703 215.199 202.979C216.329 202.733 217.413 202.19 218.193 201.335C218.327 201.188 218.443 201.032 218.541 200.87C214.164 204.381 210.24 202.195 204.73 198.719Z" fill="#2F292D"/>
<path d="M202.824 193.173C202.716 193.173 202.61 193.11 202.563 193C202.504 192.86 202.569 192.693 202.71 192.631C206.082 191.175 206.358 190.313 206.36 190.306C206.376 190.151 206.503 190.047 206.669 190.067C206.823 190.082 206.933 190.233 206.916 190.39C206.898 190.57 206.611 191.561 202.934 193.147C202.9 193.165 202.859 193.173 202.824 193.173Z" fill="#51474E"/>
<path d="M204.055 193.956C203.947 193.956 203.844 193.898 203.798 193.79C203.734 193.647 203.798 193.481 203.939 193.42C206.968 192.061 207.223 191.262 207.227 191.252C207.246 191.098 207.374 190.998 207.536 191.014C207.691 191.029 207.802 191.182 207.784 191.336C207.765 191.506 207.505 192.44 204.17 193.932C204.135 193.949 204.096 193.956 204.055 193.956Z" fill="#51474E"/>
<path d="M205.211 194.732C205.105 194.732 205.002 194.669 204.954 194.569C204.889 194.425 204.952 194.26 205.094 194.194C207.951 192.887 208.197 192.117 208.199 192.109C208.216 191.958 208.339 191.865 208.508 191.869C208.664 191.888 208.774 192.04 208.756 192.193C208.737 192.36 208.488 193.26 205.328 194.704C205.289 194.725 205.25 194.732 205.211 194.732Z" fill="#51474E"/>
<path d="M206.399 195.538C206.293 195.538 206.192 195.479 206.144 195.378C206.077 195.235 206.138 195.069 206.278 195.006C208.996 193.734 209.232 192.991 209.232 192.987C209.249 192.831 209.379 192.738 209.541 192.749C209.698 192.762 209.806 192.915 209.789 193.067C209.772 193.231 209.534 194.108 206.518 195.512C206.479 195.531 206.44 195.538 206.399 195.538Z" fill="#51474E"/>
<path d="M207.605 196.306C207.499 196.306 207.4 196.246 207.35 196.145C207.283 196.002 207.343 195.832 207.484 195.769C210.029 194.557 210.254 193.846 210.256 193.838C210.271 193.686 210.402 193.589 210.564 193.598C210.718 193.619 210.83 193.77 210.813 193.922C210.796 194.079 210.569 194.924 207.724 196.278C207.687 196.298 207.646 196.306 207.605 196.306Z" fill="#51474E"/>
<path d="M208.849 197.135C208.743 197.135 208.644 197.077 208.596 196.975C208.525 196.837 208.585 196.667 208.726 196.6C211.135 195.429 211.349 194.748 211.351 194.74C211.368 194.588 211.498 194.498 211.66 194.5C211.815 194.521 211.925 194.668 211.908 194.824C211.893 194.977 211.673 195.796 208.972 197.105C208.933 197.127 208.892 197.135 208.849 197.135Z" fill="#51474E"/>
<path d="M159.997 206.662C162.914 208.944 169.786 209.605 171.417 205.681C172.177 203.854 169.12 191.941 168.805 188.489C168.716 187.502 168.561 185.765 168.561 185.765C168.284 185.437 167.251 185.244 166.854 185.08C165.162 184.383 162.203 185.258 160.371 185.266C159.44 185.268 159.007 191.527 158.966 192.147C158.718 195.945 157.724 204.888 159.997 206.662Z" fill="#AF947B"/>
<path d="M159.831 204.616C162.749 206.895 169.622 207.56 171.253 203.631C172.011 201.803 169.22 189.906 168.906 186.452C168.816 185.466 168.662 183.727 168.662 183.727C168.384 183.399 167.085 183.193 166.688 183.031C164.996 182.334 162.037 183.209 160.207 183.217C159.276 183.22 158.843 189.476 158.802 190.1C158.552 193.902 157.558 202.838 159.831 204.616Z" fill="#443B41"/>
<path opacity="0.5" d="M161.686 203.795C159.671 201.544 159.509 197.969 159.77 195.27C160.139 191.453 160.474 186.884 161.352 183.129C160.943 183.177 160.552 183.212 160.207 183.216C159.277 183.22 158.843 189.476 158.802 190.099C158.554 193.901 157.56 202.838 159.833 204.616C162.542 206.729 168.599 207.403 170.769 204.361C167.761 206.046 164.104 206.498 161.686 203.795Z" fill="#2F292D"/>
<path d="M165.007 190.631C164.032 190.631 162.881 190.571 161.868 190.37C161.716 190.338 161.617 190.191 161.648 190.035C161.678 189.888 161.829 189.799 161.982 189.819C164.162 190.258 167.135 189.981 167.167 189.975C167.314 189.992 167.459 190.076 167.474 190.23C167.487 190.383 167.375 190.521 167.219 190.54C167.146 190.543 166.212 190.631 165.007 190.631Z" fill="#51474E"/>
<path d="M164.48 189.202C163.652 189.202 162.73 189.143 161.881 188.953C161.728 188.919 161.635 188.767 161.667 188.614C161.702 188.467 161.853 188.361 162.004 188.404C164.164 188.886 166.958 188.471 166.986 188.467C167.15 188.431 167.284 188.551 167.306 188.703C167.329 188.854 167.225 188.999 167.072 189.024C166.996 189.037 165.869 189.202 164.48 189.202Z" fill="#51474E"/>
<path d="M165.18 193.462C164.343 193.462 163.332 193.404 162.088 193.197C161.935 193.173 161.833 193.028 161.857 192.875C161.881 192.721 162.015 192.618 162.181 192.641C164.33 193.004 165.771 192.903 166.817 192.834L167.262 192.806C167.426 192.806 167.55 192.924 167.558 193.074C167.565 193.231 167.446 193.361 167.292 193.372L166.854 193.397C166.383 193.428 165.836 193.462 165.18 193.462Z" fill="#51474E"/>
<path d="M164.78 191.984C163.937 191.984 162.965 191.921 162.008 191.701C161.857 191.671 161.762 191.519 161.797 191.368C161.831 191.211 161.974 191.122 162.134 191.155C164.531 191.692 167.122 191.245 167.15 191.245C167.297 191.191 167.45 191.318 167.478 191.47C167.504 191.621 167.401 191.768 167.249 191.796C167.18 191.807 166.15 191.984 164.78 191.984Z" fill="#51474E"/>
<path d="M165.251 196.557C164.553 196.557 163.661 196.509 162.516 196.353C162.362 196.33 162.254 196.191 162.276 196.034C162.297 195.887 162.423 195.76 162.593 195.794C165.302 196.161 166.54 195.937 167.134 195.829C167.405 195.761 167.543 195.887 167.571 196.038C167.597 196.191 167.495 196.336 167.342 196.364C166.867 196.448 166.264 196.557 165.251 196.557Z" fill="#51474E"/>
<path d="M165.069 195.016C164.318 195.016 163.389 194.953 162.317 194.755C162.164 194.727 162.064 194.58 162.09 194.429C162.118 194.273 162.25 194.169 162.417 194.204C165.164 194.703 166.975 194.284 166.992 194.281C167.146 194.24 167.295 194.338 167.331 194.487C167.368 194.636 167.277 194.787 167.126 194.828C167.074 194.841 166.327 195.016 165.069 195.016Z" fill="#51474E"/>
<path d="M204.055 161.169C203.69 158.769 202.323 151.86 202.223 149.432C202.156 147.784 200.409 135.286 200.043 131.117C199.553 125.573 198.294 117.387 196.637 110.448C195.779 106.847 192.532 104.415 188.901 104.6L167.303 105.694C162.162 105.953 158.481 111.369 157.636 116.446C156.338 124.266 156.227 130.458 156.327 138.304C156.348 139.894 156.912 151.681 156.828 155.079C156.78 157.047 156.499 158.998 156.368 160.964C155.856 168.737 157.556 175.561 158.547 185.395C158.844 188.34 169.328 189.016 169.328 185.274C169.444 180.614 171.46 170.025 171.46 163.005C171.46 162.56 171.486 161.547 171.458 160.38C171.367 156.833 171.933 153.236 172.998 149.849C174.966 143.593 177.446 132.328 178.619 127.154C179.453 129.663 185.77 148.749 188.382 156.635C189.119 158.866 189.531 161.176 189.635 163.526C189.771 166.596 190.043 170.118 190.832 172.364C192.878 178.193 193.707 182.948 194.813 188.558C195.472 191.913 206.903 192.345 206.319 187.824C206.092 186.117 205.012 167.452 204.055 161.169Z" fill="#2E2B33"/>
<path d="M214.609 78.3643C212.425 77.8206 194.941 71.63 194.941 71.63C194.941 71.63 192.415 55.3523 190.138 49.0315C186.399 52.1835 184.992 60.0553 181.78 63.4214C181.78 63.4214 183.977 76.8021 187.054 80.6672C188.054 81.9258 211.725 87.1481 212.532 87.312C216.03 88.0157 217.929 79.1928 214.609 78.3643Z" fill="#443C42"/>
<path d="M215.172 79.151L214.542 79.136C211.813 79.123 210.316 86.7789 213.421 86.9148L214.081 86.9278C216.812 86.9371 218.279 79.2813 215.172 79.151Z" fill="#F2F2F2"/>
<path d="M151.805 63.7571C151.587 67.7507 153.41 73.5204 155.173 77.1081C157.493 81.8353 159.933 86.5942 161.004 91.7458C161.825 95.6965 158.07 110.079 156.72 114.547C155.638 118.128 167.211 123.789 183.031 120.71C184.556 120.014 187.038 111.786 186.446 110.217C187.028 112.805 189.525 118.96 189.525 118.96C195.853 117.293 198.119 113.328 197.186 110.546C194.44 102.388 192.61 94.9314 192.634 90.7163C192.662 85.7229 192.603 75.4885 191.07 53.0258C190.821 49.3673 188.622 44.022 184.545 44.4074C177.146 45.1149 151.805 59.0188 151.805 63.7571Z" fill="url(#paint5_linear_1_10825)"/>
<path d="M185.362 90.0455C186.706 81.241 187.656 60.3906 187.784 58.6982C187.85 57.8604 186.362 56.5944 186.362 56.5944L187.786 53.701C187.414 51.8932 186.444 50.4914 185.137 49.406C182.419 47.1458 178.578 46.6336 175.275 47.8921C171.211 49.4393 166.914 52.5504 163.631 54.6021C159.182 57.3855 158.517 61.4872 163.618 66.03C164.186 66.5364 167.427 66.6145 167.427 66.6145C167.427 66.6145 167.336 68.8227 168.133 69.7052C173.229 75.3707 179.576 84.2702 185.362 90.0455Z" fill="#544C52"/>
<path d="M184.293 57.3397C183.64 50.7247 181.478 45.9827 175.349 49.2036C166.046 54.0965 161.808 55.5616 163.717 59.0134C167.248 64.3512 174.381 74.1517 180.424 82.5391C181.912 84.6039 185.176 83.5372 185.153 80.9921C185.088 73.4965 184.841 62.8861 184.293 57.3397Z" fill="#F2F2F2"/>
<path d="M181.076 57.8283C180.916 59.0236 180.334 60.2151 179.46 61.1255L178.868 59.5374C179.546 58.7647 180.095 57.8805 180.471 56.9421C180.637 57.1302 181.084 57.778 181.076 57.8283ZM173.707 61.4905C174.61 62.1031 175.783 62.3357 176.951 62.1346L176.258 60.6005C175.309 60.7215 174.365 60.6509 173.497 60.3939C173.514 60.6546 173.668 61.4663 173.707 61.4905Z" fill="#E03F3F"/>
<path d="M178.567 47.9514C173.813 47.9123 168.643 46.3746 164.329 45.0266C166.197 48.052 166.223 52.2596 166.379 54.1363C166.586 56.607 168.36 60.8817 173.437 60.2933C174.776 60.137 175.225 59.3681 176.057 58.9045L177.822 61.4792L178.038 57.9234C179.825 57.3741 180.806 55.6873 180.324 54.3281C179.667 52.4868 178.876 49.8876 178.567 47.9514Z" fill="#F1A782"/>
<path d="M173.564 63.9089L176.053 58.9007C171.28 60.271 166.387 57.348 166.247 52.2578L165.661 53.7883C165.251 54.8551 165.227 56.0429 165.668 57.0948C166.895 60.0141 169.161 62.9836 173.564 63.9089Z" fill="white"/>
<path d="M179.537 52.4341C179.695 52.6389 179.928 56.0068 178.032 57.917L182.864 58.6729C182.864 58.6748 181.1 54.8191 179.537 52.4341Z" fill="white"/>
<path d="M127.804 86.7758C129.854 86.8037 142.649 86.0833 144.899 85.9567C144.935 85.7798 147.191 75.4132 147.979 72.1513C149.185 67.1579 152.563 60.1817 154.683 60.623C154.994 60.69 158.986 62.6746 159.813 64.2236C163.171 70.5091 157.72 84.6385 157.72 84.6385C155.352 89.3284 153.803 92.5475 152.395 94.4037C152.244 94.6159 152.082 94.815 151.902 95.0012C151.315 95.651 150.736 96.0477 150.118 96.2246C149.427 96.5262 148.677 96.7142 147.903 96.7291C141.507 96.8501 128.179 96.0011 127.536 95.9639C123.975 95.7498 124.38 86.7292 127.804 86.7758Z" fill="#3E373C"/>
<path d="M127.06 87.3938L127.67 87.5408C130.314 88.2204 129.811 96.0046 126.773 95.3455L126.134 95.1928C123.492 94.5077 124.021 86.7291 127.06 87.3938Z" fill="#F2F2F2"/>
<path d="M108.056 86.6489C108.216 86.6619 108.365 86.6788 108.484 86.6937C109.294 86.8166 110.11 86.9059 110.923 86.9859C111.955 87.0865 112.986 87.1722 114.02 87.2355C114.02 87.2355 117.87 86.3474 118.298 86.0421C119.011 85.5338 119.106 84.6176 118.268 83.3162C117.263 81.7467 117.157 80.0022 117.842 79.533C118.263 79.2426 118.626 79.4029 119.14 80.5348C120.083 82.6163 120.892 83.3126 122.284 84.223C123.545 85.0478 125.051 86.8836 125.5 87.5557C125.5 87.5557 125.773 87.9336 126.239 87.8889C127.978 87.8088 127.685 94.5951 125.917 94.5336C122.58 94.7328 122.707 94.6678 120.052 94.9266C118.473 95.083 110.743 94.2079 109.972 92.8245C109.866 92.6253 109.819 92.3963 109.687 92.2064C108.872 91.6813 108.678 91.4468 108.363 90.6314C107.06 90.1343 107.138 89.3188 107.131 89.0414C107.127 88.7621 107.31 88.4623 107.587 88.4343C107.3 88.2053 106.999 87.9467 106.896 87.5948C106.647 86.7291 107.427 86.6154 108.056 86.6489Z" fill="#FCBE9F"/>
<path d="M182.005 37.8677C181.819 36.2926 181.363 34.6281 179.92 33.9504C177.682 32.8892 172.623 31.178 165.113 36.8099C164.027 37.6254 163.452 38.9456 162.808 40.1372C162.067 41.5019 162.158 42.239 162.512 43.6242C163.177 46.2326 162.933 47.4187 167.334 51.1944C171.034 54.3632 175.973 56.5973 177.064 56.9771C178.468 57.4668 179.788 57.4426 181.017 56.8971C182.165 56.3907 183.212 55.0315 183.12 52.1383C183.051 49.9302 182.694 43.6616 182.005 37.8677Z" fill="#FCBE9F"/>
<path d="M168.122 44.7993C168.645 45.5254 170.32 45.5683 170.499 43.6711C170.715 41.3569 172.758 40.5489 174.361 40.2566C176.96 39.7744 179.207 38.9402 180.942 37.6016C181.3 37.3261 181.566 37.0206 181.789 36.6352C181.789 36.6352 182.558 35.4828 181.387 33.1425C180.769 31.9026 178.051 27.0974 172.413 26.5537C169.751 26.2968 167.01 26.8757 164.618 28.071C155.471 32.651 160.254 44.265 161.864 46.2981C163.013 47.741 165.117 49.6717 166.321 50.3233C165.497 48.6123 162.793 45.291 164.519 43.7829C165.171 43.2114 166.055 43.0679 166.824 43.4775C167.427 43.7958 167.729 44.2594 168.122 44.7993Z" fill="#774D47"/>
<path d="M233.436 83.2576C233.281 83.2241 233.132 83.2036 233.01 83.1906C232.194 83.1012 231.386 82.9765 230.576 82.8406C229.556 82.6712 228.538 82.4907 227.523 82.2822C227.523 82.2822 224.032 80.4315 223.697 80.0256C223.138 79.3498 223.282 78.4413 224.428 77.3949C225.808 76.1419 226.361 74.4868 225.823 73.8556C225.49 73.4647 225.099 73.526 224.309 74.4886C222.861 76.2536 221.898 76.7191 220.316 77.2386C218.886 77.7096 216.957 79.0947 216.35 79.6272C216.35 79.6272 215.989 79.9233 215.55 79.7595C213.893 79.2288 212.42 85.8605 214.144 86.2626C217.313 87.3145 217.208 87.2214 219.707 88.156C221.191 88.7145 228.886 89.869 229.988 88.7333C230.142 88.5676 230.249 88.3553 230.42 88.2119C231.347 87.9122 231.595 87.7354 232.108 87.0335C233.495 86.8864 233.633 86.0747 233.71 85.8103C233.786 85.5422 233.687 85.2088 233.427 85.1101C233.764 84.9593 234.123 84.79 234.313 84.4735C234.778 83.6972 234.056 83.3879 233.436 83.2576Z" fill="#FCBE9F"/>
<path d="M185.141 79.618L179.149 61.1824L177.325 62.1505L180.11 82.1034C181.908 84.5945 183.621 86.9759 185.12 89.0872C185.176 88.0092 185.191 84.2743 185.141 79.618Z" fill="#E03F3F"/>
<path d="M175.588 60.9782C175.264 61.8365 176.364 64.1133 177.582 64.0873C179.524 64.0426 180.965 62.449 179.898 58.9991C179.792 58.6603 178.896 59.4701 177.824 59.9821C176.839 60.4512 175.742 60.5649 175.588 60.9782Z" fill="#E03F3F"/>
<defs>
<linearGradient id="paint0_linear_1_10825" x1="112.547" y1="205.536" x2="120.252" y2="197.831" gradientUnits="userSpaceOnUse">
<stop stop-color="#B6B2AE"/>
<stop offset="1" stop-color="#BCB8B4"/>
</linearGradient>
<linearGradient id="paint1_linear_1_10825" x1="100.767" y1="198.597" x2="138.913" y2="198.597" gradientUnits="userSpaceOnUse">
<stop stop-color="#E1DCD8"/>
<stop offset="1" stop-color="#EFEAE5"/>
</linearGradient>
<linearGradient id="paint2_linear_1_10825" x1="-6.17704" y1="147.839" x2="48.1913" y2="93.4712" gradientUnits="userSpaceOnUse">
<stop stop-color="#B6B2AE"/>
<stop offset="1" stop-color="#BCB8B4"/>
</linearGradient>
<linearGradient id="paint3_linear_1_10825" x1="46.6118" y1="177.674" x2="48.5327" y2="175.754" gradientUnits="userSpaceOnUse">
<stop stop-color="#B6B2AE"/>
<stop offset="1" stop-color="#BCB8B4"/>
</linearGradient>
<linearGradient id="paint4_linear_1_10825" x1="68.4332" y1="190.814" x2="69.5918" y2="192.821" gradientUnits="userSpaceOnUse">
<stop stop-color="#EAE5E1"/>
<stop offset="1" stop-color="#C9C6C1"/>
</linearGradient>
<linearGradient id="paint5_linear_1_10825" x1="149.558" y1="71.8071" x2="178.894" y2="84.0872" gradientUnits="userSpaceOnUse">
<stop stop-color="#3B3439"/>
<stop offset="1" stop-color="#443C42"/>
</linearGradient>
</defs>
</svg>
