<svg width="18" height="17" viewBox="0 0 18 17" fill="none" xmlns="http://www.w3.org/2000/svg">
<path d="M8.96877 0.102539H8.96456C4.32088 0.102539 0.544678 3.8798 0.544678 8.52452C0.544678 10.3668 1.13843 12.0744 2.14801 13.4609L1.09842 16.5896L4.33562 15.5548C5.66735 16.437 7.25595 16.9465 8.96877 16.9465C13.6124 16.9465 17.3886 13.1682 17.3886 8.52452C17.3886 3.88085 13.6124 0.102539 8.96877 0.102539ZM13.8693 11.9954C13.6661 12.5692 12.8597 13.045 12.2165 13.184C11.7764 13.2777 11.2016 13.3524 9.26669 12.5502C6.79168 11.5249 5.19782 9.00984 5.0736 8.84666C4.95464 8.68349 4.07349 7.51494 4.07349 6.30638C4.07349 5.09783 4.68724 4.50934 4.93464 4.25668C5.13782 4.04929 5.47364 3.95454 5.79578 3.95454C5.90001 3.95454 5.9937 3.95981 6.07792 3.96402C6.32532 3.97455 6.44954 3.98928 6.61272 4.37985C6.8159 4.86938 7.31069 6.07794 7.36964 6.20216C7.42965 6.32639 7.48966 6.49482 7.40544 6.658C7.32648 6.82644 7.257 6.90119 7.13277 7.04436C7.00855 7.18753 6.89064 7.29702 6.76642 7.45072C6.65272 7.58442 6.52429 7.72759 6.66746 7.97499C6.81063 8.21712 7.30542 9.02458 8.03393 9.67307C8.97403 10.51 9.73622 10.7774 10.0089 10.8911C10.2121 10.9753 10.4542 10.9553 10.6026 10.7974C10.7911 10.5942 11.0237 10.2573 11.2606 9.92573C11.429 9.68781 11.6417 9.65833 11.8649 9.74255C12.0923 9.82151 13.2956 10.4163 13.543 10.5395C13.7904 10.6637 13.9535 10.7227 14.0135 10.8269C14.0725 10.9311 14.0725 11.4206 13.8693 11.9954Z" fill="white"/>
</svg>
